<?xml version="1.0" standalone="no"?>
<!DOCTYPE svg PUBLIC "-//W3C//DTD SVG 20010904//EN"
 "http://www.w3.org/TR/2001/REC-SVG-20010904/DTD/svg10.dtd">
<svg version="1.0" xmlns="http://www.w3.org/2000/svg"
 width="512.000000pt" height="512.000000pt" viewBox="0 0 512.000000 512.000000"
 preserveAspectRatio="xMidYMid meet">
<metadata>
Created by potrace 1.16, written by Peter Selinger 2001-2019
</metadata>
<g transform="translate(0.000000,512.000000) scale(0.100000,-0.100000)"
fill="#000000" stroke="none">
<path d="M2289 4945 c-273 -44 -546 -155 -769 -313 -122 -86 -326 -290 -412
-412 -330 -465 -420 -1069 -242 -1610 45 -138 148 -342 232 -460 131 -184 320
-361 521 -487 l92 -58 325 -675 c179 -371 337 -687 351 -703 88 -91 258 -91
346 1 15 15 173 331 351 702 l325 675 92 58 c136 85 242 172 354 289 286 298
452 672 484 1089 31 416 -86 838 -327 1179 -86 122 -290 326 -412 412 -191
136 -444 246 -685 298 -130 28 -492 37 -626 15z m359 -961 c47 -19 88 -58 115
-109 20 -37 22 -58 25 -252 l4 -213 187 0 c226 0 272 -10 336 -74 52 -52 69
-99 63 -177 -7 -93 -74 -173 -167 -199 -20 -5 -122 -10 -228 -10 l-191 0 -4
-212 c-3 -195 -5 -216 -25 -253 -44 -82 -114 -125 -203 -125 -89 0 -159 43
-203 125 -20 37 -22 58 -25 253 l-4 212 -191 0 c-106 0 -208 5 -228 10 -93 26
-160 106 -167 199 -6 78 11 125 63 177 64 64 110 74 336 74 l187 0 4 213 c3
194 5 215 25 252 26 50 67 89 113 109 46 20 131 20 178 0z"/>
</g>
</svg>
