<?xml version="1.0" standalone="no"?>
<!DOCTYPE svg PUBLIC "-//W3C//DTD SVG 1.1//EN" "http://www.w3.org/Graphics/SVG/1.1/DTD/svg11.dtd">
<svg xmlns="http://www.w3.org/2000/svg">
<defs >
<font id="Orbitron" horiz-adv-x="674" ><font-face
    font-family="Orbitron"
    units-per-em="1000"
    panose-1="0 0 0 0 0 0 0 0 0 0"
    ascent="1011"
    descent="-243"
    alphabetic="0" />
<glyph unicode=" " horiz-adv-x="272" />
<glyph unicode="!" horiz-adv-x="220" d="M58 203V720H140V203H58ZM58 0V82H140V0H58Z" />
<glyph unicode="&quot;" horiz-adv-x="372" d="M214 580V720H296V580H214ZM59 580V720H141V580H59Z" />
<glyph unicode="#" horiz-adv-x="797" d="M79 0L133 171H32V253H159L230 473H64V555H256L312 719H393L336 555H597L653 719H734L677 555H773V473H652L581 253H740V171H555L502 0H420L474 171H214L161 0H79ZM241 253H500L571 473H311L241 253Z" />
<glyph unicode="$" horiz-adv-x="788" d="M357 -114V0H154Q104 0 69 35T34 120V148H115V120Q115 104 126 93T154 81H357V319H154Q104 319 69 354T34 439V600Q34 650 69 685T154 720H357V835H439V720H640Q690 720 726 685T761 600L760 572H679V599Q679 615 668
627T640 639H439V402H640Q690 402 726 367T762 281V120Q762 70 727 35T642 0H439V-114H357ZM154 401H357V639H154Q138 639 127 628T115 600V439Q115 423 126 412T154 401ZM439 81L641 82Q656 82 667 93T679 121V281Q679 297 667 308T640 320H439V81Z" />
<glyph unicode="%" horiz-adv-x="966" d="M137 0V108L853 711L865 721V614L154 15L137 0ZM170 393Q119 393 84 428T48 514V598Q48 649 83 684T170 720H264Q315 720 350 685T386 598V514Q386 464 351 429T264 393H170ZM148 454H286Q302 454 313 454T325 493V619Q325
658 325 658T286 658H148Q109 658 109 658T109 619V493Q109 454 109 454T148 454ZM716 -1Q665 -1 630 34T595 120V205Q595 255 630 290T716 326H811Q861 326 896 291T932 205V120Q932 70 897 35T811 -1H716ZM695 60H832Q871 60 871 60T871 99V226Q871 265 871 265T832
265H695Q656 265 656 265T656 226V99Q656 60 656 60T695 60Z" />
<glyph unicode="&amp;" horiz-adv-x="938" d="M174 0Q124 0 89 35T53 121V336Q53 358 80 379T152 401Q95 444 95 497V597Q95 648 130 683T216 719H627Q669 719 703 688T749 617V562H666V596Q666 612 655 623T627 635H216Q200 635 189 624T177 596V457L698 194V333H780V167L914
88V16L777 93Q761 52 729 26T659 0H174ZM174 82H659Q669 82 680 92T699 118L189 375H174Q158 375 147 364T135 336V121Q135 105 146 94T174 82Z" />
<glyph unicode="&apos;" horiz-adv-x="224" d="M59 580V720H141V580H59Z" />
<glyph unicode="(" horiz-adv-x="277" d="M173 0Q123 0 88 35T52 121V598Q52 649 87 684T173 720H202V637H173Q157 637 146 626T134 598V121Q134 105 145 94T173 82H202V0H173Z" />
<glyph unicode=")" horiz-adv-x="278" d="M56 0V82H84Q100 82 111 93T123 121V598Q123 614 112 625T84 637H56V720H84Q134 720 170 685T206 598V121Q206 71 170 36T84 0H56Z" />
<glyph unicode="*" horiz-adv-x="491" d="M147 315L80 362L170 488L25 535L49 614L196 565V719H278V566L423 614L450 535L304 488L394 363L328 315L237 438L147 315Z" />
<glyph unicode="+" horiz-adv-x="433" d="M169 100V255H17V337H169V490H251V337H407V255H251V100H169Z" />
<glyph unicode="," horiz-adv-x="193" d="M54 -131V82H136V-16Q136 -56 113 -87T54 -131Z" />
<glyph unicode="-" horiz-adv-x="517" d="M59 255V337H449V255H59Z" />
<glyph unicode="." horiz-adv-x="214" d="M54 0V82H136V0H54Z" />
<glyph unicode="/" horiz-adv-x="521" d="M6 0V106L505 712L512 720V616L14 10L6 0Z" />
<glyph unicode="0" horiz-adv-x="834" d="M178 0Q127 0 92 35T57 121V598Q57 649 92 684T178 720H663Q713 720 748 685T784 598V121Q784 71 749 36T663 0H178ZM149 82H663Q679 82 690 93T702 121V538L149 82ZM139 181L691 637H178Q162 637 151 626T139 598V181Z" />
<glyph unicode="1" horiz-adv-x="391" d="M219 0V628L108 495H1L190 720H302V0H219Z" />
<glyph unicode="2" horiz-adv-x="830" d="M57 0V270Q57 321 92 356T178 391H663Q679 391 690 402T702 430V599Q702 615 691 626T663 638H178Q162 638 151 627T139 599V571H57V599Q57 650 92 685T178 721H663Q713 721 748 686T784 599V430Q784 380 749 345T663
309H178Q162 309 151 298T139 270V121Q139 105 150 94T178 82H784V0H57Z" />
<glyph unicode="3" horiz-adv-x="826" d="M175 0Q124 0 89 35T53 121V137H136V121Q136 105 147 94T175 82H660Q676 82 687 93T699 121V288Q699 304 688 315T660 327H191V409H628Q644 409 655 420T667 448V599Q667 615 656 626T628 638H175Q159 638 148 627T136
599V573H53V599Q53 650 88 685T175 721H628Q679 721 714 686T749 599V448Q749 434 746 421T737 396Q762 372 771 343T781 288V121Q781 71 746 36T660 0H175Z" />
<glyph unicode="4" horiz-adv-x="730" d="M508 0V186H6V278L498 721H590V268H702V186H590V0H508ZM111 268H508V610L111 268Z" />
<glyph unicode="5" horiz-adv-x="830" d="M178 0Q127 0 92 35T57 121V150H139V121Q139 105 150 94T178 82H663Q679 82 690 93T702 121V291Q702 307 691 318T663 330H57V721H784V638H178Q162 638 151 627T139 599V452Q139 436 150 424T178 412H663Q713 412 748
377T784 291V121Q784 71 749 36T663 0H178Z" />
<glyph unicode="6" horiz-adv-x="820" d="M178 0Q127 0 92 35T57 121V599Q57 650 92 685T178 721H658V638H178Q162 638 151 627T139 599V455Q139 439 150 427T178 415H663Q713 415 748 380T784 294V121Q784 71 749 36T663 0H178ZM178 82H663Q679 82 690 93T702
121V294Q702 310 691 321T663 333H139V121Q139 105 150 94T178 82Z" />
<glyph unicode="7" horiz-adv-x="660" d="M522 0V599Q522 615 511 626T483 638H3V721H483Q533 721 568 686T604 599V0H522Z" />
<glyph unicode="8" horiz-adv-x="834" d="M178 0Q127 0 92 35T57 121V291Q57 311 65 331T87 371Q73 390 65 411T57 452V599Q57 650 92 685T178 721H663Q705 721 739 690T784 619V452Q784 432 776 411T754 371Q768 352 776 332T784 291V121Q784 71 749 36T663 0H178ZM178
82H663Q679 82 690 93T702 121V291Q702 307 691 318T663 330H178Q162 330 151 319T139 291V121Q139 105 150 94T178 82ZM178 401H663Q679 401 690 412T702 440V598Q702 614 691 625T663 637H178Q162 637 151 626T139 598V440Q139 424 150 413T178 401Z" />
<glyph unicode="9" horiz-adv-x="828" d="M173 0Q133 0 102 23T58 82H658Q674 82 685 93T697 121V266Q697 282 686 293T658 305H173Q122 305 87 340T51 426V599Q51 650 86 685T173 721H658Q708 721 743 686T779 599V121Q779 71 744 36T658 0H173ZM173 387H697V599Q697
615 686 626T658 638H173Q157 638 146 627T134 599V426Q134 410 145 399T173 387Z" />
<glyph unicode=":" horiz-adv-x="214" d="M54 506V588H136V506H54ZM54 0V82H136V0H54Z" />
<glyph unicode=";" horiz-adv-x="193" d="M51 -131V82H133V-16Q133 -56 110 -87T51 -131ZM51 506V588H133V506H51Z" />
<glyph unicode="&lt;" horiz-adv-x="473" d="M407 16L5 248V345L407 576V481L87 296L407 111V16Z" />
<glyph unicode="=" horiz-adv-x="638" d="M59 351V433H576V351H59ZM59 151V233H576V151H59Z" />
<glyph unicode="&gt;" horiz-adv-x="475" d="M59 14V109L379 294L59 479V574L461 343V246L59 14Z" />
<glyph unicode="?" horiz-adv-x="678" d="M153 201V243Q153 294 188 329T274 364H548Q564 364 575 375T587 403V597Q587 613 576 624T548 636H31V720L548 719Q598 719 633 684T669 597V403Q669 353 634 318T548 282H274Q258 282 247 271T235 243V201H153ZM153
0V82H235V0H153Z" />
<glyph unicode="@" horiz-adv-x="832" d="M175 0Q124 0 89 35T54 121V598Q54 649 89 684T175 720H660Q710 720 745 685T781 598V192H370Q319 192 284 227T249 314V398Q249 448 284 483T370 519H465Q515 519 550 484T586 398V254H699V598Q699 614 688 625T660 637H175Q159
637 148 626T136 598V121Q136 105 147 94T175 82H781V0H175ZM349 254H525V419Q525 435 514 446T486 458H349Q333 458 322 447T310 419V293Q310 277 321 266T349 254Z" />
<glyph unicode="A" horiz-adv-x="836" d="M58 0V600Q58 650 93 685T178 720H658Q708 720 743 685T778 600V0H697V263H139V0H58ZM139 344H697V600Q697 616 686 627T658 639H178Q162 639 151 628T139 600V344Z" />
<glyph unicode="B" horiz-adv-x="832" d="M59 0V720H628Q678 720 713 685T748 600V447Q748 433 745 420T735 394Q757 361 768 337T779 288V120Q779 70 744 35T659 0H59ZM179 81H659Q675 81 686 92T698 120V288Q698 304 687 315T659 327H179Q163 327 152 316T140
288V120Q140 104 151 93T179 81ZM179 408H628Q644 408 655 419T666 447V600Q666 616 655 627T628 639H179Q163 639 152 628T140 600V447Q140 431 151 420T179 408Z" />
<glyph unicode="C" horiz-adv-x="822" d="M176 0Q126 0 91 35T56 120V600Q56 650 91 685T176 720H774V639H176Q160 639 149 628T137 600V120Q137 104 148 93T176 81H774V0H176Z" />
<glyph unicode="D" horiz-adv-x="834" d="M58 0V720H658Q708 720 743 685T778 600V120Q778 70 743 35T658 0H58ZM178 81H658Q674 81 685 92T697 120V600Q697 616 686 627T658 639H178Q162 639 151 628T139 600V120Q139 104 150 93T178 81Z" />
<glyph unicode="E" horiz-adv-x="766" d="M58 0V720H715V639H139V401H602V319H139V81H715V0H58Z" />
<glyph unicode="F" horiz-adv-x="723" d="M58 0V720H715V639H139V401H602V319H139V0H58Z" />
<glyph unicode="G" horiz-adv-x="830" d="M176 0Q126 0 91 35T56 120V600Q56 650 91 685T176 720H656Q706 720 741 685T776 600V571H695V600Q695 616 684 627T656 639H176Q160 639 149 628T137 600V120Q137 104 148 93T176 81H656Q672 81 683 92T695 120V298H517V380H776V120Q776
70 741 35T656 0H176Z" />
<glyph unicode="H" horiz-adv-x="851" d="M57 0V720H138V401H713V720H795V0H713V319H138V0H57Z" />
<glyph unicode="I" horiz-adv-x="214" d="M52 0V720H134V0H52Z" />
<glyph unicode="J" horiz-adv-x="780" d="M124 0Q74 0 39 35T4 120V177H85V120Q85 104 96 93T124 81H604Q620 81 631 92T643 120V720H724V120Q724 70 689 35T604 0H124Z" />
<glyph unicode="K" horiz-adv-x="797" d="M57 0V720H139V401H371L639 720H743V719L442 360L744 1V0H639L371 319H139V0H57Z" />
<glyph unicode="L" horiz-adv-x="779" d="M57 0V721H138V81H777V0H57Z" />
<glyph unicode="M" horiz-adv-x="928" d="M56 0V720H167L466 364L765 720H876V0H795V628L466 237L137 628V0H56Z" />
<glyph unicode="N" horiz-adv-x="832" d="M56 0V720H167L695 92V720H776V0H665L137 628V0H56Z" />
<glyph unicode="O" horiz-adv-x="828" d="M174 0Q124 0 89 35T54 120V600Q54 650 89 685T174 720H654Q704 720 739 685T774 600V120Q774 70 739 35T654 0H174ZM174 81H654Q670 81 681 92T693 120V600Q693 616 682 627T654 639H174Q158 639 147 628T135 600V120Q135
104 146 93T174 81Z" />
<glyph unicode="P" horiz-adv-x="791" d="M56 0V719H656Q706 719 741 684T776 599V388Q776 339 741 304T656 268H137V0H56ZM176 350H656Q672 350 683 361T695 388V599Q695 615 684 626T656 638H176Q160 638 149 627T137 599V388Q137 372 148 361T176 350Z" />
<glyph unicode="Q" horiz-adv-x="884" d="M174 0Q124 0 89 35T54 120V600Q54 650 89 685T174 720H654Q704 720 739 685T774 600V81H868V0H174ZM174 81H654Q670 81 681 92T693 120V600Q693 616 682 627T654 639H174Q158 639 147 628T135 600V120Q135 104 146 93T174 81Z" />
<glyph unicode="R" horiz-adv-x="825" d="M55 0V719H655Q705 719 740 684T775 599V388Q775 339 740 304T655 268H545L771 1V0H664L439 268L136 269V0H55ZM175 350H655Q671 350 682 361T693 388V599Q693 615 682 626T655 638H175Q159 638 148 627T136 599V388Q136
372 147 361T175 350Z" />
<glyph unicode="S" horiz-adv-x="822" d="M171 0Q121 0 86 35T51 120V148H132V120Q132 104 143 93T171 81H651Q667 81 678 92T690 120V281Q690 297 679 308T651 319H171Q121 319 86 354T51 439V600Q51 650 86 685T171 720H651Q701 720 736 685T771 600V572H690V600Q690
616 679 627T651 639H171Q155 639 144 628T132 600V439Q132 423 143 412T171 401H651Q701 401 736 366T771 281V120Q771 70 736 35T651 0H171Z" />
<glyph unicode="T" horiz-adv-x="759" d="M340 0V639H20V720H740V639H421V0H340Z" />
<glyph unicode="U" horiz-adv-x="828" d="M174 0Q124 0 89 35T54 120V720H135V120Q135 104 146 93T174 81H654Q670 81 681 92T693 120V720H774V120Q774 70 739 35T654 0H174Z" />
<glyph unicode="V" horiz-adv-x="1003" d="M452 0L35 720H130L499 79L867 720H962L546 0H452Z" />
<glyph unicode="W" horiz-adv-x="1179" d="M297 0L35 720H121L332 142L542 720H640L851 142L1060 720H1148L886 0H815L591 615L367 0H297Z" />
<glyph unicode="X" horiz-adv-x="812" d="M46 0V1L348 360L46 719V720H150L401 423L651 720H755V719L453 360L756 1V0H651L401 297L150 0H46Z" />
<glyph unicode="Y" horiz-adv-x="806" d="M348 0V271L17 720H110L389 368L665 720H760L429 271V0H348Z" />
<glyph unicode="Z" horiz-adv-x="821" d="M51 0V111L679 639H51V720H771V609L143 81H771V0H51Z" />
<glyph unicode="[" horiz-adv-x="275" d="M54 0V721H204V638H136V82H204V0H54Z" />
<glyph unicode="\" horiz-adv-x="520" d="M508 0L5 621V720H11L511 107L512 0H508Z" />
<glyph unicode="]" horiz-adv-x="276" d="M51 0V82H118V638H51V721H201V0H51Z" />
<glyph unicode="_" horiz-adv-x="828" d="M54 -82V0H782V-82H54Z" />
<glyph unicode="`" horiz-adv-x="315" d="M118 872L83 1011H164L198 872H118Z" />
<glyph unicode="a" horiz-adv-x="694" d="M173 0Q123 0 88 35T52 121V331H560V459Q560 475 549 486T521 498H52V580H521Q572 580 607 545T643 459V0H173ZM173 82H560V249H134V121Q134 105 145 94T173 82Z" />
<glyph unicode="b" horiz-adv-x="667" d="M54 0V770H136V580H524Q574 580 609 545T645 459V121Q645 71 610 36T524 0H54ZM176 82H524Q540 82 551 93T563 121V459Q563 475 552 486T524 498H176Q160 498 148 487T136 459V121Q136 105 148 94T176 82Z" />
<glyph unicode="c" horiz-adv-x="695" d="M172 0Q122 0 87 35T51 121V459Q51 509 86 544T172 580H640V498H172Q156 498 145 487T133 459V121Q133 105 144 94T172 82H642V0H172Z" />
<glyph unicode="d" horiz-adv-x="667" d="M145 0Q94 0 59 35T23 121V459Q23 509 58 544T145 580H532V770H614V0H145ZM145 82H493Q509 82 520 93T532 121V459Q532 475 521 486T493 498H145Q129 498 118 487T106 459V121Q106 105 117 94T145 82Z" />
<glyph unicode="e" horiz-adv-x="692" d="M172 0Q122 0 87 35T51 121V459Q51 509 86 544T172 580H520Q571 580 606 545T642 459V249H133V121Q133 105 144 94T172 82H642V0H172ZM133 331H559V459Q559 475 548 486T520 498H172Q156 498 145 487T133 459V331Z" />
<glyph unicode="f" horiz-adv-x="407" d="M53 0V649Q53 700 88 735T174 770H386V688H174Q158 688 147 677T135 649V580H386V498H135V0H53Z" />
<glyph unicode="g" horiz-adv-x="683" d="M148 -229V-146H510Q526 -146 537 -135T549 -107V0H162Q112 0 77 35T41 121V459Q41 509 76 544T162 580H510Q561 580 596 545T631 459V-107Q631 -158 596 -193T510 -229H148ZM162 82H510Q526 82 537 93T549 121V459Q549
475 538 486T510 498H162Q146 498 135 487T123 459V121Q123 105 134 94T162 82Z" />
<glyph unicode="h" horiz-adv-x="668" d="M54 0V770H136V580H524Q573 580 609 545T645 459V0H563V459Q563 475 552 486T524 498H176Q160 498 148 487T136 459V0H54Z" />
<glyph unicode="i" horiz-adv-x="208" d="M52 0V580H134V0H52ZM52 688V770H134V688H52Z" />
<glyph unicode="j" horiz-adv-x="239" d="M-187 -243V-160H58Q74 -160 85 -149T97 -121V580H180V-121Q180 -172 145 -207T58 -243H-187ZM97 688V770H180V688H97Z" />
<glyph unicode="k" horiz-adv-x="646" d="M54 0V770H136V331H296L524 580H632V579L369 290L631 1V0H524L296 249H136V0H54Z" />
<glyph unicode="l" horiz-adv-x="302" d="M173 0Q123 0 88 35T52 121V770H134V121Q134 105 145 94T173 82H271V0H173Z" />
<glyph unicode="m" horiz-adv-x="978" d="M54 0V580H820Q871 580 906 545T941 459V0H860V459Q860 475 848 486T820 498H579Q563 498 552 487T540 459V0H457V459Q457 475 446 486T418 498H176Q160 498 149 487T137 459V0H54Z" />
<glyph unicode="n" horiz-adv-x="696" d="M54 0V580H524Q574 580 609 545T645 459V0H563V459Q563 475 552 486T524 498H176Q160 498 148 487T136 459V0H54Z" />
<glyph unicode="o" horiz-adv-x="692" d="M172 0Q122 0 87 35T51 121V459Q51 509 86 544T172 580H520Q571 580 606 545T642 459V121Q642 71 607 36T520 0H172ZM172 82H520Q536 82 547 93T559 121V459Q559 475 548 486T520 498H172Q156 498 145 487T133 459V121Q133
105 144 94T172 82Z" />
<glyph unicode="p" horiz-adv-x="664" d="M54 -230V580H524Q574 580 609 545T645 459V121Q645 71 610 36T524 0H136V-230H54ZM176 82H524Q540 82 551 93T563 121V459Q563 475 552 486T524 498H176Q160 498 148 487T136 459V121Q136 105 148 94T176 82Z" />
<glyph unicode="q" horiz-adv-x="664" d="M529 -230V0H142Q91 0 56 35T20 121V459Q20 509 55 544T142 580H611V-230H529ZM142 82H490Q506 82 517 93T529 121V459Q529 475 518 486T490 498H142Q126 498 115 487T103 459V121Q103 105 114 94T142 82Z" />
<glyph unicode="r" horiz-adv-x="512" d="M52 0V459Q52 509 87 544T173 580H499V498H173Q157 498 146 487T134 459V0H52Z" />
<glyph unicode="s" horiz-adv-x="686" d="M169 0Q119 0 84 35T48 121V129H130V121Q130 105 141 94T169 82H517Q533 82 544 93T556 121V210Q556 226 545 237T517 249H169Q119 249 84 284T48 370V459Q48 509 83 544T169 580H517Q568 580 603 545T639 459V451H556V459Q556
475 545 486T517 498H169Q153 498 142 487T130 459V370Q130 354 141 343T169 331H517Q568 331 603 296T639 210V121Q639 71 604 36T517 0H169Z" />
<glyph unicode="t" horiz-adv-x="410" d="M174 0Q123 0 88 35T53 121V770H135V580H386V498H135V121Q135 105 146 94T174 82H386V0H174Z" />
<glyph unicode="u" horiz-adv-x="695" d="M174 0Q124 0 89 35T53 121V580H135V121Q135 105 146 94T174 82H522Q538 82 550 93T562 121V580H644V121Q644 71 609 36T522 0H174Z" />
<glyph unicode="v" horiz-adv-x="790" d="M341 0L21 580H117L389 80L661 580H757L436 0H341Z" />
<glyph unicode="w" horiz-adv-x="1071" d="M263 0L35 580H123L299 148L486 580H594L793 149L957 580H1046L827 0H756L540 479L335 0H263Z" />
<glyph unicode="x" horiz-adv-x="692" d="M46 0V1L288 295L46 579V580H154L342 360L531 580H638V579L396 295L639 1V0H531L342 232L154 0H46Z" />
<glyph unicode="y" horiz-adv-x="685" d="M149 -230V-147H511Q527 -147 538 -136T550 -108V0H163Q113 0 78 35T42 121V578H124V121Q124 105 135 94T163 82H511Q527 82 538 93T550 121V578H632V-108Q632 -159 597 -194T511 -230H149Z" />
<glyph unicode="z" horiz-adv-x="698" d="M54 0V112L555 498H54V580H645V468L144 82H645V0H54Z" />
<glyph unicode="{" horiz-adv-x="289" d="M191 0Q141 0 106 35T70 121V284L23 313V409L70 434V598Q70 649 105 684T191 720H220V637H191Q175 637 164 626T152 598V427L68 360L152 291V121Q152 105 163 94T191 82H220V0H191Z" />
<glyph unicode="|" horiz-adv-x="214" d="M54 -115V842H136V-115H54Z" />
<glyph unicode="}" horiz-adv-x="289" d="M51 0V82H80Q96 82 107 93T119 121V290L203 359L119 425V598Q119 614 108 625T80 637H51V720H80Q130 720 165 685T201 598V434L247 407V312L201 283V121Q201 71 166 36T80 0H51Z" />
<glyph unicode="~" horiz-adv-x="404" d="M297 245Q262 245 195 280T86 316Q47 316 24 308V345Q51 354 86 354Q126 354 198 319T296 283Q328 283 363 299V258Q328 245 297 245Z" />
<glyph unicode="&#xa0;" horiz-adv-x="272" />
<glyph unicode="&#xa1;" horiz-adv-x="210" d="M53 0V517H135V0H53ZM53 645V728H135V645H53Z" />
<glyph unicode="&#xa2;" horiz-adv-x="636" d="M287 -115V0H154Q103 0 68 35T33 121V469Q33 520 68 555T154 591H287V726H369V591H621V508H369V82H621V0H369V-115H287ZM154 82H287V508H154Q138 508 127 497T115 469V121Q115 105 126 94T154 82Z" />
<glyph unicode="&#xa3;" horiz-adv-x="734" d="M39 0V82H144V323H39V405H144V598Q144 649 179 684T266 720H569Q618 720 654 685T691 598V583H608V598Q608 614 597 625T569 637H266Q250 637 239 626T227 598V405H579V323H227V82H691V0H39Z" />
<glyph unicode="&#xa8;" horiz-adv-x="466" d="M275 872V954H358V872H275ZM95 872V954H178V872H95Z" />
<glyph unicode="&#xb0;" horiz-adv-x="439" d="M167 401Q116 401 81 436T45 522V606Q45 657 80 692T167 728H261Q312 728 347 693T383 606V522Q383 472 348 437T261 401H167ZM145 462H283Q299 462 310 473T322 501V627Q322 643 311 654T283 666H145Q129 666 118
655T106 627V501Q106 485 117 474T145 462Z" />
<glyph unicode="&#xb4;" horiz-adv-x="213" d="M33 872L68 1011H147L113 872H33Z" />
<glyph unicode="&#xb6;" horiz-adv-x="833" d="M481 0V271H177Q126 271 91 307T56 392V598Q56 648 91 684T177 720H783V0H701V271H563V0H481ZM177 353H481V637H177Q161 637 150 626T138 598V392Q138 376 149 365T177 353ZM563 353H701V637H563V353Z" />
<glyph unicode="&#xb8;" horiz-adv-x="314" d="M83 -171L118 -32H197L163 -171H83Z" />
<glyph unicode="&#xbf;" horiz-adv-x="675" d="M140 0Q89 0 54 35T19 121V315Q19 366 54 401T140 437H413Q429 437 440 448T452 476V524H534V476Q534 425 499 390T413 354H140Q124 354 113 343T101 315V121Q101 105 112 94T140 82H655L656 0H140ZM452 645V728H534V645H452Z"
/>
<glyph unicode="&#xc0;" horiz-adv-x="836" d="M379 865L344 1004H425L459 865H379ZM58 0V600Q58 650 93 685T178 720H658Q708 720 743 685T778 600V0H697V263H139V0H58ZM139 344H697V600Q697 616 686 627T658 639H178Q162 639 151 628T139 600V344Z" />
<glyph unicode="&#xc1;" horiz-adv-x="836" d="M344 864L379 1003H458L424 864H344ZM58 0V600Q58 650 93 685T178 720H658Q708 720 743 685T778 600V0H697V263H139V0H58ZM139 344H697V600Q697 616 686 627T658 639H178Q162 639 151 628T139 600V344Z" />
<glyph unicode="&#xc2;" horiz-adv-x="836" d="M341 864H296L367 981H426L497 864H451L397 949L341 864ZM58 0V600Q58 650 93 685T178 720H658Q708 720 743 685T778 600V0H697V263H139V0H58ZM139 344H697V600Q697 616 686 627T658 639H178Q162 639 151 628T139 600V344Z" />
<glyph unicode="&#xc3;" horiz-adv-x="836" d="M515 869Q474 869 409 905T304 941Q265 941 242 933V980Q269 989 304 989Q346 989 415 953T515 917Q545 917 581 934V883Q543 869 515 869ZM58 0V600Q58 650 93 685T178 720H658Q708 720 743 685T778 600V0H697V263H139V0H58ZM139
344H697V600Q697 616 686 627T658 639H178Q162 639 151 628T139 600V344Z" />
<glyph unicode="&#xc4;" horiz-adv-x="836" d="M459 855V937H541V855H459ZM279 855V937H362V855H279ZM58 0V600Q58 650 93 685T178 720H658Q708 720 743 685T778 600V0H697V263H139V0H58ZM139 344H697V600Q697 616 686 627T658 639H178Q162 639 151 628T139 600V344Z" />
<glyph unicode="&#xc5;" horiz-adv-x="836" d="M390 821Q368 821 352 836T336 874V928Q336 950 352 965T390 981H446Q468 981 484 966T500 928V874Q500 852 484 837T446 821H390ZM385 861H451Q455 861 457 864T460 871V931Q460 935 458 938T451 941H385Q381 941
379 938T376 931V871Q376 867 378 864T385 861ZM58 0V600Q58 650 93 685T178 720H658Q708 720 743 685T778 600V0H697V263H139V0H58ZM139 344H697V600Q697 616 686 627T658 639H178Q162 639 151 628T139 600V344Z" />
<glyph unicode="&#xc6;" horiz-adv-x="1375" d="M54 0V600Q54 650 89 685T174 720H1350V639H774V401H1237V319H774V81H1350V0H693V263H135V0H54ZM135 344H693V600Q693 616 682 627T654 639H174Q158 639 147 628T135 600V344Z" />
<glyph unicode="&#xc7;" horiz-adv-x="822" d="M337 -139L372 0H176Q126 0 91 35T56 120V600Q56 650 91 685T176 720H774V639H176Q160 639 149 628T137 600V120Q137 104 148 93T176 81H774V0H451L417 -139H337Z" />
<glyph unicode="&#xc8;" horiz-adv-x="766" d="M344 865L309 1004H390L424 865H344ZM58 0V720H715V639H139V401H602V319H139V81H715V0H58Z" />
<glyph unicode="&#xc9;" horiz-adv-x="766" d="M309 865L344 1004H423L389 865H309ZM58 0V720H715V639H139V401H602V319H139V81H715V0H58Z" />
<glyph unicode="&#xca;" horiz-adv-x="766" d="M250 867L324 984H399L473 867H421L361 952L301 867H250ZM58 0V720H715V639H139V401H602V319H139V81H715V0H58Z" />
<glyph unicode="&#xcb;" horiz-adv-x="766" d="M424 865V947H506V865H424ZM244 865V947H327V865H244ZM58 0V720H715V639H139V401H602V319H139V81H715V0H58Z" />
<glyph unicode="&#xcc;" horiz-adv-x="214" d="M56 864L21 1003H102L136 864H56ZM52 0V720H134V0H52Z" />
<glyph unicode="&#xcd;" horiz-adv-x="214" d="M58 865L93 1004H172L138 865H58ZM54 0V720H136L135 0H54Z" />
<glyph unicode="&#xce;" horiz-adv-x="214" d="M-15 864L56 981H115L186 864H144L86 949L26 864H-15ZM54 0V720H135V0H54Z" />
<glyph unicode="&#xcf;" horiz-adv-x="214" d="M148 865V947H230V865H148ZM-32 865V947H51V865H-32ZM54 0V720H135V0H54Z" />
<glyph unicode="&#xd1;" horiz-adv-x="832" d="M515 869Q474 869 409 905T304 941Q265 941 242 933V980Q269 989 304 989Q346 989 415 953T515 917Q545 917 581 934V883Q543 869 515 869ZM56 0V720H167L695 92V720H776V0H665L137 628V0H56Z" />
<glyph unicode="&#xd2;" horiz-adv-x="828" d="M375 865L340 1004H421L455 865H375ZM174 0Q124 0 89 35T54 120V600Q54 650 89 685T174 720H654Q704 720 739 685T774 600V120Q774 70 739 35T654 0H174ZM174 81H654Q670 81 681 92T693 120V600Q693 616 682 627T654
639H174Q158 639 147 628T135 600V120Q135 104 146 93T174 81Z" />
<glyph unicode="&#xd3;" horiz-adv-x="828" d="M340 865L375 1004H454L420 865H340ZM174 0Q124 0 89 35T54 120V600Q54 650 89 685T174 720H654Q704 720 739 685T774 600V120Q774 70 739 35T654 0H174ZM174 81H654Q670 81 681 92T693 120V600Q693 616 682 627T654
639H174Q158 639 147 628T135 600V120Q135 104 146 93T174 81Z" />
<glyph unicode="&#xd4;" horiz-adv-x="828" d="M292 864L363 981H422L493 864H451L393 949L333 864H292ZM174 0Q124 0 89 35T54 120V600Q54 650 89 685T174 720H654Q704 720 739 685T774 600V120Q774 70 739 35T654 0H174ZM174 81H654Q670 81 681 92T693 120V600Q693
616 682 627T654 639H174Q158 639 147 628T135 600V120Q135 104 146 93T174 81Z" />
<glyph unicode="&#xd5;" horiz-adv-x="828" d="M511 869Q476 869 409 905T300 941Q261 941 238 933V980Q265 989 300 989Q340 989 407 956T509 917Q541 917 577 934V883Q539 869 511 869ZM174 0Q124 0 89 35T54 120V600Q54 650 89 685T174 720H654Q704 720 739
685T774 600V120Q774 70 739 35T654 0H174ZM174 81H654Q670 81 681 92T693 120V600Q693 616 682 627T654 639H174Q158 639 147 628T135 600V120Q135 104 146 93T174 81Z" />
<glyph unicode="&#xd6;" horiz-adv-x="828" d="M453 865V947H536V865H453ZM276 865V947H359V865H276ZM174 0Q124 0 89 35T54 120V600Q54 650 89 685T174 720H654Q704 720 739 685T774 600V120Q774 70 739 35T654 0H174ZM174 81H654Q670 81 681 92T693 120V600Q693
616 682 627T654 639H174Q158 639 147 628T135 600V120Q135 104 146 93T174 81Z" />
<glyph unicode="&#xd7;" horiz-adv-x="546" d="M54 95L60 103L212 301L56 502L53 506H161L266 362L372 506H478L474 501L320 301L472 102L478 95H372L266 239L161 95H54Z" />
<glyph unicode="&#xd9;" horiz-adv-x="828" d="M375 865L340 1004H421L455 865H375ZM174 0Q124 0 89 35T54 120V720H135V120Q135 104 146 93T174 81H654Q670 81 681 92T693 120V720H774V120Q774 70 739 35T654 0H174Z" />
<glyph unicode="&#xda;" horiz-adv-x="828" d="M340 865L375 1004H454L420 865H340ZM174 0Q124 0 89 35T54 120V720H135V120Q135 104 146 93T174 81H654Q670 81 681 92T693 120V720H774V120Q774 70 739 35T654 0H174Z" />
<glyph unicode="&#xdb;" horiz-adv-x="828" d="M292 864L363 981H422L493 864H451L393 949L333 864H292ZM174 0Q124 0 89 35T54 120V720H135V120Q135 104 146 93T174 81H654Q670 81 681 92T693 120V720H774V120Q774 70 739 35T654 0H174Z" />
<glyph unicode="&#xdc;" horiz-adv-x="828" d="M455 865V947H537V865H455ZM275 865V947H358V865H275ZM174 0Q124 0 89 35T54 120V720H135V120Q135 104 146 93T174 81H654Q670 81 681 92T693 120V720H774V120Q774 70 739 35T654 0H174Z" />
<glyph unicode="&#xdd;" horiz-adv-x="806" d="M329 865L364 1004H443L409 865H329ZM348 0V271L17 720H110L389 368L665 720H760L429 271V0H348Z" />
<glyph unicode="&#xdf;" horiz-adv-x="833" d="M57 0V598Q57 649 92 684T178 720H663Q705 720 739 689T784 618V455Q784 435 776 414T754 374Q768 355 776 335T784 294V121Q784 71 749 36T663 0H284V82H663Q679 82 690 93T702 121V294Q702 310 691 321T663 333H284V404H663Q679
404 690 415T702 443V597Q702 613 691 624T663 636H178Q162 636 151 625T139 597V0H57Z" />
<glyph unicode="&#xe0;" horiz-adv-x="725" d="M323 763L288 902H369L403 763H323ZM173 0Q123 0 88 35T52 121V331H560V459Q560 475 549 486T521 498H52V580H521Q572 580 607 545T643 459V0H173ZM173 82H560V249H134V121Q134 105 145 94T173 82Z" />
<glyph unicode="&#xe1;" horiz-adv-x="725" d="M173 0Q123 0 88 35T52 121V331H560V459Q560 475 549 486T521 498H52V580H521Q572 580 607 545T643 459V0H173ZM173 82H560V249H134V121Q134 105 145 94T173 82ZM288 764L323 903H402L368 764H288Z" />
<glyph unicode="&#xe2;" horiz-adv-x="725" d="M240 763L311 880H370L441 763H399L341 848L281 763H240ZM173 0Q123 0 88 35T52 121V331H560V459Q560 475 549 486T521 498H52V580H521Q572 580 607 545T643 459V0H173ZM173 82H560V249H134V121Q134 105 145 94T173 82Z" />
<glyph unicode="&#xe3;" horiz-adv-x="725" d="M459 766Q424 766 357 802T248 838Q209 838 186 830V877Q213 886 248 886Q288 886 359 850T459 814Q489 814 525 831V780Q487 766 459 766ZM173 0Q123 0 88 35T52 121V331H560V459Q560 475 549 486T521 498H52V580H521Q572
580 607 545T643 459V0H173ZM173 82H560V249H134V121Q134 105 145 94T173 82Z" />
<glyph unicode="&#xe4;" horiz-adv-x="725" d="M404 763V845H487V763H404ZM223 763V845H306V763H223ZM173 0Q123 0 88 35T52 121V331H560V459Q560 475 549 486T521 498H52V580H521Q572 580 607 545T643 459V0H173ZM173 82H560V249H134V121Q134 105 145 94T173 82Z" />
<glyph unicode="&#xe5;" horiz-adv-x="725" d="M334 718Q312 718 296 733T280 771V825Q280 847 296 862T334 878H390Q412 878 428 863T444 825V771Q444 749 428 734T390 718H334ZM329 758H395Q399 758 401 761T404 768V828Q404 832 402 835T395 838H329Q325 838
323 835T320 828V768Q320 764 322 761T329 758ZM173 0Q123 0 88 35T52 121V331H560V459Q560 475 549 486T521 498H52V580H521Q572 580 607 545T643 459V0H173ZM173 82H560V249H134V121Q134 105 145 94T173 82Z" />
<glyph unicode="&#xe6;" horiz-adv-x="1178" d="M174 0Q123 0 88 35T53 121V331H561V459Q561 475 550 486T522 498H53V580H1030Q1081 580 1116 545T1151 459V249H643V117Q644 102 655 92T682 82H1151V0H174ZM174 82H561V249H135V121Q135 105 146 94T174 82ZM643
331H1069V459Q1069 475 1058 486T1030 498H682Q666 498 655 487T643 459V331Z" />
<glyph unicode="&#xe7;" horiz-adv-x="693" d="M272 -139L307 0H172Q122 0 87 35T51 121V459Q51 509 86 544T172 580H640V498H172Q156 498 145 487T133 459V121Q133 105 144 94T172 82H642V0H386L352 -139H272Z" />
<glyph unicode="&#xe8;" horiz-adv-x="638" d="M280 763L245 902H326L360 763H280ZM172 0Q122 0 87 35T51 121V459Q51 509 86 544T172 580H520Q571 580 606 545T642 459V249H133V121Q133 105 144 94T172 82H642V0H172ZM133 331H559V459Q559 475 548 486T520 498H172Q156
498 145 487T133 459V331Z" />
<glyph unicode="&#xe9;" horiz-adv-x="638" d="M245 764L280 903H359L325 764H245ZM172 0Q122 0 87 35T51 121V459Q51 509 86 544T172 580H520Q571 580 606 545T642 459V249H133V121Q133 105 144 94T172 82H642V0H172ZM133 331H559V459Q559 475 548 486T520 498H172Q156
498 145 487T133 459V331Z" />
<glyph unicode="&#xea;" horiz-adv-x="638" d="M206 763L277 880H336L407 763H365L307 848L247 763H206ZM172 0Q122 0 87 35T51 121V459Q51 509 86 544T172 580H520Q571 580 606 545T642 459V249H133V121Q133 105 144 94T172 82H642V0H172ZM133 331H559V459Q559
475 548 486T520 498H172Q156 498 145 487T133 459V331Z" />
<glyph unicode="&#xeb;" horiz-adv-x="638" d="M387 763V845H469V763H387ZM207 763V845H290V763H207ZM172 0Q122 0 87 35T51 121V459Q51 509 86 544T172 580H520Q571 580 606 545T642 459V249H133V121Q133 105 144 94T172 82H642V0H172ZM133 331H559V459Q559 475
548 486T520 498H172Q156 498 145 487T133 459V331Z" />
<glyph unicode="&#xec;" horiz-adv-x="214" d="M51 764L16 903H97L131 764H51ZM56 0V580H138V0H56Z" />
<glyph unicode="&#xed;" horiz-adv-x="214" d="M49 763L84 902H163L129 763H49ZM52 0V580H134V0H52Z" />
<glyph unicode="&#xee;" horiz-adv-x="214" d="M-15 763L56 880H115L186 763H144L86 848L26 763H-15ZM51 0V580H133V0H51Z" />
<glyph unicode="&#xef;" horiz-adv-x="214" d="M148 765V847H230V765H148ZM-32 765V847H51V765H-32ZM55 0V580H137V0H55Z" />
<glyph unicode="&#xf1;" horiz-adv-x="708" d="M445 765Q410 765 343 801T234 837Q195 837 172 829V876Q199 885 234 885Q274 885 345 849T445 813Q475 813 511 830V779Q473 765 445 765ZM54 0V580H524Q574 580 609 545T645 459V0H563V459Q563 475 552 486T524
498H176Q160 498 148 487T136 459V0H54Z" />
<glyph unicode="&#xf2;" horiz-adv-x="692" d="M307 764L272 903H353L387 764H307ZM172 0Q122 0 87 35T51 121V459Q51 509 86 544T172 580H520Q571 580 606 545T642 459V121Q642 71 607 36T520 0H172ZM172 82H520Q536 82 547 93T559 121V459Q559 475 548 486T520
498H172Q156 498 145 487T133 459V121Q133 105 144 94T172 82Z" />
<glyph unicode="&#xf3;" horiz-adv-x="692" d="M272 764L307 903H386L352 764H272ZM172 0Q122 0 87 35T51 121V459Q51 509 86 544T172 580H520Q571 580 606 545T642 459V121Q642 71 607 36T520 0H172ZM172 82H520Q536 82 547 93T559 121V459Q559 475 548 486T520
498H172Q156 498 145 487T133 459V121Q133 105 144 94T172 82Z" />
<glyph unicode="&#xf4;" horiz-adv-x="692" d="M224 763L295 880H354L425 763H383L325 848L265 763H224ZM172 0Q122 0 87 35T51 121V459Q51 509 86 544T172 580H520Q571 580 606 545T642 459V121Q642 71 607 36T520 0H172ZM172 82H520Q536 82 547 93T559 121V459Q559
475 548 486T520 498H172Q156 498 145 487T133 459V121Q133 105 144 94T172 82Z" />
<glyph unicode="&#xf5;" horiz-adv-x="692" d="M443 765Q408 765 341 801T232 837Q193 837 170 829V876Q197 885 232 885Q272 885 343 849T443 813Q473 813 509 830V779Q471 765 443 765ZM172 0Q122 0 87 35T51 121V459Q51 509 86 544T172 580H520Q571 580 606
545T642 459V121Q642 71 607 36T520 0H172ZM172 82H520Q536 82 547 93T559 121V459Q559 475 548 486T520 498H172Q156 498 145 487T133 459V121Q133 105 144 94T172 82Z" />
<glyph unicode="&#xf6;" horiz-adv-x="692" d="M387 765V847H469V765H387ZM207 765V847H290V765H207ZM172 0Q122 0 87 35T51 121V459Q51 509 86 544T172 580H520Q571 580 606 545T642 459V121Q642 71 607 36T520 0H172ZM172 82H520Q536 82 547 93T559 121V459Q559
475 548 486T520 498H172Q156 498 145 487T133 459V121Q133 105 144 94T172 82Z" />
<glyph unicode="&#xf7;" horiz-adv-x="508" d="M18 255V337H492V255H18ZM215 1V83H297V1H215ZM215 497V579H297V497H215Z" />
<glyph unicode="&#xf9;" horiz-adv-x="695" d="M308 764L273 903H354L388 764H308ZM174 0Q124 0 89 35T53 121V580H135V121Q135 105 146 94T174 82H522Q538 82 550 93T562 121V580H644V121Q644 71 609 36T522 0H174Z" />
<glyph unicode="&#xfa;" horiz-adv-x="695" d="M273 764L308 903H387L353 764H273ZM174 0Q124 0 89 35T53 121V580H135V121Q135 105 146 94T174 82H522Q538 82 550 93T562 121V580H644V121Q644 71 609 36T522 0H174Z" />
<glyph unicode="&#xfb;" horiz-adv-x="695" d="M225 764L296 881H355L426 764H384L326 849L266 764H225ZM174 0Q124 0 89 35T53 121V580H135V121Q135 105 146 94T174 82H522Q538 82 550 93T562 121V580H644V121Q644 71 609 36T522 0H174Z" />
<glyph unicode="&#xfc;" horiz-adv-x="695" d="M388 763V845H470V763H388ZM208 763V845H291V763H208ZM174 0Q124 0 89 35T53 121V580H135V121Q135 105 146 94T174 82H522Q538 82 550 93T562 121V580H644V121Q644 71 609 36T522 0H174Z" />
<glyph unicode="&#xfd;" horiz-adv-x="685" d="M269 764L304 903H383L349 764H269ZM149 -230V-147H511Q527 -147 538 -136T550 -108V0H163Q113 0 78 35T42 121V578H124V121Q124 105 135 94T163 82H511Q527 82 538 93T550 121V578H632V-108Q632 -159 597 -194T511
-230H149Z" />
<glyph unicode="&#xff;" horiz-adv-x="685" d="M383 765V847H466V765H383ZM203 765L204 847H286V765H203ZM149 -230V-147H511Q527 -147 538 -136T550 -108V0H163Q113 0 78 35T42 121V578H124V121Q124 105 135 94T163 82H511Q527 82 538 93T550 121V578H632V-108Q632
-159 597 -194T511 -230H149Z" />
<glyph unicode="&#x2013;" horiz-adv-x="708" d="M54 254V336H655V254H54Z" />
<glyph unicode="&#x2014;" horiz-adv-x="822" d="M54 254V336H775V254H54Z" />
<glyph unicode="&#x2018;" horiz-adv-x="168" d="M33 503V601Q33 641 56 673T116 716V503H33Z" />
<glyph unicode="&#x2019;" horiz-adv-x="166" d="M54 508V721H136V623Q136 583 113 551T54 508Z" />
<glyph unicode="&#x201c;" horiz-adv-x="363" d="M47 502V600Q47 640 70 672T130 715V502H47ZM228 502V600Q228 640 250 672T310 715V502H228Z" />
<glyph unicode="&#x201d;" horiz-adv-x="363" d="M54 508V721H137V623Q137 583 114 551T54 508ZM235 508V721H317V623Q317 583 294 551T235 508Z" />
<glyph unicode="&#x2022;" horiz-adv-x="371" d="M172 325Q159 325 152 332T144 353V374Q144 387 151 395T172 403H197Q211 403 218 395T226 374V353Q226 340 219 333T197 325H172Z" />
</font>
</defs>
</svg>
