<svg xmlns="http://www.w3.org/2000/svg" id="ae-d-route-4" width="90" height="72" viewBox="0 0 30 24"><g><path d="M0,0 H30 V24 H0 Z" fill="none"/><path d="M28.41,1a.58.58,0,0,1,.59.57V6.09a.58.58,0,0,1-.59.57H25.5a.06.06,0,0,0,0,.11A4.77,4.77,0,0,1,29,11.43v5.5a.57.57,0,0,1-.59.57H1.6A.57.57,0,0,1,1,16.93v-5.5A4.76,4.76,0,0,1,4.51,6.77a.06.06,0,0,0,0-.11H1.6A.58.58,0,0,1,1,6.09V1.57A.58.58,0,0,1,1.6,1H4.41A.58.58,0,0,1,5,1.57v1.7a.58.58,0,0,0,.59.57h.84A.59.59,0,0,0,7,3.27V1.57A.58.58,0,0,1,7.6,1h2.81a.58.58,0,0,1,.59.57v1.7a.58.58,0,0,0,.59.57h.82A.58.58,0,0,0,13,3.27V1.57A.58.58,0,0,1,13.59,1h2.82a.58.58,0,0,1,.59.57v1.7a.58.58,0,0,0,.59.57h.82A.58.58,0,0,0,19,3.27V1.57A.58.58,0,0,1,19.59,1h2.82a.58.58,0,0,1,.59.57v1.7a.58.58,0,0,0,.59.57h.82A.58.58,0,0,0,25,3.27V1.57A.58.58,0,0,1,25.59,1h2.82m0-1H25.59A1.58,1.58,0,0,0,24,1.57V2.84h0V1.57A1.58,1.58,0,0,0,22.41,0H19.59A1.58,1.58,0,0,0,18,1.57V2.84h0V1.57A1.58,1.58,0,0,0,16.41,0H13.59A1.58,1.58,0,0,0,12,1.57V2.84h0V1.57A1.58,1.58,0,0,0,10.41,0H7.6A1.57,1.57,0,0,0,6,1.57V2.84H6V1.57A1.58,1.58,0,0,0,4.41,0H1.6A1.57,1.57,0,0,0,0,1.57V6.09A1.56,1.56,0,0,0,1.38,7.64,5.63,5.63,0,0,0,0,11.43v5.5A1.57,1.57,0,0,0,1.6,18.5H28.41A1.58,1.58,0,0,0,30,16.93v-5.5a5.63,5.63,0,0,0-1.37-3.79A1.57,1.57,0,0,0,30,6.09V1.57A1.58,1.58,0,0,0,28.41,0Z" fill="hsl(50, 100%, 70%)"/><path d="M25.49,6.77a.06.06,0,0,1,0-.11h2.91A.58.58,0,0,0,29,6.09V1.57A.58.58,0,0,0,28.41,1H25.59a.58.58,0,0,0-.59.57v1.7a.58.58,0,0,1-.59.57h-.82A.58.58,0,0,1,23,3.27V1.57A.58.58,0,0,0,22.41,1H19.59a.58.58,0,0,0-.59.57v1.7a.58.58,0,0,1-.59.57h-.82A.58.58,0,0,1,17,3.27V1.57A.58.58,0,0,0,16.41,1H13.59a.58.58,0,0,0-.59.57v1.7a.58.58,0,0,1-.59.57h-.82A.58.58,0,0,1,11,3.27V1.57A.58.58,0,0,0,10.41,1H7.6A.58.58,0,0,0,7,1.57v1.7a.59.59,0,0,1-.59.57H5.59A.58.58,0,0,1,5,3.27V1.57A.58.58,0,0,0,4.41,1H1.6A.58.58,0,0,0,1,1.57V6.09a.58.58,0,0,0,.58.57H4.5a.06.06,0,0,1,0,.11A4.76,4.76,0,0,0,1,11.43v5.5a.57.57,0,0,0,.58.57H28.41a.57.57,0,0,0,.59-.57v-5.5A4.77,4.77,0,0,0,25.49,6.77Z" fill="hsl(140, 74%, 37%)"/></g></svg>