<svg xmlns="http://www.w3.org/2000/svg" id="ae-d-route-3" width="72" height="72" viewBox="0 0 24 24"><g><path d="M0,0 H24 V24 H0 Z" fill="none"/><path d="M22.42,1a.58.58,0,0,1,.58.57V6.13a.57.57,0,0,1-.58.57h-2.9a.06.06,0,0,0,0,.11A4.87,4.87,0,0,1,23,11.5C23,14,23,17.43,23,17.43a.58.58,0,0,1-.58.57H1.58A.58.58,0,0,1,1,17.43V11.5A5.07,5.07,0,0,1,4.45,6.81a.06.06,0,0,0,0-.11H1.58A.57.57,0,0,1,1,6.13V1.57A.58.58,0,0,1,1.58,1H4.42A.58.58,0,0,1,5,1.57V3.29a.58.58,0,0,0,.58.57h.84A.58.58,0,0,0,7,3.29V1.57A.58.58,0,0,1,7.58,1h2.84a.58.58,0,0,1,.58.57V3.29a.58.58,0,0,0,.58.57h.84A.58.58,0,0,0,13,3.29V1.57A.58.58,0,0,1,13.58,1h2.84a.58.58,0,0,1,.58.57V3.29a.58.58,0,0,0,.58.57h.84A.58.58,0,0,0,19,3.29V1.57A.58.58,0,0,1,19.58,1h2.84m0-1H19.58A1.58,1.58,0,0,0,18,1.57,1.58,1.58,0,0,0,16.42,0H13.58A1.58,1.58,0,0,0,12,1.57,1.58,1.58,0,0,0,10.42,0H7.58A1.58,1.58,0,0,0,6,1.57,1.58,1.58,0,0,0,4.42,0H1.58A1.58,1.58,0,0,0,0,1.57V6.13A1.58,1.58,0,0,0,1.43,7.7,5.85,5.85,0,0,0,0,11.5v5.93A1.58,1.58,0,0,0,1.58,19H22.37A1.58,1.58,0,0,0,24,17.43S24,14,24,11.5a5.73,5.73,0,0,0-1.38-3.81A1.57,1.57,0,0,0,24,6.13V1.57A1.58,1.58,0,0,0,22.42,0Z" fill="hsl(50, 100%, 70%)"/><path d="M19.51,6.81a.06.06,0,0,1,0-.11h2.9A.57.57,0,0,0,23,6.13V1.57A.58.58,0,0,0,22.42,1H19.58a.58.58,0,0,0-.58.57V3.29a.58.58,0,0,1-.58.57h-.84A.58.58,0,0,1,17,3.29V1.57A.58.58,0,0,0,16.42,1H13.58a.58.58,0,0,0-.58.57V3.29a.58.58,0,0,1-.58.57h-.84A.58.58,0,0,1,11,3.29V1.57A.58.58,0,0,0,10.42,1H7.58A.58.58,0,0,0,7,1.57V3.29a.58.58,0,0,1-.58.57H5.58A.58.58,0,0,1,5,3.29V1.57A.58.58,0,0,0,4.42,1H1.58A.58.58,0,0,0,1,1.57V6.13a.57.57,0,0,0,.58.57H4.43a.06.06,0,0,1,0,.11A5.07,5.07,0,0,0,1,11.5v5.93a.58.58,0,0,0,.58.57H22.37a.58.58,0,0,0,.58-.57S23,14,23,11.5A4.87,4.87,0,0,0,19.51,6.81Z" fill="hsl(140, 74%, 37%)"/></g></svg>