<svg xmlns="http://www.w3.org/2000/svg" id="ae-f-route-3" width="72" height="81" viewBox="0 0 24 27"><g><path d="M0,0 H24 V27 H0 Z" fill="none"/><path d="M22.39,1a.6.6,0,0,1,.61.6V17.88a.6.6,0,0,1-.61.6H1.61a.6.6,0,0,1-.61-.6V5.4a.6.6,0,0,1,.61-.6H4a.6.6,0,0,1,.61.6V7.2a.61.61,0,0,0,.61.6H6.48a.61.61,0,0,0,.61-.6V5.4a.6.6,0,0,1,.61-.6h2.43a.6.6,0,0,1,.61.6V7.2a.6.6,0,0,0,.61.6h1.3a.6.6,0,0,0,.61-.6V1.6a.6.6,0,0,1,.61-.6H16.3a.6.6,0,0,1,.61.6V3.4a.61.61,0,0,0,.61.6h1.22a.61.61,0,0,0,.61-.6V1.6A.6.6,0,0,1,20,1h2.43m0-1H20a1.61,1.61,0,0,0-1.61,1.6V3h-.44V1.6A1.61,1.61,0,0,0,16.3,0H13.87a1.61,1.61,0,0,0-1.61,1.6V6.8h-.52V5.4a1.61,1.61,0,0,0-1.61-1.6H7.7A1.61,1.61,0,0,0,6.09,5.4V6.8H5.65V5.4A1.61,1.61,0,0,0,4,3.8H1.61A1.61,1.61,0,0,0,0,5.4V17.88a1.61,1.61,0,0,0,1.61,1.6H22.39A1.61,1.61,0,0,0,24,17.88V1.6A1.61,1.61,0,0,0,22.39,0Z" fill="hsl(50, 100%, 70%)"/><path d="M19.35,1.6V3.4a.61.61,0,0,1-.61.6H17.52a.61.61,0,0,1-.61-.6V1.6A.6.6,0,0,0,16.3,1H13.87a.6.6,0,0,0-.61.6V7.2a.6.6,0,0,1-.61.6h-1.3a.6.6,0,0,1-.61-.6V5.4a.6.6,0,0,0-.61-.6H7.7a.6.6,0,0,0-.61.6V7.2a.61.61,0,0,1-.61.6H5.26a.61.61,0,0,1-.61-.6V5.4A.6.6,0,0,0,4,4.8H1.61A.6.6,0,0,0,1,5.4V17.88a.6.6,0,0,0,.61.6H22.39a.6.6,0,0,0,.61-.6V1.6a.6.6,0,0,0-.61-.6H20A.6.6,0,0,0,19.35,1.6Z" fill="hsl(140, 74%, 37%)"/></g></svg>