<svg xmlns="http://www.w3.org/2000/svg" id="ae-national-4" width="96" height="75" viewBox="0 0 32 25"><g><path d="M0,0 H32 V25 H0 Z" fill="none"/><path d="M16.05,1a2.24,2.24,0,0,1,1.45.5,3.36,3.36,0,0,1,.88,2.35c0,1.22.94,1.82,2.16,1.82h.34l2.25-.16c.37,0,1.47,0,2.7,0,1.8,0,3.84.08,4.23.43A2.87,2.87,0,0,1,31,8v2.08a.06.06,0,0,1-.06.06h-.26a.49.49,0,0,0-.5.64L31,13a.07.07,0,0,1-.06.09h-.23a.49.49,0,0,0-.5.64L31,15.87a.07.07,0,0,1-.06.09h-.46c-.37,0-.51.29-.51.65v2.27L18.82,20.21a9.12,9.12,0,0,1-4.64,0L2.06,18.87V16.6c0-.44-.12-.6-.5-.64H1.09A.07.07,0,0,1,1,15.87l.79-2.19a.49.49,0,0,0-.5-.64H1.09A.06.06,0,0,1,1,13l.79-2.2a.49.49,0,0,0-.5-.64H1.06A.06.06,0,0,1,1,10.06V8a2.87,2.87,0,0,1,.94-2.1c.39-.35,2.79-.43,4.87-.43,1.43,0,2.7,0,3.07,0l2.24.16h.32a2.11,2.11,0,0,0,2-1c.15-.32,0-1.12-.43-1.19l-1.78-.28c-.11,0-.1-.12,0-.22.38-.77,2-1.48,2.61-1.77A3.87,3.87,0,0,1,16.05,1m0-1h0a4.75,4.75,0,0,0-1.56.29l-.09,0-.09,0a6.17,6.17,0,0,0-3,2.19,1.17,1.17,0,0,0,0,1.08,1.11,1.11,0,0,0,.8.57l1.34.21a1.8,1.8,0,0,1-1,.25h-.25L9.92,4.51c-.38,0-1.68-.06-3.11-.06-4.79,0-5.22.4-5.54.7A3.85,3.85,0,0,0,0,8v2.08a1.06,1.06,0,0,0,.66,1L.09,12.61a1,1,0,0,0,.13,1A1,1,0,0,0,.66,14L.09,15.53a1,1,0,0,0,.13,1,1,1,0,0,0,.83.46v1.91a1,1,0,0,0,.89,1L14,21.19a10,10,0,0,0,5,0l11-1.33a1,1,0,0,0,.88-1V17a1.07,1.07,0,0,0,1-1.43L31.34,14a1.08,1.08,0,0,0,.57-1.34L31.34,11a1.06,1.06,0,0,0,.66-1V8a3.85,3.85,0,0,0-1.27-2.83c-.38-.35-1.07-.7-4.9-.7-1.27,0-2.42,0-2.74.06l-2.28.15h-.27c-.76,0-1.15-.27-1.16-.8A4.32,4.32,0,0,0,18.21.79L18.13.72A3.21,3.21,0,0,0,16.05,0Z" fill="hsl(0, 0%, 100%)"/><path d="M30.68,10.11h.26a.06.06,0,0,0,.06-.06V8a2.85,2.85,0,0,0-.94-2.09c-.65-.59-6-.41-6.93-.38l-2.25.15c-1.37.13-2.5-.47-2.5-1.8A3.35,3.35,0,0,0,17.5,1.5a2.64,2.64,0,0,0-2.68-.27c-.62.29-2.23,1-2.61,1.77-.05.1-.06.2,0,.22L14,3.5c.44.06.58.86.43,1.19a2.28,2.28,0,0,1-2.35,1L9.88,5.5c-.9,0-7.29-.21-7.94.38A2.85,2.85,0,0,0,1,8v2.08a.06.06,0,0,0,.06.06h.26a.5.5,0,0,1,.5.65L1,13a.06.06,0,0,0,.06.08h.23a.5.5,0,0,1,.5.65L1,15.87a.06.06,0,0,0,.06.08h.46c.38,0,.5.21.5.65v2.27L14.18,20.2a9.12,9.12,0,0,0,4.64,0l11.12-1.33V16.6c0-.37.14-.65.51-.65h.46a.06.06,0,0,0,.06-.08l-.79-2.19a.5.5,0,0,1,.5-.65h.23A.06.06,0,0,0,31,13l-.79-2.19A.5.5,0,0,1,30.68,10.11Z" fill="hsl(230, 57%, 54%)"/></g></svg>