<svg xmlns="http://www.w3.org/2000/svg" id="ae-national-3" width="78" height="75" viewBox="0 0 26 25"><g><path d="M0,0 H26 V25 H0 Z" fill="none"/><path d="M13.05,1a2.24,2.24,0,0,1,1.45.5,3.35,3.35,0,0,1,.88,2.35c0,1.22.94,1.82,2.15,1.82h.35l2.25-.16c.36,0,1,0,1.62,0a4.09,4.09,0,0,1,2.3.43A2.84,2.84,0,0,1,25,8v2.07a.07.07,0,0,1-.07.07h-.25a.5.5,0,0,0-.51.64L25,13a.07.07,0,0,1-.06.09h-.23a.5.5,0,0,0-.51.64l.8,2.19a.07.07,0,0,1-.06.09h-.46a.62.62,0,0,0-.51.64v2.27l-8.12,1.34a9.12,9.12,0,0,1-4.64,0L2.06,18.87V16.6c0-.36-.17-.64-.54-.64H1.09A.07.07,0,0,1,1,15.87l.79-2.19a.49.49,0,0,0-.5-.64H1.09A.07.07,0,0,1,1,13l.79-2.19a.49.49,0,0,0-.5-.64H1.06A.07.07,0,0,1,1,10.05V8a2.87,2.87,0,0,1,.94-2.1,6.23,6.23,0,0,1,3-.43c.83,0,1.61,0,2,0l2.24.16h.31a2.11,2.11,0,0,0,2-1c.15-.32,0-1.13-.43-1.19L9.26,3.22c-.11,0-.1-.12,0-.22.38-.77,2-1.48,2.61-1.77A3.87,3.87,0,0,1,13.05,1m0-1h0a4.7,4.7,0,0,0-1.56.29l-.09,0-.1,0a6.19,6.19,0,0,0-3,2.19,1.19,1.19,0,0,0,0,1.07,1.11,1.11,0,0,0,.81.58l1.34.21a1.81,1.81,0,0,1-1,.25H9.19L6.91,4.5H6.74c-.42,0-1.11,0-1.84,0-2.53,0-3.24.33-3.63.69A3.89,3.89,0,0,0,0,8v2.07a1.06,1.06,0,0,0,.66,1L.09,12.61a1,1,0,0,0,.13,1A1,1,0,0,0,.66,14L.09,15.53a1,1,0,0,0,.13,1,1,1,0,0,0,.84.46v1.91a1,1,0,0,0,.85,1L11,21.19a10.18,10.18,0,0,0,2.52.32A10.32,10.32,0,0,0,16,21.19l8.07-1.33a1,1,0,0,0,.84-1V17a1.08,1.08,0,0,0,.84-.46,1,1,0,0,0,.13-1L25.33,14a1,1,0,0,0,.45-.37,1,1,0,0,0,.13-1L25.34,11a1.06,1.06,0,0,0,.66-1V8a3.89,3.89,0,0,0-1.27-2.84c-.53-.48-1.42-.69-3-.69-.51,0-1,0-1.36,0h-.3l-2.28.16h-.28c-.75,0-1.14-.27-1.15-.8A4.32,4.32,0,0,0,15.21.79L15.13.72A3.21,3.21,0,0,0,13.05,0Z" fill="hsl(0, 0%, 100%)"/><path d="M24.68,10.11h.25a.07.07,0,0,0,.07-.06V8a2.81,2.81,0,0,0-.95-2.09c-.64-.59-3-.42-3.92-.38l-2.25.15c-1.38.12-2.5-.48-2.5-1.8a3.38,3.38,0,0,0-.88-2.36,2.67,2.67,0,0,0-2.68-.26c-.62.28-2.23,1-2.61,1.77-.05.1-.06.2,0,.22L11,3.5c.44.06.58.86.43,1.18a2.29,2.29,0,0,1-2.35,1L6.88,5.5c-.9,0-4.29-.21-4.94.38A2.83,2.83,0,0,0,1,8v2.08a.06.06,0,0,0,.06.06h.26a.5.5,0,0,1,.5.65L1,13a.06.06,0,0,0,.06.08h.23a.5.5,0,0,1,.5.65L1,15.87a.06.06,0,0,0,.06.08h.43c.37,0,.54.28.54.65v2.26l9.12,1.34a9.12,9.12,0,0,0,4.64,0l8.12-1.34V16.6a.62.62,0,0,1,.51-.65h.46a.06.06,0,0,0,.06-.08l-.8-2.19a.51.51,0,0,1,.51-.65h.23A.06.06,0,0,0,25,13l-.8-2.19A.51.51,0,0,1,24.68,10.11Z" fill="hsl(230, 57%, 54%)"/></g></svg>