<svg xmlns="http://www.w3.org/2000/svg" id="ae-s-route-4" width="114" height="78" viewBox="0 0 38 26"><g><path d="M0,0 H38 V26 H0 Z" fill="none"/><path d="M19,1.5a.488.488,0,0,1,.2987.1014L25.5,5.4076a.489.489,0,0,0,.2987.1015h6.2a.4769.4769,0,0,1,.4821.4716V9.0532a.4682.4682,0,0,0,.1834.37l4.152,3.2065a.4652.4652,0,0,1,0,.74l-4.152,3.2065a.4682.4682,0,0,0-.1834.37v3.0725a.4769.4769,0,0,1-.4821.4716h-6.2a.4887.4887,0,0,0-.2987.1014l-6.2014,3.8063a.4906.4906,0,0,1-.5974,0L12.5,20.5923a.4887.4887,0,0,0-.2987-.1014h-6.2a.4769.4769,0,0,1-.4821-.4716V16.9468a.4682.4682,0,0,0-.1834-.37L1.1834,13.37a.4652.4652,0,0,1,0-.74l4.152-3.2065a.4682.4682,0,0,0,.1834-.37V5.9807a.4769.4769,0,0,1,.4821-.4716h6.2A.489.489,0,0,0,12.5,5.4076l6.2013-3.8062A.488.488,0,0,1,19,1.5m0-1a1.4977,1.4977,0,0,0-.8547.2693l-6.093,3.74H6.0009A1.4785,1.4785,0,0,0,4.5188,5.9807v2.81L.5722,11.8384a1.4652,1.4652,0,0,0,0,2.3232L4.5188,17.21v2.81a1.4786,1.4786,0,0,0,1.4821,1.4716h6.0513l6.0932,3.74a1.4906,1.4906,0,0,0,1.7092,0l6.0932-3.74h6.0513a1.4786,1.4786,0,0,0,1.4821-1.4716V17.21l3.9466-3.0479a1.4652,1.4652,0,0,0,0-2.3232L33.4812,8.7905v-2.81a1.4785,1.4785,0,0,0-1.4821-1.4716H25.9477l-6.093-3.74A1.4977,1.4977,0,0,0,19,.5Z" fill="hsl(0, 0%, 100%)"/><path d="M32.6646,16.5766l4.152-3.2064a.4654.4654,0,0,0,0-.74l-4.152-3.2064a.4682.4682,0,0,1-.1834-.37V5.9807a.4769.4769,0,0,0-.4821-.4716h-6.2A.489.489,0,0,1,25.5,5.4076L19.2987,1.6015a.49.49,0,0,0-.5974,0L12.5,5.4076a.489.489,0,0,1-.2987.1015h-6.2a.4769.4769,0,0,0-.4821.4716V9.0532a.4682.4682,0,0,1-.1834.37L1.1834,12.63a.4654.4654,0,0,0,0,.74l4.152,3.2064a.4682.4682,0,0,1,.1834.37v3.0725a.4769.4769,0,0,0,.4821.4716h6.2a.4887.4887,0,0,1,.2987.1014l6.2014,3.8062a.49.49,0,0,0,.5974,0L25.5,20.5923a.4887.4887,0,0,1,.2987-.1014h6.2a.4769.4769,0,0,0,.4821-.4716V16.9468A.4682.4682,0,0,1,32.6646,16.5766Z" fill="hsl(140, 74%, 37%)"/></g></svg>