<svg xmlns="http://www.w3.org/2000/svg" id="airfield-15" width="21" height="21" viewBox="0 0 21 21"><g><path d="M0,0 H21 V21 H0 Z" fill="none"/><path d="M9.818 3.682H7.773C7.09 3.682 7.09 3 7.773 3h5.454c0.682 0 0.682 0.682 0 0.682H11.182S12 4.272 12 5.636V7h6v2L12 11l-0.5 5 2.5 1.318V18H7v-0.682L9.5 16 9 11 3 9V7h6V5.636c0-1.363 0.818-1.954 0.818-1.954z" fill="hsl(244, 54%, 36%)" stroke="hsl(244, 20%, 100%)" stroke-linejoin="round" stroke-miterlimit="4px" stroke-width="2"/><path d="M9.818 3.682H7.773C7.09 3.682 7.09 3 7.773 3h5.454c0.682 0 0.682 0.682 0 0.682H11.182S12 4.272 12 5.636V7h6v2L12 11l-0.5 5 2.5 1.318V18H7v-0.682L9.5 16 9 11 3 9V7h6V5.636c0-1.363 0.818-1.954 0.818-1.954z" fill="hsl(244, 54%, 36%)"/></g></svg>