<svg xmlns="http://www.w3.org/2000/svg" id="airfield-11" width="17" height="17" viewBox="0 0 17 17"><g><path d="M0,0 H17 V17 H0 Z" fill="none"/><path d="M8 3.5H6.5C6 3.5 6 3 6.5 3h4c0.5 0 0.5 0.5 0 0.5H9s0.5 0.5 0.5 1.5v1H14v1.5l-4.5 2L9 13l1.5 0.5v0.5h-4v-0.5L8 13l-0.5-3.5-4.5-2V6h4.5V5C7.5 4 8 3.5 8 3.5z" fill="hsl(244, 54%, 36%)" stroke="hsl(244, 20%, 100%)" stroke-linejoin="round" stroke-miterlimit="4px" stroke-width="2"/><path d="M8 3.5H6.5C6 3.5 6 3 6.5 3h4c0.5 0 0.5 0.5 0 0.5H9s0.5 0.5 0.5 1.5v1H14v1.5l-4.5 2L9 13l1.5 0.5v0.5h-4v-0.5L8 13l-0.5-3.5-4.5-2V6h4.5V5C7.5 4 8 3.5 8 3.5z" fill="hsl(244, 54%, 36%)"/></g></svg>