<svg xmlns="http://www.w3.org/2000/svg" id="airport-11" width="17" height="17" viewBox="0 0 17 17"><g><path d="M0,0 H17 V17 H0 Z" fill="none"/><path d="M9.5 9.4V9l4.5 0.5V8L9.5 6.2V4.5C9.5 3.5 9 3 8.5 3s-1 0.5-1 1.5v1.7L3 8v1.4L7.5 9v3.3L6 13v1l2.5-0.5L11 14v-1l-1.5-0.8V9.4z" fill="hsl(244, 54%, 36%)" stroke="hsl(244, 20%, 100%)" stroke-linejoin="round" stroke-miterlimit="4px" stroke-width="2"/><path d="M9.5 9.4V9l4.5 0.5V8L9.5 6.2V4.5C9.5 3.5 9 3 8.5 3s-1 0.5-1 1.5v1.7L3 8v1.4L7.5 9v3.3L6 13v1l2.5-0.5L11 14v-1l-1.5-0.8V9.4z" fill="hsl(244, 54%, 36%)"/></g></svg>