<svg xmlns="http://www.w3.org/2000/svg" id="airport-15" width="21" height="21" viewBox="0 0 21 21"><g><path d="M0,0 H21 V21 H0 Z" fill="none"/><path d="M18 9.818V11.5l-6.5-1-0.318 4.773L14 17v1l-3.5-0.682L7 18v-1l2.818-1.727L9.5 10.5 3 11.5V9.818L9.5 7.5v-3s0-1.5 1-1.5 1 1.5 1 1.5v2.818l6.5 2.5z" fill="hsl(244, 54%, 36%)" stroke="hsl(244, 20%, 100%)" stroke-linejoin="round" stroke-miterlimit="4px" stroke-width="2"/><path d="M18 9.818V11.5l-6.5-1-0.318 4.773L14 17v1l-3.5-0.682L7 18v-1l2.818-1.727L9.5 10.5 3 11.5V9.818L9.5 7.5v-3s0-1.5 1-1.5 1 1.5 1 1.5v2.818l6.5 2.5z" fill="hsl(244, 54%, 36%)"/></g></svg>