<svg xmlns="http://www.w3.org/2000/svg" id="alcohol-shop-11" width="17" height="17" viewBox="0 0 17 17"><g><path d="M0,0 H17 V17 H0 Z" fill="none"/><path d="M10 7v2.5a1.5 1.5 0 0 0 1 1.41V13h-0.5a0.5 0.5 0 0 0 0 1h2a0.5 0.5 0 0 0 0-1H12V10.91a1.5 1.5 0 0 0 1-1.41V7H10z m2.5 2.5a1 1 0 1 1-2 0v-2h2v2zM7.21 5.85V5.5a0.355 0.355 0 1 0 0-0.71v-0.35a0.35 0.35 0 0 0-0.36-0.35h-0.71a0.35 0.35 0 0 0-0.36 0.34v0.36a0.355 0.355 0 1 0 0 0.71v0.35C5.79 6.87 4 8 4 9v4.25a0.7 0.7 0 0 0 0.71 0.71h3.58a0.79 0.79 0 0 0 0.71-0.67V9c0-0.91-1.79-2.19-1.79-3.15zM6.5 12a1.5 1.5 0 1 1 0-3 1.5 1.5 0 0 1 0 3z" fill="hsl(236, 6%, 48%)" stroke="hsl(60, 5%, 100%)" stroke-linejoin="round" stroke-miterlimit="4px" stroke-width="2"/><path d="M10 7v2.5a1.5 1.5 0 0 0 1 1.41V13h-0.5a0.5 0.5 0 0 0 0 1h2a0.5 0.5 0 0 0 0-1H12V10.91a1.5 1.5 0 0 0 1-1.41V7H10z m2.5 2.5a1 1 0 1 1-2 0v-2h2v2zM7.21 5.85V5.5a0.355 0.355 0 1 0 0-0.71v-0.35a0.35 0.35 0 0 0-0.36-0.35h-0.71a0.35 0.35 0 0 0-0.36 0.34v0.36a0.355 0.355 0 1 0 0 0.71v0.35C5.79 6.87 4 8 4 9v4.25a0.7 0.7 0 0 0 0.71 0.71h3.58a0.79 0.79 0 0 0 0.71-0.67V9c0-0.91-1.79-2.19-1.79-3.15zM6.5 12a1.5 1.5 0 1 1 0-3 1.5 1.5 0 0 1 0 3z" fill="hsl(236, 6%, 48%)"/></g></svg>