<svg xmlns="http://www.w3.org/2000/svg" id="alcohol-shop-15" width="21" height="21" viewBox="0 0 21 21"><g><path d="M0,0 H21 V21 H0 Z" fill="none"/><path d="M17 7h-4v3.5a2 2 0 0 0 1.5 1.93V16H14a0.5 0.5 0 0 0 0 1h2a0.5 0.5 0 0 0 0-1h-0.5V12.43A2 2 0 0 0 17 10.5V7z m-1 3.5a1 1 0 1 1-2 0V8h2v2.5z m-7.5-5V5a0.5 0.5 0 0 0 0-1V3.5A0.5 0.5 0 0 0 8 3H7a0.5 0.5 0 0 0-0.5 0.5V4a0.5 0.5 0 0 0 0 1v0.5C6.5 6.93 4 8.57 4 10v6a1 1 0 0 0 1 1h5a1.1 1.1 0 0 0 1-1V10c0-1.35-2.5-3.15-2.5-4.5z m-1 9.5a2.5 2.5 0 1 1 0-5 2.5 2.5 0 0 1 0 5z" fill="hsl(236, 6%, 48%)" stroke="hsl(60, 5%, 100%)" stroke-linejoin="round" stroke-miterlimit="4px" stroke-width="2"/><path d="M17 7h-4v3.5a2 2 0 0 0 1.5 1.93V16H14a0.5 0.5 0 0 0 0 1h2a0.5 0.5 0 0 0 0-1h-0.5V12.43A2 2 0 0 0 17 10.5V7z m-1 3.5a1 1 0 1 1-2 0V8h2v2.5z m-7.5-5V5a0.5 0.5 0 0 0 0-1V3.5A0.5 0.5 0 0 0 8 3H7a0.5 0.5 0 0 0-0.5 0.5V4a0.5 0.5 0 0 0 0 1v0.5C6.5 6.93 4 8.57 4 10v6a1 1 0 0 0 1 1h5a1.1 1.1 0 0 0 1-1V10c0-1.35-2.5-3.15-2.5-4.5z m-1 9.5a2.5 2.5 0 1 1 0-5 2.5 2.5 0 0 1 0 5z" fill="hsl(236, 6%, 48%)"/></g></svg>