<svg xmlns="http://www.w3.org/2000/svg" id="american-football-11" width="17" height="17" viewBox="0 0 17 17"><g><path d="M0,0 H17 V17 H0 Z" fill="none"/><path d="M8.530000000000001 5C5.470000000000001 5 4 8.5 4 8.5S5.470000000000001 12 8.530000000000001 12 13 8.5 13 8.5 11.6 5 8.530000000000001 5zM10 9H7a0.5 0.5 0 0 1 0-1h3a0.5 0.5 0 0 1 0 1z" fill="hsl(236, 6%, 48%)" stroke="hsl(60, 5%, 100%)" stroke-linejoin="round" stroke-miterlimit="4px" stroke-width="2"/><path d="M8.530000000000001 5C5.470000000000001 5 4 8.5 4 8.5S5.470000000000001 12 8.530000000000001 12 13 8.5 13 8.5 11.6 5 8.530000000000001 5zM10 9H7a0.5 0.5 0 0 1 0-1h3a0.5 0.5 0 0 1 0 1z" fill="hsl(236, 6%, 48%)"/></g></svg>