<svg xmlns="http://www.w3.org/2000/svg" id="american-football-15" width="21" height="21" viewBox="0 0 21 21"><g><path d="M0,0 H21 V21 H0 Z" fill="none"/><path d="M10.530000000000001 6C6.09 6 4 10.5 4 10.5S6.09 15 10.530000000000001 15 17 10.5 17 10.5 15 6 10.530000000000001 6zM14 10v1.5a0.5 0.5 0 0 1-1 0V11H11v0.5a0.5 0.5 0 0 1-1 0V11H8v0.5a0.5 0.5 0 0 1-1 0v-2a0.5 0.5 0 0 1 1 0V10h2v-0.5a0.5 0.5 0 0 1 1 0V10h2v-0.5a0.5 0.5 0 0 1 1 0V10z" fill="hsl(236, 6%, 48%)" stroke="hsl(60, 5%, 100%)" stroke-linejoin="round" stroke-miterlimit="4px" stroke-width="2"/><path d="M10.530000000000001 6C6.09 6 4 10.5 4 10.5S6.09 15 10.530000000000001 15 17 10.5 17 10.5 15 6 10.530000000000001 6zM14 10v1.5a0.5 0.5 0 0 1-1 0V11H11v0.5a0.5 0.5 0 0 1-1 0V11H8v0.5a0.5 0.5 0 0 1-1 0v-2a0.5 0.5 0 0 1 1 0V10h2v-0.5a0.5 0.5 0 0 1 1 0V10h2v-0.5a0.5 0.5 0 0 1 1 0V10z" fill="hsl(236, 6%, 48%)"/></g></svg>