<svg xmlns="http://www.w3.org/2000/svg" id="amusement-park-11" width="17" height="17" viewBox="0 0 17 17"><g><path d="M0,0 H17 V17 H0 Z" fill="none"/><path d="M8.5 4C6.02 4 4 6.02 4 8.5c0 1.792 1.063 3.332 2.584 4.055L5.5 14h6L10.416 12.555C11.937 11.832 13 10.292 13 8.5 13 6.02 10.98 4 8.5 4z m-0.125 1.012v1.994a1.5 1.5 0 0 0-0.844 0.35L6.12 5.942a3.475 3.475 0 0 1 2.256-0.931z m0.25 0c0.874 0.03 1.66 0.377 2.256 0.931L9.469000000000001 7.356l-0.002-0.002a1.5 1.5 0 0 0-0.842-0.348V5.0120000000000005zM5.943 6.119l1.412 1.412s0 0.002-0.002 0.002a1.5 1.5 0 0 0-0.347 0.842H5.0120000000000005c0.03-0.874 0.377-1.66 0.931-2.256z m5.114 0c0.554 0.596 0.9 1.382 0.931 2.256H9.994a1.5 1.5 0 0 0-0.35-0.844L11.058 6.12zM5.0120000000000005 8.625h1.994a1.5 1.5 0 0 0 0.35 0.844L5.942 10.879999999999999a3.475 3.475 0 0 1-0.931-2.256z m4.982 0h1.994a3.474 3.474 0 0 1-0.931 2.256L9.644 9.469000000000001l0.002-0.002a1.5 1.5 0 0 0 0.348-0.842z m-2.463 1.02s0.002 0 0.002 0.002A1.5 1.5 0 0 0 8 9.911v2.04a3.47 3.47 0 0 1-1.88-0.895L7.53 9.644z m1.938 0L10.879999999999999 11.056A3.47 3.47 0 0 1 9 11.95V9.911999999999999a1.5 1.5 0 0 0 0.469-0.268z" fill="hsl(236, 6%, 48%)" stroke="hsl(60, 5%, 100%)" stroke-linejoin="round" stroke-miterlimit="4px" stroke-width="2"/><path d="M8.5 4C6.02 4 4 6.02 4 8.5c0 1.792 1.063 3.332 2.584 4.055L5.5 14h6L10.416 12.555C11.937 11.832 13 10.292 13 8.5 13 6.02 10.98 4 8.5 4z m-0.125 1.012v1.994a1.5 1.5 0 0 0-0.844 0.35L6.12 5.942a3.475 3.475 0 0 1 2.256-0.931z m0.25 0c0.874 0.03 1.66 0.377 2.256 0.931L9.469000000000001 7.356l-0.002-0.002a1.5 1.5 0 0 0-0.842-0.348V5.0120000000000005zM5.943 6.119l1.412 1.412s0 0.002-0.002 0.002a1.5 1.5 0 0 0-0.347 0.842H5.0120000000000005c0.03-0.874 0.377-1.66 0.931-2.256z m5.114 0c0.554 0.596 0.9 1.382 0.931 2.256H9.994a1.5 1.5 0 0 0-0.35-0.844L11.058 6.12zM5.0120000000000005 8.625h1.994a1.5 1.5 0 0 0 0.35 0.844L5.942 10.879999999999999a3.475 3.475 0 0 1-0.931-2.256z m4.982 0h1.994a3.474 3.474 0 0 1-0.931 2.256L9.644 9.469000000000001l0.002-0.002a1.5 1.5 0 0 0 0.348-0.842z m-2.463 1.02s0.002 0 0.002 0.002A1.5 1.5 0 0 0 8 9.911v2.04a3.47 3.47 0 0 1-1.88-0.895L7.53 9.644z m1.938 0L10.879999999999999 11.056A3.47 3.47 0 0 1 9 11.95V9.911999999999999a1.5 1.5 0 0 0 0.469-0.268z" fill="hsl(236, 6%, 48%)"/></g></svg>