<svg xmlns="http://www.w3.org/2000/svg" id="amusement-park-15" width="21" height="21" viewBox="0 0 21 21"><g><path d="M0,0 H21 V21 H0 Z" fill="none"/><path d="M10.5 3C6.9190000000000005 3 4 5.9190000000000005 4 9.5c0 2.316 1.225 4.348 3.057 5.5H7l-1 2h9l-1-2h-0.057C15.775 13.848 17 11.816 17 9.5 17 5.9190000000000005 14.081 3 10.5 3z m-0.125 1.506v3.5a1.5 1.5 0 0 0-0.844 0.35L7.057 5.88a4.972 4.972 0 0 1 3.318-1.375z m0.25 0c1.29 0.032 2.45 0.55 3.318 1.375L11.47 8.356l-0.002-0.002a1.5 1.5 0 0 0-0.842-0.348v-3.5z m-3.744 1.55l2.475 2.475-0.002 0.002a1.5 1.5 0 0 0-0.348 0.842h-3.5c0.032-1.29 0.55-2.45 1.375-3.318z m7.238 0a4.972 4.972 0 0 1 1.375 3.319h-3.5a1.5 1.5 0 0 0-0.35-0.844l2.475-2.474zM5.506 9.626000000000001h3.5a1.5 1.5 0 0 0 0.35 0.844L6.88 12.943a4.972 4.972 0 0 1-1.375-3.318z m6.488 0h3.5a4.972 4.972 0 0 1-1.375 3.318L11.645 10.469999999999999s0-0.002 0.002-0.002a1.5 1.5 0 0 0 0.347-0.842z m-2.463 1.02s0.002 0 0.002 0.002A1.5 1.5 0 0 0 10 10.911v3.563a4.97 4.97 0 0 1-2.943-1.356L9.530000000000001 10.645z m1.938 0l2.474 2.474A4.97 4.97 0 0 1 11 14.475V10.911999999999999a1.5 1.5 0 0 0 0.469-0.268z" fill="hsl(236, 6%, 48%)" stroke="hsl(60, 5%, 100%)" stroke-linejoin="round" stroke-miterlimit="4px" stroke-width="2"/><path d="M10.5 3C6.9190000000000005 3 4 5.9190000000000005 4 9.5c0 2.316 1.225 4.348 3.057 5.5H7l-1 2h9l-1-2h-0.057C15.775 13.848 17 11.816 17 9.5 17 5.9190000000000005 14.081 3 10.5 3z m-0.125 1.506v3.5a1.5 1.5 0 0 0-0.844 0.35L7.057 5.88a4.972 4.972 0 0 1 3.318-1.375z m0.25 0c1.29 0.032 2.45 0.55 3.318 1.375L11.47 8.356l-0.002-0.002a1.5 1.5 0 0 0-0.842-0.348v-3.5z m-3.744 1.55l2.475 2.475-0.002 0.002a1.5 1.5 0 0 0-0.348 0.842h-3.5c0.032-1.29 0.55-2.45 1.375-3.318z m7.238 0a4.972 4.972 0 0 1 1.375 3.319h-3.5a1.5 1.5 0 0 0-0.35-0.844l2.475-2.474zM5.506 9.626000000000001h3.5a1.5 1.5 0 0 0 0.35 0.844L6.88 12.943a4.972 4.972 0 0 1-1.375-3.318z m6.488 0h3.5a4.972 4.972 0 0 1-1.375 3.318L11.645 10.469999999999999s0-0.002 0.002-0.002a1.5 1.5 0 0 0 0.347-0.842z m-2.463 1.02s0.002 0 0.002 0.002A1.5 1.5 0 0 0 10 10.911v3.563a4.97 4.97 0 0 1-2.943-1.356L9.530000000000001 10.645z m1.938 0l2.474 2.474A4.97 4.97 0 0 1 11 14.475V10.911999999999999a1.5 1.5 0 0 0 0.469-0.268z" fill="hsl(236, 6%, 48%)"/></g></svg>