<svg xmlns="http://www.w3.org/2000/svg" id="aquarium-11" width="17" height="17" viewBox="0 0 17 17"><g><path d="M0,0 H17 V17 H0 Z" fill="none"/><path d="M11 4c-0.876 0-1.85 0.092-3.004 0.527C6.843 4.962 5.848 5.657 5 6.5c-0.852 0.847-2 2.5-2 3s1.135 1.943 2.678 2.621c1.542 0.678 2.39 0.798 3.283 0.895 0.797 0.086 1.942-0.027 2.885-0.233C12.592 12.621 13.994 12.31 14 12c0 0-2.756-0.063-3-0.5-0.249-0.445-0.25-1.586 0-2 0.258-0.428 2.5 1 2.5 1 0.644 0.258 0.644-4.258 0-4 0 0-2.277 1.447-2.5 1-0.25-0.5-0.25-1.5 0-2 0.223-0.447 3-0.5 3-0.5 0-0.5-2.124-1-3-1zM6.513999999999999 7.502a1.014 1.014 0 1 1 0 2.028 1.014 1.014 0 0 1 0-2.028z" fill="hsl(236, 6%, 48%)" stroke="hsl(60, 5%, 100%)" stroke-linejoin="round" stroke-miterlimit="4px" stroke-width="2"/><path d="M11 4c-0.876 0-1.85 0.092-3.004 0.527C6.843 4.962 5.848 5.657 5 6.5c-0.852 0.847-2 2.5-2 3s1.135 1.943 2.678 2.621c1.542 0.678 2.39 0.798 3.283 0.895 0.797 0.086 1.942-0.027 2.885-0.233C12.592 12.621 13.994 12.31 14 12c0 0-2.756-0.063-3-0.5-0.249-0.445-0.25-1.586 0-2 0.258-0.428 2.5 1 2.5 1 0.644 0.258 0.644-4.258 0-4 0 0-2.277 1.447-2.5 1-0.25-0.5-0.25-1.5 0-2 0.223-0.447 3-0.5 3-0.5 0-0.5-2.124-1-3-1zM6.513999999999999 7.502a1.014 1.014 0 1 1 0 2.028 1.014 1.014 0 0 1 0-2.028z" fill="hsl(236, 6%, 48%)"/></g></svg>