<svg xmlns="http://www.w3.org/2000/svg" id="aquarium-15" width="21" height="21" viewBox="0 0 21 21"><g><path d="M0,0 H21 V21 H0 Z" fill="none"/><path d="M13.9 14.6c-0.3-0.6-0.3-2.3 0-2.8 0.4-0.6 3.4 1.4 3.4 1.4 0.9 0.4 0.9-6.1 0-5.7 0 0-3.1 2.1-3.4 1.4-0.3-0.7-0.3-2.1 0-2.8 0.3-0.6 4.1-0.7 4.1-0.7 0-0.7-2.9-1.4-4.1-1.4s-2.5 0.1-4.1 0.8c-1.6 0.6-2.9 1.6-4.1 2.8S3 11.2 3 11.9s1.5 2.8 3.7 3.7 3.3 1.1 4.5 1.3c1.1 0.1 2.6 0 3.9-0.3 1-0.2 2.9-0.7 2.9-1.1 0-0.2-3.8-0.3-4.1-0.9zM7.5 12.3C6.7 12.3 6 11.6 6 10.8s0.7-1.5 1.5-1.5S9 10 9 10.8s-0.7 1.5-1.5 1.5z" fill="hsl(236, 6%, 48%)" stroke="hsl(60, 5%, 100%)" stroke-linejoin="round" stroke-miterlimit="4px" stroke-width="2"/><path d="M13.9 14.6c-0.3-0.6-0.3-2.3 0-2.8 0.4-0.6 3.4 1.4 3.4 1.4 0.9 0.4 0.9-6.1 0-5.7 0 0-3.1 2.1-3.4 1.4-0.3-0.7-0.3-2.1 0-2.8 0.3-0.6 4.1-0.7 4.1-0.7 0-0.7-2.9-1.4-4.1-1.4s-2.5 0.1-4.1 0.8c-1.6 0.6-2.9 1.6-4.1 2.8S3 11.2 3 11.9s1.5 2.8 3.7 3.7 3.3 1.1 4.5 1.3c1.1 0.1 2.6 0 3.9-0.3 1-0.2 2.9-0.7 2.9-1.1 0-0.2-3.8-0.3-4.1-0.9zM7.5 12.3C6.7 12.3 6 11.6 6 10.8s0.7-1.5 1.5-1.5S9 10 9 10.8s-0.7 1.5-1.5 1.5z" fill="hsl(236, 6%, 48%)"/></g></svg>