<svg xmlns="http://www.w3.org/2000/svg" id="art-gallery-11" width="17" height="17" viewBox="0 0 17 17"><g><path d="M0,0 H17 V17 H0 Z" fill="none"/><path d="M11.21 6L8.85 3.65a0.5 0.5 0 0 0-0.707-0.003L8.14 3.65 5.79 6H4.5a0.5 0.5 0 0 0-0.5 0.5v6a0.5 0.5 0 0 0 0.5 0.5h8a0.5 0.5 0 0 0 0.5-0.5v-6a0.5 0.5 0 0 0-0.5-0.5H11.21zM8.5 4.71L9.79 6H7.21L8.5 4.71zM12 12H5V7h7v5zM7.5 8.5a0.5 0.5 0 1 1-1 0 0.5 0.5 0 0 1 1 0zM11 11H7l0.75-1.5 0.5 1L9.5 8 11 11z" fill="hsl(236, 6%, 48%)" stroke="hsl(60, 5%, 100%)" stroke-linejoin="round" stroke-miterlimit="4px" stroke-width="2"/><path d="M11.21 6L8.85 3.65a0.5 0.5 0 0 0-0.707-0.003L8.14 3.65 5.79 6H4.5a0.5 0.5 0 0 0-0.5 0.5v6a0.5 0.5 0 0 0 0.5 0.5h8a0.5 0.5 0 0 0 0.5-0.5v-6a0.5 0.5 0 0 0-0.5-0.5H11.21zM8.5 4.71L9.79 6H7.21L8.5 4.71zM12 12H5V7h7v5zM7.5 8.5a0.5 0.5 0 1 1-1 0 0.5 0.5 0 0 1 1 0zM11 11H7l0.75-1.5 0.5 1L9.5 8 11 11z" fill="hsl(236, 6%, 48%)"/></g></svg>