<svg xmlns="http://www.w3.org/2000/svg" id="art-gallery-15" width="21" height="21" viewBox="0 0 21 21"><g><path d="M0,0 H21 V21 H0 Z" fill="none"/><path d="M13.71 7L10.85 4.15a0.5 0.5 0 0 0-0.707-0.003l-0.003 0.003L7.29 7H4.5a0.5 0.5 0 0 0-0.5 0.5v9a0.5 0.5 0 0 0 0.5 0.5h12a0.5 0.5 0 0 0 0.5-0.5v-9a0.5 0.5 0 0 0-0.5-0.5h-2.79zM10.5 5.21L12.29 7H8.71L10.5 5.21zM16 16H5V8h11v8zM8 11a1 1 0 1 1 0-2 1 1 0 0 1 0 2z m7 4H7.5L9 12l1.25 2.5L12.5 10l2.5 5z" fill="hsl(236, 6%, 48%)" stroke="hsl(60, 5%, 100%)" stroke-linejoin="round" stroke-miterlimit="4px" stroke-width="2"/><path d="M13.71 7L10.85 4.15a0.5 0.5 0 0 0-0.707-0.003l-0.003 0.003L7.29 7H4.5a0.5 0.5 0 0 0-0.5 0.5v9a0.5 0.5 0 0 0 0.5 0.5h12a0.5 0.5 0 0 0 0.5-0.5v-9a0.5 0.5 0 0 0-0.5-0.5h-2.79zM10.5 5.21L12.29 7H8.71L10.5 5.21zM16 16H5V8h11v8zM8 11a1 1 0 1 1 0-2 1 1 0 0 1 0 2z m7 4H7.5L9 12l1.25 2.5L12.5 10l2.5 5z" fill="hsl(236, 6%, 48%)"/></g></svg>