<svg xmlns="http://www.w3.org/2000/svg" id="attraction-15" width="21" height="21" viewBox="0 0 21 21"><g><path d="M0,0 H21 V21 H0 Z" fill="none"/><path d="M9 5c-0.554 0-0.752 0.505-1 1l-0.5 1h-2C4.6690000000000005 7 4 7.669 4 8.5v5c0 0.831 0.669 1.5 1.5 1.5h10c0.831 0 1.5-0.669 1.5-1.5v-5c0-0.831-0.669-1.5-1.5-1.5h-2L13 6c-0.25-0.5-0.446-1-1-1H9zM5.5 8a0.5 0.5 0 1 1 0 1 0.5 0.5 0 0 1 0-1z m5 0a3 3 0 1 1 0 6 3 3 0 0 1 0-6z m0 1.5a1.5 1.5 0 0 0 0 3 1.5 1.5 0 0 0 0-3z" fill="hsl(236, 6%, 48%)" stroke="hsl(60, 5%, 100%)" stroke-linejoin="round" stroke-miterlimit="4px" stroke-width="2"/><path d="M9 5c-0.554 0-0.752 0.505-1 1l-0.5 1h-2C4.6690000000000005 7 4 7.669 4 8.5v5c0 0.831 0.669 1.5 1.5 1.5h10c0.831 0 1.5-0.669 1.5-1.5v-5c0-0.831-0.669-1.5-1.5-1.5h-2L13 6c-0.25-0.5-0.446-1-1-1H9zM5.5 8a0.5 0.5 0 1 1 0 1 0.5 0.5 0 0 1 0-1z m5 0a3 3 0 1 1 0 6 3 3 0 0 1 0-6z m0 1.5a1.5 1.5 0 0 0 0 3 1.5 1.5 0 0 0 0-3z" fill="hsl(236, 6%, 48%)"/></g></svg>