<svg xmlns="http://www.w3.org/2000/svg" id="attraction-11" width="17" height="17" viewBox="0 0 17 17"><g><path d="M0,0 H17 V17 H0 Z" fill="none"/><path d="M7.5 4.5s-0.5 0-0.7 0.5l-0.3 0.5H4c-0.6 0-1 0.4-1 1v5c0 0.6 0.4 1 1 1h9c0.6 0 1-0.4 1-1v-5c0-0.6-0.4-1-1-1H10.5L10.2 5c-0.2-0.5-0.7-0.5-0.7-0.5h-2z m1 2C9.9 6.5 11 7.6 11 9S9.9 11.5 8.5 11.5 6 10.4 6 9s1.1-2.5 2.5-2.5z m0 1.5c-0.6 0-1 0.4-1 1s0.4 1 1 1 1-0.4 1-1-0.4-1-1-1z" fill="hsl(236, 6%, 48%)" stroke="hsl(60, 5%, 100%)" stroke-linejoin="round" stroke-miterlimit="4px" stroke-width="2"/><path d="M7.5 4.5s-0.5 0-0.7 0.5l-0.3 0.5H4c-0.6 0-1 0.4-1 1v5c0 0.6 0.4 1 1 1h9c0.6 0 1-0.4 1-1v-5c0-0.6-0.4-1-1-1H10.5L10.2 5c-0.2-0.5-0.7-0.5-0.7-0.5h-2z m1 2C9.9 6.5 11 7.6 11 9S9.9 11.5 8.5 11.5 6 10.4 6 9s1.1-2.5 2.5-2.5z m0 1.5c-0.6 0-1 0.4-1 1s0.4 1 1 1 1-0.4 1-1-0.4-1-1-1z" fill="hsl(236, 6%, 48%)"/></g></svg>