<svg xmlns="http://www.w3.org/2000/svg" id="au-national-route-5" width="114" height="60" viewBox="0 0 38 20"><g><path d="M0,0 H38 V20 H0 Z" fill="none"/><path d="M37,3V13a3,3,0,0,1-2,3c-1.63.74-16,3-16,3S4.63,16.74,3,16a3,3,0,0,1-2-3V3H37m0-1H1A1,1,0,0,0,0,3V13a4,4,0,0,0,2.59,3.91c1.67.76,13.83,2.7,16.25,3.08h.32c2.42-.38,14.58-2.32,16.25-3.08A4,4,0,0,0,38,13V3a1,1,0,0,0-1-1Z" fill="hsl(230, 18%, 13%)"/><path d="M1,3V13a3,3,0,0,0,2,3c1.63.74,16,3,16,3s14.37-2.26,16-3a3,3,0,0,0,2-3V3Z" fill="hsl(0, 0%, 100%)"/></g></svg>