<svg xmlns="http://www.w3.org/2000/svg" id="au-national-route-2" width="60" height="60" viewBox="0 0 20 20"><g><path d="M0,0 H20 V20 H0 Z" fill="none"/><path d="M19,3V13a3,3,0,0,1-2,3c-1.63.74-7,3-7,3s-5.37-2.26-7-3a3,3,0,0,1-2-3V3H19m0-1H1A1,1,0,0,0,0,3V13a4,4,0,0,0,2.59,3.91c1.62.74,6.8,2.92,7,3a1,1,0,0,0,.78,0c.22-.09,5.4-2.27,7-3A4,4,0,0,0,20,13V3a1,1,0,0,0-1-1Z" fill="hsl(230, 18%, 13%)"/><path d="M1,3V13a3,3,0,0,0,2,3c1.63.74,7,3,7,3s5.37-2.26,7-3a3,3,0,0,0,2-3V3Z" fill="hsl(0, 0%, 100%)"/></g></svg>