<svg xmlns="http://www.w3.org/2000/svg" id="au-national-route-4" width="96" height="60" viewBox="0 0 32 20"><g><path d="M0,0 H32 V20 H0 Z" fill="none"/><path d="M31,3V13a3,3,0,0,1-2,3c-1.63.74-13,3-13,3S4.63,16.74,3,16a3,3,0,0,1-2-3V3H31m0-1H1A1,1,0,0,0,0,3V13a4,4,0,0,0,2.59,3.91c1.68.77,12,2.84,13.22,3.07L16,20l.19,0c1.18-.23,11.54-2.3,13.22-3.07A4,4,0,0,0,32,13V3a1,1,0,0,0-1-1Z" fill="hsl(230, 18%, 13%)"/><path d="M1,3V13a3,3,0,0,0,2,3c1.63.74,13,3,13,3s11.37-2.26,13-3a3,3,0,0,0,2-3V3Z" fill="hsl(0, 0%, 100%)"/></g></svg>