<svg xmlns="http://www.w3.org/2000/svg" id="au-state-2" width="54" height="60" viewBox="0 0 18 20"><g><path d="M0,0 H18 V20 H0 Z" fill="none"/><path d="M15,3c1,1,2,4.08,2,7,0,6-6,8.5-8,9-2-.46-8-3-8-9C1,7.08,2,4.08,3,3H15m0-1H3a1,1,0,0,0-.75.34C1.13,3.61,0,6.82,0,10c.05,6.53,6.35,9.41,8.78,10A.83.83,0,0,0,9,20a1,1,0,0,0,.24,0c3-.76,8.76-3.82,8.76-10,0-3-1-6.42-2.29-7.71A1,1,0,0,0,15,2Z" fill="hsl(0, 0%, 100%)"/><path d="M3,3C2,4.08,1,7.08,1,10c0,6,6,8.54,8,9,2-.5,8-3,8-9,0-2.92-1-6-2-7Z" fill="hsl(230, 57%, 54%)"/></g></svg>