<svg xmlns="http://www.w3.org/2000/svg" id="au-state-4" width="87" height="60" viewBox="0 0 29 20"><g><path d="M0,0 H29 V20 H0 Z" fill="none"/><path d="M25.43,3C26.71,4,28,6.06,28,10c0,6-10.29,8.5-12.86,9C12.57,18.54,1,16,1,10,1,6.06,2.37,4,3.57,3H25.43m.34-1H3.21l-.28.23C1.59,3.34,0,5.59,0,10c0,7,12.47,9.54,15,10l.18,0,.18,0C17.62,19.54,29,17,29,10c0-4.54-1.61-6.74-3-7.79L25.77,2Z" fill="hsl(0, 0%, 100%)"/><path d="M3.57,3C2.37,4,1,6.06,1,10c0,6,11.57,8.54,14.14,9C17.71,18.5,28,16,28,10c0-3.94-1.29-6-2.57-7Z" fill="hsl(230, 57%, 54%)"/></g></svg>