<svg xmlns="http://www.w3.org/2000/svg" id="au-state-6" width="117" height="60" viewBox="0 0 39 20"><g><path d="M0,0 H39 V20 H0 Z" fill="none"/><path d="M34.48,3C36.24,4,38,6.06,38,10c0,6-14.1,8.5-17.62,9C16.86,18.54,1,16,1,10,1,6.06,2.87,4,4.52,3h30m.26-1H4.24L4,2.14C2.51,3.05,0,5.28,0,10c0,3,3.05,5.58,9.06,7.54A67.72,67.72,0,0,0,20.25,20l.14,0,.13,0A55.91,55.91,0,0,0,30.85,17.5C36.26,15.54,39,13,39,10c0-4.86-2.53-7-4-7.87L34.74,2Z" fill="hsl(0, 0%, 100%)"/><path d="M4.52,3C2.87,4,1,6.06,1,10c0,6,15.86,8.54,19.38,9C23.9,18.5,38,16,38,10c0-3.94-1.76-6-3.52-7Z" fill="hsl(230, 57%, 54%)"/></g></svg>