<svg xmlns="http://www.w3.org/2000/svg" id="au-state-5" width="102" height="60" viewBox="0 0 34 20"><g><path d="M0,0 H34 V20 H0 Z" fill="none"/><path d="M30,3C31.48,4,33,6.06,33,10c0,6-12.19,8.5-15.24,9C14.71,18.54,1,16,1,10,1,6.06,2.62,4,4.05,3H30m.3-1H3.73l-.26.18C2.18,3.09,0,5.31,0,10c0,3,2.65,5.56,7.89,7.53A51.6,51.6,0,0,0,17.61,20l.16,0,.15,0C20.61,19.55,34,17,34,10c0-4.58-1.9-6.79-3.5-7.84L30.25,2Z" fill="hsl(0, 0%, 100%)"/><path d="M4.05,3C2.62,4,1,6.06,1,10c0,6,13.71,8.54,16.76,9,3-.5,15.24-3,15.24-9C33,6.06,31.48,4,30,3Z" fill="hsl(230, 57%, 54%)"/></g></svg>