<svg xmlns="http://www.w3.org/2000/svg" id="au-state-3" width="69" height="60" viewBox="0 0 23 20"><g><path d="M0,0 H23 V20 H0 Z" fill="none"/><path d="M20,3c1,1,2,3.06,2,7,0,6-8,8.5-10,9-2-.46-11-3-11-9C1,6.06,2.06,4,3,3H20m0-1H3a1,1,0,0,0-.73.32C1.23,3.42,0,5.65,0,10c0,6.93,9.81,9.52,11.78,10A.83.83,0,0,0,12,20a1,1,0,0,0,.24,0,22.12,22.12,0,0,0,6-2.56C21.37,15.44,23,12.88,23,10c0-4.47-1.25-6.66-2.29-7.71A1,1,0,0,0,20,2Z" fill="hsl(0, 0%, 100%)"/><path d="M3,3c-.94,1-2,3.06-2,7,0,6,9,8.54,11,9,2-.5,10-3,10-9,0-3.94-1-6-2-7Z" fill="hsl(230, 57%, 54%)"/></g></svg>