<svg xmlns="http://www.w3.org/2000/svg" id="au-tourist-3" width="84" height="63" viewBox="0 0 28 21"><g><path d="M0,0 H28 V21 H0 Z" fill="none"/><path d="M14,1.07a.92.92,0,0,1,.36.07l11.71,4.5a1,1,0,0,1,.57,1.29L22.25,18.36a1,1,0,0,1-.94.64H6.69a1,1,0,0,1-.94-.64L1.36,6.93a1,1,0,0,1,.57-1.29l11.71-4.5A.92.92,0,0,1,14,1.07m0-1a2.18,2.18,0,0,0-.72.13L1.58,4.71A2,2,0,0,0,.43,7.29L4.82,18.72A2,2,0,0,0,6.69,20H21.31a2,2,0,0,0,1.87-1.28L27.57,7.29a2,2,0,0,0-1.15-2.58L14.72.2A2.18,2.18,0,0,0,14,.07Z" fill="hsl(0, 0%, 100%)"/><path d="M5.75,18.36,1.36,6.93a1,1,0,0,1,.57-1.29l11.71-4.5a1,1,0,0,1,.72,0l11.71,4.5a1,1,0,0,1,.57,1.29L22.25,18.36a1,1,0,0,1-.94.64H6.69A1,1,0,0,1,5.75,18.36Z" fill="hsl(25, 34%, 34%)"/></g></svg>