<svg xmlns="http://www.w3.org/2000/svg" id="au-tourist-2" width="60" height="63" viewBox="0 0 20 21"><g><path d="M0,0 H20 V21 H0 Z" fill="none"/><path d="M10.19,1.14a1.05,1.05,0,0,1,.49.13l7.8,4.34A1,1,0,0,1,19,6.78L15.41,18.29a1,1,0,0,1-1,.71H5.93A1,1,0,0,1,5,18.29L1.43,6.78A1,1,0,0,1,1.9,5.61L9.71,1.27a1,1,0,0,1,.48-.13m0-1a2,2,0,0,0-1,.26L1.42,4.73A2,2,0,0,0,.48,7.07L4,18.59A2,2,0,0,0,5.93,20h8.52a2,2,0,0,0,1.92-1.41L19.91,7.07A2,2,0,0,0,19,4.73L11.17.4a2,2,0,0,0-1-.26Z" fill="hsl(0, 0%, 100%)"/><path d="M4.78,18.29,1.24,6.78a1,1,0,0,1,.47-1.17l7.8-4.34a1,1,0,0,1,1,0l7.8,4.34a1,1,0,0,1,.47,1.17L15.22,18.29a1,1,0,0,1-1,.71H5.74A1,1,0,0,1,4.78,18.29Z" fill="hsl(25, 34%, 34%)"/></g></svg>