<svg xmlns="http://www.w3.org/2000/svg" id="bakery-15" width="21" height="21" viewBox="0 0 21 21"><g><path d="M0,0 H21 V21 H0 Z" fill="none"/><path d="M8.294 7.382L9 12.5s0 1 1 1h1c1 0 1-1 1-1l0.706-5.118C12.706 6 10.5 6 10.5 6S8.291 6 8.294 7.382zM6.5 8C5 8 5 9 5 9l1 4h1.5c0.755 0 0.794-0.765 0.794-0.765L7.5 8h-1z m-2 2.5s-0.618-0.03-1.059 0.412C3 11.352 3 11.794 3 11.794V14h0.882C5 14 5 13 5 13l-0.5-2.5z" fill="hsl(236, 6%, 48%)" stroke="hsl(60, 5%, 100%)" stroke-linejoin="round" stroke-miterlimit="4px" stroke-width="2"/><path d="M14.5 8C16 8 16 9 16 9l-1 4h-1.5c-0.755 0-0.794-0.765-0.794-0.765L13.5 8h1z m2 2.5s0.618-0.03 1.059 0.412c0.441 0.44 0.441 0.882 0.441 0.882V14h-0.882C16 14 16 13 16 13l0.5-2.5z" fill="hsl(236, 6%, 48%)" stroke="hsl(60, 5%, 100%)" stroke-linejoin="round" stroke-miterlimit="4px" stroke-width="2"/><path d="M8.294 7.382L9 12.5s0 1 1 1h1c1 0 1-1 1-1l0.706-5.118C12.706 6 10.5 6 10.5 6S8.291 6 8.294 7.382zM6.5 8C5 8 5 9 5 9l1 4h1.5c0.755 0 0.794-0.765 0.794-0.765L7.5 8h-1z m-2 2.5s-0.618-0.03-1.059 0.412C3 11.352 3 11.794 3 11.794V14h0.882C5 14 5 13 5 13l-0.5-2.5z" fill="hsl(236, 6%, 48%)"/><path d="M14.5 8C16 8 16 9 16 9l-1 4h-1.5c-0.755 0-0.794-0.765-0.794-0.765L13.5 8h1z m2 2.5s0.618-0.03 1.059 0.412c0.441 0.44 0.441 0.882 0.441 0.882V14h-0.882C16 14 16 13 16 13l0.5-2.5z" fill="hsl(236, 6%, 48%)"/></g></svg>