<svg xmlns="http://www.w3.org/2000/svg" id="bakery-11" width="17" height="17" viewBox="0 0 17 17"><g><path d="M0,0 H17 V17 H0 Z" fill="none"/><path d="M7.5 5c-1 0-1 1-1 1L8 10.5s0 0.5 0.5 0.5 0.5-0.5 0.5-0.5L10.5 6s0-1-1-1h-2zM12 6.5l-2 4h1.5l1 1h0.5c1 0 1-0.9 1-0.9V9.3L12 6.5zM3 9.3v1.2s0.03 1.01 1 1c0.97-0.01 0.5 0 0.5 0l1-1H7l-2-4-2 2.8z" fill="hsl(236, 6%, 48%)" stroke="hsl(60, 5%, 100%)" stroke-linejoin="round" stroke-miterlimit="4px" stroke-width="2"/><path d="M7.5 5c-1 0-1 1-1 1L8 10.5s0 0.5 0.5 0.5 0.5-0.5 0.5-0.5L10.5 6s0-1-1-1h-2zM12 6.5l-2 4h1.5l1 1h0.5c1 0 1-0.9 1-0.9V9.3L12 6.5zM3 9.3v1.2s0.03 1.01 1 1c0.97-0.01 0.5 0 0.5 0l1-1H7l-2-4-2 2.8z" fill="hsl(236, 6%, 48%)"/></g></svg>