<svg xmlns="http://www.w3.org/2000/svg" id="bank-15" width="21" height="21" viewBox="0 0 21 21"><g><path d="M0,0 H21 V21 H0 Z" fill="none"/><path d="M4 6c-0.554 0-1 0.446-1 1v7c0 0.554 0.446 1 1 1h13c0.554 0 1-0.446 1-1V7c0-0.554-0.446-1-1-1H4z m0 1h1.5a0.5 0.5 0 1 1-0.5 0.5l-0.5 0.5a0.5 0.5 0 1 1-0.5 0.5V7z m6.5 0C11.88 7 13 8.567 13 10.5S11.88 14 10.5 14 8 12.433 8 10.5 9.120000000000001 7 10.5 7z m5 0H17v1.5a0.5 0.5 0 1 1-0.5-0.5l-0.5-0.5a0.5 0.5 0 1 1-0.5-0.5z m-5 1.5c-0.323 0-0.534 0.109-0.682 0.25h1.364c-0.148-0.141-0.359-0.25-0.682-0.25z m-0.875 0.5c-0.045 0.091-0.062 0.171-0.08 0.25h1.91c-0.018-0.079-0.034-0.159-0.08-0.25h-1.75z m-0.125 0.5v0.25h2V9.5h-2z m0 0.5v0.25h2V10h-2z m0 0.5v0.25h2V10.5h-2z m0 0.5l-0.25 0.25h2L11.5 11h-2z m-0.5 0.5s0.035 0.102 0.102 0.25h2.273L11 11.5H9zM4.5 12a0.5 0.5 0 0 1 0 1l0.5 0.5a0.5 0.5 0 1 1 0.5 0.5H4V12.5a0.5 0.5 0 0 1 0.5-0.5z m4.738 0c0.046 0.086 0.076 0.159 0.137 0.25h2.268c0.066-0.138 0.107-0.25 0.107-0.25H9.238zM16.5 12a0.5 0.5 0 0 1 0.5 0.5V14h-1.5a0.5 0.5 0 1 1 0.5-0.5l0.5-0.5a0.5 0.5 0 0 1 0-1z m-6.934 0.5c0.079 0.091 0.165 0.176 0.26 0.25h1.42c0.1-0.077 0.188-0.162 0.254-0.25H9.565999999999999z" fill="hsl(236, 6%, 48%)" stroke="hsl(60, 5%, 100%)" stroke-linejoin="round" stroke-miterlimit="4px" stroke-width="2"/><path d="M4 6c-0.554 0-1 0.446-1 1v7c0 0.554 0.446 1 1 1h13c0.554 0 1-0.446 1-1V7c0-0.554-0.446-1-1-1H4z m0 1h1.5a0.5 0.5 0 1 1-0.5 0.5l-0.5 0.5a0.5 0.5 0 1 1-0.5 0.5V7z m6.5 0C11.88 7 13 8.567 13 10.5S11.88 14 10.5 14 8 12.433 8 10.5 9.120000000000001 7 10.5 7z m5 0H17v1.5a0.5 0.5 0 1 1-0.5-0.5l-0.5-0.5a0.5 0.5 0 1 1-0.5-0.5z m-5 1.5c-0.323 0-0.534 0.109-0.682 0.25h1.364c-0.148-0.141-0.359-0.25-0.682-0.25z m-0.875 0.5c-0.045 0.091-0.062 0.171-0.08 0.25h1.91c-0.018-0.079-0.034-0.159-0.08-0.25h-1.75z m-0.125 0.5v0.25h2V9.5h-2z m0 0.5v0.25h2V10h-2z m0 0.5v0.25h2V10.5h-2z m0 0.5l-0.25 0.25h2L11.5 11h-2z m-0.5 0.5s0.035 0.102 0.102 0.25h2.273L11 11.5H9zM4.5 12a0.5 0.5 0 0 1 0 1l0.5 0.5a0.5 0.5 0 1 1 0.5 0.5H4V12.5a0.5 0.5 0 0 1 0.5-0.5z m4.738 0c0.046 0.086 0.076 0.159 0.137 0.25h2.268c0.066-0.138 0.107-0.25 0.107-0.25H9.238zM16.5 12a0.5 0.5 0 0 1 0.5 0.5V14h-1.5a0.5 0.5 0 1 1 0.5-0.5l0.5-0.5a0.5 0.5 0 0 1 0-1z m-6.934 0.5c0.079 0.091 0.165 0.176 0.26 0.25h1.42c0.1-0.077 0.188-0.162 0.254-0.25H9.565999999999999z" fill="hsl(236, 6%, 48%)"/></g></svg>