<svg xmlns="http://www.w3.org/2000/svg" id="bank-11" width="17" height="17" viewBox="0 0 17 17"><g><path d="M0,0 H17 V17 H0 Z" fill="none"/><path d="M4 5C3 5 3 6 3 6v5c0 1 1 1 1 1h9c1 0 1-1 1-1V6s0-1-1-1H4z m0 1h1.5a0.5 0.5 0 1 1-0.5 0.5l-0.5 0.5a0.5 0.5 0 1 1-0.5 0.5V6z m4.5 0c1.105 0 2 1.12 2 2.5S9.605 11 8.5 11s-2-1.12-2-2.5 0.895-2.5 2-2.5z m3 0H13v1.5a0.5 0.5 0 1 1-0.5-0.5L12 6.5a0.5 0.5 0 1 1-0.5-0.5z m-7 3a0.5 0.5 0 0 1 0 1l0.5 0.5a0.5 0.5 0 1 1 0.5 0.5H4V9.5a0.5 0.5 0 0 1 0.5-0.5z m8 0a0.5 0.5 0 0 1 0.5 0.5V11H11.5a0.5 0.5 0 1 1 0.5-0.5l0.5-0.5a0.5 0.5 0 0 1 0-1z" fill="hsl(236, 6%, 48%)" stroke="hsl(60, 5%, 100%)" stroke-linejoin="round" stroke-miterlimit="4px" stroke-width="2"/><path d="M7.902 7.25a1.157 1.157 0 0 0-0.2 0.25h1.597a1.158 1.158 0 0 0-0.201-0.25H7.902z m-0.316 0.5c-0.029 0.08-0.05 0.164-0.065 0.25h1.96a1.479 1.479 0 0 0-0.065-0.25h-1.83z m-0.086 0.5c0 0.084 0.006 0.168 0.02 0.25h1.959c0.013-0.082 0.02-0.166 0.021-0.25h-2z m0.086 0.5c0.031 0.089 0.07 0.173 0.117 0.25H9.3c0.046-0.077 0.084-0.161 0.115-0.25H7.586z m0.316 0.5l0.034 0.031L7.5 9.5h2l-0.436-0.219 0.034-0.031H7.902z m-0.32 0.5c0.029 0.079 0.056 0.16 0.11 0.25h1.626c0.053-0.091 0.078-0.171 0.106-0.25H7.582z m0.31 0.5c0.147 0.141 0.341 0.25 0.608 0.25 0.274 0 0.47-0.108 0.617-0.25H7.893z" fill="hsl(236, 6%, 48%)" stroke="hsl(60, 5%, 100%)" stroke-linejoin="round" stroke-miterlimit="4px" stroke-width="2"/><path d="M4 5C3 5 3 6 3 6v5c0 1 1 1 1 1h9c1 0 1-1 1-1V6s0-1-1-1H4z m0 1h1.5a0.5 0.5 0 1 1-0.5 0.5l-0.5 0.5a0.5 0.5 0 1 1-0.5 0.5V6z m4.5 0c1.105 0 2 1.12 2 2.5S9.605 11 8.5 11s-2-1.12-2-2.5 0.895-2.5 2-2.5z m3 0H13v1.5a0.5 0.5 0 1 1-0.5-0.5L12 6.5a0.5 0.5 0 1 1-0.5-0.5z m-7 3a0.5 0.5 0 0 1 0 1l0.5 0.5a0.5 0.5 0 1 1 0.5 0.5H4V9.5a0.5 0.5 0 0 1 0.5-0.5z m8 0a0.5 0.5 0 0 1 0.5 0.5V11H11.5a0.5 0.5 0 1 1 0.5-0.5l0.5-0.5a0.5 0.5 0 0 1 0-1z" fill="hsl(236, 6%, 48%)"/><path d="M7.902 7.25a1.157 1.157 0 0 0-0.2 0.25h1.597a1.158 1.158 0 0 0-0.201-0.25H7.902z m-0.316 0.5c-0.029 0.08-0.05 0.164-0.065 0.25h1.96a1.479 1.479 0 0 0-0.065-0.25h-1.83z m-0.086 0.5c0 0.084 0.006 0.168 0.02 0.25h1.959c0.013-0.082 0.02-0.166 0.021-0.25h-2z m0.086 0.5c0.031 0.089 0.07 0.173 0.117 0.25H9.3c0.046-0.077 0.084-0.161 0.115-0.25H7.586z m0.316 0.5l0.034 0.031L7.5 9.5h2l-0.436-0.219 0.034-0.031H7.902z m-0.32 0.5c0.029 0.079 0.056 0.16 0.11 0.25h1.626c0.053-0.091 0.078-0.171 0.106-0.25H7.582z m0.31 0.5c0.147 0.141 0.341 0.25 0.608 0.25 0.274 0 0.47-0.108 0.617-0.25H7.893z" fill="hsl(236, 6%, 48%)"/></g></svg>