<svg xmlns="http://www.w3.org/2000/svg" id="bar-11" width="17" height="17" viewBox="0 0 17 17"><g><path d="M0,0 H17 V17 H0 Z" fill="none"/><path d="M8.488 4C7.976 4 3.5 4 4 4.5L8 9v2.5C8 12 5.5 12 5.5 13h6C11.5 12 9 12 9 11.5V9l4-4.5C13.5 4 9 4 8.488 4zM5.5 5h6l-1 1h-4l-1-1z" fill="hsl(232, 20%, 54%)" stroke="hsl(60, 5%, 100%)" stroke-linejoin="round" stroke-miterlimit="4px" stroke-width="2"/><path d="M8.488 4C7.976 4 3.5 4 4 4.5L8 9v2.5C8 12 5.5 12 5.5 13h6C11.5 12 9 12 9 11.5V9l4-4.5C13.5 4 9 4 8.488 4zM5.5 5h6l-1 1h-4l-1-1z" fill="hsl(232, 20%, 54%)"/></g></svg>