<svg xmlns="http://www.w3.org/2000/svg" id="bar-15" width="21" height="21" viewBox="0 0 21 21"><g><path d="M0,0 H21 V21 H0 Z" fill="none"/><path d="M10.5 4c-2 0-7 0.25-6.5 0.75L10 11v4c0 1-3 0.5-3 2h7c0-1.5-3-1-3-2V11l6-6.25c0.5-0.5-4.5-0.75-6.5-0.75z m0 1c2.5 0 4.75 0.25 4.75 0.25L14.5 6h-8l-0.75-0.75S8 5 10.5 5z" fill="hsl(232, 20%, 54%)" stroke="hsl(60, 5%, 100%)" stroke-linejoin="round" stroke-miterlimit="4px" stroke-width="2"/><path d="M10.5 4c-2 0-7 0.25-6.5 0.75L10 11v4c0 1-3 0.5-3 2h7c0-1.5-3-1-3-2V11l6-6.25c0.5-0.5-4.5-0.75-6.5-0.75z m0 1c2.5 0 4.75 0.25 4.75 0.25L14.5 6h-8l-0.75-0.75S8 5 10.5 5z" fill="hsl(232, 20%, 54%)"/></g></svg>