<svg xmlns="http://www.w3.org/2000/svg" id="barcelona-metro" width="19" height="19" viewBox="0 0 19 19"><g><path d="M0,0 H19 V19 H0 Z" fill="none"/><path d="M9.5,19a2.237,2.237,0,0,1-1.35-.44h0L.77,13a1.84,1.84,0,0,1,0-3L8.15,4.44a2.281,2.281,0,0,1,2.69,0L18.23,10a1.84,1.84,0,0,1,0,3l-7.38,5.56A2.237,2.237,0,0,1,9.5,19Z" fill="hsl(0, 0%, 100%)" opacity="0.75"/><path d="M8.82,17.78,1.39,12.25a.91.91,0,0,1-.235-1.265.921.921,0,0,1,.235-.235L8.82,5.22a1.159,1.159,0,0,1,1.36,0l7.43,5.53a.91.91,0,0,1,.235,1.265.921.921,0,0,1-.235.235l-7.43,5.53A1.159,1.159,0,0,1,8.82,17.78Z" fill="hsl(0, 87%, 59%)"/><path d="M10,14.5,11.5,11,11.5,14.5,13,14.5,13,8.5,11.5,8.5,9.5,13,7.5,8.5,6,8.5,6,14.5,7.5,14.5,7.5,11,9,14.5,10,14.5 Z" fill="hsl(0, 0%, 100%)"/></g></svg>