<svg xmlns="http://www.w3.org/2000/svg" id="baseball-11" width="17" height="17" viewBox="0 0 17 17"><g><path d="M0,0 H17 V17 H0 Z" fill="none"/><path d="M10 6a1 1 0 1 1-2 0 1 1 0 0 1 2 0z m2.85 7.24l-3-4.85a0.86 0.86 0 0 0-0.5-0.39H5.5a0.5 0.5 0 0 0 0 1H8l0.92 1.09-2.73 3a0.49 0.49 0 0 0-0.19 0.41 0.5 0.5 0 0 0 0.5 0.5 0.49 0.49 0 0 0 0.33-0.13l3-2.71L12 13.81a0.49 0.49 0 0 0 0.38 0.19 0.5 0.5 0 0 0 0.5-0.5 0.49 0.49 0 0 0-0.03-0.26zM7 3.2800000000000002A0.28 0.28 0 0 0 6.720000000000001 3a0.49 0.49 0 0 0-0.25 0.16L5 7.59a0.48 0.48 0 0 0 0 0.13c0 0.155 0.125 0.28 0.28 0.28a0.49 0.49 0 0 0 0.26-0.16L7 3.41a0.472 0.472 0 0 0 0-0.13z" fill="hsl(236, 6%, 48%)" stroke="hsl(60, 5%, 100%)" stroke-linejoin="round" stroke-miterlimit="4px" stroke-width="2"/><path d="M10 6a1 1 0 1 1-2 0 1 1 0 0 1 2 0z m2.85 7.24l-3-4.85a0.86 0.86 0 0 0-0.5-0.39H5.5a0.5 0.5 0 0 0 0 1H8l0.92 1.09-2.73 3a0.49 0.49 0 0 0-0.19 0.41 0.5 0.5 0 0 0 0.5 0.5 0.49 0.49 0 0 0 0.33-0.13l3-2.71L12 13.81a0.49 0.49 0 0 0 0.38 0.19 0.5 0.5 0 0 0 0.5-0.5 0.49 0.49 0 0 0-0.03-0.26zM7 3.2800000000000002A0.28 0.28 0 0 0 6.720000000000001 3a0.49 0.49 0 0 0-0.25 0.16L5 7.59a0.48 0.48 0 0 0 0 0.13c0 0.155 0.125 0.28 0.28 0.28a0.49 0.49 0 0 0 0.26-0.16L7 3.41a0.472 0.472 0 0 0 0-0.13z" fill="hsl(236, 6%, 48%)"/></g></svg>