<svg xmlns="http://www.w3.org/2000/svg" id="baseball-15" width="21" height="21" viewBox="0 0 21 21"><g><path d="M0,0 H21 V21 H0 Z" fill="none"/><path d="M13 6.5a1.5 1.5 0 1 1-3 0 1.5 1.5 0 0 1 3 0zM10 3.2800000000000002A0.28 0.28 0 0 0 9.719999999999999 3a0.49 0.49 0 0 0-0.25 0.16L7 7.59a0.48 0.48 0 0 0 0 0.13c0 0.155 0.125 0.28 0.28 0.28a0.49 0.49 0 0 0 0.26-0.16L10 3.41a0.472 0.472 0 0 0 0-0.13z m5.9 13.92L13 9.39A0.49 0.49 0 0 0 12.52 9h-5a0.5 0.5 0 0 0 0 1H10l1.45 2.51-4.27 4.61a0.49 0.49 0 0 0-0.18 0.38 0.5 0.5 0 0 0 0.5 0.5 0.49 0.49 0 0 0 0.33-0.13l4.45-4.15 2.76 4a0.51 0.51 0 0 0 0.44 0.26c0.28 0 0.51-0.22 0.52-0.5a0.5 0.5 0 0 0-0.1-0.28z" fill="hsl(236, 6%, 48%)" stroke="hsl(60, 5%, 100%)" stroke-linejoin="round" stroke-miterlimit="4px" stroke-width="2"/><path d="M13 6.5a1.5 1.5 0 1 1-3 0 1.5 1.5 0 0 1 3 0zM10 3.2800000000000002A0.28 0.28 0 0 0 9.719999999999999 3a0.49 0.49 0 0 0-0.25 0.16L7 7.59a0.48 0.48 0 0 0 0 0.13c0 0.155 0.125 0.28 0.28 0.28a0.49 0.49 0 0 0 0.26-0.16L10 3.41a0.472 0.472 0 0 0 0-0.13z m5.9 13.92L13 9.39A0.49 0.49 0 0 0 12.52 9h-5a0.5 0.5 0 0 0 0 1H10l1.45 2.51-4.27 4.61a0.49 0.49 0 0 0-0.18 0.38 0.5 0.5 0 0 0 0.5 0.5 0.49 0.49 0 0 0 0.33-0.13l4.45-4.15 2.76 4a0.51 0.51 0 0 0 0.44 0.26c0.28 0 0.51-0.22 0.52-0.5a0.5 0.5 0 0 0-0.1-0.28z" fill="hsl(236, 6%, 48%)"/></g></svg>