<svg xmlns="http://www.w3.org/2000/svg" id="basketball-11" width="17" height="17" viewBox="0 0 17 17"><g><path d="M0,0 H17 V17 H0 Z" fill="none"/><path d="M5.63 6.51a5.155 5.155 0 0 1 0.34 1.48h-0.93a3.259 3.259 0 0 1 0.59-1.48z m0.55-0.63a6.202 6.202 0 0 1 0.55 2.11h1.39V5.01a3.426 3.426 0 0 0-1.94 0.87z m2.7-0.87v2.98h1.39a6.202 6.202 0 0 1 0.55-2.11 3.426 3.426 0 0 0-1.94-0.87z m2.49 1.5a5.155 5.155 0 0 0-0.34 1.48h0.93a3.259 3.259 0 0 0-0.59-1.48zM12.9 9.5a0.495 0.495 0 0 1-0.49 0.5h-0.97l-0.53 1.05v1.7a0.218 0.218 0 0 1-0.14 0.2 0.236 0.236 0 0 1-0.08 0.02 0.199 0.199 0 0 1-0.16-0.07l-0.75-0.74-1.16 0.77a0.21 0.21 0 0 1-0.24 0l-1.16-0.77-0.75 0.74a0.222 0.222 0 0 1-0.38-0.15v-1.7L5.57 10H4.6a0.5 0.5 0 1 1 0-1h7.8a0.495 0.495 0 0 1 0.5 0.49zM6.529999999999999 11v1.22l0.5-0.5c0.01 0 0.01-0.01 0.02-0.01L8.1 10H6.0600000000000005l0.45 0.9a0.356 0.356 0 0 1 0.02 0.1z m2.97 0.82l-1-1.63-1 1.63 1 0.67zM10.940000000000001 10H8.9l1.05 1.71c0.01 0 0.01 0.01 0.02 0.01l0.5 0.5V11a0.356 0.356 0 0 1 0.02-0.1z" fill="hsl(236, 6%, 48%)" stroke="hsl(60, 5%, 100%)" stroke-linejoin="round" stroke-miterlimit="4px" stroke-width="2"/><path d="M5.63 6.51a5.155 5.155 0 0 1 0.34 1.48h-0.93a3.259 3.259 0 0 1 0.59-1.48z m0.55-0.63a6.202 6.202 0 0 1 0.55 2.11h1.39V5.01a3.426 3.426 0 0 0-1.94 0.87z m2.7-0.87v2.98h1.39a6.202 6.202 0 0 1 0.55-2.11 3.426 3.426 0 0 0-1.94-0.87z m2.49 1.5a5.155 5.155 0 0 0-0.34 1.48h0.93a3.259 3.259 0 0 0-0.59-1.48zM12.9 9.5a0.495 0.495 0 0 1-0.49 0.5h-0.97l-0.53 1.05v1.7a0.218 0.218 0 0 1-0.14 0.2 0.236 0.236 0 0 1-0.08 0.02 0.199 0.199 0 0 1-0.16-0.07l-0.75-0.74-1.16 0.77a0.21 0.21 0 0 1-0.24 0l-1.16-0.77-0.75 0.74a0.222 0.222 0 0 1-0.38-0.15v-1.7L5.57 10H4.6a0.5 0.5 0 1 1 0-1h7.8a0.495 0.495 0 0 1 0.5 0.49zM6.529999999999999 11v1.22l0.5-0.5c0.01 0 0.01-0.01 0.02-0.01L8.1 10H6.0600000000000005l0.45 0.9a0.356 0.356 0 0 1 0.02 0.1z m2.97 0.82l-1-1.63-1 1.63 1 0.67zM10.940000000000001 10H8.9l1.05 1.71c0.01 0 0.01 0.01 0.02 0.01l0.5 0.5V11a0.356 0.356 0 0 1 0.02-0.1z" fill="hsl(236, 6%, 48%)"/></g></svg>