<svg xmlns="http://www.w3.org/2000/svg" id="basketball-15" width="21" height="21" viewBox="0 0 21 21"><g><path d="M0,0 H21 V21 H0 Z" fill="none"/><path d="M6.66 10.001999999999999H5.029999999999999a5.323 5.323 0 0 1 1.01-2.71 8.712 8.712 0 0 1 0.62 2.71z m1.075 0h2.34v-4.97a5.458 5.458 0 0 0-3.24 1.44 9.295 9.295 0 0 1 0.9 3.53z m3.19-4.97v4.97h2.34a9.295 9.295 0 0 1 0.9-3.53 5.458 5.458 0 0 0-3.24-1.44z m4.035 2.26a8.712 8.712 0 0 0-0.62 2.71h1.63a5.323 5.323 0 0 0-1.01-2.71zM17 11.752a0.755 0.755 0 0 1-0.75 0.75h-1.53l-0.76 1.52v2.38a0.392 0.392 0 0 1-0.24 0.35 0.586 0.586 0 0 1-0.14 0.02 0.327 0.327 0 0 1-0.26-0.11l-1.02-1.01-1.59 1.06a0.398 0.398 0 0 1-0.42 0l-1.59-1.06-1.02 1.01a0.37 0.37 0 0 1-0.4 0.09 0.392 0.392 0 0 1-0.24-0.35v-2.38l-0.76-1.52H4.75a0.75 0.75 0 0 1 0-1.5h11.5a0.749 0.749 0 0 1 0.75 0.748z m-7.14 0.75H7.12l0.63 1.27a0.318 0.318 0 0 1 0.04 0.16v1.56l0.56-0.55z m1.98 2.55L10.5 12.892l-1.34 2.16 1.34 0.9z m2.05-2.55H11.14l1.51 2.44 0.56 0.55v-1.56a0.318 0.318 0 0 1 0.04-0.16z" fill="hsl(236, 6%, 48%)" stroke="hsl(60, 5%, 100%)" stroke-linejoin="round" stroke-miterlimit="4px" stroke-width="2"/><path d="M6.66 10.001999999999999H5.029999999999999a5.323 5.323 0 0 1 1.01-2.71 8.712 8.712 0 0 1 0.62 2.71z m1.075 0h2.34v-4.97a5.458 5.458 0 0 0-3.24 1.44 9.295 9.295 0 0 1 0.9 3.53z m3.19-4.97v4.97h2.34a9.295 9.295 0 0 1 0.9-3.53 5.458 5.458 0 0 0-3.24-1.44z m4.035 2.26a8.712 8.712 0 0 0-0.62 2.71h1.63a5.323 5.323 0 0 0-1.01-2.71zM17 11.752a0.755 0.755 0 0 1-0.75 0.75h-1.53l-0.76 1.52v2.38a0.392 0.392 0 0 1-0.24 0.35 0.586 0.586 0 0 1-0.14 0.02 0.327 0.327 0 0 1-0.26-0.11l-1.02-1.01-1.59 1.06a0.398 0.398 0 0 1-0.42 0l-1.59-1.06-1.02 1.01a0.37 0.37 0 0 1-0.4 0.09 0.392 0.392 0 0 1-0.24-0.35v-2.38l-0.76-1.52H4.75a0.75 0.75 0 0 1 0-1.5h11.5a0.749 0.749 0 0 1 0.75 0.748z m-7.14 0.75H7.12l0.63 1.27a0.318 0.318 0 0 1 0.04 0.16v1.56l0.56-0.55z m1.98 2.55L10.5 12.892l-1.34 2.16 1.34 0.9z m2.05-2.55H11.14l1.51 2.44 0.56 0.55v-1.56a0.318 0.318 0 0 1 0.04-0.16z" fill="hsl(236, 6%, 48%)"/></g></svg>