<svg xmlns="http://www.w3.org/2000/svg" id="beach-15" width="21" height="21" viewBox="0 0 21 21"><g><path d="M0,0 H21 V21 H0 Z" fill="none"/><path d="M8.36 4.67l-0.01 4.02a4.452 4.452 0 0 0-1.1-0.11c-0.37 0.1-0.74 0.63-1.1 0.76a4.202 4.202 0 0 1 2.21-4.67z m2.41-0.64L12.8 7.48a3.183 3.183 0 0 1 0.84-0.61c0.36-0.1 0.94 0.17 1.34 0.11a4.202 4.202 0 0 0-4.21-2.95zM4 16h13c-0.66-0.66-2.64-1.11-4.34-1.33l-1.87-7c0.52-0.05 1.15 0.03 1.53 0l-2.11-3.6H10.2a6.174 6.174 0 0 0-0.7 0.14 4.38 4.38 0 0 0-0.64 0.22l-0.01 4.15c0.35-0.17 0.84-0.54 1.3-0.74l1.8 6.74c-0.58-0.05-1.09-0.08-1.45-0.08C9.030000000000001 14.5 5 15 4 16z" fill="hsl(236, 6%, 48%)" stroke="hsl(60, 5%, 100%)" stroke-linejoin="round" stroke-miterlimit="4px" stroke-width="2"/><path d="M8.36 4.67l-0.01 4.02a4.452 4.452 0 0 0-1.1-0.11c-0.37 0.1-0.74 0.63-1.1 0.76a4.202 4.202 0 0 1 2.21-4.67z m2.41-0.64L12.8 7.48a3.183 3.183 0 0 1 0.84-0.61c0.36-0.1 0.94 0.17 1.34 0.11a4.202 4.202 0 0 0-4.21-2.95zM4 16h13c-0.66-0.66-2.64-1.11-4.34-1.33l-1.87-7c0.52-0.05 1.15 0.03 1.53 0l-2.11-3.6H10.2a6.174 6.174 0 0 0-0.7 0.14 4.38 4.38 0 0 0-0.64 0.22l-0.01 4.15c0.35-0.17 0.84-0.54 1.3-0.74l1.8 6.74c-0.58-0.05-1.09-0.08-1.45-0.08C9.030000000000001 14.5 5 15 4 16z" fill="hsl(236, 6%, 48%)"/></g></svg>