<svg xmlns="http://www.w3.org/2000/svg" id="beach-11" width="17" height="17" viewBox="0 0 17 17"><g><path d="M0,0 H17 V17 H0 Z" fill="none"/><path d="M6.5 4.65v2.82a1.703 1.703 0 0 0-0.58-0.04c-0.28 0.07-0.56 0.47-0.83 0.57A3.126 3.126 0 0 1 6.5 4.65z m2.31-0.62l1.45 2.42a1.216 1.216 0 0 1 0.45-0.31c0.27-0.07 0.7 0.13 1 0.09a3.106 3.106 0 0 0-2.9-2.2zM3.984 13h8.99A4.84 4.84 0 0 0 9.9 11.68L8.57 6.74c0.46-0.04 1.02 0.06 1.27-0.01L8.23 4.04a3.525 3.525 0 0 0-0.62 0.11 2.96 2.96 0 0 0-0.61 0.23v3.1c0.25-0.08 0.68-0.42 1.08-0.6l1.27 4.75q-0.39-0.03-0.84-0.03C4.99 11.6 3.984 13 3.984 13z" fill="hsl(236, 6%, 48%)" stroke="hsl(60, 5%, 100%)" stroke-linejoin="round" stroke-miterlimit="4px" stroke-width="2"/><path d="M6.5 4.65v2.82a1.703 1.703 0 0 0-0.58-0.04c-0.28 0.07-0.56 0.47-0.83 0.57A3.126 3.126 0 0 1 6.5 4.65z m2.31-0.62l1.45 2.42a1.216 1.216 0 0 1 0.45-0.31c0.27-0.07 0.7 0.13 1 0.09a3.106 3.106 0 0 0-2.9-2.2zM3.984 13h8.99A4.84 4.84 0 0 0 9.9 11.68L8.57 6.74c0.46-0.04 1.02 0.06 1.27-0.01L8.23 4.04a3.525 3.525 0 0 0-0.62 0.11 2.96 2.96 0 0 0-0.61 0.23v3.1c0.25-0.08 0.68-0.42 1.08-0.6l1.27 4.75q-0.39-0.03-0.84-0.03C4.99 11.6 3.984 13 3.984 13z" fill="hsl(236, 6%, 48%)"/></g></svg>