<svg xmlns="http://www.w3.org/2000/svg" id="beer-11" width="17" height="17" viewBox="0 0 17 17"><g><path d="M0,0 H17 V17 H0 Z" fill="none"/><path d="M8.5 4c-2.3 0-3 0.66-3 0.66v2a6.6 6.6 0 0 0 0.66 2.65 4.13 4.13 0 0 1 0 3s0 0.66 2.32 0.66 2.32-0.66 2.32-0.66a4.13 4.13 0 0 1 0-3 6.6 6.6 0 0 0 0.66-2.65v-2S10.8 4 8.5 4z m0 8.28a4.77 4.77 0 0 1-1.56-0.18c0.133-0.479 0.2-0.973 0.2-1.47h2.72c-0.014 0.22-0.014 0.44 0 0.66 0.034 0.274 0.087 0.544 0.16 0.81a4.77 4.77 0 0 1-1.52 0.19v-0.01z m2.32-6a8.24 8.24 0 0 1-4.63 0L6.18 5a8.28 8.28 0 0 1 4.64 0s0.03 1.33 0 1.33v-0.05z" fill="hsl(232, 20%, 54%)" stroke="hsl(60, 5%, 100%)" stroke-linejoin="round" stroke-miterlimit="4px" stroke-width="2"/><path d="M8.5 4c-2.3 0-3 0.66-3 0.66v2a6.6 6.6 0 0 0 0.66 2.65 4.13 4.13 0 0 1 0 3s0 0.66 2.32 0.66 2.32-0.66 2.32-0.66a4.13 4.13 0 0 1 0-3 6.6 6.6 0 0 0 0.66-2.65v-2S10.8 4 8.5 4z m0 8.28a4.77 4.77 0 0 1-1.56-0.18c0.133-0.479 0.2-0.973 0.2-1.47h2.72c-0.014 0.22-0.014 0.44 0 0.66 0.034 0.274 0.087 0.544 0.16 0.81a4.77 4.77 0 0 1-1.52 0.19v-0.01z m2.32-6a8.24 8.24 0 0 1-4.63 0L6.18 5a8.28 8.28 0 0 1 4.64 0s0.03 1.33 0 1.33v-0.05z" fill="hsl(232, 20%, 54%)"/></g></svg>