<svg xmlns="http://www.w3.org/2000/svg" id="beer-15" width="21" height="21" viewBox="0 0 21 21"><g><path d="M0,0 H21 V21 H0 Z" fill="none"/><path d="M15 8V5s-1-1-4.5-1S6 5 6 5v3a9.27 9.27 0 0 0 1 4 5.63 5.63 0 0 1 0 4.5s0 1 3.5 1 3.5-1 3.5-1A5.63 5.63 0 0 1 14 12a9.27 9.27 0 0 0 1-4z m-4.5 8.5a7.368 7.368 0 0 1-2.36-0.28c0.203-0.722 0.304-1.47 0.3-2.22h4.12c-0.004 0.75 0.097 1.498 0.3 2.22a7.368 7.368 0 0 1-2.36 0.28z m0-8.5c-1.186 0.03-2.37-0.14-3.5-0.5v-2A10.74 10.74 0 0 1 10.5 5a10.74 10.74 0 0 1 3.5 0.5v2c-1.13 0.36-2.314 0.53-3.5 0.5z" fill="hsl(232, 20%, 54%)" stroke="hsl(60, 5%, 100%)" stroke-linejoin="round" stroke-miterlimit="4px" stroke-width="2"/><path d="M15 8V5s-1-1-4.5-1S6 5 6 5v3a9.27 9.27 0 0 0 1 4 5.63 5.63 0 0 1 0 4.5s0 1 3.5 1 3.5-1 3.5-1A5.63 5.63 0 0 1 14 12a9.27 9.27 0 0 0 1-4z m-4.5 8.5a7.368 7.368 0 0 1-2.36-0.28c0.203-0.722 0.304-1.47 0.3-2.22h4.12c-0.004 0.75 0.097 1.498 0.3 2.22a7.368 7.368 0 0 1-2.36 0.28z m0-8.5c-1.186 0.03-2.37-0.14-3.5-0.5v-2A10.74 10.74 0 0 1 10.5 5a10.74 10.74 0 0 1 3.5 0.5v2c-1.13 0.36-2.314 0.53-3.5 0.5z" fill="hsl(232, 20%, 54%)"/></g></svg>