<svg xmlns="http://www.w3.org/2000/svg" id="bicycle-share" width="17" height="17" viewBox="0 0 17 17"><g><path d="M2,1 H15 C15,1 16,1 16,2 V15 C16,15 16,16 15,16 H2 C2,16 1,16 1,15 V2 C1,2 1,1 2,1" fill="hsl(230, 54%, 30%)" stroke="hsl(60, 5%, 100%)" stroke-linejoin="round" stroke-miterlimit="4px" stroke-width="2"/><path d="M2,1 H15 C15,1 16,1 16,2 V15 C16,15 16,16 15,16 H2 C2,16 1,16 1,15 V2 C1,2 1,1 2,1" fill="hsl(230, 54%, 30%)"/><path d="M10 4a1 1 0 1 1 1 1 1 1 0 0 1-1-1zM4.973 10.1a1.5 1.5 0 0 1 1.654 0.408 0.5 0.5 0 0 0 0.749-0.663A2.519 2.519 0 0 0 5.3629999999999995 9a2.5 2.5 0 1 0 2.008 4.158 0.5 0.5 0 0 0-0.748-0.658 1.5 1.5 0 1 1-1.65-2.4zM10.1 7.8a0.5 0.5 0 0 0 0.4 0.2h2a0.5 0.5 0 1 0 0.014-1H10.75L9.4 5.2a0.5 0.5 0 0 0-0.386-0.2 0.506 0.506 0 0 0-0.368 0.147l-2 2a0.5 0.5 0 0 0 0 0.707L8 9.207V11.5a0.5 0.5 0 0 0 1 0.015V9a0.505 0.505 0 0 0-0.144-0.353L8.1 7.895l1.165-1.2z m2.287 1.362A2.526 2.526 0 0 0 11.643 9a2.525 2.525 0 0 0-2.014 0.838 0.5 0.5 0 0 0 0.75 0.664 1.5 1.5 0 1 1 0 1.992 0.5 0.5 0 0 0-0.78 0.627 0.596 0.596 0 0 0 0.034 0.037 2.5 2.5 0 1 0 2.752-4z" fill="hsl(60, 5%, 100%)"/></g></svg>