<svg xmlns="http://www.w3.org/2000/svg" id="bicycle-11" width="17" height="17" viewBox="0 0 17 17"><g><path d="M0,0 H17 V17 H0 Z" fill="none"/><path d="M9.5 4.5c-0.676-0.01-0.676 1.01 0 1H10v0.711l-2.748 1.57L6.7379999999999995 6.5h0.715c0.676 0.01 0.676-1.01 0-1H5.426c-0.676-0.01-0.676 1.01 0 1h0.234l0.432 1.078A2.461 2.461 0 0 0 5.5 7.5C4.125 7.5 3 8.625 3 10s1.125 2.5 2.5 2.5S8 11.375 8 10c0-0.471-0.14-0.908-0.37-1.285l2.472-1.412 0.402 0.408A2.507 2.507 0 0 0 9 10.001000000000001c0 1.374 1.125 2.5 2.5 2.5S14 11.374 14 10c0-1.297-1.003-2.358-2.27-2.478L11 6.7940000000000005V5a0.5 0.5 0 0 0-0.5-0.5h-1z m-4 4C6.334 8.5 7 9.166 7 10s-0.666 1.5-1.5 1.5S4 10.834 4 10s0.666-1.5 1.5-1.5z m5.955 0.004h0.002a0.45 0.45 0 0 0 0.09 0A1.49 1.49 0 0 1 13 10c0 0.834-0.666 1.5-1.5 1.5S10 10.835 10 10a1.49 1.49 0 0 1 1.455-1.496z" fill="hsl(236, 6%, 48%)" stroke="hsl(60, 5%, 100%)" stroke-linejoin="round" stroke-miterlimit="4px" stroke-width="2"/><path d="M9.5 4.5c-0.676-0.01-0.676 1.01 0 1H10v0.711l-2.748 1.57L6.7379999999999995 6.5h0.715c0.676 0.01 0.676-1.01 0-1H5.426c-0.676-0.01-0.676 1.01 0 1h0.234l0.432 1.078A2.461 2.461 0 0 0 5.5 7.5C4.125 7.5 3 8.625 3 10s1.125 2.5 2.5 2.5S8 11.375 8 10c0-0.471-0.14-0.908-0.37-1.285l2.472-1.412 0.402 0.408A2.507 2.507 0 0 0 9 10.001000000000001c0 1.374 1.125 2.5 2.5 2.5S14 11.374 14 10c0-1.297-1.003-2.358-2.27-2.478L11 6.7940000000000005V5a0.5 0.5 0 0 0-0.5-0.5h-1z m-4 4C6.334 8.5 7 9.166 7 10s-0.666 1.5-1.5 1.5S4 10.834 4 10s0.666-1.5 1.5-1.5z m5.955 0.004h0.002a0.45 0.45 0 0 0 0.09 0A1.49 1.49 0 0 1 13 10c0 0.834-0.666 1.5-1.5 1.5S10 10.835 10 10a1.49 1.49 0 0 1 1.455-1.496z" fill="hsl(236, 6%, 48%)"/></g></svg>