<svg xmlns="http://www.w3.org/2000/svg" id="bicycle-15" width="21" height="21" viewBox="0 0 21 21"><g><path d="M0,0 H21 V21 H0 Z" fill="none"/><path d="M10.5 5c-0.676-0.01-0.676 1.01 0 1H12v1.266L9.197 9.6 8.222999999999999 7H8.5c0.676 0.01 0.676-1.01 0-1h-2c-0.676-0.01-0.676 1.01 0 1h0.652l0.891 2.375A3.45 3.45 0 0 0 6.5 9C4.573 9 3 10.573 3 12.5S4.573 16 6.5 16 10 14.427 10 12.5c0-0.67-0.2-1.291-0.53-1.824l2.821-2.35 0.463 1.16C11.71 10.094000000000001 11 11.211 11 12.5c0 1.927 1.573 3.5 3.5 3.5S18 14.427 18 12.5 16.427 9 14.5 9c-0.283 0-0.554 0.043-0.818 0.107L13 7.402V5.5a0.5 0.5 0 0 0-0.5-0.5h-2z m-4 5a2.48 2.48 0 0 1 1.555 0.553L6.18 12.115c-0.511 0.427 0.128 1.195 0.64 0.77l1.875-1.563c0.188 0.352 0.305 0.75 0.305 1.178C9 13.887 7.887 15 6.5 15S4 13.887 4 12.5 5.1129999999999995 10 6.5 10z m8 0C15.887 10 17 11.113 17 12.5S15.887 15 14.5 15 12 13.887 12 12.5c0-0.877 0.447-1.642 1.125-2.088l0.91 2.274c0.246 0.623 1.18 0.25 0.93-0.372l-0.908-2.27C14.2 10.02 14.348 10 14.5 10z" fill="hsl(236, 6%, 48%)" stroke="hsl(60, 5%, 100%)" stroke-linejoin="round" stroke-miterlimit="4px" stroke-width="2"/><path d="M10.5 5c-0.676-0.01-0.676 1.01 0 1H12v1.266L9.197 9.6 8.222999999999999 7H8.5c0.676 0.01 0.676-1.01 0-1h-2c-0.676-0.01-0.676 1.01 0 1h0.652l0.891 2.375A3.45 3.45 0 0 0 6.5 9C4.573 9 3 10.573 3 12.5S4.573 16 6.5 16 10 14.427 10 12.5c0-0.67-0.2-1.291-0.53-1.824l2.821-2.35 0.463 1.16C11.71 10.094000000000001 11 11.211 11 12.5c0 1.927 1.573 3.5 3.5 3.5S18 14.427 18 12.5 16.427 9 14.5 9c-0.283 0-0.554 0.043-0.818 0.107L13 7.402V5.5a0.5 0.5 0 0 0-0.5-0.5h-2z m-4 5a2.48 2.48 0 0 1 1.555 0.553L6.18 12.115c-0.511 0.427 0.128 1.195 0.64 0.77l1.875-1.563c0.188 0.352 0.305 0.75 0.305 1.178C9 13.887 7.887 15 6.5 15S4 13.887 4 12.5 5.1129999999999995 10 6.5 10z m8 0C15.887 10 17 11.113 17 12.5S15.887 15 14.5 15 12 13.887 12 12.5c0-0.877 0.447-1.642 1.125-2.088l0.91 2.274c0.246 0.623 1.18 0.25 0.93-0.372l-0.908-2.27C14.2 10.02 14.348 10 14.5 10z" fill="hsl(236, 6%, 48%)"/></g></svg>