<svg xmlns="http://www.w3.org/2000/svg" id="boston-t" width="19" height="19" viewBox="0 0 19 19"><g><path d="M9.5,19A9.5,9.5,0,1,1,19,9.5,9.5,9.5,0,0,1,9.5,19Z" fill="hsl(0, 0%, 100%)" opacity="0.75"/><path d="M9.5,9.5 m-8.5,0 a8.5,8.5 0 1,0 17,0 a8.5,8.5 0 1,0 -17,0" fill="hsl(230, 18%, 13%)"/><path d="M9.5,9.5 m-7.5,0 a7.5,7.5 0 1,0 15,0 a7.5,7.5 0 1,0 -15,0" fill="hsl(0, 0%, 100%)"/><path d="M14,6,5,6,5,8,8.5,8,8.5,15,10.5,15,10.5,8,14,8,14,6 Z" fill="hsl(230, 18%, 13%)"/><path d="M0,0 H19 V19 H0 Z" fill="none"/></g></svg>