<svg xmlns="http://www.w3.org/2000/svg" id="bowling-alley-15" width="21" height="21" viewBox="0 0 21 21"><g><path d="M0,0 H21 V21 H0 Z" fill="none"/><path d="M11.83 8.39a11.013 11.013 0 0 0-0.96 4.28 11.469 11.469 0 0 0 0.58 3.69A4.942 4.942 0 0 1 9 17a5 5 0 1 1 2.98-9.01c-0.04 0.13-0.1 0.26-0.15 0.4zM7.12 11.5a0.62 0.62 0 1 0-0.62 0.62 0.61 0.61 0 0 0 0.62-0.6V11.5z m0.38-1.38a0.62 0.62 0 1 0-0.62-0.62 0.61 0.61 0 0 0 0.601 0.62zM9.120000000000001 11.5a0.62 0.62 0 1 0-0.62 0.62 0.61 0.61 0 0 0 0.62-0.6V11.5z m4.802-5.334c0-0.722-0.144-0.722-0.144-1.445a0.722 0.722 0 0 1 1.444 0c0 0.723-0.144 0.723-0.144 1.445 0 2.167 1.553 3.617 1.553 6.5 0 2.167-0.686 4.333-1.409 4.333h-1.444c-0.722 0-1.409-2.166-1.409-4.333 0-2.883 1.553-4.334 1.553-6.5z" fill="hsl(236, 6%, 48%)" stroke="hsl(60, 5%, 100%)" stroke-linejoin="round" stroke-miterlimit="4px" stroke-width="2"/><path d="M11.83 8.39a11.013 11.013 0 0 0-0.96 4.28 11.469 11.469 0 0 0 0.58 3.69A4.942 4.942 0 0 1 9 17a5 5 0 1 1 2.98-9.01c-0.04 0.13-0.1 0.26-0.15 0.4zM7.12 11.5a0.62 0.62 0 1 0-0.62 0.62 0.61 0.61 0 0 0 0.62-0.6V11.5z m0.38-1.38a0.62 0.62 0 1 0-0.62-0.62 0.61 0.61 0 0 0 0.601 0.62zM9.120000000000001 11.5a0.62 0.62 0 1 0-0.62 0.62 0.61 0.61 0 0 0 0.62-0.6V11.5z m4.802-5.334c0-0.722-0.144-0.722-0.144-1.445a0.722 0.722 0 0 1 1.444 0c0 0.723-0.144 0.723-0.144 1.445 0 2.167 1.553 3.617 1.553 6.5 0 2.167-0.686 4.333-1.409 4.333h-1.444c-0.722 0-1.409-2.166-1.409-4.333 0-2.883 1.553-4.334 1.553-6.5z" fill="hsl(236, 6%, 48%)"/></g></svg>