<svg xmlns="http://www.w3.org/2000/svg" id="bowling-alley-11" width="17" height="17" viewBox="0 0 17 17"><g><path d="M0,0 H17 V17 H0 Z" fill="none"/><path d="M9.02 6.9399999999999995c0.04-0.1 0.13-0.4 0.17-0.49A2.825 2.825 0 0 0 7.5 6a3.5 3.5 0 0 0 0 7 2.88 2.88 0 0 0 1.54-0.4 8.597 8.597 0 0 1-0.4-2.61 12.759 12.759 0 0 1 0.38-3.05zM5.5 9.98a0.48 0.48 0 1 1 0.48-0.48 0.487 0.487 0 0 1-0.48 0.48z m1-2a0.48 0.48 0 1 1 0.48-0.48 0.487 0.487 0 0 1-0.48 0.48z m1 2a0.48 0.48 0 1 1 0.48-0.48 0.487 0.487 0 0 1-0.48 0.48zM11.098 5.5c0-0.5-0.1-0.5-0.1-1 0-0.782 0.5-0.7 0.5-0.7s0.5-0.082 0.5 0.7c0 0.5-0.1 0.5-0.1 1 0 1.5 1.075 2.503 1.075 4.5 0 1.5-0.475 3-0.975 3h-1c-0.5 0-0.975-1.5-0.975-3 0-1.997 1.075-3 1.075-4.5z" fill="hsl(236, 6%, 48%)" stroke="hsl(60, 5%, 100%)" stroke-linejoin="round" stroke-miterlimit="4px" stroke-width="2"/><path d="M9.02 6.9399999999999995c0.04-0.1 0.13-0.4 0.17-0.49A2.825 2.825 0 0 0 7.5 6a3.5 3.5 0 0 0 0 7 2.88 2.88 0 0 0 1.54-0.4 8.597 8.597 0 0 1-0.4-2.61 12.759 12.759 0 0 1 0.38-3.05zM5.5 9.98a0.48 0.48 0 1 1 0.48-0.48 0.487 0.487 0 0 1-0.48 0.48z m1-2a0.48 0.48 0 1 1 0.48-0.48 0.487 0.487 0 0 1-0.48 0.48z m1 2a0.48 0.48 0 1 1 0.48-0.48 0.487 0.487 0 0 1-0.48 0.48zM11.098 5.5c0-0.5-0.1-0.5-0.1-1 0-0.782 0.5-0.7 0.5-0.7s0.5-0.082 0.5 0.7c0 0.5-0.1 0.5-0.1 1 0 1.5 1.075 2.503 1.075 4.5 0 1.5-0.475 3-0.975 3h-1c-0.5 0-0.975-1.5-0.975-3 0-1.997 1.075-3 1.075-4.5z" fill="hsl(236, 6%, 48%)"/></g></svg>