<svg xmlns="http://www.w3.org/2000/svg" id="br-federal-3" width="78" height="66" viewBox="0 0 26 22"><g><path d="M0,0 H26 V22 H0 Z" fill="none"/><path d="M25,3V16a2.71,2.71,0,0,1-2.65,3L22,19a23.26,23.26,0,0,0-2.55-.16c-2.74,0-4.87.64-6.45,2.16-1.54-1.51-3.1-2.18-6-2.18A28.94,28.94,0,0,0,4,19l-.34,0C2.14,19,1,18,1,16V3H25m0-1H1A1,1,0,0,0,0,3V16c0,2.4,1.47,4,3.66,4l.44,0c1.14-.11,2.08-.17,2.9-.17,2.82,0,4.08.7,5.3,1.89A1,1,0,0,0,13,22a1,1,0,0,0,.69-.28c1.34-1.28,3.17-1.88,5.76-1.88a21.81,21.81,0,0,1,2.44.15,3.55,3.55,0,0,0,.46,0A3.72,3.72,0,0,0,26,16V3a1,1,0,0,0-1-1Z" fill="hsl(230, 18%, 13%)"/><path d="M1,3V16c0,2.1,1.31,3.17,3,3,5-.5,7,0,9,2,2-2,5-2.46,9-2,1.68.19,3-1,3-3V3Z" fill="hsl(0, 0%, 100%)"/></g></svg>