<svg xmlns="http://www.w3.org/2000/svg" id="bridge-15" width="21" height="21" viewBox="0 0 21 21"><g><path d="M0,0 H21 V21 H0 Z" fill="none"/><path d="M3 11.842V16h2v-1a2.07 2.07 0 0 1 2-2 2.07 2.07 0 0 1 2 2v1h3v-1a2.07 2.07 0 0 1 2-2 2.07 2.07 0 0 1 2 2v1h2V11.842a9.245 9.245 0 0 0-15 0z m9.5-3.108a8.802 8.802 0 0 1 1.5 0.5V12H12.5V8.734z m-0.5-0.1V12H10.5V8.506c0.503 0 1.005 0.043 1.5 0.128z m-5.5 0.843c0.48-0.248 0.982-0.451 1.5-0.606V12H6.5V9.477zM8.5 12V8.73A8.732 8.732 0 0 1 10 8.515V12H8.5zM6 9.744V12H3.5A8.777 8.777 0 0 1 6 9.744zM14.5 12V9.5l-0.053-0.053A8.674 8.674 0 0 1 17.5 12h-3z" fill="hsl(236, 6%, 48%)" stroke="hsl(60, 5%, 100%)" stroke-linejoin="round" stroke-miterlimit="4px" stroke-width="2"/><path d="M3 11.842V16h2v-1a2.07 2.07 0 0 1 2-2 2.07 2.07 0 0 1 2 2v1h3v-1a2.07 2.07 0 0 1 2-2 2.07 2.07 0 0 1 2 2v1h2V11.842a9.245 9.245 0 0 0-15 0z m9.5-3.108a8.802 8.802 0 0 1 1.5 0.5V12H12.5V8.734z m-0.5-0.1V12H10.5V8.506c0.503 0 1.005 0.043 1.5 0.128z m-5.5 0.843c0.48-0.248 0.982-0.451 1.5-0.606V12H6.5V9.477zM8.5 12V8.73A8.732 8.732 0 0 1 10 8.515V12H8.5zM6 9.744V12H3.5A8.777 8.777 0 0 1 6 9.744zM14.5 12V9.5l-0.053-0.053A8.674 8.674 0 0 1 17.5 12h-3z" fill="hsl(236, 6%, 48%)"/></g></svg>