<svg xmlns="http://www.w3.org/2000/svg" id="bridge-11" width="17" height="17" viewBox="0 0 17 17"><g><path d="M0,0 H17 V17 H0 Z" fill="none"/><path d="M3 8.835V12h1c0-1.105 0.896-2.006 2-2.006 1.103 0 1.998 0.903 2 2.006h1c0-1.105 0.895-2.006 1.999-2.006A2.01 2.01 0 0 1 13 12h1V8.835c-2.917-4.029-8.611-3.523-11 0zM5 9H3.5A6.276 6.276 0 0 1 5 7.582V9z m2 0H5.5V7.263A6.593 6.593 0 0 1 7 6.682V9z m2 0H7.5V6.577999999999999c0.496-0.081 1-0.102 1.5-0.062V9z m2 0H9.5V6.579000000000001c0.517 0.084 1.02 0.232 1.5 0.441V9z m0.5 0V7.264A6.247 6.247 0 0 1 13.5 9h-2z" fill="hsl(236, 6%, 48%)" stroke="hsl(60, 5%, 100%)" stroke-linejoin="round" stroke-miterlimit="4px" stroke-width="2"/><path d="M3 8.835V12h1c0-1.105 0.896-2.006 2-2.006 1.103 0 1.998 0.903 2 2.006h1c0-1.105 0.895-2.006 1.999-2.006A2.01 2.01 0 0 1 13 12h1V8.835c-2.917-4.029-8.611-3.523-11 0zM5 9H3.5A6.276 6.276 0 0 1 5 7.582V9z m2 0H5.5V7.263A6.593 6.593 0 0 1 7 6.682V9z m2 0H7.5V6.577999999999999c0.496-0.081 1-0.102 1.5-0.062V9z m2 0H9.5V6.579000000000001c0.517 0.084 1.02 0.232 1.5 0.441V9z m0.5 0V7.264A6.247 6.247 0 0 1 13.5 9h-2z" fill="hsl(236, 6%, 48%)"/></g></svg>