<svg xmlns="http://www.w3.org/2000/svg" id="bus" width="17" height="17" viewBox="0 0 17 17"><g><path d="M2,1 H15 C15,1 16,1 16,2 V15 C16,15 16,16 15,16 H2 C2,16 1,16 1,15 V2 C1,2 1,1 2,1" fill="hsl(230, 54%, 30%)" stroke="hsl(60, 5%, 100%)" stroke-linejoin="round" stroke-miterlimit="4px" stroke-width="2"/><path d="M2,1 H15 C15,1 16,1 16,2 V15 C16,15 16,16 15,16 H2 C2,16 1,16 1,15 V2 C1,2 1,1 2,1" fill="hsl(230, 54%, 30%)"/><path d="M6 3C5 3 4 3.531 4 5v7.5s0 0.5 0.5 0.5l0.5 0.016v0.484s0 0.5 0.5 0.5H6s0.5 0 0.5-0.5v-0.484l4-0.016v0.5s0 0.5 0.5 0.5h0.5c0.5 0 0.5-0.5 0.5-0.5v-0.484L12.5 13s0.5 0 0.5-0.5V5c0-1.5-1-2-2-2H6z m0.75 1h3.5a0.25 0.25 0 1 1 0 0.5h-3.5a0.25 0.25 0 1 1 0-0.5zM6 5h5c1 0 1 1 1 1v2s0 1-1 1H6C5 9 5 8 5 8V6s0-1 1-1z m-0.25 5.5a0.75 0.75 0 1 1 0 1.5 0.75 0.75 0 0 1 0-1.5z m5.5 0a0.75 0.75 0 1 1 0 1.5 0.75 0.75 0 0 1 0-1.5z" fill="hsl(60, 5%, 100%)"/></g></svg>