<svg xmlns="http://www.w3.org/2000/svg" id="cafe-15" width="21" height="21" viewBox="0 0 21 21"><g><path d="M0,0 H21 V21 H0 Z" fill="none"/><path d="M15 8h-2V6H5v4a4 4 0 0 0 7.45 2H15a2 2 0 1 0 0-4z m0 3H12.86A4 4 0 0 0 13 10V9h2a1 1 0 1 1 0 2z m-2 4.5a0.5 0.5 0 0 1-0.5 0.5h-7a0.5 0.5 0 0 1 0-1h7a0.5 0.5 0 0 1 0.5 0.5z" fill="hsl(232, 20%, 54%)" stroke="hsl(60, 5%, 100%)" stroke-linejoin="round" stroke-miterlimit="4px" stroke-width="2"/><path d="M15 8h-2V6H5v4a4 4 0 0 0 7.45 2H15a2 2 0 1 0 0-4z m0 3H12.86A4 4 0 0 0 13 10V9h2a1 1 0 1 1 0 2z m-2 4.5a0.5 0.5 0 0 1-0.5 0.5h-7a0.5 0.5 0 0 1 0-1h7a0.5 0.5 0 0 1 0.5 0.5z" fill="hsl(232, 20%, 54%)"/></g></svg>