<svg xmlns="http://www.w3.org/2000/svg" id="campsite-11" width="17" height="17" viewBox="0 0 17 17"><g><path d="M0,0 H17 V17 H0 Z" fill="none"/><path d="M8.92 5.1899999999999995a0.5 0.5 0 0 0-0.85 0L4.5 11h-1a0.42 0.42 0 0 0-0.5 0.39V12.5a0.49 0.49 0 0 0 0.5 0.5h10a0.49 0.49 0 0 0 0.5-0.5V11.39a0.42 0.42 0 0 0-0.5-0.39h-1L8.92 5.1899999999999995zM8.5 6l3 5h-6l3-5z" fill="hsl(160, 80%, 21%)" stroke="hsl(100, 76%, 100%)" stroke-linejoin="round" stroke-miterlimit="4px" stroke-width="2"/><path d="M8.92 5.1899999999999995a0.5 0.5 0 0 0-0.85 0L4.5 11h-1a0.42 0.42 0 0 0-0.5 0.39V12.5a0.49 0.49 0 0 0 0.5 0.5h10a0.49 0.49 0 0 0 0.5-0.5V11.39a0.42 0.42 0 0 0-0.5-0.39h-1L8.92 5.1899999999999995zM8.5 6l3 5h-6l3-5z" fill="hsl(160, 80%, 21%)"/></g></svg>