<svg xmlns="http://www.w3.org/2000/svg" id="campsite-15" width="21" height="21" viewBox="0 0 21 21"><g><path d="M0,0 H21 V21 H0 Z" fill="none"/><path d="M10 4.5l-5.5 9H4c-1 0-1 1-1 1v1s0 1 1 1h13c1 0 1-1 1-1v-1s0-1-1-1h-0.5L11 4.5c-0.2-0.4-0.8-0.4-1 0zM10.5 8l3.2 5.5H7.2L10.5 8z" fill="hsl(160, 80%, 21%)" stroke="hsl(100, 76%, 100%)" stroke-linejoin="round" stroke-miterlimit="4px" stroke-width="2"/><path d="M10 4.5l-5.5 9H4c-1 0-1 1-1 1v1s0 1 1 1h13c1 0 1-1 1-1v-1s0-1-1-1h-0.5L11 4.5c-0.2-0.4-0.8-0.4-1 0zM10.5 8l3.2 5.5H7.2L10.5 8z" fill="hsl(160, 80%, 21%)"/></g></svg>