<svg xmlns="http://www.w3.org/2000/svg" id="car-repair-15" width="21" height="21" viewBox="0 0 21 21"><g><path d="M0,0 H21 V21 H0 Z" fill="none"/><path d="M13.925 12.01l-0.363-2.18A0.988 0.988 0 0 0 12.583 9H8.417a0.989 0.989 0 0 0-0.978 0.83l-0.364 2.182A1.126 1.126 0 0 0 6 13.132V16h1a1 1 0 0 0 2 0h3a1 1 0 0 0 2 0h1v-2.874a1.12 1.12 0 0 0-1.075-1.116zM7.75 15a0.75 0.75 0 1 1 0-1.5 0.75 0.75 0 0 1 0 1.5z m0.339-3l0.328-2 4.158-0.007L12.91 12H8.089z m5.161 3a0.75 0.75 0 1 1 0-1.5 0.75 0.75 0 0 1 0 1.5zM15 5H8.789A2.498 2.498 0 0 0 4.21 5H6.5L7 6l-0.5 1H4.211A2.498 2.498 0 0 0 8.79 7H15a1 1 0 1 0 0-2z" fill="hsl(236, 6%, 48%)" stroke="hsl(60, 5%, 100%)" stroke-linejoin="round" stroke-miterlimit="4px" stroke-width="2"/><path d="M13.925 12.01l-0.363-2.18A0.988 0.988 0 0 0 12.583 9H8.417a0.989 0.989 0 0 0-0.978 0.83l-0.364 2.182A1.126 1.126 0 0 0 6 13.132V16h1a1 1 0 0 0 2 0h3a1 1 0 0 0 2 0h1v-2.874a1.12 1.12 0 0 0-1.075-1.116zM7.75 15a0.75 0.75 0 1 1 0-1.5 0.75 0.75 0 0 1 0 1.5z m0.339-3l0.328-2 4.158-0.007L12.91 12H8.089z m5.161 3a0.75 0.75 0 1 1 0-1.5 0.75 0.75 0 0 1 0 1.5zM15 5H8.789A2.498 2.498 0 0 0 4.21 5H6.5L7 6l-0.5 1H4.211A2.498 2.498 0 0 0 8.79 7H15a1 1 0 1 0 0-2z" fill="hsl(236, 6%, 48%)"/></g></svg>