<svg xmlns="http://www.w3.org/2000/svg" id="car-15" width="21" height="21" viewBox="0 0 21 21"><g><path d="M0,0 H21 V21 H0 Z" fill="none"/><path d="M17 10a1.5 1.5 0 0 0-1.15-1.45l-1.39-3.24A0.5 0.5 0 0 0 14 5H7a0.5 0.5 0 0 0-0.44 0.28L5.15 8.54A1.5 1.5 0 0 0 4 10v3.5h1v1a1 1 0 1 0 2 0v-1h7v1a1 1 0 1 0 2 0v-1h1V10zM7.3 6h6.4l1.05 2.5h-8.5L7.3 6zM6 12a1 1 0 1 1 0-2 1 1 0 0 1 0 2z m9 0a1 1 0 1 1 0-2 1 1 0 0 1 0 2z" fill="hsl(236, 6%, 48%)" stroke="hsl(60, 5%, 100%)" stroke-linejoin="round" stroke-miterlimit="4px" stroke-width="2"/><path d="M17 10a1.5 1.5 0 0 0-1.15-1.45l-1.39-3.24A0.5 0.5 0 0 0 14 5H7a0.5 0.5 0 0 0-0.44 0.28L5.15 8.54A1.5 1.5 0 0 0 4 10v3.5h1v1a1 1 0 1 0 2 0v-1h7v1a1 1 0 1 0 2 0v-1h1V10zM7.3 6h6.4l1.05 2.5h-8.5L7.3 6zM6 12a1 1 0 1 1 0-2 1 1 0 0 1 0 2z m9 0a1 1 0 1 1 0-2 1 1 0 0 1 0 2z" fill="hsl(236, 6%, 48%)"/></g></svg>