<svg xmlns="http://www.w3.org/2000/svg" id="car-rental-15" width="21" height="21" viewBox="0 0 21 21"><g><path d="M0,0 H21 V21 H0 Z" fill="none"/><path d="M14.504 4H13c-0.738 0-1.376 0.405-1.723 1H6.5l-1 1 1 1 1-1 1 1 1-1 1 1h0.777c0.347 0.595 0.985 1 1.723 1h1.498A0.502 0.502 0 0 0 15 7.498V4.496A0.496 0.496 0 0 0 14.504 4zM14 6.5a0.5 0.5 0 0 1-1 0v-1a0.5 0.5 0 1 1 1 0v1zM13.925 12.01l-0.363-2.18A0.988 0.988 0 0 0 12.583 9H8.417a0.989 0.989 0 0 0-0.978 0.83l-0.364 2.182A1.126 1.126 0 0 0 6 13.132V16h1a1 1 0 0 0 2 0h3a1 1 0 0 0 2 0h1v-2.874a1.12 1.12 0 0 0-1.075-1.116zM7.75 15a0.75 0.75 0 1 1 0-1.5 0.75 0.75 0 0 1 0 1.5z m0.339-3l0.328-2 4.158-0.007L12.91 12H8.089z m5.161 3a0.75 0.75 0 1 1 0-1.5 0.75 0.75 0 0 1 0 1.5z" fill="hsl(236, 6%, 48%)" stroke="hsl(60, 5%, 100%)" stroke-linejoin="round" stroke-miterlimit="4px" stroke-width="2"/><path d="M14.504 4H13c-0.738 0-1.376 0.405-1.723 1H6.5l-1 1 1 1 1-1 1 1 1-1 1 1h0.777c0.347 0.595 0.985 1 1.723 1h1.498A0.502 0.502 0 0 0 15 7.498V4.496A0.496 0.496 0 0 0 14.504 4zM14 6.5a0.5 0.5 0 0 1-1 0v-1a0.5 0.5 0 1 1 1 0v1zM13.925 12.01l-0.363-2.18A0.988 0.988 0 0 0 12.583 9H8.417a0.989 0.989 0 0 0-0.978 0.83l-0.364 2.182A1.126 1.126 0 0 0 6 13.132V16h1a1 1 0 0 0 2 0h3a1 1 0 0 0 2 0h1v-2.874a1.12 1.12 0 0 0-1.075-1.116zM7.75 15a0.75 0.75 0 1 1 0-1.5 0.75 0.75 0 0 1 0 1.5z m0.339-3l0.328-2 4.158-0.007L12.91 12H8.089z m5.161 3a0.75 0.75 0 1 1 0-1.5 0.75 0.75 0 0 1 0 1.5z" fill="hsl(236, 6%, 48%)"/></g></svg>