<svg xmlns="http://www.w3.org/2000/svg" id="car-rental-11" width="17" height="17" viewBox="0 0 17 17"><g><path d="M0,0 H17 V17 H0 Z" fill="none"/><path d="M12.025 10H11.84l-0.278-1.67a0.988 0.988 0 0 0-0.979-0.83H6.417c-0.488 0-0.9 0.35-0.979 0.83L5.16 10H4.98A0.98 0.98 0 0 0 4 10.98V13h1a1 1 0 0 0 2 0h3a1 1 0 0 0 2 0h1V10.975A0.975 0.975 0 0 0 12.025 10zM6.25 12a0.75 0.75 0 1 1 0-1.5 0.75 0.75 0 0 1 0 1.5z m-0.08-2l0.247-1.5 4.158-0.007L10.826 10H6.170999999999999z m4.58 2a0.75 0.75 0 1 1 0-1.5 0.75 0.75 0 0 1 0 1.5zM12.497 3h-1.5A0.997 0.997 0 0 0 10 3.997V4H5.5l-1 1 1 1 1-1 1 1 1-1 1 1H10c0.003 0.553 0.45 1 1.004 1h1.494A0.502 0.502 0 0 0 13 6.498V3.503A0.503 0.503 0 0 0 12.497 3zM12 5.5a0.5 0.5 0 0 1-1 0v-1a0.5 0.5 0 1 1 1 0v1z" fill="hsl(236, 6%, 48%)" stroke="hsl(60, 5%, 100%)" stroke-linejoin="round" stroke-miterlimit="4px" stroke-width="2"/><path d="M12.025 10H11.84l-0.278-1.67a0.988 0.988 0 0 0-0.979-0.83H6.417c-0.488 0-0.9 0.35-0.979 0.83L5.16 10H4.98A0.98 0.98 0 0 0 4 10.98V13h1a1 1 0 0 0 2 0h3a1 1 0 0 0 2 0h1V10.975A0.975 0.975 0 0 0 12.025 10zM6.25 12a0.75 0.75 0 1 1 0-1.5 0.75 0.75 0 0 1 0 1.5z m-0.08-2l0.247-1.5 4.158-0.007L10.826 10H6.170999999999999z m4.58 2a0.75 0.75 0 1 1 0-1.5 0.75 0.75 0 0 1 0 1.5zM12.497 3h-1.5A0.997 0.997 0 0 0 10 3.997V4H5.5l-1 1 1 1 1-1 1 1 1-1 1 1H10c0.003 0.553 0.45 1 1.004 1h1.494A0.502 0.502 0 0 0 13 6.498V3.503A0.503 0.503 0 0 0 12.497 3zM12 5.5a0.5 0.5 0 0 1-1 0v-1a0.5 0.5 0 1 1 1 0v1z" fill="hsl(236, 6%, 48%)"/></g></svg>