<svg xmlns="http://www.w3.org/2000/svg" id="car-11" width="17" height="17" viewBox="0 0 17 17"><g><path d="M0,0 H17 V17 H0 Z" fill="none"/><path d="M12 7l-0.89-2.66A0.5 0.5 0 0 0 10.64 4H6.359999999999999a0.5 0.5 0 0 0-0.47 0.34L5 7a1 1 0 0 0-1 1v3h1v1a1 1 0 1 0 2 0V11h3v1a1 1 0 1 0 2 0V11h1V8a1 1 0 0 0-1-1zM6 10a1 1 0 1 1 0-2 1 1 0 0 1 0 2z m0-3l0.62-2h3.76L11 7H6z m5 3a1 1 0 1 1 0-2 1 1 0 0 1 0 2z" fill="hsl(236, 6%, 48%)" stroke="hsl(60, 5%, 100%)" stroke-linejoin="round" stroke-miterlimit="4px" stroke-width="2"/><path d="M12 7l-0.89-2.66A0.5 0.5 0 0 0 10.64 4H6.359999999999999a0.5 0.5 0 0 0-0.47 0.34L5 7a1 1 0 0 0-1 1v3h1v1a1 1 0 1 0 2 0V11h3v1a1 1 0 1 0 2 0V11h1V8a1 1 0 0 0-1-1zM6 10a1 1 0 1 1 0-2 1 1 0 0 1 0 2z m0-3l0.62-2h3.76L11 7H6z m5 3a1 1 0 1 1 0-2 1 1 0 0 1 0 2z" fill="hsl(236, 6%, 48%)"/></g></svg>