<svg xmlns="http://www.w3.org/2000/svg" id="car-repair-11" width="17" height="17" viewBox="0 0 17 17"><g><path d="M0,0 H17 V17 H0 Z" fill="none"/><path d="M12.5 4.25H7.352A1.991 1.991 0 1 0 3.778 4H5.5L6 5l-0.5 1H3.777a1.991 1.991 0 0 0 3.575-0.25H12.5a0.75 0.75 0 0 0 0-1.5zM11.31 10.033999999999999L11.061 8.83A0.988 0.988 0 0 0 10.083 8H6.917c-0.488 0-0.9 0.35-0.975 0.81L5.6899999999999995 10.036a0.853 0.853 0 0 0-0.689 0.83V13h0.5a1 1 0 0 0 2 0h2a1 1 0 0 0 2 0H12V10.86c0-0.415-0.3-0.744-0.69-0.826zM6.75 12a0.75 0.75 0 1 1 0-1.5 0.75 0.75 0 0 1 0 1.5z m-0.037-2l0.204-1 3.162 0.012 0.204 0.988h-3.57zM10.25 12a0.75 0.75 0 1 1 0-1.5 0.75 0.75 0 0 1 0 1.5z" fill="hsl(236, 6%, 48%)" stroke="hsl(60, 5%, 100%)" stroke-linejoin="round" stroke-miterlimit="4px" stroke-width="2"/><path d="M12.5 4.25H7.352A1.991 1.991 0 1 0 3.778 4H5.5L6 5l-0.5 1H3.777a1.991 1.991 0 0 0 3.575-0.25H12.5a0.75 0.75 0 0 0 0-1.5zM11.31 10.033999999999999L11.061 8.83A0.988 0.988 0 0 0 10.083 8H6.917c-0.488 0-0.9 0.35-0.975 0.81L5.6899999999999995 10.036a0.853 0.853 0 0 0-0.689 0.83V13h0.5a1 1 0 0 0 2 0h2a1 1 0 0 0 2 0H12V10.86c0-0.415-0.3-0.744-0.69-0.826zM6.75 12a0.75 0.75 0 1 1 0-1.5 0.75 0.75 0 0 1 0 1.5z m-0.037-2l0.204-1 3.162 0.012 0.204 0.988h-3.57zM10.25 12a0.75 0.75 0 1 1 0-1.5 0.75 0.75 0 0 1 0 1.5z" fill="hsl(236, 6%, 48%)"/></g></svg>