<svg xmlns="http://www.w3.org/2000/svg" id="casino-15" width="21" height="21" viewBox="0 0 21 21"><g><path d="M0,0 H21 V21 H0 Z" fill="none"/><path d="M11.5 13A2.5 2.5 0 0 0 16 11.5c0-0.564-0.194-1.079-0.509-1.497L15.5 10l-5-6-5 6 0.009 0.003A2.478 2.478 0 0 0 5 11.5 2.5 2.5 0 0 0 9.5 13l0.5-0.666V14.5C10 16 7.5 16 7.5 16a0.5 0.5 0 1 0 0 1h6a0.5 0.5 0 0 0 0-1S11 16 11 14.5V12.334l0.5 0.666z" fill="hsl(236, 6%, 48%)" stroke="hsl(60, 5%, 100%)" stroke-linejoin="round" stroke-miterlimit="4px" stroke-width="2"/><path d="M11.5 13A2.5 2.5 0 0 0 16 11.5c0-0.564-0.194-1.079-0.509-1.497L15.5 10l-5-6-5 6 0.009 0.003A2.478 2.478 0 0 0 5 11.5 2.5 2.5 0 0 0 9.5 13l0.5-0.666V14.5C10 16 7.5 16 7.5 16a0.5 0.5 0 1 0 0 1h6a0.5 0.5 0 0 0 0-1S11 16 11 14.5V12.334l0.5 0.666z" fill="hsl(236, 6%, 48%)"/></g></svg>