<svg xmlns="http://www.w3.org/2000/svg" id="casino-11" width="17" height="17" viewBox="0 0 17 17"><g><path d="M0,0 H17 V17 H0 Z" fill="none"/><path d="M9.136 9.85c0.29 0.395 0.753 0.65 1.273 0.65C11.288 10.5 12 9.772 12 8.875c0-0.367-0.123-0.701-0.324-0.973l0.006-0.002L8.5 4 5.318 7.9l0.006 0.002c-0.2 0.272-0.324 0.606-0.324 0.973C5 9.772 5.712 10.5 6.59 10.5c0.521 0 0.983-0.255 1.274-0.65l0.261-0.356V11.5c0 0.5-1.75 0.75-1.75 0.75a0.375 0.375 0 0 0 0 0.75h4.25a0.375 0.375 0 0 0 0-0.75S8.875 12 8.875 11.5V9.494l0.261 0.356z" fill="hsl(236, 6%, 48%)" stroke="hsl(60, 5%, 100%)" stroke-linejoin="round" stroke-miterlimit="4px" stroke-width="2"/><path d="M9.136 9.85c0.29 0.395 0.753 0.65 1.273 0.65C11.288 10.5 12 9.772 12 8.875c0-0.367-0.123-0.701-0.324-0.973l0.006-0.002L8.5 4 5.318 7.9l0.006 0.002c-0.2 0.272-0.324 0.606-0.324 0.973C5 9.772 5.712 10.5 6.59 10.5c0.521 0 0.983-0.255 1.274-0.65l0.261-0.356V11.5c0 0.5-1.75 0.75-1.75 0.75a0.375 0.375 0 0 0 0 0.75h4.25a0.375 0.375 0 0 0 0-0.75S8.875 12 8.875 11.5V9.494l0.261 0.356z" fill="hsl(236, 6%, 48%)"/></g></svg>