<svg xmlns="http://www.w3.org/2000/svg" id="castle-15" width="21" height="21" viewBox="0 0 21 21"><g><path d="M0,0 H21 V21 H0 Z" fill="none"/><path d="M14 7H7a1 1 0 0 1-1-1V3.5a0.5 0.5 0 0 1 1 0V5h1V4a1 1 0 1 1 2 0v1h1V4a1 1 0 1 1 2 0v1h1V3.5a0.5 0.5 0 0 1 1 0V6a1 1 0 0 1-1 1z m3 10.5a0.5 0.5 0 0 1-0.5 0.5h-12a0.5 0.5 0 0 1 0-1H5a1 1 0 0 0 1-1s1-6 1-7a1 1 0 0 1 1-1h5a1 1 0 0 1 1 1c0 1 1 7 1 7a1 1 0 0 0 1 1h0.5a0.5 0.5 0 0 1 0.5 0.49v0.01z m-5-4a1.5 1.5 0 0 0-3 0V17h3v-3.5z" fill="hsl(236, 6%, 48%)" stroke="hsl(60, 5%, 100%)" stroke-linejoin="round" stroke-miterlimit="4px" stroke-width="2"/><path d="M14 7H7a1 1 0 0 1-1-1V3.5a0.5 0.5 0 0 1 1 0V5h1V4a1 1 0 1 1 2 0v1h1V4a1 1 0 1 1 2 0v1h1V3.5a0.5 0.5 0 0 1 1 0V6a1 1 0 0 1-1 1z m3 10.5a0.5 0.5 0 0 1-0.5 0.5h-12a0.5 0.5 0 0 1 0-1H5a1 1 0 0 0 1-1s1-6 1-7a1 1 0 0 1 1-1h5a1 1 0 0 1 1 1c0 1 1 7 1 7a1 1 0 0 0 1 1h0.5a0.5 0.5 0 0 1 0.5 0.49v0.01z m-5-4a1.5 1.5 0 0 0-3 0V17h3v-3.5z" fill="hsl(236, 6%, 48%)"/></g></svg>