<svg xmlns="http://www.w3.org/2000/svg" id="castle-11" width="17" height="17" viewBox="0 0 17 17"><g><path d="M0,0 H17 V17 H0 Z" fill="none"/><path d="M11.67 3.81v1.48A0.69 0.69 0 0 1 11 6H6.09a0.69 0.69 0 0 1-0.7-0.7V3.81a0.345 0.345 0 0 1 0.69 0v0.69H7V4a0.5 0.5 0 0 1 1 0v0.5h1V4a0.5 0.5 0 0 1 1 0v0.5h1V3.81a0.34 0.34 0 1 1 0.67 0z m1.39 8.82a0.35 0.35 0 0 1-0.35 0.35H4.35a0.35 0.35 0 0 1 0-0.7h0.35a0.68 0.68 0 0 0 0.7-0.7s0.7-3.2 0.7-3.89A0.68 0.68 0 0 1 6.79 7h3.48a0.68 0.68 0 0 1 0.7 0.7c0 0.7 0.7 3.89 0.7 3.89a0.68 0.68 0 0 0 0.7 0.7h0.34a0.35 0.35 0 0 1 0.35 0.35v-0.01zM9.5 10.5a1 1 0 1 0-2 0v2h2v-2z" fill="hsl(236, 6%, 48%)" stroke="hsl(60, 5%, 100%)" stroke-linejoin="round" stroke-miterlimit="4px" stroke-width="2"/><path d="M11.67 3.81v1.48A0.69 0.69 0 0 1 11 6H6.09a0.69 0.69 0 0 1-0.7-0.7V3.81a0.345 0.345 0 0 1 0.69 0v0.69H7V4a0.5 0.5 0 0 1 1 0v0.5h1V4a0.5 0.5 0 0 1 1 0v0.5h1V3.81a0.34 0.34 0 1 1 0.67 0z m1.39 8.82a0.35 0.35 0 0 1-0.35 0.35H4.35a0.35 0.35 0 0 1 0-0.7h0.35a0.68 0.68 0 0 0 0.7-0.7s0.7-3.2 0.7-3.89A0.68 0.68 0 0 1 6.79 7h3.48a0.68 0.68 0 0 1 0.7 0.7c0 0.7 0.7 3.89 0.7 3.89a0.68 0.68 0 0 0 0.7 0.7h0.34a0.35 0.35 0 0 1 0.35 0.35v-0.01zM9.5 10.5a1 1 0 1 0-2 0v2h2v-2z" fill="hsl(236, 6%, 48%)"/></g></svg>