<svg xmlns="http://www.w3.org/2000/svg" id="cemetery-15" width="21" height="21" viewBox="0 0 21 21"><g><path d="M0,0 H21 V21 H0 Z" fill="none"/><path d="M14.46 15h-0.68L15 6.55a0.52 0.52 0 0 0-0.56-0.55h-1.18c0-0.92-1.23-2-2.75-2S7.77 5.08 7.77 6H6.54a0.52 0.52 0 0 0-0.54 0.55L7.2 15h-0.65a0.53 0.53 0 0 0-0.55 0.5V17h9v-1.51a0.52 0.52 0 0 0-0.54-0.49zM7.5 8h6v1h-6V8z" fill="hsl(160, 80%, 21%)" stroke="hsl(100, 76%, 100%)" stroke-linejoin="round" stroke-miterlimit="4px" stroke-width="2"/><path d="M14.46 15h-0.68L15 6.55a0.52 0.52 0 0 0-0.56-0.55h-1.18c0-0.92-1.23-2-2.75-2S7.77 5.08 7.77 6H6.54a0.52 0.52 0 0 0-0.54 0.55L7.2 15h-0.65a0.53 0.53 0 0 0-0.55 0.5V17h9v-1.51a0.52 0.52 0 0 0-0.54-0.49zM7.5 8h6v1h-6V8z" fill="hsl(160, 80%, 21%)"/></g></svg>