<svg xmlns="http://www.w3.org/2000/svg" id="cemetery-11" width="17" height="17" viewBox="0 0 17 17"><g><path d="M0,0 H17 V17 H0 Z" fill="none"/><path d="M11.65 11H11l1-5.61A0.36 0.36 0 0 0 11.63 5H10.16c0-0.65-0.7-1-1.67-1s-1.83 0.35-1.83 1H5.35a0.36 0.36 0 0 0-0.35 0.39L6 11h-0.65a0.35 0.35 0 0 0-0.35 0.36V13h7V11.36A0.35 0.35 0 0 0 11.66 11h-0.01zM10 8H7V7h3v1z" fill="hsl(160, 80%, 21%)" stroke="hsl(100, 76%, 100%)" stroke-linejoin="round" stroke-miterlimit="4px" stroke-width="2"/><path d="M11.65 11H11l1-5.61A0.36 0.36 0 0 0 11.63 5H10.16c0-0.65-0.7-1-1.67-1s-1.83 0.35-1.83 1H5.35a0.36 0.36 0 0 0-0.35 0.39L6 11h-0.65a0.35 0.35 0 0 0-0.35 0.36V13h7V11.36A0.35 0.35 0 0 0 11.66 11h-0.01zM10 8H7V7h3v1z" fill="hsl(160, 80%, 21%)"/></g></svg>