<svg xmlns="http://www.w3.org/2000/svg" id="ch-motorway-2" width="66" height="48" viewBox="0 0 22 16"><g><path d="M0,0 H22 V16 H0 Z" fill="none"/><path d="M11,1l8,2a2.15,2.15,0,0,1,2,2v6a2.15,2.15,0,0,1-2,2l-8,2L3,13a2.15,2.15,0,0,1-2-2V5A2.15,2.15,0,0,1,3,3l8-2m0-1L10.75,0,2.86,2A3.18,3.18,0,0,0,0,5v6a3.18,3.18,0,0,0,2.86,3l7.89,2L11,16l.24-.06,7.91-2A3.18,3.18,0,0,0,22,11V5a3.18,3.18,0,0,0-2.86-3L11.23,0,11,0Z" fill="hsl(0, 0%, 100%)"/><path d="M11,1l8,2a2.15,2.15,0,0,1,2,2v6a2.15,2.15,0,0,1-2,2l-8,2L3,13a2.15,2.15,0,0,1-2-2V5A2.15,2.15,0,0,1,3,3Z" fill="hsl(0, 87%, 59%)"/></g></svg>