<svg xmlns="http://www.w3.org/2000/svg" id="charging-station-15" width="21" height="21" viewBox="0 0 21 21"><g><path d="M0,0 H21 V21 H0 Z" fill="none"/><path d="M16 7V5.49a0.5 0.5 0 0 0-0.5-0.49 0.51 0.51 0 0 0-0.5 0.55V8a1 1 0 0 0 1 1v5.5a0.5 0.5 0 0 1-1 0v-2A1.5 1.5 0 0 0 13.5 11H12V5a1 1 0 0 0-1-1H5a1 1 0 0 0-1 1v11a1 1 0 0 0 1 1h6a1 1 0 0 0 1-1V12h1.5a0.5 0.5 0 0 1 0.5 0.5v2a1.5 1.5 0 0 0 3 0V8a1 1 0 0 0-1-1zM10.2 10.4l-2.6 3.467-0.017-0.007c-0.046 0.078-0.116 0.14-0.214 0.14a0.267 0.267 0 0 1-0.267-0.267c0-0.028 0.021-0.047 0.03-0.072l-0.018-0.008 0.776-2.324A0.25 0.25 0 0 0 7.653 11H6a0.25 0.25 0 0 1-0.2-0.4L8.4 7.133l0.017 0.007c0.046-0.078 0.116-0.14 0.214-0.14 0.148 0 0.267 0.12 0.267 0.267 0 0.028-0.021 0.046-0.03 0.072l0.018 0.008L8.11 9.67A0.25 0.25 0 0 0 8.347000000000001 10H10a0.25 0.25 0 0 1 0.2 0.4z" fill="hsl(236, 6%, 48%)" stroke="hsl(60, 5%, 100%)" stroke-linejoin="round" stroke-miterlimit="4px" stroke-width="2"/><path d="M16 7V5.49a0.5 0.5 0 0 0-0.5-0.49 0.51 0.51 0 0 0-0.5 0.55V8a1 1 0 0 0 1 1v5.5a0.5 0.5 0 0 1-1 0v-2A1.5 1.5 0 0 0 13.5 11H12V5a1 1 0 0 0-1-1H5a1 1 0 0 0-1 1v11a1 1 0 0 0 1 1h6a1 1 0 0 0 1-1V12h1.5a0.5 0.5 0 0 1 0.5 0.5v2a1.5 1.5 0 0 0 3 0V8a1 1 0 0 0-1-1zM10.2 10.4l-2.6 3.467-0.017-0.007c-0.046 0.078-0.116 0.14-0.214 0.14a0.267 0.267 0 0 1-0.267-0.267c0-0.028 0.021-0.047 0.03-0.072l-0.018-0.008 0.776-2.324A0.25 0.25 0 0 0 7.653 11H6a0.25 0.25 0 0 1-0.2-0.4L8.4 7.133l0.017 0.007c0.046-0.078 0.116-0.14 0.214-0.14 0.148 0 0.267 0.12 0.267 0.267 0 0.028-0.021 0.046-0.03 0.072l0.018 0.008L8.11 9.67A0.25 0.25 0 0 0 8.347000000000001 10H10a0.25 0.25 0 0 1 0.2 0.4z" fill="hsl(236, 6%, 48%)"/></g></svg>