<svg xmlns="http://www.w3.org/2000/svg" id="charging-station-11" width="17" height="17" viewBox="0 0 17 17"><g><path d="M0,0 H17 V17 H0 Z" fill="none"/><path d="M12.5 6H12V4.5a0.5 0.5 0 0 0-1 0V6a1 1 0 0 0 1 1v4.25a0.25 0.25 0 1 1-0.5 0V9.5A1.5 1.5 0 0 0 10 8V5a1 1 0 0 0-1-1H5a1 1 0 0 0-1 1v7a1 1 0 0 0 1 1h4a1 1 0 0 0 1-1V9a0.5 0.5 0 0 1 0.5 0.5v1.75a1.25 1.25 0 1 0 2.5 0V6.5a0.5 0.5 0 0 0-0.5-0.5z m-6 5.75H6L7 9H4.75L7.5 5.25H8L7 8h2.25L6.5 11.75z" fill="hsl(236, 6%, 48%)" stroke="hsl(60, 5%, 100%)" stroke-linejoin="round" stroke-miterlimit="4px" stroke-width="2"/><path d="M12.5 6H12V4.5a0.5 0.5 0 0 0-1 0V6a1 1 0 0 0 1 1v4.25a0.25 0.25 0 1 1-0.5 0V9.5A1.5 1.5 0 0 0 10 8V5a1 1 0 0 0-1-1H5a1 1 0 0 0-1 1v7a1 1 0 0 0 1 1h4a1 1 0 0 0 1-1V9a0.5 0.5 0 0 1 0.5 0.5v1.75a1.25 1.25 0 1 0 2.5 0V6.5a0.5 0.5 0 0 0-0.5-0.5z m-6 5.75H6L7 9H4.75L7.5 5.25H8L7 8h2.25L6.5 11.75z" fill="hsl(236, 6%, 48%)"/></g></svg>