<svg xmlns="http://www.w3.org/2000/svg" id="chongqing-rail-transit" width="25" height="17" viewBox="0 0 25 17"><g><path d="M0,0 H25 V17 H0 Z" fill="none"/><path d="M1,5 H24 C24,5 25,5 25,6 V16 C25,16 25,17 24,17 H1 C1,17 0,17 0,16 V6 C0,6 0,5 1,5" fill="hsl(0, 0%, 100%)" opacity="0.75"/><path d="M2,6 H23 C23,6 24,6 24,7 V15 C24,15 24,16 23,16 H2 C2,16 1,16 1,15 V7 C1,7 1,6 2,6" fill="hsl(140, 74%, 37%)"/><path d="M9.5,11,10.5,11,13,8,16.5,8,14.5,11,13,11,13,14,9.5,14.02,9.5,11 Z" fill="hsl(0, 0%, 100%)"/><path d="M18,8,23,8,21,11,19,11,17,14,14,14,18,8 Z" fill="hsl(0, 0%, 100%)"/><path d="M9.5,8.5l-1,1h-2l-1,2h2v2H3l3-5ZM11,8H5.5L2,14H8V11H6.5L7,10H9Z" fill="hsl(0, 0%, 100%)"/></g></svg>