<svg xmlns="http://www.w3.org/2000/svg" id="cinema-11" width="17" height="17" viewBox="0 0 17 17"><g><path d="M0,0 H17 V17 H0 Z" fill="none"/><path d="M13 8.5v2a0.5 0.5 0 0 1-1 0 0.66 0.66 0 0 0-0.51-0.5H11v1.63a0.37 0.37 0 0 1-0.37 0.37H4.37A0.37 0.37 0 0 1 4 11.63V8.370000000000001A0.37 0.37 0 0 1 4.37 8h6.26a0.37 0.37 0 0 1 0.37 0.37V9h0.49A0.66 0.66 0 0 0 12 8.5a0.5 0.5 0 0 1 1 0zM5.5 5a1.5 1.5 0 1 0 0 3 1.5 1.5 0 0 0 0-3z m0 2a0.5 0.5 0 1 1 0-1 0.5 0.5 0 0 1 0 1zM9 4a2 2 0 1 0 0 4 2 2 0 0 0 0-4z m0 3a1 1 0 1 1 0-2 1 1 0 0 1 0 2z" fill="hsl(236, 6%, 48%)" stroke="hsl(60, 5%, 100%)" stroke-linejoin="round" stroke-miterlimit="4px" stroke-width="2"/><path d="M13 8.5v2a0.5 0.5 0 0 1-1 0 0.66 0.66 0 0 0-0.51-0.5H11v1.63a0.37 0.37 0 0 1-0.37 0.37H4.37A0.37 0.37 0 0 1 4 11.63V8.370000000000001A0.37 0.37 0 0 1 4.37 8h6.26a0.37 0.37 0 0 1 0.37 0.37V9h0.49A0.66 0.66 0 0 0 12 8.5a0.5 0.5 0 0 1 1 0zM5.5 5a1.5 1.5 0 1 0 0 3 1.5 1.5 0 0 0 0-3z m0 2a0.5 0.5 0 1 1 0-1 0.5 0.5 0 0 1 0 1zM9 4a2 2 0 1 0 0 4 2 2 0 0 0 0-4z m0 3a1 1 0 1 1 0-2 1 1 0 0 1 0 2z" fill="hsl(236, 6%, 48%)"/></g></svg>