<svg xmlns="http://www.w3.org/2000/svg" id="cinema-15" width="21" height="21" viewBox="0 0 21 21"><g><path d="M0,0 H21 V21 H0 Z" fill="none"/><path d="M17 10.5v2a0.5 0.5 0 0 1-1 0s0.06-0.5-1-0.5h-1v2.5a0.5 0.5 0 0 1-0.5 0.5h-8a0.5 0.5 0 0 1-0.5-0.5v-4a0.5 0.5 0 0 1 0.5-0.5h8a0.5 0.5 0 0 1 0.5 0.5V11h1c1.06 0 1-0.5 1-0.5a0.5 0.5 0 0 1 1 0zM7 6a2 2 0 1 0 0 4 2 2 0 0 0 0-4z m0 3a1 1 0 1 1 0-2 1 1 0 0 1 0 2z m4.5-4a2.5 2.5 0 1 0 0 5 2.5 2.5 0 0 0 0-5z m0 4a1.5 1.5 0 1 1 0-3 1.5 1.5 0 0 1 0 3z" fill="hsl(236, 6%, 48%)" stroke="hsl(60, 5%, 100%)" stroke-linejoin="round" stroke-miterlimit="4px" stroke-width="2"/><path d="M17 10.5v2a0.5 0.5 0 0 1-1 0s0.06-0.5-1-0.5h-1v2.5a0.5 0.5 0 0 1-0.5 0.5h-8a0.5 0.5 0 0 1-0.5-0.5v-4a0.5 0.5 0 0 1 0.5-0.5h8a0.5 0.5 0 0 1 0.5 0.5V11h1c1.06 0 1-0.5 1-0.5a0.5 0.5 0 0 1 1 0zM7 6a2 2 0 1 0 0 4 2 2 0 0 0 0-4z m0 3a1 1 0 1 1 0-2 1 1 0 0 1 0 2z m4.5-4a2.5 2.5 0 1 0 0 5 2.5 2.5 0 0 0 0-5z m0 4a1.5 1.5 0 1 1 0-3 1.5 1.5 0 0 1 0 3z" fill="hsl(236, 6%, 48%)"/></g></svg>