<svg xmlns="http://www.w3.org/2000/svg" id="cn-nths-expy-2" width="60" height="69" viewBox="0 0 20 23"><g><path d="M0,0 H20 V23 H0 Z" fill="none"/><path d="M17,1a2,2,0,0,1,2,2V17a2,2,0,0,1-2,2H3a2,2,0,0,1-2-2V3A2,2,0,0,1,3,1H17m0-1H3A3,3,0,0,0,0,3V17a3,3,0,0,0,3,3H17a3,3,0,0,0,3-3V3a3,3,0,0,0-3-3Z" fill="hsl(0, 0%, 100%)"/><path d="M3,1 H17 C17,1 19,1 19,3 V17 C19,17 19,19 17,19 H3 C3,19 1,19 1,17 V3 C1,3 1,1 3,1" fill="hsl(140, 74%, 37%)"/><path d="M17,1H3A2,2,0,0,0,1,3V4H19V3A2,2,0,0,0,17,1Z" fill="hsl(0, 87%, 59%)"/></g></svg>