<svg xmlns="http://www.w3.org/2000/svg" id="cn-nths-expy-3" width="78" height="69" viewBox="0 0 26 23"><g><path d="M0,0 H26 V23 H0 Z" fill="none"/><path d="M23,1a2,2,0,0,1,2,2V17a2,2,0,0,1-2,2H3a2,2,0,0,1-2-2V3A2,2,0,0,1,3,1H23m0-1H3A3,3,0,0,0,0,3V17a3,3,0,0,0,3,3H23a3,3,0,0,0,3-3V3a3,3,0,0,0-3-3Z" fill="hsl(0, 0%, 100%)"/><path d="M3,1 H23 C23,1 25,1 25,3 V17 C25,17 25,19 23,19 H3 C3,19 1,19 1,17 V3 C1,3 1,1 3,1" fill="hsl(140, 74%, 37%)"/><path d="M23,1H3A2,2,0,0,0,1,3V4H25V3A2,2,0,0,0,23,1Z" fill="hsl(0, 87%, 59%)"/></g></svg>