<svg xmlns="http://www.w3.org/2000/svg" id="cn-provincial-expy-5" width="114" height="69" viewBox="0 0 38 23"><g><path d="M0,0 H38 V23 H0 Z" fill="none"/><path d="M35,1a2,2,0,0,1,2,2V17a2,2,0,0,1-2,2H3a2,2,0,0,1-2-2V3A2,2,0,0,1,3,1H35m0-1H3A3,3,0,0,0,0,3V17a3,3,0,0,0,3,3H35a3,3,0,0,0,3-3V3a3,3,0,0,0-3-3Z" fill="hsl(0, 0%, 100%)"/><path d="M3,1 H35 C35,1 37,1 37,3 V17 C37,17 37,19 35,19 H3 C3,19 1,19 1,17 V3 C1,3 1,1 3,1" fill="hsl(140, 74%, 37%)"/><path d="M35,1H3A2,2,0,0,0,1,3V4H37V3A2,2,0,0,0,35,1Z" fill="hsl(50, 100%, 70%)"/></g></svg>