<svg xmlns="http://www.w3.org/2000/svg" id="co-national-2" width="60" height="60" viewBox="0 0 20 20"><g><path d="M0,0 H20 V20 H0 Z" fill="none"/><path d="M18.93,1c.9839,13.8821-8.766,17.9319-8.93,17.9991C9.8369,18.9314.0858,14.8231,1.07,1a13.1757,13.1757,0,0,0,4.4662.9474A13.4431,13.4431,0,0,0,10,1.0009a13.4431,13.4431,0,0,0,4.4641.9465A13.1757,13.1757,0,0,0,18.93,1M10.0021,1,10,1.0009,9.9979,1h.0042M10,18.9991,10.0021,19H9.9979L10,18.9991M18.93,0a.9989.9989,0,0,0-.3895.079h0a12.241,12.241,0,0,1-4.0766.8684,12.4714,12.4714,0,0,1-4.04-.8536A.9944.9944,0,0,0,10.0021,0H9.9979a.9975.9975,0,0,0-.4251.0948A12.466,12.466,0,0,1,5.5359.9474,12.24,12.24,0,0,1,1.4593.079a1.0006,1.0006,0,0,0-1.387.85C-.9238,14.9229,8.5771,19.4671,9.5506,19.8944a1.0017,1.0017,0,0,0,.8524.02c.6943-.2919,10.5375-4.6957,9.5248-18.9853A1,1,0,0,0,18.93,0Z" fill="hsl(230, 18%, 13%)"/><path d="M10.0021,19S.0775,14.94,1.07,1a13.1757,13.1757,0,0,0,4.4662.9474A13.46,13.46,0,0,0,10.0021,1H9.9979a13.46,13.46,0,0,0,4.4662.9474A13.1757,13.1757,0,0,0,18.93,1c.9922,14-8.9324,18-8.9324,18Z" fill="hsl(0, 0%, 100%)"/></g></svg>