<svg xmlns="http://www.w3.org/2000/svg" id="co-national-3" width="72" height="60" viewBox="0 0 24 20"><g><path d="M0,0 H24 V20 H0 Z" fill="none"/><path d="M22.7163,1C23.8971,14.8829,12.1958,18.9324,12,18.9992,11.8057,18.9319.1029,14.824,1.2837,1a18.4818,18.4818,0,0,0,5.3594.9474A18.866,18.866,0,0,0,12,1.0009a18.866,18.866,0,0,0,5.3569.9465A18.4818,18.4818,0,0,0,22.7163,1M12.0025,1,12,1.0009,11.9975,1h.005M12,18.9992,12.0025,19h-.005L12,18.9992M12.0025,0h-.005a.9976.9976,0,0,0-.3727.0719A17.9811,17.9811,0,0,1,6.6431.9474,17.5934,17.5934,0,0,1,1.6163.0569a1,1,0,0,0-1.329.858C-.917,15.0139,10.5121,19.5225,11.6063,19.92a1.0024,1.0024,0,0,0,.7388.0175c.77-.2683,12.5911-4.637,11.3676-19.0226a1.0006,1.0006,0,0,0-1.329-.8584,17.5934,17.5934,0,0,1-5.0268.8905,17.9879,17.9879,0,0,1-4.984-.8762A.9936.9936,0,0,0,12.0025,0Z" fill="hsl(230, 18%, 13%)"/><path d="M12.0025,19S.093,14.94,1.2837,1a18.4818,18.4818,0,0,0,5.3594.9474A18.8846,18.8846,0,0,0,12.0025,1h-.005a18.8846,18.8846,0,0,0,5.3594.9474A18.4818,18.4818,0,0,0,22.7163,1C23.907,15,11.9975,19,11.9975,19Z" fill="hsl(0, 0%, 100%)"/></g></svg>