<svg xmlns="http://www.w3.org/2000/svg" id="college-11" width="17" height="17" viewBox="0 0 17 17"><g><path d="M0,0 H17 V17 H0 Z" fill="none"/><path d="M5 10.3c0.3-0.2 0.5-0.5 0.5-0.8 0-0.4-0.2-0.7-0.6-0.9V7.4L8.5 9 14 6.5 8.5 4 3 6.5l1.2 0.5v1.6c-0.4 0.2-0.6 0.5-0.6 0.9 0 0.3 0.2 0.6 0.5 0.8L3.6 12c-0.3 1 0.5 1 0.5 1h1s0.8 0 0.5-1L5 10.3z" fill="hsl(35, 60%, 34%)" stroke="hsl(35, 35%, 100%)" stroke-linejoin="round" stroke-miterlimit="4px" stroke-width="2"/><path d="M6.5 9.2v0.3c0 0.4-0.2 0.8-0.4 1.1 0.2 0.4 0.4 0.8 0.4 1.4v0.6c0.5 0.2 1.2 0.4 2 0.4C11 13 12 11.5 12 11.5v-3L8.5 10.1l-2-0.9z" fill="hsl(35, 60%, 34%)" stroke="hsl(35, 35%, 100%)" stroke-linejoin="round" stroke-miterlimit="4px" stroke-width="2"/><path d="M5 10.3c0.3-0.2 0.5-0.5 0.5-0.8 0-0.4-0.2-0.7-0.6-0.9V7.4L8.5 9 14 6.5 8.5 4 3 6.5l1.2 0.5v1.6c-0.4 0.2-0.6 0.5-0.6 0.9 0 0.3 0.2 0.6 0.5 0.8L3.6 12c-0.3 1 0.5 1 0.5 1h1s0.8 0 0.5-1L5 10.3z" fill="hsl(35, 60%, 34%)"/><path d="M6.5 9.2v0.3c0 0.4-0.2 0.8-0.4 1.1 0.2 0.4 0.4 0.8 0.4 1.4v0.6c0.5 0.2 1.2 0.4 2 0.4C11 13 12 11.5 12 11.5v-3L8.5 10.1l-2-0.9z" fill="hsl(35, 60%, 34%)"/></g></svg>