<svg xmlns="http://www.w3.org/2000/svg" id="college-15" width="21" height="21" viewBox="0 0 21 21"><g><path d="M0,0 H21 V21 H0 Z" fill="none"/><path d="M10.5 4L3 7.5l2 0.9v1.7c-0.6 0.2-1 0.8-1 1.4s0.4 1.2 1 1.4v0.1l-0.9 2.1C3.8 16 4 17 5.5 17s1.7-1 1.4-1.9L6 13c0.6-0.3 1-0.8 1-1.5s-0.4-1.2-1-1.4V8.9L10.5 11 18 7.5 10.5 4z m4.4 6.5l-4.5 2L8 11.4v0.1c0 0.7-0.3 1.3-0.8 1.8l0.6 1.4v0.1c0.1 0.4 0.2 0.8 0.1 1.2 0.7 0.3 1.5 0.5 2.5 0.5 3.3 0 4.5-2 4.5-3v-3z" fill="hsl(35, 60%, 34%)" stroke="hsl(35, 35%, 100%)" stroke-linejoin="round" stroke-miterlimit="4px" stroke-width="2"/><path d="M10.5 4L3 7.5l2 0.9v1.7c-0.6 0.2-1 0.8-1 1.4s0.4 1.2 1 1.4v0.1l-0.9 2.1C3.8 16 4 17 5.5 17s1.7-1 1.4-1.9L6 13c0.6-0.3 1-0.8 1-1.5s-0.4-1.2-1-1.4V8.9L10.5 11 18 7.5 10.5 4z m4.4 6.5l-4.5 2L8 11.4v0.1c0 0.7-0.3 1.3-0.8 1.8l0.6 1.4v0.1c0.1 0.4 0.2 0.8 0.1 1.2 0.7 0.3 1.5 0.5 2.5 0.5 3.3 0 4.5-2 4.5-3v-3z" fill="hsl(35, 60%, 34%)"/></g></svg>