<svg xmlns="http://www.w3.org/2000/svg" id="communications-tower-11" width="17" height="17" viewBox="0 0 17 17"><g><path d="M0,0 H17 V17 H0 Z" fill="none"/><path d="M10.655000000000001 6.564h-0.4V4.448h0.4zM6.702 4.448h-0.4v2.116h0.4z m6-0.285h-0.4v3.278h0.4z m-8.023 0h-0.4v3.278h0.4z m4.078 3.005h0.437a0.354 0.354 0 0 1 0.346 0.282l1.04 4.987H12V13H5v-0.563h1.434l1.04-4.987a0.355 0.355 0 0 1 0.344-0.281h0.44V5.912a0.915 0.915 0 0 1-0.668-0.875 0.927 0.927 0 1 1 1.167 0.888z m-0.96 2.188h1.419l-0.309-1.481h-0.801z m-0.414 1.989H9.629999999999999l-0.351-1.688H7.735z m2.475 1.092l-0.165-0.791H7.32l-0.165 0.79z" fill="hsl(236, 6%, 48%)" stroke="hsl(60, 5%, 100%)" stroke-linejoin="round" stroke-miterlimit="4px" stroke-width="2"/><path d="M10.655000000000001 6.564h-0.4V4.448h0.4zM6.702 4.448h-0.4v2.116h0.4z m6-0.285h-0.4v3.278h0.4z m-8.023 0h-0.4v3.278h0.4z m4.078 3.005h0.437a0.354 0.354 0 0 1 0.346 0.282l1.04 4.987H12V13H5v-0.563h1.434l1.04-4.987a0.355 0.355 0 0 1 0.344-0.281h0.44V5.912a0.915 0.915 0 0 1-0.668-0.875 0.927 0.927 0 1 1 1.167 0.888z m-0.96 2.188h1.419l-0.309-1.481h-0.801z m-0.414 1.989H9.629999999999999l-0.351-1.688H7.735z m2.475 1.092l-0.165-0.791H7.32l-0.165 0.79z" fill="hsl(236, 6%, 48%)"/></g></svg>