<svg xmlns="http://www.w3.org/2000/svg" id="communications-tower-15" width="21" height="21" viewBox="0 0 21 21"><g><path d="M0,0 H21 V21 H0 Z" fill="none"/><path d="M14.854 9.434000000000001l-0.413-0.282a4.762 4.762 0 0 0 0.282-4.878l-0.084-0.153 0.436-0.246 0.09 0.167a5.262 5.262 0 0 1-0.31 5.392z m1.153 7.131V17h-11v-0.435h2.488L9.044 9.4a0.5 0.5 0 0 1 0.489-0.395h0.725V7.602A1.14 1.14 0 0 1 9.376000000000001 6.5a1.157 1.157 0 1 1 2.313 0 1.14 1.14 0 0 1-0.93 1.111v1.395h0.721a0.5 0.5 0 0 1 0.49 0.394l1.547 7.165zM11.454 11.751H9.559999999999999l-0.323 1.493h2.541z m-2.326 1.993l-0.323 1.495h3.403l-0.323-1.495z m0.808-3.738l-0.27 1.245h1.68l-0.269-1.245z m-1.418 6.56h3.977l-0.179-0.827h-3.62zM8.21 8.013a2.752 2.752 0 0 1 0.016-3.052l-0.414-0.28a3.25 3.25 0 0 0-0.019 3.607zM13.757 6.5a3.243 3.243 0 0 0-0.534-1.786l-0.418 0.275a2.752 2.752 0 0 1-0.018 3.05l0.414 0.278a3.234 3.234 0 0 0 0.556-1.817zM6.534 9.118a4.764 4.764 0 0 1-0.153-4.988L5.948 3.88a5.264 5.264 0 0 0 0.17 5.514z" fill="hsl(236, 6%, 48%)" stroke="hsl(60, 5%, 100%)" stroke-linejoin="round" stroke-miterlimit="4px" stroke-width="2"/><path d="M14.854 9.434000000000001l-0.413-0.282a4.762 4.762 0 0 0 0.282-4.878l-0.084-0.153 0.436-0.246 0.09 0.167a5.262 5.262 0 0 1-0.31 5.392z m1.153 7.131V17h-11v-0.435h2.488L9.044 9.4a0.5 0.5 0 0 1 0.489-0.395h0.725V7.602A1.14 1.14 0 0 1 9.376000000000001 6.5a1.157 1.157 0 1 1 2.313 0 1.14 1.14 0 0 1-0.93 1.111v1.395h0.721a0.5 0.5 0 0 1 0.49 0.394l1.547 7.165zM11.454 11.751H9.559999999999999l-0.323 1.493h2.541z m-2.326 1.993l-0.323 1.495h3.403l-0.323-1.495z m0.808-3.738l-0.27 1.245h1.68l-0.269-1.245z m-1.418 6.56h3.977l-0.179-0.827h-3.62zM8.21 8.013a2.752 2.752 0 0 1 0.016-3.052l-0.414-0.28a3.25 3.25 0 0 0-0.019 3.607zM13.757 6.5a3.243 3.243 0 0 0-0.534-1.786l-0.418 0.275a2.752 2.752 0 0 1-0.018 3.05l0.414 0.278a3.234 3.234 0 0 0 0.556-1.817zM6.534 9.118a4.764 4.764 0 0 1-0.153-4.988L5.948 3.88a5.264 5.264 0 0 0 0.17 5.514z" fill="hsl(236, 6%, 48%)"/></g></svg>