<svg xmlns="http://www.w3.org/2000/svg" id="confectionery-15" width="21" height="21" viewBox="0 0 21 21"><g><path d="M0,0 H21 V21 H0 Z" fill="none"/><path d="M16 7a1 1 0 0 0-1-1 1 1 0 0 0-2 0v2.067A3.48 3.48 0 0 0 7.358 12H5a1 1 0 0 0 0 2 1 1 0 0 0 1 1 1 1 0 0 0 2 0V12.933A3.48 3.48 0 0 0 13.642 9H16a1 1 0 0 0 0-2zM10.5 12.992A2.484 2.484 0 0 1 9.318 8.32a1.08 1.08 0 0 1 0.546 0.307 2.124 2.124 0 0 1 0.386 1.386l0.001 0.956a2.582 2.582 0 0 0 0.509 1.735 1.546 1.546 0 0 0 0.26 0.233 2.486 2.486 0 0 1-0.52 0.056z m1.181-0.311a1.081 1.081 0 0 1-0.545-0.307 2.124 2.124 0 0 1-0.386-1.386l-0.001-0.956a2.582 2.582 0 0 0-0.509-1.735 1.556 1.556 0 0 0-0.26-0.233A2.484 2.484 0 0 1 11.682 12.68z" fill="hsl(236, 6%, 48%)" stroke="hsl(60, 5%, 100%)" stroke-linejoin="round" stroke-miterlimit="4px" stroke-width="2"/><path d="M16 7a1 1 0 0 0-1-1 1 1 0 0 0-2 0v2.067A3.48 3.48 0 0 0 7.358 12H5a1 1 0 0 0 0 2 1 1 0 0 0 1 1 1 1 0 0 0 2 0V12.933A3.48 3.48 0 0 0 13.642 9H16a1 1 0 0 0 0-2zM10.5 12.992A2.484 2.484 0 0 1 9.318 8.32a1.08 1.08 0 0 1 0.546 0.307 2.124 2.124 0 0 1 0.386 1.386l0.001 0.956a2.582 2.582 0 0 0 0.509 1.735 1.546 1.546 0 0 0 0.26 0.233 2.486 2.486 0 0 1-0.52 0.056z m1.181-0.311a1.081 1.081 0 0 1-0.545-0.307 2.124 2.124 0 0 1-0.386-1.386l-0.001-0.956a2.582 2.582 0 0 0-0.509-1.735 1.556 1.556 0 0 0-0.26-0.233A2.484 2.484 0 0 1 11.682 12.68z" fill="hsl(236, 6%, 48%)"/></g></svg>