<svg xmlns="http://www.w3.org/2000/svg" id="confectionery-11" width="17" height="17" viewBox="0 0 17 17"><g><path d="M0,0 H17 V17 H0 Z" fill="none"/><path d="M12.24 5.513a0.746 0.746 0 0 0-0.745-0.746 0.746 0.746 0 1 0-1.493 0v1.746A2.489 2.489 0 0 0 6.5120000000000005 10H4.747a0.746 0.746 0 0 0 0 1.492 0.746 0.746 0 0 0 0.747 0.746 0.746 0.746 0 0 0 1.492 0v-1.76a2.489 2.489 0 0 0 3.506-3.473h1.748a0.746 0.746 0 0 0 0-1.492zM8.5 10.283999999999999a1.782 1.782 0 0 1-0.72-3.413 0.816 0.816 0 0 1 0.244 0.177 1.648 1.648 0 0 1 0.301 1.076v0.737a1.972 1.972 0 0 0 0.388 1.322 1.155 1.155 0 0 0 0.096 0.07 1.776 1.776 0 0 1-0.309 0.031z m0.72-0.155a0.816 0.816 0 0 1-0.244-0.177 1.648 1.648 0 0 1-0.301-1.076v-0.737a1.972 1.972 0 0 0-0.388-1.322 1.155 1.155 0 0 0-0.096-0.07A1.78 1.78 0 0 1 9.219999999999999 10.129999999999999z" fill="hsl(236, 6%, 48%)" stroke="hsl(60, 5%, 100%)" stroke-linejoin="round" stroke-miterlimit="4px" stroke-width="2"/><path d="M12.24 5.513a0.746 0.746 0 0 0-0.745-0.746 0.746 0.746 0 1 0-1.493 0v1.746A2.489 2.489 0 0 0 6.5120000000000005 10H4.747a0.746 0.746 0 0 0 0 1.492 0.746 0.746 0 0 0 0.747 0.746 0.746 0.746 0 0 0 1.492 0v-1.76a2.489 2.489 0 0 0 3.506-3.473h1.748a0.746 0.746 0 0 0 0-1.492zM8.5 10.283999999999999a1.782 1.782 0 0 1-0.72-3.413 0.816 0.816 0 0 1 0.244 0.177 1.648 1.648 0 0 1 0.301 1.076v0.737a1.972 1.972 0 0 0 0.388 1.322 1.155 1.155 0 0 0 0.096 0.07 1.776 1.776 0 0 1-0.309 0.031z m0.72-0.155a0.816 0.816 0 0 1-0.244-0.177 1.648 1.648 0 0 1-0.301-1.076v-0.737a1.972 1.972 0 0 0-0.388-1.322 1.155 1.155 0 0 0-0.096-0.07A1.78 1.78 0 0 1 9.219999999999999 10.129999999999999z" fill="hsl(236, 6%, 48%)"/></g></svg>