<svg xmlns="http://www.w3.org/2000/svg" id="convenience-15" width="21" height="21" viewBox="0 0 21 21"><g><path d="M0,0 H21 V21 H0 Z" fill="none"/><path d="M5.998 6.069s0.188-1.062 1-1.062h1.006v-0.28a0.5 0.5 0 0 1 0.5-0.5h3.984a0.5 0.5 0 0 1 0.5 0.5v0.28h1.01a0.832 0.832 0 0 1 0.638 0.293 1.759 1.759 0 0 1 0.362 0.769s0.311 1.572 0.592 2.918h-0.938L14 6l-7.018-0.004-0.648 2.99h-0.952z m11 4.914a1 1 0 0 1-0.999 1l-1 3.973s-0.188 1.042-1 1.042h-7c-0.813 0-1-1.042-1-1.042L4.981 11.98a0.999 0.999 0 0 1 0.016-1.997h11a1 1 0 0 1 1 1zM8.033000000000001 15.13l-0.003-1.125-0.39-1.536a0.537 0.537 0 1 0-1.066 0.144l0.206 1.395 0.187 1.267a0.537 0.537 0 1 0 1.066-0.145z m2-2.597A0.533 0.533 0 0 0 9.498999999999999 12h-0.01a0.5 0.5 0 0 0-0.358 0.15 0.529 0.529 0 0 0-0.165 0.384v2.68a0.533 0.533 0 1 0 1.067 0z m1.998 0a0.531 0.531 0 0 0-0.337-0.493 0.5 0.5 0 0 0-0.393 0 0.531 0.531 0 0 0-0.337 0.493v2.68a0.533 0.533 0 1 0 1.067 0z m2.385 0.08a0.537 0.537 0 1 0-1.065-0.144l-0.391 1.525-0.002 1.136a0.537 0.537 0 1 0 1.065 0.145z" fill="hsl(236, 6%, 48%)" stroke="hsl(60, 5%, 100%)" stroke-linejoin="round" stroke-miterlimit="4px" stroke-width="2"/><path d="M5.998 6.069s0.188-1.062 1-1.062h1.006v-0.28a0.5 0.5 0 0 1 0.5-0.5h3.984a0.5 0.5 0 0 1 0.5 0.5v0.28h1.01a0.832 0.832 0 0 1 0.638 0.293 1.759 1.759 0 0 1 0.362 0.769s0.311 1.572 0.592 2.918h-0.938L14 6l-7.018-0.004-0.648 2.99h-0.952z m11 4.914a1 1 0 0 1-0.999 1l-1 3.973s-0.188 1.042-1 1.042h-7c-0.813 0-1-1.042-1-1.042L4.981 11.98a0.999 0.999 0 0 1 0.016-1.997h11a1 1 0 0 1 1 1zM8.033000000000001 15.13l-0.003-1.125-0.39-1.536a0.537 0.537 0 1 0-1.066 0.144l0.206 1.395 0.187 1.267a0.537 0.537 0 1 0 1.066-0.145z m2-2.597A0.533 0.533 0 0 0 9.498999999999999 12h-0.01a0.5 0.5 0 0 0-0.358 0.15 0.529 0.529 0 0 0-0.165 0.384v2.68a0.533 0.533 0 1 0 1.067 0z m1.998 0a0.531 0.531 0 0 0-0.337-0.493 0.5 0.5 0 0 0-0.393 0 0.531 0.531 0 0 0-0.337 0.493v2.68a0.533 0.533 0 1 0 1.067 0z m2.385 0.08a0.537 0.537 0 1 0-1.065-0.144l-0.391 1.525-0.002 1.136a0.537 0.537 0 1 0 1.065 0.145z" fill="hsl(236, 6%, 48%)"/></g></svg>