<svg xmlns="http://www.w3.org/2000/svg" id="convenience-11" width="17" height="17" viewBox="0 0 17 17"><g><path d="M0,0 H17 V17 H0 Z" fill="none"/><path d="M11.821 7.269h-0.62c-0.155-0.6-0.28-1.066-0.283-1.074l-0.01-0.05c0-0.001-0.12-0.548-0.41-0.548H6.518c-0.289 0-0.41 0.547-0.41 0.553-0.008 0.033-0.136 0.511-0.293 1.118h-0.62c0.176-0.68 0.323-1.23 0.323-1.23s0.187-1.04 1-1.04h0.496a0.493 0.493 0 0 1 0.483-0.416h2a0.493 0.493 0 0 1 0.483 0.415h0.517c0.812 0 1 1.042 1 1.042s0.147 0.549 0.323 1.23zM5.92 12.995a0.494 0.494 0 0 1-0.483-0.368c-0.23-0.873-0.8-3.053-0.938-3.63a0.5 0.5 0 1 1 0-1h8a0.5 0.5 0 0 1 0 1c-0.137 0.577-0.715 2.76-0.948 3.632a0.495 0.495 0 0 1-0.483 0.366zM7.013 9.7a0.513 0.513 0 0 0-1.024 0V11.51a0.513 0.513 0 0 0 1.024 0z m1.997 0a0.513 0.513 0 0 0-1.024 0V11.51a0.513 0.513 0 0 0 1.024 0z m2.006 0a0.513 0.513 0 0 0-1.024 0V11.51a0.513 0.513 0 0 0 1.024 0z" fill="hsl(236, 6%, 48%)" stroke="hsl(60, 5%, 100%)" stroke-linejoin="round" stroke-miterlimit="4px" stroke-width="2"/><path d="M11.821 7.269h-0.62c-0.155-0.6-0.28-1.066-0.283-1.074l-0.01-0.05c0-0.001-0.12-0.548-0.41-0.548H6.518c-0.289 0-0.41 0.547-0.41 0.553-0.008 0.033-0.136 0.511-0.293 1.118h-0.62c0.176-0.68 0.323-1.23 0.323-1.23s0.187-1.04 1-1.04h0.496a0.493 0.493 0 0 1 0.483-0.416h2a0.493 0.493 0 0 1 0.483 0.415h0.517c0.812 0 1 1.042 1 1.042s0.147 0.549 0.323 1.23zM5.92 12.995a0.494 0.494 0 0 1-0.483-0.368c-0.23-0.873-0.8-3.053-0.938-3.63a0.5 0.5 0 1 1 0-1h8a0.5 0.5 0 0 1 0 1c-0.137 0.577-0.715 2.76-0.948 3.632a0.495 0.495 0 0 1-0.483 0.366zM7.013 9.7a0.513 0.513 0 0 0-1.024 0V11.51a0.513 0.513 0 0 0 1.024 0z m1.997 0a0.513 0.513 0 0 0-1.024 0V11.51a0.513 0.513 0 0 0 1.024 0z m2.006 0a0.513 0.513 0 0 0-1.024 0V11.51a0.513 0.513 0 0 0 1.024 0z" fill="hsl(236, 6%, 48%)"/></g></svg>