<svg xmlns="http://www.w3.org/2000/svg" id="de-u-bahn" width="17" height="17" viewBox="0 0 17 17"><g><path d="M2,0 H15 C15,0 17,0 17,2 V15 C17,15 17,17 15,17 H2 C2,17 0,17 0,15 V2 C0,2 0,0 2,0" fill="hsl(0, 0%, 100%)" opacity="0.75"/><path d="M2,1 H15 C15,1 16,1 16,2 V15 C16,15 16,16 15,16 H2 C2,16 1,16 1,15 V2 C1,2 1,1 2,1" fill="hsl(230, 57%, 54%)"/><path d="M10.5,9a2.24,2.24,0,0,1-2,2,2.24,2.24,0,0,1-2-2V3.5H4v5c0,2.76,1.74,5,4.5,5s4.5-2.26,4.5-5v-5H10.5Z" fill="hsl(0, 0%, 100%)"/><path d="M0,0 H17 V17 H0 Z" fill="none"/></g></svg>