<svg xmlns="http://www.w3.org/2000/svg" id="delhi-metro" width="19" height="19" viewBox="0 0 19 19"><g><path d="M9.5,19A9.5,9.5,0,1,1,19,9.5,9.5,9.5,0,0,1,9.5,19Z" fill="hsl(0, 0%, 100%)" opacity="0.75"/><path d="M9.5,9.5 m-8.5,0 a8.5,8.5 0 1,0 17,0 a8.5,8.5 0 1,0 -17,0" fill="hsl(0, 0%, 100%)"/><path d="M17.35,12.76A8.34,8.34,0,0,0,17.86,8h0a2.73,2.73,0,0,0-.17-.75h0c-.07-.25-.15-.49-.24-.73h0a8.49,8.49,0,0,0-15.89,0h0c-.09.24-.17.48-.24.73h0A5.87,5.87,0,0,0,1.14,8h0a8.34,8.34,0,0,0,.51,4.76h0a8.5,8.5,0,0,0,15.69,0h0ZM16.5,9.5A6.92,6.92,0,0,1,16,12H8.5l4.05-4h3.78A6.9,6.9,0,0,1,16.5,9.5Zm-7-7a7,7,0,0,1,6.31,4H3.19A7,7,0,0,1,9.5,2.5Zm1,5.5-4,4H3a6.84,6.84,0,0,1-.3-4Zm-1,8.5a7,7,0,0,1-5.74-3H15.24A7,7,0,0,1,9.5,16.5Z" fill="hsl(0, 87%, 59%)"/><path d="M0,0 H19 V19 H0 Z" fill="none"/></g></svg>