<svg xmlns="http://www.w3.org/2000/svg" id="dentist-15" width="21" height="21" viewBox="0 0 21 21"><g><path d="M0,0 H21 V21 H0 Z" fill="none"/><path d="M7.36 17c-1 0-0.56-2.67-0.86-5-0.1-0.76-1-1.49-1.12-2.06C5 8 4.39 4.4399999999999995 6.66 4S9 6 10.54 6 12.11 3.64 14.39 4s1.59 3.9 1.29 5.9c-0.1 0.45-1.1 1.48-1.18 2.06-0.33 2.4 0.32 5-0.8 5-0.93 0-1.32-2.72-2-4.5C11.43 11.63 11.06 11 10.54 11 9 11 8.75 17 7.36 17z" fill="hsl(320, 32%, 52%)" stroke="hsl(320, 53%, 100%)" stroke-linejoin="round" stroke-miterlimit="4px" stroke-width="2"/><path d="M7.36 17c-1 0-0.56-2.67-0.86-5-0.1-0.76-1-1.49-1.12-2.06C5 8 4.39 4.4399999999999995 6.66 4S9 6 10.54 6 12.11 3.64 14.39 4s1.59 3.9 1.29 5.9c-0.1 0.45-1.1 1.48-1.18 2.06-0.33 2.4 0.32 5-0.8 5-0.93 0-1.32-2.72-2-4.5C11.43 11.63 11.06 11 10.54 11 9 11 8.75 17 7.36 17z" fill="hsl(320, 32%, 52%)"/></g></svg>