<svg xmlns="http://www.w3.org/2000/svg" id="dentist-11" width="17" height="17" viewBox="0 0 17 17"><g><path d="M0,0 H17 V17 H0 Z" fill="none"/><path d="M8.48 9A2 2 0 0 0 7 10c-0.46 1.21-0.14 3-0.82 3S5.7 11.49 5.5 10a16.259 16.259 0 0 0-0.76-1.89C4.53 6.7 4 4.28 5.67 4S7.35 5.52 8.5 5.52 9.67 3.7199999999999998 11.33 4s1.14 2.7 0.93 4.11A16.259 16.259 0 0 0 11.5 10c-0.2 1.49 0 3-0.68 3S10.46 11.21 10 10a2 2 0 0 0-1.48-1h-0.04z" fill="hsl(320, 32%, 52%)" stroke="hsl(320, 53%, 100%)" stroke-linejoin="round" stroke-miterlimit="4px" stroke-width="2"/><path d="M8.48 9A2 2 0 0 0 7 10c-0.46 1.21-0.14 3-0.82 3S5.7 11.49 5.5 10a16.259 16.259 0 0 0-0.76-1.89C4.53 6.7 4 4.28 5.67 4S7.35 5.52 8.5 5.52 9.67 3.7199999999999998 11.33 4s1.14 2.7 0.93 4.11A16.259 16.259 0 0 0 11.5 10c-0.2 1.49 0 3-0.68 3S10.46 11.21 10 10a2 2 0 0 0-1.48-1h-0.04z" fill="hsl(320, 32%, 52%)"/></g></svg>