<svg xmlns="http://www.w3.org/2000/svg" id="doctor-15" width="21" height="21" viewBox="0 0 21 21"><g><path d="M0,0 H21 V21 H0 Z" fill="none"/><path d="M8.5 10A2.5 2.5 0 0 1 6 7.5v-2a0.5 0.5 0 0 1 0.5-0.5H7a0.5 0.5 0 0 0 0-1h-0.5A1.5 1.5 0 0 0 5 5.5v2a3.49 3.49 0 0 0 1.51 2.87A4.41 4.41 0 0 1 8 13.5a3.5 3.5 0 1 0 7 0v-0.57a2 2 0 1 0-1 0v0.57a2.5 2.5 0 0 1-5 0 4.41 4.41 0 0 1 1.5-3.13A3.49 3.49 0 0 0 12 7.5v-2A1.5 1.5 0 0 0 10.5 4H10a0.5 0.5 0 0 0 0 1h0.5a0.5 0.5 0 0 1 0.5 0.5v2A2.5 2.5 0 0 1 8.5 10m6 2a1 1 0 1 1 0-2 1 1 0 0 1 0 2z" fill="hsl(320, 32%, 52%)" stroke="hsl(320, 53%, 100%)" stroke-linejoin="round" stroke-miterlimit="4px" stroke-width="2"/><path d="M8.5 10A2.5 2.5 0 0 1 6 7.5v-2a0.5 0.5 0 0 1 0.5-0.5H7a0.5 0.5 0 0 0 0-1h-0.5A1.5 1.5 0 0 0 5 5.5v2a3.49 3.49 0 0 0 1.51 2.87A4.41 4.41 0 0 1 8 13.5a3.5 3.5 0 1 0 7 0v-0.57a2 2 0 1 0-1 0v0.57a2.5 2.5 0 0 1-5 0 4.41 4.41 0 0 1 1.5-3.13A3.49 3.49 0 0 0 12 7.5v-2A1.5 1.5 0 0 0 10.5 4H10a0.5 0.5 0 0 0 0 1h0.5a0.5 0.5 0 0 1 0.5 0.5v2A2.5 2.5 0 0 1 8.5 10m6 2a1 1 0 1 1 0-2 1 1 0 0 1 0 2z" fill="hsl(320, 32%, 52%)"/></g></svg>