<svg xmlns="http://www.w3.org/2000/svg" id="doctor-11" width="17" height="17" viewBox="0 0 17 17"><g><path d="M0,0 H17 V17 H0 Z" fill="none"/><path d="M12.5 8.870000000000001A1.48 1.48 0 1 0 10.65 10.3v0.42a1.855 1.855 0 1 1-3.71 0A3.27 3.27 0 0 1 8.05 8.4H8a2.58 2.58 0 0 0 1.17-2.12V4.79A1.11 1.11 0 0 0 8.059999999999999 3.68H7.5a0.37 0.37 0 0 0 0 0.74h0.55a0.37 0.37 0 0 1 0.37 0.37v1.49a1.85 1.85 0 0 1-1.84 1.85v0.27-0.27a1.85 1.85 0 0 1-1.86-1.84v-1.5a0.37 0.37 0 0 1 0.37-0.37h0.52a0.37 0.37 0 0 0 0-0.74h-0.52A1.11 1.11 0 0 0 4 4.79v1.49A2.58 2.58 0 0 0 5.1 8.4a3.27 3.27 0 0 1 1.1 2.32 2.595 2.595 0 1 0 5.19 0V10.3A1.48 1.48 0 0 0 12.5 8.870000000000001zM11 9.61a0.74 0.74 0 1 1 0.74-0.74 0.74 0.74 0 0 1-0.74 0.74z" fill="hsl(320, 32%, 52%)" stroke="hsl(320, 53%, 100%)" stroke-linejoin="round" stroke-miterlimit="4px" stroke-width="2"/><path d="M12.5 8.870000000000001A1.48 1.48 0 1 0 10.65 10.3v0.42a1.855 1.855 0 1 1-3.71 0A3.27 3.27 0 0 1 8.05 8.4H8a2.58 2.58 0 0 0 1.17-2.12V4.79A1.11 1.11 0 0 0 8.059999999999999 3.68H7.5a0.37 0.37 0 0 0 0 0.74h0.55a0.37 0.37 0 0 1 0.37 0.37v1.49a1.85 1.85 0 0 1-1.84 1.85v0.27-0.27a1.85 1.85 0 0 1-1.86-1.84v-1.5a0.37 0.37 0 0 1 0.37-0.37h0.52a0.37 0.37 0 0 0 0-0.74h-0.52A1.11 1.11 0 0 0 4 4.79v1.49A2.58 2.58 0 0 0 5.1 8.4a3.27 3.27 0 0 1 1.1 2.32 2.595 2.595 0 1 0 5.19 0V10.3A1.48 1.48 0 0 0 12.5 8.870000000000001zM11 9.61a0.74 0.74 0 1 1 0.74-0.74 0.74 0.74 0 0 1-0.74 0.74z" fill="hsl(320, 32%, 52%)"/></g></svg>