<svg xmlns="http://www.w3.org/2000/svg" id="dog-park-15" width="21" height="21" viewBox="0 0 21 21"><g><path d="M0,0 H21 V21 H0 Z" fill="none"/><path d="M13.3 4.22c-0.386 0-0.7-0.02-0.8 0.78l-0.4 2.521L14.5 9.5h2c1.4 0 1.5-0.959 1.5-0.959l-1.9-2.219c-0.7-0.7-1.4-0.822-2.1-0.822V5s0.067-0.78-0.7-0.78z m-5.55 0.28s-0.95 0.02-1.55 0.22c-0.6 0.2-1.2 0.901-1.2 1.901v3.9C5 12.221 4.3 12.5 4 12.5c0 0-1 0.021-1 1.021v2.2s0 0.8 0.8 0.8H5V15.822c0-0.4-0.2-0.6-0.5-0.7v-1.1c1 0 1.1-0.201 1.5-0.301l0.55 2.197c0.1 0.3 0.2 0.5 0.5 0.6h1L9 16.5v-0.8c0-0.677-1-0.7-1-0.7V12.5h3.5l0.7 2.621c0.4 1.4 1.3 1.379 1.3 1.379H15v-0.8c0-0.713-1-0.7-1-0.7l0.1-4.078L11 8.5H6.5v-2c0-0.4 0.276-0.495 0.5-0.5 0.494-0.012 0.75 0 0.75 0a0.75 0.75 0 0 0 0-1.5z m7 2.5a0.25 0.25 0 1 1 0 0.5 0.25 0.25 0 0 1 0-0.5z" fill="hsl(160, 80%, 21%)" stroke="hsl(100, 76%, 100%)" stroke-linejoin="round" stroke-miterlimit="4px" stroke-width="2"/><path d="M13.3 4.22c-0.386 0-0.7-0.02-0.8 0.78l-0.4 2.521L14.5 9.5h2c1.4 0 1.5-0.959 1.5-0.959l-1.9-2.219c-0.7-0.7-1.4-0.822-2.1-0.822V5s0.067-0.78-0.7-0.78z m-5.55 0.28s-0.95 0.02-1.55 0.22c-0.6 0.2-1.2 0.901-1.2 1.901v3.9C5 12.221 4.3 12.5 4 12.5c0 0-1 0.021-1 1.021v2.2s0 0.8 0.8 0.8H5V15.822c0-0.4-0.2-0.6-0.5-0.7v-1.1c1 0 1.1-0.201 1.5-0.301l0.55 2.197c0.1 0.3 0.2 0.5 0.5 0.6h1L9 16.5v-0.8c0-0.677-1-0.7-1-0.7V12.5h3.5l0.7 2.621c0.4 1.4 1.3 1.379 1.3 1.379H15v-0.8c0-0.713-1-0.7-1-0.7l0.1-4.078L11 8.5H6.5v-2c0-0.4 0.276-0.495 0.5-0.5 0.494-0.012 0.75 0 0.75 0a0.75 0.75 0 0 0 0-1.5z m7 2.5a0.25 0.25 0 1 1 0 0.5 0.25 0.25 0 0 1 0-0.5z" fill="hsl(160, 80%, 21%)"/></g></svg>