<svg xmlns="http://www.w3.org/2000/svg" id="dog-park-11" width="17" height="17" viewBox="0 0 17 17"><g><path d="M0,0 H17 V17 H0 Z" fill="none"/><path d="M10.5 4s-0.346 0.037-0.5 0.5l-0.5 2 2 1.5H13c1 0 1-1 1-1L12.5 5.5C12 5 11.5 5 11 5v-0.5S11 4 10.5 4z m-5 1s-0.353-0.007-0.723 0.178S4 5.833 4 6.5v2C4 9.5 4 10 3.5 10c0 0-0.5 0-0.5 0.5v2s0 0.5 0.5 0.5 0.5-0.5 0.5-0.5V11c0.354 0 0.69-0.137 1-0.299V12.5s0 0.5 0.5 0.5 0.5-0.5 0.5-0.5V10h3l0.664 1.992C10 13 10.5 13 10.5 13H11s0.5 0 0.5-0.5S11 12 11 12V9.5c0-0.89-0.632-1.255-1-1.5L8.498000000000001 7H5v-0.5c0-0.333 0.092-0.362 0.223-0.428C5.353 6.007 5.5 6 5.5 6c0.676 0.01 0.676-1.01 0-1z" fill="hsl(160, 80%, 21%)" stroke="hsl(100, 76%, 100%)" stroke-linejoin="round" stroke-miterlimit="4px" stroke-width="2"/><path d="M10.5 4s-0.346 0.037-0.5 0.5l-0.5 2 2 1.5H13c1 0 1-1 1-1L12.5 5.5C12 5 11.5 5 11 5v-0.5S11 4 10.5 4z m-5 1s-0.353-0.007-0.723 0.178S4 5.833 4 6.5v2C4 9.5 4 10 3.5 10c0 0-0.5 0-0.5 0.5v2s0 0.5 0.5 0.5 0.5-0.5 0.5-0.5V11c0.354 0 0.69-0.137 1-0.299V12.5s0 0.5 0.5 0.5 0.5-0.5 0.5-0.5V10h3l0.664 1.992C10 13 10.5 13 10.5 13H11s0.5 0 0.5-0.5S11 12 11 12V9.5c0-0.89-0.632-1.255-1-1.5L8.498000000000001 7H5v-0.5c0-0.333 0.092-0.362 0.223-0.428C5.353 6.007 5.5 6 5.5 6c0.676 0.01 0.676-1.01 0-1z" fill="hsl(160, 80%, 21%)"/></g></svg>