<svg xmlns="http://www.w3.org/2000/svg" id="dot-10" width="11" height="11" viewBox="0 0 11 11"><g><path d="M1.5,5.5a4,4,0,1,0,4-4,4,4,0,0,0-4,4" fill="hsl(60, 0%, 100%)" opacity="0.25"/><path d="M2,5.5A3.5,3.5,0,1,0,5.5,2,3.5,3.5,0,0,0,2,5.5" fill="hsl(60, 0%, 100%)" opacity="0.5"/><path d="M2.5,5.5a3,3,0,1,0,3-3,3,3,0,0,0-3,3" fill="hsl(60, 0%, 100%)" opacity="0.75"/><path d="M3,5.5A2.5,2.5,0,1,0,5.5,3,2.5,2.5,0,0,0,3,5.5" fill="hsl(60, 0%, 100%)"/><path d="M3.5,5.5a2,2,0,1,0,2-2,2,2,0,0,0-2,2" fill="hsl(230, 20%, 5%)"/></g></svg>