<svg xmlns="http://www.w3.org/2000/svg" id="drinking-water-11" width="17" height="17" viewBox="0 0 17 17"><g><path d="M0,0 H17 V17 H0 Z" fill="none"/><path d="M8 14H6a0.51 0.51 0 0 1-0.5-0.4L4 8.6a0.5 0.5 0 0 1 0.5-0.6h5a0.5 0.5 0 0 1 0.5 0.6l-1.49 5A0.51 0.51 0 0 1 8 14zM5.76 11h2.46l0.67-2H5.109999999999999zM7.5 3A1.5 1.5 0 0 0 6 4.51v2a0.5 0.5 0 0 0 0.5 0.5h1A0.5 0.5 0 0 0 8 6.5v-1a0.5 0.5 0 0 1 0.5-0.5H13V3H7.5z" fill="hsl(236, 6%, 48%)" stroke="hsl(60, 5%, 100%)" stroke-linejoin="round" stroke-miterlimit="4px" stroke-width="2"/><path d="M8 14H6a0.51 0.51 0 0 1-0.5-0.4L4 8.6a0.5 0.5 0 0 1 0.5-0.6h5a0.5 0.5 0 0 1 0.5 0.6l-1.49 5A0.51 0.51 0 0 1 8 14zM5.76 11h2.46l0.67-2H5.109999999999999zM7.5 3A1.5 1.5 0 0 0 6 4.51v2a0.5 0.5 0 0 0 0.5 0.5h1A0.5 0.5 0 0 0 8 6.5v-1a0.5 0.5 0 0 1 0.5-0.5H13V3H7.5z" fill="hsl(236, 6%, 48%)"/></g></svg>