<svg xmlns="http://www.w3.org/2000/svg" id="drinking-water-15" width="21" height="21" viewBox="0 0 21 21"><g><path d="M0,0 H21 V21 H0 Z" fill="none"/><path d="M9 4a2 2 0 0 0-2 2v3.5a0.5 0.5 0 0 0 0.5 0.5h2a0.5 0.5 0 0 0 0.5-0.5v-2a0.5 0.5 0 0 1 0.5-0.5H17V4H9zM10 18H7a0.5 0.5 0 0 1-0.48-0.38L5 11.62A0.5 0.5 0 0 1 5.5 11h6a0.5 0.5 0 0 1 0.5 0.62l-1.5 6A0.5 0.5 0 0 1 10 18z m-3.35-4h3.71l0.5-2H6.140000000000001z" fill="hsl(236, 6%, 48%)" stroke="hsl(60, 5%, 100%)" stroke-linejoin="round" stroke-miterlimit="4px" stroke-width="2"/><path d="M9 4a2 2 0 0 0-2 2v3.5a0.5 0.5 0 0 0 0.5 0.5h2a0.5 0.5 0 0 0 0.5-0.5v-2a0.5 0.5 0 0 1 0.5-0.5H17V4H9zM10 18H7a0.5 0.5 0 0 1-0.48-0.38L5 11.62A0.5 0.5 0 0 1 5.5 11h6a0.5 0.5 0 0 1 0.5 0.62l-1.5 6A0.5 0.5 0 0 1 10 18z m-3.35-4h3.71l0.5-2H6.140000000000001z" fill="hsl(236, 6%, 48%)"/></g></svg>