<svg xmlns="http://www.w3.org/2000/svg" id="embassy-15" width="21" height="21" viewBox="0 0 21 21"><g><path d="M0,0 H21 V21 H0 Z" fill="none"/><path d="M9.65 5C8.43 5 7.48 6.38 7.11 6.82a0.49 0.49 0 0 0-0.11 0.32v4.4a0.44 0.44 0 0 0 0.72 0.36 3 3 0 0 1 1.93-1.17C11.06 10.73 11.6 12 13.07 12a5.28 5.28 0 0 0 2.73-1.09 0.49 0.49 0 0 0 0.2-0.4V5.45a0.44 0.44 0 0 0-0.62-0.45 5.75 5.75 0 0 1-2.31 1.06C11.6 6.08 11.12 5 9.65 5zM5.5 6a1 1 0 1 1 0-2 1 1 0 0 1 0 2zM6 7v9.48a0.5 0.5 0 0 1-1 0V7a0.5 0.5 0 0 1 1 0z" fill="hsl(236, 6%, 48%)" stroke="hsl(60, 5%, 100%)" stroke-linejoin="round" stroke-miterlimit="4px" stroke-width="2"/><path d="M9.65 5C8.43 5 7.48 6.38 7.11 6.82a0.49 0.49 0 0 0-0.11 0.32v4.4a0.44 0.44 0 0 0 0.72 0.36 3 3 0 0 1 1.93-1.17C11.06 10.73 11.6 12 13.07 12a5.28 5.28 0 0 0 2.73-1.09 0.49 0.49 0 0 0 0.2-0.4V5.45a0.44 0.44 0 0 0-0.62-0.45 5.75 5.75 0 0 1-2.31 1.06C11.6 6.08 11.12 5 9.65 5zM5.5 6a1 1 0 1 1 0-2 1 1 0 0 1 0 2zM6 7v9.48a0.5 0.5 0 0 1-1 0V7a0.5 0.5 0 0 1 1 0z" fill="hsl(236, 6%, 48%)"/></g></svg>