<svg xmlns="http://www.w3.org/2000/svg" id="embassy-11" width="17" height="17" viewBox="0 0 17 17"><g><path d="M0,0 H17 V17 H0 Z" fill="none"/><path d="M8.5 5a4.07 4.07 0 0 0-2.41 1.06 0.36 0.36 0 0 0-0.09 0.24v3.32a0.34 0.34 0 0 0 0.57 0.27 3.23 3.23 0 0 1 1.93-0.67C9.61 9.219999999999999 9.85 10 11 10a3.08 3.08 0 0 0 1.83-0.84 0.36 0.36 0 0 0 0.17-0.32V5.37A0.35 0.35 0 0 0 12.5 5a3.13 3.13 0 0 1-1.5 0.67C9.85 5.67 9.65 5 8.5 5z m-4-0.5a1 1 0 1 1 0 2 1 1 0 0 1 0-2z m0.5 3v6a0.5 0.5 0 0 1-1 0v-6a0.5 0.5 0 0 1 1 0z" fill="hsl(236, 6%, 48%)" stroke="hsl(60, 5%, 100%)" stroke-linejoin="round" stroke-miterlimit="4px" stroke-width="2"/><path d="M8.5 5a4.07 4.07 0 0 0-2.41 1.06 0.36 0.36 0 0 0-0.09 0.24v3.32a0.34 0.34 0 0 0 0.57 0.27 3.23 3.23 0 0 1 1.93-0.67C9.61 9.219999999999999 9.85 10 11 10a3.08 3.08 0 0 0 1.83-0.84 0.36 0.36 0 0 0 0.17-0.32V5.37A0.35 0.35 0 0 0 12.5 5a3.13 3.13 0 0 1-1.5 0.67C9.85 5.67 9.65 5 8.5 5z m-4-0.5a1 1 0 1 1 0 2 1 1 0 0 1 0-2z m0.5 3v6a0.5 0.5 0 0 1-1 0v-6a0.5 0.5 0 0 1 1 0z" fill="hsl(236, 6%, 48%)"/></g></svg>