<svg xmlns="http://www.w3.org/2000/svg" id="entrance" width="17" height="17" viewBox="0 0 17 17"><g><path d="M2,1 H15 C15,1 16,1 16,2 V15 C16,15 16,16 15,16 H2 C2,16 1,16 1,15 V2 C1,2 1,1 2,1" fill="hsl(230, 54%, 30%)" stroke="hsl(60, 5%, 100%)" stroke-linejoin="round" stroke-miterlimit="4px" stroke-width="2"/><path d="M2,1 H15 C15,1 16,1 16,2 V15 C16,15 16,16 15,16 H2 C2,16 1,16 1,15 V2 C1,2 1,1 2,1" fill="hsl(230, 54%, 30%)"/><path d="M7.793 10.263a0.5 0.5 0 0 0 0.707 0.707l2.243-2.293a0.25 0.25 0 0 0 0-0.354L8.489 6.042a0.5 0.5 0 0 0-0.707 0.707L9 8H4.5a0.5 0.5 0 0 0 0 1H9zM12 4H7.5a0.5 0.5 0 0 0 0 1h4a0.5 0.5 0 0 1 0.5 0.5v6a0.5 0.5 0 0 1-0.5 0.5h-4a0.5 0.5 0 0 0 0 1H12a1 1 0 0 0 1-1V5a1 1 0 0 0-1-1z" fill="hsl(60, 5%, 100%)"/></g></svg>