<svg xmlns="http://www.w3.org/2000/svg" id="fast-food-15" width="21" height="21" viewBox="0 0 21 21"><g><path d="M0,0 H21 V21 H0 Z" fill="none"/><path d="M17 11a1 1 0 0 1-1 1H5a1 1 0 1 1 0-2h11a1 1 0 0 1 1 1zM6.5 13H5a3 3 0 0 0 3 3h5a3 3 0 0 0 3-3H6.5zM6 9H5V7a2 2 0 0 1 2-2h7a2 2 0 0 1 2 2v2H6z m8-1.5a0.5 0.5 0 1 0 1 0 0.5 0.5 0 0 0-1 0z m-2-1a0.5 0.5 0 1 0 1 0 0.5 0.5 0 0 0-1 0z m-2 1a0.5 0.5 0 1 0 1 0 0.5 0.5 0 0 0-1 0z m-2-1a0.5 0.5 0 1 0 1 0 0.5 0.5 0 0 0-1 0z m-2 1a0.5 0.5 0 1 0 1 0 0.5 0.5 0 0 0-1 0z" fill="hsl(232, 20%, 54%)" stroke="hsl(60, 5%, 100%)" stroke-linejoin="round" stroke-miterlimit="4px" stroke-width="2"/><path d="M17 11a1 1 0 0 1-1 1H5a1 1 0 1 1 0-2h11a1 1 0 0 1 1 1zM6.5 13H5a3 3 0 0 0 3 3h5a3 3 0 0 0 3-3H6.5zM6 9H5V7a2 2 0 0 1 2-2h7a2 2 0 0 1 2 2v2H6z m8-1.5a0.5 0.5 0 1 0 1 0 0.5 0.5 0 0 0-1 0z m-2-1a0.5 0.5 0 1 0 1 0 0.5 0.5 0 0 0-1 0z m-2 1a0.5 0.5 0 1 0 1 0 0.5 0.5 0 0 0-1 0z m-2-1a0.5 0.5 0 1 0 1 0 0.5 0.5 0 0 0-1 0z m-2 1a0.5 0.5 0 1 0 1 0 0.5 0.5 0 0 0-1 0z" fill="hsl(232, 20%, 54%)"/></g></svg>