<svg xmlns="http://www.w3.org/2000/svg" id="fast-food-11" width="17" height="17" viewBox="0 0 17 17"><g><path d="M0,0 H17 V17 H0 Z" fill="none"/><path d="M13 11a2 2 0 0 1-2 2H6a2 2 0 0 1-2-2h9z m0-3H4a1 1 0 1 0 0 2h9a1 1 0 1 0 0-2zM11.55 4H5.46A1.46 1.46 0 0 0 4 5.46V7h9V5.470000000000001A1.46 1.46 0 0 0 11.55 4z m-5 2A0.5 0.5 0 1 1 7 5.5a0.5 0.5 0 0 1-0.5 0.5h0.05z m4 0A0.5 0.5 0 1 1 11 5.5a0.5 0.5 0 0 1-0.5 0.5h0.05z" fill="hsl(232, 20%, 54%)" stroke="hsl(60, 5%, 100%)" stroke-linejoin="round" stroke-miterlimit="4px" stroke-width="2"/><path d="M13 11a2 2 0 0 1-2 2H6a2 2 0 0 1-2-2h9z m0-3H4a1 1 0 1 0 0 2h9a1 1 0 1 0 0-2zM11.55 4H5.46A1.46 1.46 0 0 0 4 5.46V7h9V5.470000000000001A1.46 1.46 0 0 0 11.55 4z m-5 2A0.5 0.5 0 1 1 7 5.5a0.5 0.5 0 0 1-0.5 0.5h0.05z m4 0A0.5 0.5 0 1 1 11 5.5a0.5 0.5 0 0 1-0.5 0.5h0.05z" fill="hsl(232, 20%, 54%)"/></g></svg>