<svg xmlns="http://www.w3.org/2000/svg" id="ferry" width="17" height="17" viewBox="0 0 17 17"><g><path d="M2,1 H15 C15,1 16,1 16,2 V15 C16,15 16,16 15,16 H2 C2,16 1,16 1,15 V2 C1,2 1,1 2,1" fill="hsl(230, 54%, 30%)" stroke="hsl(60, 5%, 100%)" stroke-linejoin="round" stroke-miterlimit="4px" stroke-width="2"/><path d="M2,1 H15 C15,1 16,1 16,2 V15 C16,15 16,16 15,16 H2 C2,16 1,16 1,15 V2 C1,2 1,1 2,1" fill="hsl(230, 54%, 30%)"/><path d="M14 12.45v0.77a0.83 0.83 0 0 0-0.57 0.26 1.86 1.86 0 0 1-0.81 0.46 1.74 1.74 0 0 1-1.49-0.29l-0.33-0.27a0.71 0.71 0 0 0-0.93 0c-0.12 0.09-0.23 0.2-0.35 0.28a1.75 1.75 0 0 1-2.1-0.05l-0.33-0.27a0.69 0.69 0 0 0-0.83 0c-0.16 0.11-0.3 0.25-0.46 0.36a1.75 1.75 0 0 1-2 0l-0.26-0.21a0.82 0.82 0 0 0-0.54-0.27v-0.77a1.16 1.16 0 0 1 0.63 0.11c0.234 0.13 0.458 0.276 0.67 0.44a0.76 0.76 0 0 0 0.7 0.2 0.82 0.82 0 0 0 0.26-0.12c0.13-0.09 0.25-0.2 0.38-0.3a1.75 1.75 0 0 1 2.07 0l0.4 0.31a0.69 0.69 0 0 0 0.81 0l0.4-0.31a1.75 1.75 0 0 1 2.08 0l0.38 0.3a0.69 0.69 0 0 0 0.82 0l0.4-0.31a1.61 1.61 0 0 1 1-0.32zM5.609999999999999 10.61L4 8l1-0.91V4.15A1.18 1.18 0 0 1 6.1899999999999995 3h4.62A1.18 1.18 0 0 1 12 4.15v2.94L13 8 11.39 10.620000000000001a2.22 2.22 0 0 0-2.65 0.14L8.5 11l-0.2-0.18a2.22 2.22 0 0 0-2.69-0.21z m0.2-4L8.5 5l2.69 1.63V4.15a0.36 0.36 0 0 0-0.38-0.38H6.1899999999999995a0.36 0.36 0 0 0-0.38 0.38v2.48-0.02z" fill="hsl(60, 5%, 100%)"/></g></svg>