<svg xmlns="http://www.w3.org/2000/svg" id="fire-station-11" width="17" height="17" viewBox="0 0 17 17"><g><path d="M0,0 H17 V17 H0 Z" fill="none"/><path d="M8.5 3l-2 4L5 5c-0.405 0.712-2 2.167-2 4 0 2.7 2.8 5 5.5 5S14 11.7 14 9c0-1.833-1.595-3.288-2-4L10.5 7l-2-4z m0 5.5s2 1.585 2 3c0 0.611-0.778 1.278-2 1.278s-2-0.667-2-1.278c0-1.366 2-3 2-3z" fill="hsl(236, 6%, 48%)" stroke="hsl(60, 5%, 100%)" stroke-linejoin="round" stroke-miterlimit="4px" stroke-width="2"/><path d="M8.5 3l-2 4L5 5c-0.405 0.712-2 2.167-2 4 0 2.7 2.8 5 5.5 5S14 11.7 14 9c0-1.833-1.595-3.288-2-4L10.5 7l-2-4z m0 5.5s2 1.585 2 3c0 0.611-0.778 1.278-2 1.278s-2-0.667-2-1.278c0-1.366 2-3 2-3z" fill="hsl(236, 6%, 48%)"/></g></svg>