<svg xmlns="http://www.w3.org/2000/svg" id="fire-station-15" width="21" height="21" viewBox="0 0 21 21"><g><path d="M0,0 H21 V21 H0 Z" fill="none"/><path d="M10.5 3.5L8 7.5l-1.5-2C5.945 6.475 3.8040000000000003 8.792 3.8040000000000003 11.304a6.696 6.696 0 1 0 13.392 0c0-2.512-2.141-4.829-2.696-5.804l-1.5 2-2.5-4z m0 6.5S13 12.562 13 14.5c0 0.837-0.826 2-2.5 2S8 15.337 8 14.5C8 12.628 10.5 10 10.5 10z" fill="hsl(236, 6%, 48%)" stroke="hsl(60, 5%, 100%)" stroke-linejoin="round" stroke-miterlimit="4px" stroke-width="2"/><path d="M10.5 3.5L8 7.5l-1.5-2C5.945 6.475 3.8040000000000003 8.792 3.8040000000000003 11.304a6.696 6.696 0 1 0 13.392 0c0-2.512-2.141-4.829-2.696-5.804l-1.5 2-2.5-4z m0 6.5S13 12.562 13 14.5c0 0.837-0.826 2-2.5 2S8 15.337 8 14.5C8 12.628 10.5 10 10.5 10z" fill="hsl(236, 6%, 48%)"/></g></svg>