<svg xmlns="http://www.w3.org/2000/svg" id="fitness-centre-11" width="17" height="17" viewBox="0 0 17 17"><g><path d="M0,0 H17 V17 H0 Z" fill="none"/><path d="M10 9H7V8h3zM5 6v1H4v1a0.5 0.5 0 0 0 0 1v1h1v1h1.5V6z m8 2V7H12V6H10.5v5H12V10h1V9a0.5 0.5 0 0 0 0-1z" fill="hsl(236, 6%, 48%)" stroke="hsl(60, 5%, 100%)" stroke-linejoin="round" stroke-miterlimit="4px" stroke-width="2"/><path d="M10 9H7V8h3zM5 6v1H4v1a0.5 0.5 0 0 0 0 1v1h1v1h1.5V6z m8 2V7H12V6H10.5v5H12V10h1V9a0.5 0.5 0 0 0 0-1z" fill="hsl(236, 6%, 48%)"/></g></svg>