<svg xmlns="http://www.w3.org/2000/svg" id="fuel-15" width="21" height="21" viewBox="0 0 21 21"><g><path d="M0,0 H21 V21 H0 Z" fill="none"/><path d="M16 9v5.5a0.5 0.5 0 0 1-1 0v-2A1.5 1.5 0 0 0 13.5 11H12V5a1 1 0 0 0-1-1H5a1 1 0 0 0-1 1v11a1 1 0 0 0 1 1h6a1 1 0 0 0 1-1V12h1.5a0.5 0.5 0 0 1 0.5 0.5v2a1.5 1.5 0 0 0 3 0V8a1 1 0 0 0-1-1V5.49a0.5 0.5 0 0 0-0.5-0.49 0.51 0.51 0 0 0-0.5 0.55V8a1 1 0 1 0 1-1M11 9.5a0.5 0.5 0 0 1-0.5 0.5h-5a0.5 0.5 0 0 1-0.5-0.5v-3a0.5 0.5 0 0 1 0.5-0.5h5a0.5 0.5 0 0 1 0.5 0.5v3z" fill="hsl(236, 6%, 48%)" stroke="hsl(60, 5%, 100%)" stroke-linejoin="round" stroke-miterlimit="4px" stroke-width="2"/><path d="M16 9v5.5a0.5 0.5 0 0 1-1 0v-2A1.5 1.5 0 0 0 13.5 11H12V5a1 1 0 0 0-1-1H5a1 1 0 0 0-1 1v11a1 1 0 0 0 1 1h6a1 1 0 0 0 1-1V12h1.5a0.5 0.5 0 0 1 0.5 0.5v2a1.5 1.5 0 0 0 3 0V8a1 1 0 0 0-1-1V5.49a0.5 0.5 0 0 0-0.5-0.49 0.51 0.51 0 0 0-0.5 0.55V8a1 1 0 1 0 1-1M11 9.5a0.5 0.5 0 0 1-0.5 0.5h-5a0.5 0.5 0 0 1-0.5-0.5v-3a0.5 0.5 0 0 1 0.5-0.5h5a0.5 0.5 0 0 1 0.5 0.5v3z" fill="hsl(236, 6%, 48%)"/></g></svg>