<svg xmlns="http://www.w3.org/2000/svg" id="fuel-11" width="17" height="17" viewBox="0 0 17 17"><g><path d="M0,0 H17 V17 H0 Z" fill="none"/><path d="M12.5 6H12V4.5a0.5 0.5 0 0 0-1 0V6a1 1 0 0 0 1 1v4.25a0.25 0.25 0 1 1-0.5 0V9.5A1.5 1.5 0 0 0 10 8V5a1 1 0 0 0-1-1H5a1 1 0 0 0-1 1v7a1 1 0 0 0 1 1h4a1 1 0 0 0 1-1V9a0.5 0.5 0 0 1 0.5 0.5v1.75a1.25 1.25 0 1 0 2.5 0V6.5a0.5 0.5 0 0 0-0.5-0.5zM9 7.5a0.49 0.49 0 0 1-0.48 0.5h-3A0.51 0.51 0 0 1 5 7.5V6a0.5 0.5 0 0 1 0.5-0.5h3A0.5 0.5 0 0 1 9 6v1.5z" fill="hsl(236, 6%, 48%)" stroke="hsl(60, 5%, 100%)" stroke-linejoin="round" stroke-miterlimit="4px" stroke-width="2"/><path d="M12.5 6H12V4.5a0.5 0.5 0 0 0-1 0V6a1 1 0 0 0 1 1v4.25a0.25 0.25 0 1 1-0.5 0V9.5A1.5 1.5 0 0 0 10 8V5a1 1 0 0 0-1-1H5a1 1 0 0 0-1 1v7a1 1 0 0 0 1 1h4a1 1 0 0 0 1-1V9a0.5 0.5 0 0 1 0.5 0.5v1.75a1.25 1.25 0 1 0 2.5 0V6.5a0.5 0.5 0 0 0-0.5-0.5zM9 7.5a0.49 0.49 0 0 1-0.48 0.5h-3A0.51 0.51 0 0 1 5 7.5V6a0.5 0.5 0 0 1 0.5-0.5h3A0.5 0.5 0 0 1 9 6v1.5z" fill="hsl(236, 6%, 48%)"/></g></svg>