<svg xmlns="http://www.w3.org/2000/svg" id="furniture-11" width="17" height="17" viewBox="0 0 17 17"><g><path d="M0,0 H17 V17 H0 Z" fill="none"/><path d="M9 10.555V9a0.5 0.5 0 1 0-1 0v1.555a2.5 2.5 0 0 0-1.923 1.827 0.502 0.502 0 0 0 0.489 0.618h3.868a0.502 0.502 0 0 0 0.49-0.618A2.5 2.5 0 0 0 9 10.555z" fill="hsl(236, 6%, 48%)" stroke="hsl(60, 5%, 100%)" stroke-linejoin="round" stroke-miterlimit="4px" stroke-width="2"/><path d="M12.135 7.27L10.64 4.279A0.505 0.505 0 0 0 10.187999999999999 4H6.811999999999999a0.505 0.505 0 0 0-0.451 0.279l-1.496 2.99A0.505 0.505 0 0 0 5.317 8H10v0.75a0.25 0.25 0 1 0 0.5 0V8h1.183c0.376 0 0.62-0.395 0.452-0.73z" fill="hsl(236, 6%, 48%)" stroke="hsl(60, 5%, 100%)" stroke-linejoin="round" stroke-miterlimit="4px" stroke-width="2"/><path d="M9 10.555V9a0.5 0.5 0 1 0-1 0v1.555a2.5 2.5 0 0 0-1.923 1.827 0.502 0.502 0 0 0 0.489 0.618h3.868a0.502 0.502 0 0 0 0.49-0.618A2.5 2.5 0 0 0 9 10.555z" fill="hsl(236, 6%, 48%)"/><path d="M12.135 7.27L10.64 4.279A0.505 0.505 0 0 0 10.187999999999999 4H6.811999999999999a0.505 0.505 0 0 0-0.451 0.279l-1.496 2.99A0.505 0.505 0 0 0 5.317 8H10v0.75a0.25 0.25 0 1 0 0.5 0V8h1.183c0.376 0 0.62-0.395 0.452-0.73z" fill="hsl(236, 6%, 48%)"/></g></svg>