<svg xmlns="http://www.w3.org/2000/svg" id="furniture-15" width="21" height="21" viewBox="0 0 21 21"><g><path d="M0,0 H21 V21 H0 Z" fill="none"/><path d="M12 13.142v-1.64A0.501 0.501 0 0 0 11.499 11H10.5A0.501 0.501 0 0 0 10 11.501v1.64a3.993 3.993 0 0 0-2.957 3.273 0.507 0.507 0 0 0 0.496 0.586h6.922c0.31 0 0.541-0.28 0.496-0.586A3.993 3.993 0 0 0 12 13.142z" fill="hsl(236, 6%, 48%)" stroke="hsl(60, 5%, 100%)" stroke-linejoin="round" stroke-miterlimit="4px" stroke-width="2"/><path d="M16.64 9.279l-2.502-5.004A0.498 0.498 0 0 0 13.692 4H8.308a0.498 0.498 0 0 0-0.446 0.276L5.361000000000001 9.279A0.498 0.498 0 0 0 5.806 10H14v1.5a0.5 0.5 0 0 0 1 0V10h1.194c0.37 0 0.611-0.39 0.445-0.721z" fill="hsl(236, 6%, 48%)" stroke="hsl(60, 5%, 100%)" stroke-linejoin="round" stroke-miterlimit="4px" stroke-width="2"/><path d="M12 13.142v-1.64A0.501 0.501 0 0 0 11.499 11H10.5A0.501 0.501 0 0 0 10 11.501v1.64a3.993 3.993 0 0 0-2.957 3.273 0.507 0.507 0 0 0 0.496 0.586h6.922c0.31 0 0.541-0.28 0.496-0.586A3.993 3.993 0 0 0 12 13.142z" fill="hsl(236, 6%, 48%)"/><path d="M16.64 9.279l-2.502-5.004A0.498 0.498 0 0 0 13.692 4H8.308a0.498 0.498 0 0 0-0.446 0.276L5.361000000000001 9.279A0.498 0.498 0 0 0 5.806 10H14v1.5a0.5 0.5 0 0 0 1 0V10h1.194c0.37 0 0.611-0.39 0.445-0.721z" fill="hsl(236, 6%, 48%)"/></g></svg>