<svg xmlns="http://www.w3.org/2000/svg" id="garden-15" width="21" height="21" viewBox="0 0 21 21"><g><path d="M0,0 H21 V21 H0 Z" fill="none"/><path d="M16 11c0 3.31-2.19 6-5.5 6S5 14.31 5 11a5.33 5.33 0 0 1 5 3.61V10H7.5A1.5 1.5 0 0 1 6 8.5v-3a0.5 0.5 0 0 1 0.9-0.3l1.53 2 1.65-3a0.5 0.5 0 0 1 0.84 0l1.65 3 1.53-2a0.5 0.5 0 0 1 0.9 0.3v3A1.5 1.5 0 0 1 13.5 10H11v4.61A5.33 5.33 0 0 1 16 11z" fill="hsl(160, 80%, 21%)" stroke="hsl(100, 76%, 100%)" stroke-linejoin="round" stroke-miterlimit="4px" stroke-width="2"/><path d="M16 11c0 3.31-2.19 6-5.5 6S5 14.31 5 11a5.33 5.33 0 0 1 5 3.61V10H7.5A1.5 1.5 0 0 1 6 8.5v-3a0.5 0.5 0 0 1 0.9-0.3l1.53 2 1.65-3a0.5 0.5 0 0 1 0.84 0l1.65 3 1.53-2a0.5 0.5 0 0 1 0.9 0.3v3A1.5 1.5 0 0 1 13.5 10H11v4.61A5.33 5.33 0 0 1 16 11z" fill="hsl(160, 80%, 21%)"/></g></svg>