<svg xmlns="http://www.w3.org/2000/svg" id="garden-11" width="17" height="17" viewBox="0 0 17 17"><g><path d="M0,0 H17 V17 H0 Z" fill="none"/><path d="M13 9a4 4 0 0 1-4.25 4A4 4 0 0 1 4.5 9a4 4 0 0 1 3.9 2.26V8h-2a0.89 0.89 0 0 1-0.9-0.88V4.84a0.35 0.35 0 0 1 0.64-0.21L7.28 6 8.45 3.67a0.35 0.35 0 0 1 0.6 0L10.219999999999999 6l1.13-1.38a0.35 0.35 0 0 1 0.65 0.21v2.28a0.89 0.89 0 0 1-0.89 0.89H9.1v3.26A4 4 0 0 1 13 9z" fill="hsl(160, 80%, 21%)" stroke="hsl(100, 76%, 100%)" stroke-linejoin="round" stroke-miterlimit="4px" stroke-width="2"/><path d="M13 9a4 4 0 0 1-4.25 4A4 4 0 0 1 4.5 9a4 4 0 0 1 3.9 2.26V8h-2a0.89 0.89 0 0 1-0.9-0.88V4.84a0.35 0.35 0 0 1 0.64-0.21L7.28 6 8.45 3.67a0.35 0.35 0 0 1 0.6 0L10.219999999999999 6l1.13-1.38a0.35 0.35 0 0 1 0.65 0.21v2.28a0.89 0.89 0 0 1-0.89 0.89H9.1v3.26A4 4 0 0 1 13 9z" fill="hsl(160, 80%, 21%)"/></g></svg>