<svg xmlns="http://www.w3.org/2000/svg" id="gb-national-rail.london-tfl-rail.london-overground" width="55" height="16" viewBox="0 0 55 16"><g><path d="M52.6,5.5a8,8,0,0,0-15.19,0H33.6a8,8,0,0,0-15.19,0H17V3a2,2,0,0,0-2-2H2A2,2,0,0,0,0,3V13a2,2,0,0,0,2,2H15a2,2,0,0,0,2-2V10.5h1.4a8,8,0,0,0,15.19,0H37.4a8,8,0,0,0,15.19,0H55v-5Z" fill="hsl(0, 0%, 100%)" opacity="0.75"/><path d="M26,8 m-4,0 a4,4 0 1,0 8,0 a4,4 0 1,0 -8,0" fill="hsl(0, 0%, 100%)"/><path d="M26,1a7,7,0,1,0,7,7A7,7,0,0,0,26,1Zm0,11a4,4,0,1,1,4-4A4,4,0,0,1,26,12Z" fill="hsl(230, 57%, 54%)"/><path d="M17,6.5 H35 V9.5 H17 Z" fill="hsl(230, 57%, 54%)"/><path d="M2,2 H15 C15,2 16,2 16,3 V13 C16,13 16,14 15,14 H2 C2,14 1,14 1,13 V3 C1,3 1,2 2,2" fill="hsl(0, 87%, 59%)"/><path d="M15,7,15,6,12,6,7.26,4,5,4,9.67,6,2,6,2,7,9.67,7,5,9,2,9,2,10,5,10,9.67,12,12,12,7.26,10,15,10,15,9,7.26,9,12,7,15,7 Z" fill="hsl(0, 0%, 100%)"/><path d="M45,8 m-4,0 a4,4 0 1,0 8,0 a4,4 0 1,0 -8,0" fill="hsl(0, 0%, 100%)"/><path d="M45,1a7,7,0,1,0,7,7A7,7,0,0,0,45,1Zm0,11a4,4,0,1,1,4-4A4,4,0,0,1,45,12Z" fill="hsl(25, 100%, 63%)"/><path d="M36,6.5 H54 V9.5 H36 Z" fill="hsl(230, 57%, 54%)"/></g></svg>