<svg xmlns="http://www.w3.org/2000/svg" id="gb-national-rail" width="17" height="14" viewBox="0 0 17 14"><g><path d="M2,0 H15 C15,0 17,0 17,2 V12 C17,12 17,14 15,14 H2 C2,14 0,14 0,12 V2 C0,2 0,0 2,0" fill="hsl(0, 0%, 100%)" opacity="0.75"/><path d="M2,1 H15 C15,1 16,1 16,2 V12 C16,12 16,13 15,13 H2 C2,13 1,13 1,12 V2 C1,2 1,1 2,1" fill="hsl(0, 87%, 59%)"/><path d="M15,6,15,5,12,5,7.26,3,5,3,9.67,5,2,5,2,6,9.67,6,5,8,2,8,2,9,5,9,9.67,11,12,11,7.26,9,15,9,15,8,7.26,8,12,6,15,6 Z" fill="hsl(0, 0%, 100%)"/></g></svg>