<svg xmlns="http://www.w3.org/2000/svg" id="globe-15" width="21" height="21" viewBox="0 0 21 21"><g><path d="M0,0 H21 V21 H0 Z" fill="none"/><path d="M14.98 12.48l-0.72-0.72c-0.918 1.057-2.254 1.74-3.76 1.74-2.757 0-5-2.243-5-5 0-1.506 0.683-2.842 1.74-3.76l-0.72-0.72A5.978 5.978 0 0 0 4.5 8.5c0 3.145 2.42 5.72 5.5 5.975V16h-0.5a0.5 0.5 0 1 0 0 1h2a0.5 0.5 0 0 0 0-1H11v-1.527a5.982 5.982 0 0 0 3.98-1.992z" fill="hsl(236, 6%, 48%)" stroke="hsl(60, 5%, 100%)" stroke-linejoin="round" stroke-miterlimit="4px" stroke-width="2"/><path d="M10.5 12a3.5 3.5 0 1 0 0-7 3.5 3.5 0 0 0 0 7z m1-5l0.364-0.592a2.5 2.5 0 0 1 0.823 0.905L12.5 8h-1V7z m-1.844-0.844L10.5 7v1L11 9h1.94a2.495 2.495 0 0 1-1.502 1.814L11 10H9.5L8.05 8a2.496 2.496 0 0 1 1.606-1.844z" fill="hsl(236, 6%, 48%)" stroke="hsl(60, 5%, 100%)" stroke-linejoin="round" stroke-miterlimit="4px" stroke-width="2"/><path d="M14.98 12.48l-0.72-0.72c-0.918 1.057-2.254 1.74-3.76 1.74-2.757 0-5-2.243-5-5 0-1.506 0.683-2.842 1.74-3.76l-0.72-0.72A5.978 5.978 0 0 0 4.5 8.5c0 3.145 2.42 5.72 5.5 5.975V16h-0.5a0.5 0.5 0 1 0 0 1h2a0.5 0.5 0 0 0 0-1H11v-1.527a5.982 5.982 0 0 0 3.98-1.992z" fill="hsl(236, 6%, 48%)"/><path d="M10.5 12a3.5 3.5 0 1 0 0-7 3.5 3.5 0 0 0 0 7z m1-5l0.364-0.592a2.5 2.5 0 0 1 0.823 0.905L12.5 8h-1V7z m-1.844-0.844L10.5 7v1L11 9h1.94a2.495 2.495 0 0 1-1.502 1.814L11 10H9.5L8.05 8a2.496 2.496 0 0 1 1.606-1.844z" fill="hsl(236, 6%, 48%)"/></g></svg>