<svg xmlns="http://www.w3.org/2000/svg" id="globe-11" width="17" height="17" viewBox="0 0 17 17"><g><path d="M0,0 H17 V17 H0 Z" fill="none"/><path d="M9.5 13H9V11.95a4.478 4.478 0 0 0 2.682-1.268L11.15 10.15a3.739 3.739 0 0 1-2.65 1.1A3.754 3.754 0 0 1 4.75 7.5c0-1.034 0.42-1.971 1.1-2.65l-0.532-0.532A4.486 4.486 0 0 0 4 7.5c0 2.314 1.753 4.198 4 4.45V13h-0.5a0.5 0.5 0 1 0 0 1h2a0.5 0.5 0 0 0 0-1z" fill="hsl(236, 6%, 48%)" stroke="hsl(60, 5%, 100%)" stroke-linejoin="round" stroke-miterlimit="4px" stroke-width="2"/><path d="M8.5 10a2.5 2.5 0 1 0 0-5 2.5 2.5 0 0 0 0 5z m-0.545-4.415l0.493 0.616v0.837l0.613 1.111h1.322c-0.17 0.492-0.522 0.892-0.98 1.126L8.5 8.5h-1l-0.968-1.32a1.991 1.991 0 0 1 1.423-1.595z" fill="hsl(236, 6%, 48%)" stroke="hsl(60, 5%, 100%)" stroke-linejoin="round" stroke-miterlimit="4px" stroke-width="2"/><path d="M9.5 13H9V11.95a4.478 4.478 0 0 0 2.682-1.268L11.15 10.15a3.739 3.739 0 0 1-2.65 1.1A3.754 3.754 0 0 1 4.75 7.5c0-1.034 0.42-1.971 1.1-2.65l-0.532-0.532A4.486 4.486 0 0 0 4 7.5c0 2.314 1.753 4.198 4 4.45V13h-0.5a0.5 0.5 0 1 0 0 1h2a0.5 0.5 0 0 0 0-1z" fill="hsl(236, 6%, 48%)"/><path d="M8.5 10a2.5 2.5 0 1 0 0-5 2.5 2.5 0 0 0 0 5z m-0.545-4.415l0.493 0.616v0.837l0.613 1.111h1.322c-0.17 0.492-0.522 0.892-0.98 1.126L8.5 8.5h-1l-0.968-1.32a1.991 1.991 0 0 1 1.423-1.595z" fill="hsl(236, 6%, 48%)"/></g></svg>