<svg xmlns="http://www.w3.org/2000/svg" id="golf-11" width="17" height="17" viewBox="0 0 17 17"><g><path d="M0,0 H17 V17 H0 Z" fill="none"/><path d="M7.05 3.638c-0.518 0.543 0.223 1.175 0.678 0.675L8.224 3.77l2.332 1.393L6.306 7.5c-0.293 0.162-0.341 0.44-0.234 0.721l0.889 2.317-0.935 2.804c-0.129 0.385 0.171 0.649 0.474 0.658a0.468 0.468 0 0 0 0.475-0.341l0.92-2.764 0.853-0.283 0.252 0.505V13.5s0 0.5 0.5 0.5 0.5-0.5 0.5-0.5V11.117a0.84 0.84 0 0 0-0.064-0.362l-1.281-3.34 2.552-1.403c0.187-0.08 0.29-0.254 0.29-0.512 0-0.226-0.217-0.413-0.456-0.556L7.905 3.071c-0.16-0.096-0.275-0.043-0.323 0.007l-0.533 0.56zM6 5a1 1 0 1 0 0 2 1 1 0 0 0 0-2z" fill="hsl(160, 80%, 21%)" stroke="hsl(100, 76%, 100%)" stroke-linejoin="round" stroke-miterlimit="4px" stroke-width="2"/><path d="M7.05 3.638c-0.518 0.543 0.223 1.175 0.678 0.675L8.224 3.77l2.332 1.393L6.306 7.5c-0.293 0.162-0.341 0.44-0.234 0.721l0.889 2.317-0.935 2.804c-0.129 0.385 0.171 0.649 0.474 0.658a0.468 0.468 0 0 0 0.475-0.341l0.92-2.764 0.853-0.283 0.252 0.505V13.5s0 0.5 0.5 0.5 0.5-0.5 0.5-0.5V11.117a0.84 0.84 0 0 0-0.064-0.362l-1.281-3.34 2.552-1.403c0.187-0.08 0.29-0.254 0.29-0.512 0-0.226-0.217-0.413-0.456-0.556L7.905 3.071c-0.16-0.096-0.275-0.043-0.323 0.007l-0.533 0.56zM6 5a1 1 0 1 0 0 2 1 1 0 0 0 0-2z" fill="hsl(160, 80%, 21%)"/></g></svg>