<svg xmlns="http://www.w3.org/2000/svg" id="golf-15" width="21" height="21" viewBox="0 0 21 21"><g><path d="M0,0 H21 V21 H0 Z" fill="none"/><path d="M6.4 4.1v0.2c0 0.4 0.3 0.7 0.7 0.7 0.3 0 0.5-0.2 0.6-0.5l0.2-0.5 5.6 2.3L9.6 9c-0.4 0.3-0.4 0.7-0.3 1.1l0.9 2.1-1.3 3.9c-0.2 0.5 0.2 0.9 0.6 0.9 0.3 0 0.5-0.1 0.6-0.5l1.4-4 0.1 0.3v3.5s0 0.7 0.7 0.7 0.7-0.7 0.7-0.7V13c0-0.2 0-0.3-0.1-0.5L11.5 9.1l2.7-1.9c0.2-0.2 0.4-0.3 0.4-0.6s-0.2-0.5-0.4-0.6L7 3.1c-0.088 0-0.118 0.018-0.2 0.1l-0.4 0.9zM8.5 6C7.7 6 7 6.7 7 7.5S7.7 9 8.5 9 10 8.3 10 7.5 9.3 6 8.5 6z" fill="hsl(160, 80%, 21%)" stroke="hsl(100, 76%, 100%)" stroke-linejoin="round" stroke-miterlimit="4px" stroke-width="2"/><path d="M6.4 4.1v0.2c0 0.4 0.3 0.7 0.7 0.7 0.3 0 0.5-0.2 0.6-0.5l0.2-0.5 5.6 2.3L9.6 9c-0.4 0.3-0.4 0.7-0.3 1.1l0.9 2.1-1.3 3.9c-0.2 0.5 0.2 0.9 0.6 0.9 0.3 0 0.5-0.1 0.6-0.5l1.4-4 0.1 0.3v3.5s0 0.7 0.7 0.7 0.7-0.7 0.7-0.7V13c0-0.2 0-0.3-0.1-0.5L11.5 9.1l2.7-1.9c0.2-0.2 0.4-0.3 0.4-0.6s-0.2-0.5-0.4-0.6L7 3.1c-0.088 0-0.118 0.018-0.2 0.1l-0.4 0.9zM8.5 6C7.7 6 7 6.7 7 7.5S7.7 9 8.5 9 10 8.3 10 7.5 9.3 6 8.5 6z" fill="hsl(160, 80%, 21%)"/></g></svg>