<svg xmlns="http://www.w3.org/2000/svg" id="grocery-15" width="21" height="21" viewBox="0 0 21 21"><g><path d="M0,0 H21 V21 H0 Z" fill="none"/><path d="M16.2 4.5s-1.391-0.041-1.946 0.5c-0.534 0.52-0.754 0.918-0.754 2H4.2l1.394 4.814c0.003 0.008 0.01 0.015 0.013 0.022 0.235 0.657 0.848 1.13 1.579 1.158l0.013 0.006h6.5v0.2s0.001 0.3-0.199 0.7c-0.2 0.4-0.3 0.6-1.1 0.6H5.9c-1 0-1 1.5 0 1.5H12.3c1.2 0 2.1-0.7 2.4-1.4 0.3-0.7 0.3-1.3 0.3-1.3V7c0-0.524 0.229-1 0.7-1h0.55a0.75 0.75 0 0 0 0-1.5h-0.05zM12.2 16c-0.6 0-1 0.4-1 1s0.4 1 1 1 1-0.4 1-1-0.4-1-1-1z m-5 0c-0.6 0-1 0.4-1 1s0.4 1 1 1 1-0.4 1-1-0.4-1-1-1z" fill="hsl(236, 6%, 48%)" stroke="hsl(60, 5%, 100%)" stroke-linejoin="round" stroke-miterlimit="4px" stroke-width="2"/><path d="M16.2 4.5s-1.391-0.041-1.946 0.5c-0.534 0.52-0.754 0.918-0.754 2H4.2l1.394 4.814c0.003 0.008 0.01 0.015 0.013 0.022 0.235 0.657 0.848 1.13 1.579 1.158l0.013 0.006h6.5v0.2s0.001 0.3-0.199 0.7c-0.2 0.4-0.3 0.6-1.1 0.6H5.9c-1 0-1 1.5 0 1.5H12.3c1.2 0 2.1-0.7 2.4-1.4 0.3-0.7 0.3-1.3 0.3-1.3V7c0-0.524 0.229-1 0.7-1h0.55a0.75 0.75 0 0 0 0-1.5h-0.05zM12.2 16c-0.6 0-1 0.4-1 1s0.4 1 1 1 1-0.4 1-1-0.4-1-1-1z m-5 0c-0.6 0-1 0.4-1 1s0.4 1 1 1 1-0.4 1-1-0.4-1-1-1z" fill="hsl(236, 6%, 48%)"/></g></svg>