<svg xmlns="http://www.w3.org/2000/svg" id="grocery-11" width="17" height="17" viewBox="0 0 17 17"><g><path d="M0,0 H17 V17 H0 Z" fill="none"/><path d="M12.75 4.5c-0.004 0-0.318-0.006-0.63 0.188C11.803 4.881 11.5 5.3 11.5 6H4l0.75 3.5c0.107 0.5 0.75 0.5 0.75 0.5h6s-0.003 0.247-0.152 0.496S10.93 11 10.25 11H5c-0.338-0.005-0.338 0.505 0 0.5h5.25c0.82 0 1.302-0.37 1.527-0.746C12.003 10.378 12 10 12 10V6c0-0.567 0.196-0.772 0.38-0.887C12.567 5 12.747 5 12.747 5h0.504c0.338 0.005 0.338-0.505 0-0.5h-0.5z m-2.5 7a0.75 0.75 0 1 0 0 1.5 0.75 0.75 0 0 0 0-1.5z m-4 0a0.75 0.75 0 1 0 0 1.5 0.75 0.75 0 0 0 0-1.5z" fill="hsl(236, 6%, 48%)" stroke="hsl(60, 5%, 100%)" stroke-linejoin="round" stroke-miterlimit="4px" stroke-width="2"/><path d="M12.75 4.5c-0.004 0-0.318-0.006-0.63 0.188C11.803 4.881 11.5 5.3 11.5 6H4l0.75 3.5c0.107 0.5 0.75 0.5 0.75 0.5h6s-0.003 0.247-0.152 0.496S10.93 11 10.25 11H5c-0.338-0.005-0.338 0.505 0 0.5h5.25c0.82 0 1.302-0.37 1.527-0.746C12.003 10.378 12 10 12 10V6c0-0.567 0.196-0.772 0.38-0.887C12.567 5 12.747 5 12.747 5h0.504c0.338 0.005 0.338-0.505 0-0.5h-0.5z m-2.5 7a0.75 0.75 0 1 0 0 1.5 0.75 0.75 0 0 0 0-1.5z m-4 0a0.75 0.75 0 1 0 0 1.5 0.75 0.75 0 0 0 0-1.5z" fill="hsl(236, 6%, 48%)"/></g></svg>