<svg xmlns="http://www.w3.org/2000/svg" id="harbor-15" width="21" height="21" viewBox="0 0 21 21"><g><path d="M0,0 H21 V21 H0 Z" fill="none"/><path d="M10.5 3C8.5 3 7 4.567 7 6.5a3.492 3.492 0 0 0 2.5 3.338v6.039c-0.93-0.165-1.875-0.55-2.648-1.27-1.053-0.98-1.85-2.54-1.85-5.109a1 1 0 1 0-2.002 0c0 3.003 1.012 5.196 2.49 6.572C6.968 17.447 8.838000000000001 18 10.5 18c1.666 0 3.535-0.56 5.012-1.94s2.486-3.573 2.486-6.562c0.065-1.395-2.063-1.395-1.998 0 0 2.553-0.8 4.115-1.853 5.1-0.774 0.722-1.718 1.11-2.647 1.277V9.841999999999999A3.494 3.494 0 0 0 14 6.5C14 4.567 12.5 3 10.5 3z m0 2a1.5 1.5 0 1 1 0 3 1.5 1.5 0 0 1 0-3z" fill="hsl(236, 6%, 48%)" stroke="hsl(60, 5%, 100%)" stroke-linejoin="round" stroke-miterlimit="4px" stroke-width="2"/><path d="M10.5 3C8.5 3 7 4.567 7 6.5a3.492 3.492 0 0 0 2.5 3.338v6.039c-0.93-0.165-1.875-0.55-2.648-1.27-1.053-0.98-1.85-2.54-1.85-5.109a1 1 0 1 0-2.002 0c0 3.003 1.012 5.196 2.49 6.572C6.968 17.447 8.838000000000001 18 10.5 18c1.666 0 3.535-0.56 5.012-1.94s2.486-3.573 2.486-6.562c0.065-1.395-2.063-1.395-1.998 0 0 2.553-0.8 4.115-1.853 5.1-0.774 0.722-1.718 1.11-2.647 1.277V9.841999999999999A3.494 3.494 0 0 0 14 6.5C14 4.567 12.5 3 10.5 3z m0 2a1.5 1.5 0 1 1 0 3 1.5 1.5 0 0 1 0-3z" fill="hsl(236, 6%, 48%)"/></g></svg>