<svg xmlns="http://www.w3.org/2000/svg" id="harbor-11" width="17" height="17" viewBox="0 0 17 17"><g><path d="M0,0 H17 V17 H0 Z" fill="none"/><path d="M8.5 3A2.5 2.5 0 0 0 6 5.5a2.493 2.493 0 0 0 1.75 2.371v4.545c-0.659-0.115-1.338-0.375-1.893-0.857C5.09 10.89 4.5 9.829 4.5 8A0.75 0.75 0 1 0 3 8c0 2.17 0.773 3.735 1.873 4.691S7.333 14 8.5 14s2.527-0.352 3.627-1.309S14 10.171 14 8c0.014-1.014-1.514-1.014-1.5 0 0 1.83-0.589 2.89-1.357 3.559-0.555 0.482-1.234 0.742-1.893 0.857V7.875A2.494 2.494 0 0 0 8.5 3z m0 1.5a1 1 0 1 1 0 2 1 1 0 0 1 0-2z" fill="hsl(236, 6%, 48%)" stroke="hsl(60, 5%, 100%)" stroke-linejoin="round" stroke-miterlimit="4px" stroke-width="2"/><path d="M8.5 3A2.5 2.5 0 0 0 6 5.5a2.493 2.493 0 0 0 1.75 2.371v4.545c-0.659-0.115-1.338-0.375-1.893-0.857C5.09 10.89 4.5 9.829 4.5 8A0.75 0.75 0 1 0 3 8c0 2.17 0.773 3.735 1.873 4.691S7.333 14 8.5 14s2.527-0.352 3.627-1.309S14 10.171 14 8c0.014-1.014-1.514-1.014-1.5 0 0 1.83-0.589 2.89-1.357 3.559-0.555 0.482-1.234 0.742-1.893 0.857V7.875A2.494 2.494 0 0 0 8.5 3z m0 1.5a1 1 0 1 1 0 2 1 1 0 0 1 0-2z" fill="hsl(236, 6%, 48%)"/></g></svg>