<svg xmlns="http://www.w3.org/2000/svg" id="hardware-11" width="17" height="17" viewBox="0 0 17 17"><g><path d="M0,0 H17 V17 H0 Z" fill="none"/><path d="M4.2170000000000005 11.365a1.008 1.008 0 0 0 0.206 1.453c0.418 0.29 0.944 0.238 1.317-0.134 1.281-1.28 2.562-2.561 3.841-3.844 0.064-0.064 0.114-0.085 0.207-0.054 0.428 0.146 0.866 0.163 1.306 0.061a2.45 2.45 0 0 0 1.835-2.975c-0.023-0.094-0.057-0.185-0.094-0.305-0.035 0.044-0.997 1.013-1.459 1.48a0.205 0.205 0 0 1-0.195 0.067C11.08 7.098 10.286999999999999 7.034 10 7c-0.048-0.41-0.073-0.836-0.115-1.238-0.004-0.038 0.023-0.09 0.051-0.119 0.35-0.354 1.332-1.333 1.476-1.476-0.312-0.147-0.847-0.206-1.245-0.14a2.45 2.45 0 0 0-1.95 3.197c0.026 0.08 0.01 0.126-0.047 0.182l-3.953 3.96z" fill="hsl(236, 6%, 48%)" stroke="hsl(60, 5%, 100%)" stroke-linejoin="round" stroke-miterlimit="4px" stroke-width="2"/><path d="M4.2170000000000005 11.365a1.008 1.008 0 0 0 0.206 1.453c0.418 0.29 0.944 0.238 1.317-0.134 1.281-1.28 2.562-2.561 3.841-3.844 0.064-0.064 0.114-0.085 0.207-0.054 0.428 0.146 0.866 0.163 1.306 0.061a2.45 2.45 0 0 0 1.835-2.975c-0.023-0.094-0.057-0.185-0.094-0.305-0.035 0.044-0.997 1.013-1.459 1.48a0.205 0.205 0 0 1-0.195 0.067C11.08 7.098 10.286999999999999 7.034 10 7c-0.048-0.41-0.073-0.836-0.115-1.238-0.004-0.038 0.023-0.09 0.051-0.119 0.35-0.354 1.332-1.333 1.476-1.476-0.312-0.147-0.847-0.206-1.245-0.14a2.45 2.45 0 0 0-1.95 3.197c0.026 0.08 0.01 0.126-0.047 0.182l-3.953 3.96z" fill="hsl(236, 6%, 48%)"/></g></svg>