<svg xmlns="http://www.w3.org/2000/svg" id="hardware-15" width="21" height="21" viewBox="0 0 21 21"><g><path d="M0,0 H21 V21 H0 Z" fill="none"/><path d="M16.792 6.2620000000000005s-1.676 1.675-2.116 2.12a0.296 0.296 0 0 1-0.282 0.097c-0.149-0.023-0.298-0.038-0.447-0.056l-1.229-0.146c-0.069-0.592-0.14-1.172-0.2-1.753-0.006-0.055 0.033-0.13 0.074-0.172 0.508-0.513 1.927-1.929 2.134-2.136-0.45-0.213-1.224-0.297-1.8-0.203a3.545 3.545 0 0 0-2.82 4.625c0.037 0.115 0.013 0.182-0.069 0.264-1.848 1.843-3.693 3.69-5.539 5.535a2.569 2.569 0 0 0-0.178 0.192 1.457 1.457 0 0 0 0.298 2.102c0.604 0.42 1.365 0.344 1.905-0.195 1.853-1.852 3.706-3.705 5.556-5.56 0.092-0.092 0.165-0.123 0.299-0.078 0.619 0.211 1.252 0.236 1.888 0.089a3.544 3.544 0 0 0 2.655-4.304c-0.031-0.13-0.078-0.259-0.13-0.421z" fill="hsl(236, 6%, 48%)" stroke="hsl(60, 5%, 100%)" stroke-linejoin="round" stroke-miterlimit="4px" stroke-width="2"/><path d="M16.792 6.2620000000000005s-1.676 1.675-2.116 2.12a0.296 0.296 0 0 1-0.282 0.097c-0.149-0.023-0.298-0.038-0.447-0.056l-1.229-0.146c-0.069-0.592-0.14-1.172-0.2-1.753-0.006-0.055 0.033-0.13 0.074-0.172 0.508-0.513 1.927-1.929 2.134-2.136-0.45-0.213-1.224-0.297-1.8-0.203a3.545 3.545 0 0 0-2.82 4.625c0.037 0.115 0.013 0.182-0.069 0.264-1.848 1.843-3.693 3.69-5.539 5.535a2.569 2.569 0 0 0-0.178 0.192 1.457 1.457 0 0 0 0.298 2.102c0.604 0.42 1.365 0.344 1.905-0.195 1.853-1.852 3.706-3.705 5.556-5.56 0.092-0.092 0.165-0.123 0.299-0.078 0.619 0.211 1.252 0.236 1.888 0.089a3.544 3.544 0 0 0 2.655-4.304c-0.031-0.13-0.078-0.259-0.13-0.421z" fill="hsl(236, 6%, 48%)"/></g></svg>