<svg xmlns="http://www.w3.org/2000/svg" id="heliport-11" width="17" height="17" viewBox="0 0 17 17"><g><path d="M0,0 H17 V17 H0 Z" fill="none"/><path d="M6 4c-0.277 0-0.5 0.223-0.5 0.5s0.224 0.482 0.5 0.5h3v2H5.912a1.5 1.5 0 1 0-0.39 1.596L7.5 11.5c0.681 1 1.5 1 2 1h3.535s0.965 0 0.965-1v-1c0-0.5-0.5-1-0.5-1l-2-2S11 7 10.5 7H10V5h3a0.499 0.499 0 1 0 0-1H6zM4.5 7a0.5 0.5 0 1 1 0 1 0.5 0.5 0 0 1 0-1z m6.25 1s0.25 0 0.75 0.5L13 10H10.5S10 10 10 9.5v-1s0-0.5 0.5-0.5h0.25z" fill="hsl(244, 54%, 36%)" stroke="hsl(244, 20%, 100%)" stroke-linejoin="round" stroke-miterlimit="4px" stroke-width="2"/><path d="M6 4c-0.277 0-0.5 0.223-0.5 0.5s0.224 0.482 0.5 0.5h3v2H5.912a1.5 1.5 0 1 0-0.39 1.596L7.5 11.5c0.681 1 1.5 1 2 1h3.535s0.965 0 0.965-1v-1c0-0.5-0.5-1-0.5-1l-2-2S11 7 10.5 7H10V5h3a0.499 0.499 0 1 0 0-1H6zM4.5 7a0.5 0.5 0 1 1 0 1 0.5 0.5 0 0 1 0-1z m6.25 1s0.25 0 0.75 0.5L13 10H10.5S10 10 10 9.5v-1s0-0.5 0.5-0.5h0.25z" fill="hsl(244, 54%, 36%)"/></g></svg>