<svg xmlns="http://www.w3.org/2000/svg" id="heliport-15" width="21" height="21" viewBox="0 0 21 21"><g><path d="M0,0 H21 V21 H0 Z" fill="none"/><path d="M7 5C6 5 6 6 7 6h4v1c-0.277 0-0.5 0.223-0.5 0.5V8H6.932A1.998 1.998 0 0 0 3 8.5a2 2 0 0 0 2 2 2 2 0 0 0 1.053-0.303L8.5 13.5C9.507 14.95 11.318 15 12 15h5s1 0 1-1v-0.994c0-0.733-0.126-1.132-0.5-1.506l-3-3s-0.592-0.5-1.273-0.5H12.5v-0.5c0-0.277-0.223-0.5-0.5-0.5V6h4c1 0 1-1 0-1H7zM5 7.5a1 1 0 1 1 0 2 1 1 0 0 1 0-2zM13 9c0.5 0 0.79 0.323 1 0.5L16.5 12H13S12 12 12 11V10s0-1 1-1z" fill="hsl(244, 54%, 36%)" stroke="hsl(244, 20%, 100%)" stroke-linejoin="round" stroke-miterlimit="4px" stroke-width="2"/><path d="M7 5C6 5 6 6 7 6h4v1c-0.277 0-0.5 0.223-0.5 0.5V8H6.932A1.998 1.998 0 0 0 3 8.5a2 2 0 0 0 2 2 2 2 0 0 0 1.053-0.303L8.5 13.5C9.507 14.95 11.318 15 12 15h5s1 0 1-1v-0.994c0-0.733-0.126-1.132-0.5-1.506l-3-3s-0.592-0.5-1.273-0.5H12.5v-0.5c0-0.277-0.223-0.5-0.5-0.5V6h4c1 0 1-1 0-1H7zM5 7.5a1 1 0 1 1 0 2 1 1 0 0 1 0-2zM13 9c0.5 0 0.79 0.323 1 0.5L16.5 12H13S12 12 12 11V10s0-1 1-1z" fill="hsl(244, 54%, 36%)"/></g></svg>