<svg xmlns="http://www.w3.org/2000/svg" id="hong-kong-mtr" width="19" height="17" viewBox="0 0 19 17"><g><path d="M0,0 H19 V17 H0 Z" fill="none"/><path d="M9.5,17h0a10.25,10.25,0,0,1-7.29-2.89A7.29,7.29,0,0,1,0,9C0,4.59,4.26,1,9.48,1h0A10.4,10.4,0,0,1,16.2,3.32,7.37,7.37,0,0,1,19,9C19,13.42,14.73,17,9.5,17Z" fill="hsl(0, 0%, 100%)" opacity="0.75"/><path d="M9.52,2C14.21,2,18,5.16,18,9s-3.83,7-8.52,7S1,12.85,1,9,4.8,2,9.48,2h0Z" fill="hsl(0, 87%, 59%)"/><path d="M14,14H12.5a2.29,2.29,0,0,0-2.05-2.49h-.2v2.75H8.75V11.5a2.26,2.26,0,0,0-2.26,2.28,1.62,1.62,0,0,0,0,.22H5a4.09,4.09,0,0,1,3.75-4V8A3.89,3.89,0,0,1,5,4H6.5a2.27,2.27,0,0,0,2,2.49h.22V3.75h1.5V6.5a2.26,2.26,0,0,0,2.26-2.26,1.93,1.93,0,0,0,0-.24H14a3.88,3.88,0,0,1-3.75,4v2A4.09,4.09,0,0,1,14,14Z" fill="hsl(0, 0%, 100%)"/></g></svg>