<svg xmlns="http://www.w3.org/2000/svg" id="horse-riding-11" width="17" height="17" viewBox="0 0 17 17"><g><path d="M0,0 H17 V17 H0 Z" fill="none"/><path d="M7 4a1 1 0 1 1 1 1 1 1 0 0 1-1-1z m6.88 3.5L12 6v-0.5L10 8H9l1 1v1.014a0.5 0.5 0 1 1-1 0V9.5L7 8H6a1 1 0 0 0-0.8 0.446A1.189 1.189 0 0 0 4.247 8 1.076 1.076 0 0 0 3 8.988C3 10.3 3.635 10.471 3.635 10.471a0.33 0.33 0 0 0 0.115 0.023A0.253 0.253 0 0 0 4 10.25V9a0.49 0.49 0 0 1 0.48-0.5h0.02A0.5 0.5 0 0 1 5 9v2.014l-0.3 0.6a1.609 1.609 0 0 0-0.2 0.6v1.542a0.244 0.244 0 0 0 0.244 0.244 0.255 0.255 0 0 0 0.256-0.244V12.514a0.367 0.367 0 0 1 0.1-0.3l0.9-1.2V12l0.467 1.816a0.256 0.256 0 0 0 0.242 0.184 0.25 0.25 0 0 0 0.25-0.25v-0.016l-0.242-1.61a0.6 0.6 0 0 1 0.025-0.236l0.058-0.174L7 11h2v1l0.466 1.816a0.256 0.256 0 0 0 0.243 0.184 0.25 0.25 0 0 0 0.25-0.25l-0.241-1.626a0.6 0.6 0 0 1 0.025-0.236L10 11a0.877 0.877 0 0 0 0.934-0.661L11.5 7.5a0.6 0.6 0 0 0 0.71 0.454 0.562 0.562 0 0 0 0.143-0.07l0.9 0.116a0.721 0.721 0 0 0 0.392 0.1 0.331 0.331 0 0 0 0.355-0.316 0.406 0.406 0 0 0-0.12-0.284zM9 6.5a0.51 0.51 0 0 0-0.5-0.5h-1a0.482 0.482 0 0 0-0.5 0.5V8h2z" fill="hsl(236, 6%, 48%)" stroke="hsl(60, 5%, 100%)" stroke-linejoin="round" stroke-miterlimit="4px" stroke-width="2"/><path d="M7 4a1 1 0 1 1 1 1 1 1 0 0 1-1-1z m6.88 3.5L12 6v-0.5L10 8H9l1 1v1.014a0.5 0.5 0 1 1-1 0V9.5L7 8H6a1 1 0 0 0-0.8 0.446A1.189 1.189 0 0 0 4.247 8 1.076 1.076 0 0 0 3 8.988C3 10.3 3.635 10.471 3.635 10.471a0.33 0.33 0 0 0 0.115 0.023A0.253 0.253 0 0 0 4 10.25V9a0.49 0.49 0 0 1 0.48-0.5h0.02A0.5 0.5 0 0 1 5 9v2.014l-0.3 0.6a1.609 1.609 0 0 0-0.2 0.6v1.542a0.244 0.244 0 0 0 0.244 0.244 0.255 0.255 0 0 0 0.256-0.244V12.514a0.367 0.367 0 0 1 0.1-0.3l0.9-1.2V12l0.467 1.816a0.256 0.256 0 0 0 0.242 0.184 0.25 0.25 0 0 0 0.25-0.25v-0.016l-0.242-1.61a0.6 0.6 0 0 1 0.025-0.236l0.058-0.174L7 11h2v1l0.466 1.816a0.256 0.256 0 0 0 0.243 0.184 0.25 0.25 0 0 0 0.25-0.25l-0.241-1.626a0.6 0.6 0 0 1 0.025-0.236L10 11a0.877 0.877 0 0 0 0.934-0.661L11.5 7.5a0.6 0.6 0 0 0 0.71 0.454 0.562 0.562 0 0 0 0.143-0.07l0.9 0.116a0.721 0.721 0 0 0 0.392 0.1 0.331 0.331 0 0 0 0.355-0.316 0.406 0.406 0 0 0-0.12-0.284zM9 6.5a0.51 0.51 0 0 0-0.5-0.5h-1a0.482 0.482 0 0 0-0.5 0.5V8h2z" fill="hsl(236, 6%, 48%)"/></g></svg>