<svg xmlns="http://www.w3.org/2000/svg" id="horse-riding-15" width="21" height="21" viewBox="0 0 21 21"><g><path d="M0,0 H21 V21 H0 Z" fill="none"/><path d="M9 4a1 1 0 1 1 1 1 1 1 0 0 1-1-1z m2 2.5a0.484 0.484 0 0 0 0-0.058A0.472 0.472 0 0 0 10.5 6h-1a0.484 0.484 0 0 0-0.058 0A0.472 0.472 0 0 0 9 6.5V10h2z m6.85 3.644L15.8 7.8l0.085-0.509a0.478 0.478 0 0 0 0.008-0.063 0.25 0.25 0 0 0-0.25-0.25 0.346 0.346 0 0 0-0.158 0.056L12 10H11l1 1v1.5a0.5 0.5 0 0 1-1 0v-1L9 10H7a1.5 1.5 0 0 0-1.243 0.661A1.466 1.466 0 0 0 4.563 10H4.5A1.449 1.449 0 0 0 3 11.4v0.086A3.781 3.781 0 0 0 3.559 13.4a0.278 0.278 0 0 0 0.191 0.1 0.25 0.25 0 0 0 0.25-0.25V12s-0.02-0.924 0.753-1c0.5-0.048 0.747 0.253 0.747 0.5V14L5 16v1.75a0.25 0.25 0 0 0 0.25 0.25 0.254 0.254 0 0 0 0.25-0.234V16L7 14v1l0.5 2.8a0.255 0.255 0 0 0 0.246 0.2 0.25 0.25 0 0 0 0.254-0.246L7.855 15.3 8.5 14H11v1l0.508 2.813A0.257 0.257 0 0 0 11.75 18a0.25 0.25 0 0 0 0.25-0.25V15l0.367-1a1.155 1.155 0 0 0 0.543-0.6l2.161-3.767a0.863 0.863 0 0 0 1.023 0.4l1.066 0.818a0.591 0.591 0 0 0 0.35 0.135 0.487 0.487 0 0 0 0.475-0.4 0.552 0.552 0 0 0-0.135-0.442z" fill="hsl(236, 6%, 48%)" stroke="hsl(60, 5%, 100%)" stroke-linejoin="round" stroke-miterlimit="4px" stroke-width="2"/><path d="M9 4a1 1 0 1 1 1 1 1 1 0 0 1-1-1z m2 2.5a0.484 0.484 0 0 0 0-0.058A0.472 0.472 0 0 0 10.5 6h-1a0.484 0.484 0 0 0-0.058 0A0.472 0.472 0 0 0 9 6.5V10h2z m6.85 3.644L15.8 7.8l0.085-0.509a0.478 0.478 0 0 0 0.008-0.063 0.25 0.25 0 0 0-0.25-0.25 0.346 0.346 0 0 0-0.158 0.056L12 10H11l1 1v1.5a0.5 0.5 0 0 1-1 0v-1L9 10H7a1.5 1.5 0 0 0-1.243 0.661A1.466 1.466 0 0 0 4.563 10H4.5A1.449 1.449 0 0 0 3 11.4v0.086A3.781 3.781 0 0 0 3.559 13.4a0.278 0.278 0 0 0 0.191 0.1 0.25 0.25 0 0 0 0.25-0.25V12s-0.02-0.924 0.753-1c0.5-0.048 0.747 0.253 0.747 0.5V14L5 16v1.75a0.25 0.25 0 0 0 0.25 0.25 0.254 0.254 0 0 0 0.25-0.234V16L7 14v1l0.5 2.8a0.255 0.255 0 0 0 0.246 0.2 0.25 0.25 0 0 0 0.254-0.246L7.855 15.3 8.5 14H11v1l0.508 2.813A0.257 0.257 0 0 0 11.75 18a0.25 0.25 0 0 0 0.25-0.25V15l0.367-1a1.155 1.155 0 0 0 0.543-0.6l2.161-3.767a0.863 0.863 0 0 0 1.023 0.4l1.066 0.818a0.591 0.591 0 0 0 0.35 0.135 0.487 0.487 0 0 0 0.475-0.4 0.552 0.552 0 0 0-0.135-0.442z" fill="hsl(236, 6%, 48%)"/></g></svg>