<svg xmlns="http://www.w3.org/2000/svg" id="hospital-15" width="21" height="21" viewBox="0 0 21 21"><g><path d="M0,0 H21 V21 H0 Z" fill="none"/><path d="M10 4c-0.6 0-1 0.4-1 1v4H5c-0.6 0-1 0.4-1 1v1c0 0.6 0.4 1 1 1h4v4c0 0.6 0.4 1 1 1h1c0.6 0 1-0.4 1-1V12h4c0.6 0 1-0.4 1-1V10c0-0.6-0.4-1-1-1H12V5c0-0.6-0.4-1-1-1H10z" fill="hsl(320, 32%, 52%)" stroke="hsl(320, 53%, 100%)" stroke-linejoin="round" stroke-miterlimit="4px" stroke-width="2"/><path d="M10 4c-0.6 0-1 0.4-1 1v4H5c-0.6 0-1 0.4-1 1v1c0 0.6 0.4 1 1 1h4v4c0 0.6 0.4 1 1 1h1c0.6 0 1-0.4 1-1V12h4c0.6 0 1-0.4 1-1V10c0-0.6-0.4-1-1-1H12V5c0-0.6-0.4-1-1-1H10z" fill="hsl(320, 32%, 52%)"/></g></svg>