<svg xmlns="http://www.w3.org/2000/svg" id="hospital-11" width="17" height="17" viewBox="0 0 17 17"><g><path d="M0,0 H17 V17 H0 Z" fill="none"/><path d="M13 7H10V4a1.08 1.08 0 0 0-1-1H8a1.08 1.08 0 0 0-1 1v3H4a1.08 1.08 0 0 0-1 1v1a1.08 1.08 0 0 0 1 1h3v3a1.08 1.08 0 0 0 1 1h1a1.08 1.08 0 0 0 1-1V10h3a1.08 1.08 0 0 0 1-1V8a1 1 0 0 0-1-1z" fill="hsl(320, 32%, 52%)" stroke="hsl(320, 53%, 100%)" stroke-linejoin="round" stroke-miterlimit="4px" stroke-width="2"/><path d="M13 7H10V4a1.08 1.08 0 0 0-1-1H8a1.08 1.08 0 0 0-1 1v3H4a1.08 1.08 0 0 0-1 1v1a1.08 1.08 0 0 0 1 1h3v3a1.08 1.08 0 0 0 1 1h1a1.08 1.08 0 0 0 1-1V10h3a1.08 1.08 0 0 0 1-1V8a1 1 0 0 0-1-1z" fill="hsl(320, 32%, 52%)"/></g></svg>