<svg xmlns="http://www.w3.org/2000/svg" id="hu-main-3" width="78" height="60" viewBox="0 0 26 20"><g><path d="M0,0 H26 V20 H0 Z" fill="none"/><path d="M25,3V13a3,3,0,0,1-2,3c-1.63.74-10,3-10,3S4.63,16.74,3,16a3,3,0,0,1-2-3V3H25m0-1H1A1,1,0,0,0,0,3V13a4,4,0,0,0,2.59,3.91c1.65.76,9.29,2.82,10.15,3.06a1.14,1.14,0,0,0,.52,0c.86-.24,8.5-2.3,10.15-3.06A4,4,0,0,0,26,13V3a1,1,0,0,0-1-1Z" fill="hsl(0, 0%, 100%)"/><path d="M1,3V13a3,3,0,0,0,2,3c1.63.74,10,3,10,3s8.37-2.26,10-3a3,3,0,0,0,2-3V3Z" fill="hsl(140, 74%, 37%)"/></g></svg>