<svg xmlns="http://www.w3.org/2000/svg" id="ice-cream-15" width="21" height="21" viewBox="0 0 21 21"><g><path d="M0,0 H21 V21 H0 Z" fill="none"/><path d="M8.440000000000001 11.17a3.48 3.48 0 0 0 2-0.63c0.464 0.323 1 0.53 1.56 0.6h0.44L11 16.7a0.5 0.5 0 0 1-0.92 0L8.440000000000001 11.17zM14.44 7.67a2 2 0 1 1-4 0 2 2 0 1 1-2-2h0.12a2 2 0 1 1 3.75 0h0.13a2 2 0 0 1 2 2z" fill="hsl(232, 20%, 54%)" stroke="hsl(60, 5%, 100%)" stroke-linejoin="round" stroke-miterlimit="4px" stroke-width="2"/><path d="M8.440000000000001 11.17a3.48 3.48 0 0 0 2-0.63c0.464 0.323 1 0.53 1.56 0.6h0.44L11 16.7a0.5 0.5 0 0 1-0.92 0L8.440000000000001 11.17zM14.44 7.67a2 2 0 1 1-4 0 2 2 0 1 1-2-2h0.12a2 2 0 1 1 3.75 0h0.13a2 2 0 0 1 2 2z" fill="hsl(232, 20%, 54%)"/></g></svg>