<svg xmlns="http://www.w3.org/2000/svg" id="ice-cream-11" width="17" height="17" viewBox="0 0 17 17"><g><path d="M0,0 H17 V17 H0 Z" fill="none"/><path d="M7 9a2.49 2.49 0 0 0 1.5-0.5c0.432 0.325 0.959 0.5 1.5 0.5l-1 4.69a0.5 0.5 0 0 1-0.92 0L7 9z m3-4h-0.09a1.5 1.5 0 1 0-2.82 0H7a1.5 1.5 0 1 0 1.5 1.5A1.5 1.5 0 1 0 10 5z" fill="hsl(232, 20%, 54%)" stroke="hsl(60, 5%, 100%)" stroke-linejoin="round" stroke-miterlimit="4px" stroke-width="2"/><path d="M7 9a2.49 2.49 0 0 0 1.5-0.5c0.432 0.325 0.959 0.5 1.5 0.5l-1 4.69a0.5 0.5 0 0 1-0.92 0L7 9z m3-4h-0.09a1.5 1.5 0 1 0-2.82 0H7a1.5 1.5 0 1 0 1.5 1.5A1.5 1.5 0 1 0 10 5z" fill="hsl(232, 20%, 54%)"/></g></svg>