<svg xmlns="http://www.w3.org/2000/svg" id="in-national-2" width="48" height="66" viewBox="0 0 16 22"><g><path d="M0,0 H16 V22 H0 Z" fill="none"/><path d="M8,1c1,1,1.92,2,3,2h4V13c0,4-5,8-7,8s-7-4-7-8V3H5C6,3,7.08,2,8,1M8,0H8a1,1,0,0,0-.74.32C6,1.71,5.33,2,5,2H1A1,1,0,0,0,0,3V13c0,4.36,5.2,9,8,9,2.5,0,8-4.33,8-9V3a1,1,0,0,0-1-1H11C10.33,2,9.52,1.17,8.74.32A1,1,0,0,0,8,0Z" fill="hsl(230, 18%, 13%)"/><path d="M15,3V13c0,4-5,8-7,8s-7-4-7-8V3H5C6,3,7.08,2,8,1c1,1,1.92,2,3,2Z" fill="hsl(50, 100%, 70%)"/></g></svg>