<svg xmlns="http://www.w3.org/2000/svg" id="in-national-4" width="72" height="66" viewBox="0 0 24 22"><g><path d="M0,0 H24 V22 H0 Z" fill="none"/><path d="M12,1c1,1,1.92,2,3,2h8V13c0,4-9,8-11,8S1,17,1,13V3H9c1,0,2.08-1,3-2m0-1h0a1,1,0,0,0-.74.32C10,1.71,9.33,2,9,2H1A1,1,0,0,0,0,3V13c0,4.83,9.72,9,12,9s12-4.13,12-9V3a1,1,0,0,0-1-1H15c-.67,0-1.48-.83-2.26-1.68A1,1,0,0,0,12,0Z" fill="hsl(230, 18%, 13%)"/><path d="M23,3V13c0,4-9,8-11,8S1,17,1,13V3H9c1,0,2.08-1,3-2,1,1,1.92,2,3,2Z" fill="hsl(50, 100%, 70%)"/></g></svg>