<svg xmlns="http://www.w3.org/2000/svg" id="in-national-3" width="60" height="66" viewBox="0 0 20 22"><g><path d="M0,0 H20 V22 H0 Z" fill="none"/><path d="M10,1c1,1,1.92,2,3,2h6V13c0,4-7,8-9,8s-9-4-9-8V3H7c1,0,2.08-1,3-2m0-1h0a1,1,0,0,0-.74.32C8,1.71,7.33,2,7,2H1A1,1,0,0,0,0,3V13c0,2.78,2.59,5.13,4.14,6.28C6.21,20.87,8.68,22,10,22s3.74-1.13,5.83-2.68C17.39,18.17,20,15.81,20,13V3a1,1,0,0,0-1-1H13c-.67,0-1.48-.83-2.26-1.68A1,1,0,0,0,10,0Z" fill="hsl(230, 18%, 13%)"/><path d="M19,3V13c0,4-7,8-9,8s-9-4-9-8V3H7c1,0,2.08-1,3-2,1,1,1.92,2,3,2Z" fill="hsl(50, 100%, 70%)"/></g></svg>