<svg xmlns="http://www.w3.org/2000/svg" id="in-state-3" width="60" height="66" viewBox="0 0 20 22"><g><path d="M0,0 H20 V22 H0 Z" fill="none"/><path d="M17,1l2,2c0,.94-1,2.06-1,5,0,2,1.43,3.47.75,7-.57,3-4.56,3-5.67,3H13c-1,0-2.43.12-3,1-.57-.88-2-1-3-1s-5.25,0-5.75-3C.65,11.44,2,10.05,2,8,2,5,1,4,1,3L3,1A6.71,6.71,0,0,0,6.5,2,7.16,7.16,0,0,0,10,1a6.94,6.94,0,0,0,3.5,1A7.3,7.3,0,0,0,17,1m0-1a1,1,0,0,0-.5.13,6.41,6.41,0,0,1-3,.87,6,6,0,0,1-3-.85A1,1,0,0,0,10,0a1,1,0,0,0-.5.14A6.23,6.23,0,0,1,6.5,1a5.68,5.68,0,0,1-3-.85A1,1,0,0,0,3,0a1,1,0,0,0-.71.29l-2,2A1,1,0,0,0,0,3,4.5,4.5,0,0,0,.37,4.57,8.83,8.83,0,0,1,1,8,7.05,7.05,0,0,1,.64,9.9a10.91,10.91,0,0,0-.38,5.27C.51,16.6,1.7,19,7,19c1.58,0,2,.34,2.16.54a1,1,0,0,0,1.68,0c.13-.2.59-.54,2.16-.54h.08c5.15,0,6.38-2.39,6.65-3.81a10.17,10.17,0,0,0-.37-5.36A6.87,6.87,0,0,1,19,8a9.39,9.39,0,0,1,.64-3.5A4.21,4.21,0,0,0,20,3a1,1,0,0,0-.29-.71l-2-2A1,1,0,0,0,17,0Z" fill="hsl(230, 18%, 13%)"/><path d="M7,18c1,0,2.43.12,3,1,.57-.88,2-1,3-1s5.17,0,5.75-3c.68-3.53-.75-5-.75-7,0-2.94,1-4.06,1-5L17,1a7.3,7.3,0,0,1-3.5,1A6.94,6.94,0,0,1,10,1,7.16,7.16,0,0,1,6.5,2,6.71,6.71,0,0,1,3,1L1,3C1,4,2,5,2,8c0,2.05-1.35,3.44-.75,7C1.75,18,5.89,18,7,18Z" fill="hsl(0, 0%, 100%)"/><path d="M13.5,2A6.94,6.94,0,0,1,10,1,7.16,7.16,0,0,1,6.5,2,6.71,6.71,0,0,1,3,1L1,3a8,8,0,0,0,.57,2H18.43A9.07,9.07,0,0,0,19,3L17,1A7.3,7.3,0,0,1,13.5,2Z" fill="hsl(140, 74%, 37%)"/></g></svg>