<svg xmlns="http://www.w3.org/2000/svg" id="industry-11" width="17" height="17" viewBox="0 0 17 17"><g><path d="M0,0 H17 V17 H0 Z" fill="none"/><path d="M13 4v8H4V9l2.11-1.78c0.32-0.32 0.89-0.31 0.89 0.14V9l2.13-1.86A0.5 0.5 0 0 1 10 7.5V11h2V4h1z" fill="hsl(236, 6%, 48%)" stroke="hsl(60, 5%, 100%)" stroke-linejoin="round" stroke-miterlimit="4px" stroke-width="2"/><path d="M13 4v8H4V9l2.11-1.78c0.32-0.32 0.89-0.31 0.89 0.14V9l2.13-1.86A0.5 0.5 0 0 1 10 7.5V11h2V4h1z" fill="hsl(236, 6%, 48%)"/></g></svg>