<svg xmlns="http://www.w3.org/2000/svg" id="information-11" width="17" height="17" viewBox="0 0 17 17"><g><path d="M0,0 H17 V17 H0 Z" fill="none"/><path d="M8.599 3.94c-0.6 0-1.1 0.5-1.1 1.1s0.5 1.1 1.1 1.1 1.1-0.5 1.1-1.1-0.5-1.1-1.1-1.1zM6 7l-0.001 0.74S7.5 7.634 7.5 9v1.5c0 1.5-1.501 1.74-1.501 1.74L6 13h5.2l-0.001-0.76s-1.2 0-1.2-1.5L10 8s0-1-1-1H6z" fill="hsl(236, 6%, 48%)" stroke="hsl(60, 5%, 100%)" stroke-linejoin="round" stroke-miterlimit="4px" stroke-width="2"/><path d="M8.599 3.94c-0.6 0-1.1 0.5-1.1 1.1s0.5 1.1 1.1 1.1 1.1-0.5 1.1-1.1-0.5-1.1-1.1-1.1zM6 7l-0.001 0.74S7.5 7.634 7.5 9v1.5c0 1.5-1.501 1.74-1.501 1.74L6 13h5.2l-0.001-0.76s-1.2 0-1.2-1.5L10 8s0-1-1-1H6z" fill="hsl(236, 6%, 48%)"/></g></svg>