<svg xmlns="http://www.w3.org/2000/svg" id="information-15" width="21" height="21" viewBox="0 0 21 21"><g><path d="M0,0 H21 V21 H0 Z" fill="none"/><path d="M10.5 4C9.7 4 9 4.7 9 5.5S9.7 7 10.5 7 12 6.3 12 5.5 11.3 4 10.5 4zM7 8v1s2 0 2 2v2c0 2-2 2-2 2v1h7v-1s-2 0-2-2V9c0-0.5-0.5-1-1-1H7z" fill="hsl(236, 6%, 48%)" stroke="hsl(60, 5%, 100%)" stroke-linejoin="round" stroke-miterlimit="4px" stroke-width="2"/><path d="M10.5 4C9.7 4 9 4.7 9 5.5S9.7 7 10.5 7 12 6.3 12 5.5 11.3 4 10.5 4zM7 8v1s2 0 2 2v2c0 2-2 2-2 2v1h7v-1s-2 0-2-2V9c0-0.5-0.5-1-1-1H7z" fill="hsl(236, 6%, 48%)"/></g></svg>