<svg xmlns="http://www.w3.org/2000/svg" id="it-motorway-3" width="84" height="60" viewBox="0 0 28 20"><g><path d="M0,0 H28 V20 H0 Z" fill="none"/><path d="M14,1,24,3l3,7-3,7L14,19,4,17,.9292,10,4,3,14,1m0-1a1.003,1.003,0,0,0-.1961.0194l-10,2a1,1,0,0,0-.72.5789l-3.0708,7a1,1,0,0,0,0,.8034l3.0708,7a1,1,0,0,0,.72.5789l10,2a1.0008,1.0008,0,0,0,.3922,0l10-2a1,1,0,0,0,.7231-.5867l3-7a1.0008,1.0008,0,0,0,0-.7878l-3-7a1,1,0,0,0-.7231-.5867l-10-2A1.003,1.003,0,0,0,14,0Z" fill="hsl(0, 0%, 100%)"/><path d="M14,19,24,17,27,10,24,3,14,1,4,3,0.929,10,4,17,14,19 Z" fill="hsl(140, 74%, 37%)"/></g></svg>