<svg xmlns="http://www.w3.org/2000/svg" id="jewelry-store-11" width="17" height="17" viewBox="0 0 17 17"><g><path d="M0,0 H17 V17 H0 Z" fill="none"/><path d="M10.574 6.694l-0.851 0.639A2.492 2.492 0 0 1 11 9.5C11 10.878 9.878 12 8.5 12S6 10.878 6 9.5c0-0.932 0.519-1.737 1.277-2.167l-0.851-0.639A3.485 3.485 0 0 0 5 9.5a3.5 3.5 0 1 0 7 0 3.485 3.485 0 0 0-1.426-2.806zM10.5 5.5L9.5 4h-2l-1 1.5 2 1.5 2-1.5z" fill="hsl(236, 6%, 48%)" stroke="hsl(60, 5%, 100%)" stroke-linejoin="round" stroke-miterlimit="4px" stroke-width="2"/><path d="M10.574 6.694l-0.851 0.639A2.492 2.492 0 0 1 11 9.5C11 10.878 9.878 12 8.5 12S6 10.878 6 9.5c0-0.932 0.519-1.737 1.277-2.167l-0.851-0.639A3.485 3.485 0 0 0 5 9.5a3.5 3.5 0 1 0 7 0 3.485 3.485 0 0 0-1.426-2.806zM10.5 5.5L9.5 4h-2l-1 1.5 2 1.5 2-1.5z" fill="hsl(236, 6%, 48%)"/></g></svg>