<svg xmlns="http://www.w3.org/2000/svg" id="jewelry-store-15" width="21" height="21" viewBox="0 0 21 21"><g><path d="M0,0 H21 V21 H0 Z" fill="none"/><path d="M15 11.5a4.5 4.5 0 1 1-9 0 4.498 4.498 0 0 1 2.71-4.125l0.176 0.137 0.774 0.601A3.498 3.498 0 0 0 7 11.5C7 13.43 8.57 15 10.5 15S14 13.43 14 11.5a3.498 3.498 0 0 0-2.66-3.387l0.95-0.738A4.498 4.498 0 0 1 15 11.5z m-4.5-4L13 5.555 12 4H9L8 5.555l1.5 1.167 1 0.778z" fill="hsl(236, 6%, 48%)" stroke="hsl(60, 5%, 100%)" stroke-linejoin="round" stroke-miterlimit="4px" stroke-width="2"/><path d="M15 11.5a4.5 4.5 0 1 1-9 0 4.498 4.498 0 0 1 2.71-4.125l0.176 0.137 0.774 0.601A3.498 3.498 0 0 0 7 11.5C7 13.43 8.57 15 10.5 15S14 13.43 14 11.5a3.498 3.498 0 0 0-2.66-3.387l0.95-0.738A4.498 4.498 0 0 1 15 11.5z m-4.5-4L13 5.555 12 4H9L8 5.555l1.5 1.167 1 0.778z" fill="hsl(236, 6%, 48%)"/></g></svg>