<svg xmlns="http://www.w3.org/2000/svg" id="kr-metro-expy-2" width="60" height="57" viewBox="0 0 20 19"><g><path d="M0,0 H20 V19 H0 Z" fill="none"/><path d="M14.79,1a.49.49,0,0,1,.36.15l3.7,3.7a.49.49,0,0,1,.15.36v5.58a.49.49,0,0,1-.15.36l-3.7,3.7a.49.49,0,0,1-.36.15H5.21a.49.49,0,0,1-.36-.15l-3.7-3.7A.49.49,0,0,1,1,10.79V5.21a.49.49,0,0,1,.15-.36l3.7-3.7A.49.49,0,0,1,5.21,1h9.58m0-1H5.21A1.5,1.5,0,0,0,4.15.44L.44,4.15A1.5,1.5,0,0,0,0,5.21v5.58a1.5,1.5,0,0,0,.44,1.06l3.71,3.71A1.5,1.5,0,0,0,5.21,16h9.58a1.5,1.5,0,0,0,1.06-.44l3.71-3.71A1.5,1.5,0,0,0,20,10.79V5.21a1.5,1.5,0,0,0-.44-1.06L15.85.44A1.5,1.5,0,0,0,14.79,0Z" fill="hsl(230, 57%, 54%)"/><path d="M18.85,11.15l-3.7,3.7a.49.49,0,0,1-.36.15H5.21a.49.49,0,0,1-.36-.15l-3.7-3.7A.49.49,0,0,1,1,10.79V5.21a.49.49,0,0,1,.15-.36l3.7-3.7A.49.49,0,0,1,5.21,1h9.58a.49.49,0,0,1,.36.15l3.7,3.7a.49.49,0,0,1,.15.36v5.58A.49.49,0,0,1,18.85,11.15Z" fill="hsl(0, 0%, 100%)"/><path d="M14.79,1H5.21a.49.49,0,0,0-.36.15L2,4H18L15.15,1.15A.49.49,0,0,0,14.79,1Z" fill="hsl(0, 87%, 59%)"/></g></svg>