<svg xmlns="http://www.w3.org/2000/svg" id="kr-metropolitan-5" width="114" height="48" viewBox="0 0 38 16"><g><path d="M0,0 H38 V16 H0 Z" fill="none"/><path d="M32.79,1a.49.49,0,0,1,.36.15l3.7,3.7a.49.49,0,0,1,.15.36v5.58a.49.49,0,0,1-.15.36l-3.7,3.7a.49.49,0,0,1-.36.15H5.21a.49.49,0,0,1-.36-.15l-3.7-3.7A.49.49,0,0,1,1,10.79V5.21a.49.49,0,0,1,.15-.36l3.7-3.7A.49.49,0,0,1,5.21,1H32.79m0-1H5.21A1.5,1.5,0,0,0,4.15.44L.44,4.15A1.5,1.5,0,0,0,0,5.21v5.58a1.5,1.5,0,0,0,.44,1.06l3.71,3.71A1.5,1.5,0,0,0,5.21,16H32.79a1.5,1.5,0,0,0,1.06-.44l3.71-3.71A1.5,1.5,0,0,0,38,10.79V5.21a1.5,1.5,0,0,0-.44-1.06L33.85.44A1.5,1.5,0,0,0,32.79,0Z" fill="hsl(230, 57%, 54%)"/><path d="M36.85,11.15l-3.7,3.7a.49.49,0,0,1-.36.15H5.21a.49.49,0,0,1-.36-.15l-3.7-3.7A.49.49,0,0,1,1,10.79V5.21a.49.49,0,0,1,.15-.36l3.7-3.7A.49.49,0,0,1,5.21,1H32.79a.49.49,0,0,1,.36.15l3.7,3.7a.49.49,0,0,1,.15.36v5.58A.49.49,0,0,1,36.85,11.15Z" fill="hsl(0, 0%, 100%)"/></g></svg>