<svg xmlns="http://www.w3.org/2000/svg" id="kr-natl-expy-2" width="60" height="66" viewBox="0 0 20 22"><g><path d="M0,0 H20 V22 H0 Z" fill="none"/><path d="M16,1l3,2.49c-.78.76-2.19,2.08-1,4.51s1.69,5-.5,7.33A5.83,5.83,0,0,1,13,17a4,4,0,0,0-3,1,4,4,0,0,0-3-1,5.83,5.83,0,0,1-4.5-1.67C.31,13,.81,10.45,2,8S1.78,4.25,1,3.49L4,1A3.89,3.89,0,0,0,7,2.5,4.11,4.11,0,0,0,10,1a4,4,0,0,0,3,1.5A4,4,0,0,0,16,1m0-1a1,1,0,0,0-.77.36A3,3,0,0,1,13,1.5,3,3,0,0,1,10.76.35a1,1,0,0,0-1.52,0A3.17,3.17,0,0,1,7,1.5,2.89,2.89,0,0,1,4.79.4,1,1,0,0,0,4.11,0H4a1,1,0,0,0-.64.23l-3,2.5A1,1,0,0,0,0,3.46a1,1,0,0,0,.3.75l0,0C1.1,5,2,5.82,1.11,7.56c-.62,1.26-2.49,5.1.66,8.46A6.84,6.84,0,0,0,6.9,18H7a3.17,3.17,0,0,1,2.3.66,1,1,0,0,0,1.5,0,3.17,3.17,0,0,1,2.3-.66h0a6.84,6.84,0,0,0,5.13-2c3.16-3.36,1.28-7.2.67-8.46-.85-1.75,0-2.58.76-3.32A1,1,0,0,0,20,3.47a1,1,0,0,0-.34-.74l-3-2.5A1,1,0,0,0,16,0Z" fill="hsl(0, 0%, 100%)"/><path d="M7,17a4,4,0,0,1,3,1,4,4,0,0,1,3-1,5.83,5.83,0,0,0,4.5-1.67C19.69,13,19.2,10.45,18,8s.22-3.75,1-4.51L16,1a4,4,0,0,1-3,1.5A4,4,0,0,1,10,1,4.11,4.11,0,0,1,7,2.5,3.89,3.89,0,0,1,4,1L1,3.49C1.78,4.25,3.2,5.57,2,8s-1.7,5,.49,7.33A5.83,5.83,0,0,0,7,17Z" fill="hsl(230, 57%, 54%)"/><path d="M1,4 H19 V5 H1 Z" fill="hsl(0, 0%, 100%)"/><path d="M1.49,4h17c.17-.19.34-.36.49-.51L16,1a4,4,0,0,1-3,1.5A4,4,0,0,1,10,1,4.11,4.11,0,0,1,7,2.5,3.89,3.89,0,0,1,4,1L1,3.49C1.15,3.64,1.32,3.81,1.49,4Z" fill="hsl(0, 87%, 59%)"/></g></svg>