<svg xmlns="http://www.w3.org/2000/svg" id="landmark-15" width="21" height="21" viewBox="0 0 21 21"><g><path d="M0,0 H21 V21 H0 Z" fill="none"/><path d="M15.5 15H15v-0.5c0-0.3-0.2-0.5-0.5-0.5H14V9h1l1-2c-1 0.1-2 0.1-3 0-0.8-0.6-1.4-1.2-2-2v-0.5c0-0.3-0.2-0.5-0.5-0.5s-0.5 0.2-0.5 0.5V5c-0.6 0.8-1.2 1.4-2 2-1 0.1-2 0.1-3 0l1 2h1v5h-0.5c-0.3 0-0.5 0.2-0.5 0.5v0.5h-0.5c-0.3 0-0.5 0.2-0.5 0.5v0.5h11v-0.5c0-0.3-0.2-0.5-0.5-0.5zM10 14H8V9h2v5z m3 0H11V9h2v5z" fill="hsl(236, 6%, 48%)" stroke="hsl(60, 5%, 100%)" stroke-linejoin="round" stroke-miterlimit="4px" stroke-width="2"/><path d="M15.5 15H15v-0.5c0-0.3-0.2-0.5-0.5-0.5H14V9h1l1-2c-1 0.1-2 0.1-3 0-0.8-0.6-1.4-1.2-2-2v-0.5c0-0.3-0.2-0.5-0.5-0.5s-0.5 0.2-0.5 0.5V5c-0.6 0.8-1.2 1.4-2 2-1 0.1-2 0.1-3 0l1 2h1v5h-0.5c-0.3 0-0.5 0.2-0.5 0.5v0.5h-0.5c-0.3 0-0.5 0.2-0.5 0.5v0.5h11v-0.5c0-0.3-0.2-0.5-0.5-0.5zM10 14H8V9h2v5z m3 0H11V9h2v5z" fill="hsl(236, 6%, 48%)"/></g></svg>