<svg xmlns="http://www.w3.org/2000/svg" id="landmark-11" width="17" height="17" viewBox="0 0 17 17"><g><path d="M0,0 H17 V17 H0 Z" fill="none"/><path d="M12.5 12H11V8h1l1-2c-0.7 0.1-1.3 0.1-2 0-0.7-0.3-1.4-0.6-2-1v-0.5c0-0.3-0.2-0.5-0.5-0.5s-0.5 0.2-0.5 0.5V5c-0.6 0.4-1.3 0.7-2 1-0.7 0.1-1.3 0.1-2 0l1 2h1v4H4.5c-0.3 0-0.5 0.2-0.5 0.5s0.2 0.5 0.5 0.5h8c0.3 0 0.5-0.2 0.5-0.5S12.8 12 12.5 12zM10 12H7V8h3v4z" fill="hsl(236, 6%, 48%)" stroke="hsl(60, 5%, 100%)" stroke-linejoin="round" stroke-miterlimit="4px" stroke-width="2"/><path d="M12.5 12H11V8h1l1-2c-0.7 0.1-1.3 0.1-2 0-0.7-0.3-1.4-0.6-2-1v-0.5c0-0.3-0.2-0.5-0.5-0.5s-0.5 0.2-0.5 0.5V5c-0.6 0.4-1.3 0.7-2 1-0.7 0.1-1.3 0.1-2 0l1 2h1v4H4.5c-0.3 0-0.5 0.2-0.5 0.5s0.2 0.5 0.5 0.5h8c0.3 0 0.5-0.2 0.5-0.5S12.8 12 12.5 12zM10 12H7V8h3v4z" fill="hsl(236, 6%, 48%)"/></g></svg>