<svg xmlns="http://www.w3.org/2000/svg" id="laundry-11" width="17" height="17" viewBox="0 0 17 17"><g><path d="M0,0 H17 V17 H0 Z" fill="none"/><path d="M8 3L7 5H5S4 5 4 6v7s0 1 1 1h7c1 0 1-1 1-1V4c0-1-1-1-1-1H8z m1 1h3v1H9V4z m-0.5 3a2.5 2.5 0 1 1 0 5 2.5 2.5 0 0 1 0-5z" fill="hsl(236, 6%, 48%)" stroke="hsl(60, 5%, 100%)" stroke-linejoin="round" stroke-miterlimit="4px" stroke-width="2"/><path d="M8 3L7 5H5S4 5 4 6v7s0 1 1 1h7c1 0 1-1 1-1V4c0-1-1-1-1-1H8z m1 1h3v1H9V4z m-0.5 3a2.5 2.5 0 1 1 0 5 2.5 2.5 0 0 1 0-5z" fill="hsl(236, 6%, 48%)"/></g></svg>