<svg xmlns="http://www.w3.org/2000/svg" id="laundry-15" width="21" height="21" viewBox="0 0 21 21"><g><path d="M0,0 H21 V21 H0 Z" fill="none"/><path d="M11 4L9 6H6S5 6 5 7v9c0 1 1 1 1 1h9s1 0 1-1V5c0-1-1-1-1-1H11z m0.5 1h2a0.499 0.499 0 1 1 0 1h-2a0.499 0.499 0 1 1 0-1z m-1 4a3 3 0 1 1 0 6 3 3 0 0 1 0-6z" fill="hsl(236, 6%, 48%)" stroke="hsl(60, 5%, 100%)" stroke-linejoin="round" stroke-miterlimit="4px" stroke-width="2"/><path d="M11 4L9 6H6S5 6 5 7v9c0 1 1 1 1 1h9s1 0 1-1V5c0-1-1-1-1-1H11z m0.5 1h2a0.499 0.499 0 1 1 0 1h-2a0.499 0.499 0 1 1 0-1z m-1 4a3 3 0 1 1 0 6 3 3 0 0 1 0-6z" fill="hsl(236, 6%, 48%)"/></g></svg>