<svg xmlns="http://www.w3.org/2000/svg" id="level-crossing" width="45" height="45" viewBox="0 0 15 15"><g><path d="M11,13a2,2,0,0,1-1.4-.6L7.5,10.3,5.4,12.4A2,2,0,1,1,2.6,9.6L4.7,7.5,2.6,5.4a1.93,1.93,0,0,1-.072-2.728q.036-.038.072-.072a1.93,1.93,0,0,1,2.728-.072L5.4,2.6,7.5,4.7,9.6,2.6a1.93,1.93,0,0,1,2.728-.072q.038.036.072.072a1.93,1.93,0,0,1,.072,2.728q-.036.037-.072.072L10.3,7.5l2.1,2.1A2,2,0,0,1,11,13Z" fill="hsl(230, 10%, 100%)"/><path d="M8.9,7.5l2.8-2.8a1,1,0,0,0-1.4-1.4L7.5,6.1,4.7,3.3A1,1,0,0,0,3.3,4.7L6.1,7.5,3.3,10.3a1,1,0,0,0,0,1.4A.908.908,0,0,0,4,12a.908.908,0,0,0,.7-.3L7.5,8.9l2.8,2.8a.99.99,0,0,0,1.4-1.4Z" fill="hsl(230, 0%, 71%)"/></g></svg>