<svg xmlns="http://www.w3.org/2000/svg" id="library-15" width="21" height="21" viewBox="0 0 21 21"><g><path d="M0,0 H21 V21 H0 Z" fill="none"/><path d="M10.469999999999999 7.92S8.7 6 4 6v8c4.7 0 6.47 2 6.47 2S12.3 14 17 14V6C12.3 6 10.469999999999999 7.92 10.469999999999999 7.92zM16 13a10.84 10.84 0 0 0-5.53 1.68A10.56 10.56 0 0 0 5 13V7c3.4 0.26 4.73 1.6 4.75 1.61l0.73 0.74 0.72-0.75S12.6 7.26 16 7v6z m-5 0.24l-0.1-0.17A14.519 14.519 0 0 1 15 11.89v0.2a14.27 14.27 0 0 0-4 1.18v-0.03z m0-1l-0.1-0.17A14.51 14.51 0 0 1 15 10.9v0.2a14.29 14.29 0 0 0-4 1.19v-0.05z m0-1l-0.1-0.17A14.491 14.491 0 0 1 15 9.9v0.2a14.24 14.24 0 0 0-4 1.19v-0.05z m0-1l-0.1-0.17A14.45 14.45 0 0 1 15 8.9v0.2a14.28 14.28 0 0 0-4 1.19v-0.05z m-1.1 3A13.9 13.9 0 0 0 6 12.08v-0.2c1.387 0.203 2.736 0.614 4 1.22l-0.1 0.14z m0-1A13.899 13.899 0 0 0 6 11.1v-0.2a14.12 14.12 0 0 1 4 1.21l-0.1 0.13z m0-1A13.86 13.86 0 0 0 6 10.1v-0.2c1.387 0.199 2.735 0.607 4 1.21l-0.1 0.13z m0-1A13.899 13.899 0 0 0 6 9.1v-0.2a14.1 14.1 0 0 1 4 1.21l-0.1 0.13z" fill="hsl(236, 6%, 48%)" stroke="hsl(60, 5%, 100%)" stroke-linejoin="round" stroke-miterlimit="4px" stroke-width="2"/><path d="M10.469999999999999 7.92S8.7 6 4 6v8c4.7 0 6.47 2 6.47 2S12.3 14 17 14V6C12.3 6 10.469999999999999 7.92 10.469999999999999 7.92zM16 13a10.84 10.84 0 0 0-5.53 1.68A10.56 10.56 0 0 0 5 13V7c3.4 0.26 4.73 1.6 4.75 1.61l0.73 0.74 0.72-0.75S12.6 7.26 16 7v6z m-5 0.24l-0.1-0.17A14.519 14.519 0 0 1 15 11.89v0.2a14.27 14.27 0 0 0-4 1.18v-0.03z m0-1l-0.1-0.17A14.51 14.51 0 0 1 15 10.9v0.2a14.29 14.29 0 0 0-4 1.19v-0.05z m0-1l-0.1-0.17A14.491 14.491 0 0 1 15 9.9v0.2a14.24 14.24 0 0 0-4 1.19v-0.05z m0-1l-0.1-0.17A14.45 14.45 0 0 1 15 8.9v0.2a14.28 14.28 0 0 0-4 1.19v-0.05z m-1.1 3A13.9 13.9 0 0 0 6 12.08v-0.2c1.387 0.203 2.736 0.614 4 1.22l-0.1 0.14z m0-1A13.899 13.899 0 0 0 6 11.1v-0.2a14.12 14.12 0 0 1 4 1.21l-0.1 0.13z m0-1A13.86 13.86 0 0 0 6 10.1v-0.2c1.387 0.199 2.735 0.607 4 1.21l-0.1 0.13z m0-1A13.899 13.899 0 0 0 6 9.1v-0.2a14.1 14.1 0 0 1 4 1.21l-0.1 0.13z" fill="hsl(236, 6%, 48%)"/></g></svg>