<svg xmlns="http://www.w3.org/2000/svg" id="library-11" width="17" height="17" viewBox="0 0 17 17"><g><path d="M0,0 H17 V17 H0 Z" fill="none"/><path d="M3 4v7c3.26 0 5.49 2 5.49 2S10.76 11 14 11V4C10 4 8.49 5.725 8.49 5.725S7 4 3 4z m1 1c1.195-0.031 3.053 0.402 4 1.348L8.5 7l0.5-0.652c0.962-0.93 2.8-1.36 4-1.348v5c-2 0-3.354 0.856-4.51 1.781C7.35 10.853 6 10 4 10V5z m1 1.303v0.181c0.823 0.17 2.1 0.687 3 1.176v-0.228c-0.917-0.479-2.176-0.972-3-1.13z m7 0c-0.824 0.157-2.083 0.65-3 1.129v0.228c0.9-0.489 2.177-1.007 3-1.176v-0.181z m-7 0.92v0.181c0.822 0.154 2.099 0.659 3 1.133v-0.195c-0.917-0.476-2.176-0.967-3-1.12z m7 0c-0.824 0.152-2.083 0.643-3 1.119v0.195c0.901-0.474 2.178-0.979 3-1.133v-0.181z m-7 0.894V8.3c0.822 0.155 2.098 0.659 3 1.133v-0.196c-0.918-0.475-2.176-0.965-3-1.119z m7 0c-0.824 0.154-2.082 0.644-3 1.12v0.195c0.902-0.474 2.178-0.979 3-1.133v-0.182zM5 9v0.182c0.82 0.14 2.097 0.629 3 1.087v-0.15C7.082 9.645 5.824 9.154 5 9z m7 0c-0.824 0.154-2.082 0.644-3 1.12v0.15c0.903-0.459 2.18-0.948 3-1.088V9z" fill="hsl(236, 6%, 48%)" stroke="hsl(60, 5%, 100%)" stroke-linejoin="round" stroke-miterlimit="4px" stroke-width="2"/><path d="M3 4v7c3.26 0 5.49 2 5.49 2S10.76 11 14 11V4C10 4 8.49 5.725 8.49 5.725S7 4 3 4z m1 1c1.195-0.031 3.053 0.402 4 1.348L8.5 7l0.5-0.652c0.962-0.93 2.8-1.36 4-1.348v5c-2 0-3.354 0.856-4.51 1.781C7.35 10.853 6 10 4 10V5z m1 1.303v0.181c0.823 0.17 2.1 0.687 3 1.176v-0.228c-0.917-0.479-2.176-0.972-3-1.13z m7 0c-0.824 0.157-2.083 0.65-3 1.129v0.228c0.9-0.489 2.177-1.007 3-1.176v-0.181z m-7 0.92v0.181c0.822 0.154 2.099 0.659 3 1.133v-0.195c-0.917-0.476-2.176-0.967-3-1.12z m7 0c-0.824 0.152-2.083 0.643-3 1.119v0.195c0.901-0.474 2.178-0.979 3-1.133v-0.181z m-7 0.894V8.3c0.822 0.155 2.098 0.659 3 1.133v-0.196c-0.918-0.475-2.176-0.965-3-1.119z m7 0c-0.824 0.154-2.082 0.644-3 1.12v0.195c0.902-0.474 2.178-0.979 3-1.133v-0.182zM5 9v0.182c0.82 0.14 2.097 0.629 3 1.087v-0.15C7.082 9.645 5.824 9.154 5 9z m7 0c-0.824 0.154-2.082 0.644-3 1.12v0.15c0.903-0.459 2.18-0.948 3-1.088V9z" fill="hsl(236, 6%, 48%)"/></g></svg>