<svg xmlns="http://www.w3.org/2000/svg" id="lighthouse-11" width="17" height="17" viewBox="0 0 17 17"><g><path d="M0,0 H17 V17 H0 Z" fill="none"/><path d="M10 9l1 5H6l1-5h1.2V5h-0.92a0.32 0.32 0 0 1-0.12-0.6L8.379999999999999 4a0.29 0.29 0 0 1 0.24 0l1.22 0.4a0.32 0.32 0 0 1-0.12 0.6h-0.91v4H10z m1-3v0.5l3-0.5v-0.5L11 6z m0 2.5l3 0.5v-0.5L11 8v0.5zM6 6l-3-0.5V6l3 0.5V6z m0 2l-3 0.5V9l3-0.5V8z" fill="hsl(236, 6%, 48%)" stroke="hsl(60, 5%, 100%)" stroke-linejoin="round" stroke-miterlimit="4px" stroke-width="2"/><path d="M10 9l1 5H6l1-5h1.2V5h-0.92a0.32 0.32 0 0 1-0.12-0.6L8.379999999999999 4a0.29 0.29 0 0 1 0.24 0l1.22 0.4a0.32 0.32 0 0 1-0.12 0.6h-0.91v4H10z m1-3v0.5l3-0.5v-0.5L11 6z m0 2.5l3 0.5v-0.5L11 8v0.5zM6 6l-3-0.5V6l3 0.5V6z m0 2l-3 0.5V9l3-0.5V8z" fill="hsl(236, 6%, 48%)"/></g></svg>