<svg xmlns="http://www.w3.org/2000/svg" id="lighthouse-15" width="21" height="21" viewBox="0 0 21 21"><g><path d="M0,0 H21 V21 H0 Z" fill="none"/><path d="M7.5 9L3 10v-0.5l4.5-1V9z m0-2.5L3 5.5V6l4.5 1v-0.5z m6 0V7L18 6v-0.5l-4.5 1z m0 2.5L18 10v-0.5l-4.5-1V9zM11 10V5h2.5a0.51 0.51 0 0 0 0.2-1l-3-1a0.5 0.5 0 0 0-0.41 0l-3 1a0.51 0.51 0 0 0 0.2 1H10v5H8l-2 7h9l-2-7H11z" fill="hsl(236, 6%, 48%)" stroke="hsl(60, 5%, 100%)" stroke-linejoin="round" stroke-miterlimit="4px" stroke-width="2"/><path d="M7.5 9L3 10v-0.5l4.5-1V9z m0-2.5L3 5.5V6l4.5 1v-0.5z m6 0V7L18 6v-0.5l-4.5 1z m0 2.5L18 10v-0.5l-4.5-1V9zM11 10V5h2.5a0.51 0.51 0 0 0 0.2-1l-3-1a0.5 0.5 0 0 0-0.41 0l-3 1a0.51 0.51 0 0 0 0.2 1H10v5H8l-2 7h9l-2-7H11z" fill="hsl(236, 6%, 48%)"/></g></svg>