<svg xmlns="http://www.w3.org/2000/svg" id="lodging-15" width="21" height="21" viewBox="0 0 21 21"><g><path d="M0,0 H21 V21 H0 Z" fill="none"/><path d="M3.5 5.5c-0.3 0-0.5 0.2-0.5 0.5v9.5c0 0.3 0.2 0.5 0.5 0.5s0.5-0.2 0.5-0.5V14h13v1.5c0 0.3 0.2 0.5 0.5 0.5s0.5-0.2 0.5-0.5v-2c0-0.3-0.2-0.5-0.5-0.5H4V6c0-0.3-0.2-0.5-0.5-0.5z m3 0.5C5.7 6 5 6.7 5 7.5S5.7 9 6.5 9 8 8.3 8 7.5 7.3 6 6.5 6zM10 7C8.5 7 8.5 8.5 8.5 8.5V10h-3c-0.3 0-0.5 0.2-0.5 0.5v1c0 0.3 0.2 0.5 0.5 0.5H18V9.5C18 7 15.5 7 15.5 7H10z" fill="hsl(236, 6%, 48%)" stroke="hsl(60, 5%, 100%)" stroke-linejoin="round" stroke-miterlimit="4px" stroke-width="2"/><path d="M3.5 5.5c-0.3 0-0.5 0.2-0.5 0.5v9.5c0 0.3 0.2 0.5 0.5 0.5s0.5-0.2 0.5-0.5V14h13v1.5c0 0.3 0.2 0.5 0.5 0.5s0.5-0.2 0.5-0.5v-2c0-0.3-0.2-0.5-0.5-0.5H4V6c0-0.3-0.2-0.5-0.5-0.5z m3 0.5C5.7 6 5 6.7 5 7.5S5.7 9 6.5 9 8 8.3 8 7.5 7.3 6 6.5 6zM10 7C8.5 7 8.5 8.5 8.5 8.5V10h-3c-0.3 0-0.5 0.2-0.5 0.5v1c0 0.3 0.2 0.5 0.5 0.5H18V9.5C18 7 15.5 7 15.5 7H10z" fill="hsl(236, 6%, 48%)"/></g></svg>