<svg xmlns="http://www.w3.org/2000/svg" id="lodging-11" width="17" height="17" viewBox="0 0 17 17"><g><path d="M0,0 H17 V17 H0 Z" fill="none"/><path d="M4.5 5a0.5 0.5 0 0 0-0.5 0.5v6a0.5 0.5 0 0 0 1 0V11h7v0.5a0.5 0.5 0 0 0 1 0v-1a0.5 0.5 0 0 0-0.5-0.5H5V5.5a0.5 0.5 0 0 0-0.5-0.5z m2 0a1 1 0 1 0 0 2 1 1 0 0 0 0-2zM9 6a1 1 0 0 0-1 1v1H6a0.5 0.5 0 0 0 0 1h7V8a2 2 0 0 0-2-2H9z" fill="hsl(236, 6%, 48%)" stroke="hsl(60, 5%, 100%)" stroke-linejoin="round" stroke-miterlimit="4px" stroke-width="2"/><path d="M4.5 5a0.5 0.5 0 0 0-0.5 0.5v6a0.5 0.5 0 0 0 1 0V11h7v0.5a0.5 0.5 0 0 0 1 0v-1a0.5 0.5 0 0 0-0.5-0.5H5V5.5a0.5 0.5 0 0 0-0.5-0.5z m2 0a1 1 0 1 0 0 2 1 1 0 0 0 0-2zM9 6a1 1 0 0 0-1 1v1H6a0.5 0.5 0 0 0 0 1h7V8a2 2 0 0 0-2-2H9z" fill="hsl(236, 6%, 48%)"/></g></svg>