<svg xmlns="http://www.w3.org/2000/svg" id="london-overground" width="20" height="16" viewBox="0 0 20 16"><g><path d="M10,16a8.049,8.049,0,0,1-7.6-5.5H0v-5H2.4a8,8,0,0,1,15.19,0H20v5H17.6A8.049,8.049,0,0,1,10,16Z" fill="hsl(0, 0%, 100%)" opacity="0.75"/><path d="M10,8 m-4,0 a4,4 0 1,0 8,0 a4,4 0 1,0 -8,0" fill="hsl(0, 0%, 100%)"/><path d="M10,1a7,7,0,1,0,7,7A7,7,0,0,0,10,1Zm0,11a4,4,0,1,1,4-4A4,4,0,0,1,10,12Z" fill="hsl(25, 100%, 63%)"/><path d="M1,6.5 H19 V9.5 H1 Z" fill="hsl(230, 57%, 54%)"/></g></svg>