<svg xmlns="http://www.w3.org/2000/svg" id="london-dlr.london-tfl-rail.london-underground" width="58" height="16" viewBox="0 0 58 16"><g><path d="M55.6,5.5a8,8,0,0,0-15.19,0H36.6a8,8,0,0,0-15.19,0H17.6a8,8,0,0,0-15.2,0H0v5H2.4a8,8,0,0,0,15.19,0H21.4a8,8,0,0,0,15.19,0H40.4a8,8,0,0,0,15.19,0H58v-5Z" fill="hsl(0, 0%, 100%)" opacity="0.75"/><path d="M10,8 m-4,0 a4,4 0 1,0 8,0 a4,4 0 1,0 -8,0" fill="hsl(0, 0%, 100%)"/><path d="M10,1a7,7,0,1,0,7,7A7,7,0,0,0,10,1Zm0,11a4,4,0,1,1,4-4A4,4,0,0,1,10,12Z" fill="hsl(180, 54%, 42%)"/><path d="M1,6.5 H19 V9.5 H1 Z" fill="hsl(230, 57%, 54%)"/><path d="M29,8 m-4,0 a4,4 0 1,0 8,0 a4,4 0 1,0 -8,0" fill="hsl(0, 0%, 100%)"/><path d="M29,1a7,7,0,1,0,7,7A7,7,0,0,0,29,1Zm0,11a4,4,0,1,1,4-4A4,4,0,0,1,29,12Z" fill="hsl(230, 57%, 54%)"/><path d="M20,6.5 H38 V9.5 H20 Z" fill="hsl(230, 57%, 54%)"/><path d="M48,8 m-4,0 a4,4 0 1,0 8,0 a4,4 0 1,0 -8,0" fill="hsl(0, 0%, 100%)"/><path d="M48,1a7,7,0,1,0,7,7A7,7,0,0,0,48,1Zm0,11a4,4,0,1,1,4-4A4,4,0,0,1,48,12Z" fill="hsl(0, 87%, 59%)"/><path d="M39,6.5 H57 V9.5 H39 Z" fill="hsl(230, 57%, 54%)"/></g></svg>