<svg xmlns="http://www.w3.org/2000/svg" id="madrid-metro" width="19" height="19" viewBox="0 0 19 19"><g><path d="M9.5,19a2.88,2.88,0,0,1-1.7-.55L1.09,13.59a2.54,2.54,0,0,1,0-4.17L7.8,4.56a2.91,2.91,0,0,1,3.4,0l6.71,4.86A2.55,2.55,0,0,1,18.53,13a2.61,2.61,0,0,1-.62.62L11.2,18.45A2.88,2.88,0,0,1,9.5,19Z" fill="hsl(0, 0%, 100%)" opacity="0.75"/><path d="M0,0 H19 V19 H0 Z" fill="none"/><path d="M9.62,6.66a.24.24,0,0,0-.23,0L3.09,11.2a.36.36,0,0,0-.09.5.38.38,0,0,0,.09.09l6.14,4.5a.48.48,0,0,0,.56,0L16,11.86a.35.35,0,0,0,.05-.49l-.08-.08Z" fill="hsl(0, 0%, 100%)"/><path d="M17.33,10.22,10.62,5.36a1.91,1.91,0,0,0-2.23,0L1.68,10.22a1.55,1.55,0,0,0-.39,2.16,1.61,1.61,0,0,0,.39.39l6.71,4.86a1.91,1.91,0,0,0,2.23,0l6.71-4.86a1.55,1.55,0,0,0,.39-2.16A1.61,1.61,0,0,0,17.33,10.22Zm-1.39,1.63L9.78,16.29a.48.48,0,0,1-.56,0l-6.14-4.5a.36.36,0,0,1-.09-.5l.09-.09,6.3-4.54a.24.24,0,0,1,.23,0l6.32,4.63a.35.35,0,0,1,.08.49h0Z" fill="hsl(0, 87%, 59%)"/><path d="M6.39,10 H12.61 C12.61,10 13.5,10 13.5,10.89 V12.11 C13.5,12.11 13.5,13 12.61,13 H6.39 C6.39,13 5.5,13 5.5,12.11 V10.89 C5.5,10.89 5.5,10 6.39,10" fill="hsl(230, 57%, 54%)"/></g></svg>