<svg xmlns="http://www.w3.org/2000/svg" id="mexico-city-metro" width="17" height="17" viewBox="0 0 17 17"><g><path d="M12.07,1H1V3H1V16H16V4.94A4,4,0,0,0,12.07,1Z" fill="hsl(0, 0%, 100%)"/><path d="M2,0 H15 C15,0 17,0 17,2 V15 C17,15 17,17 15,17 H2 C2,17 0,17 0,15 V2 C0,2 0,0 2,0" fill="hsl(30, 7%, 84%)" opacity="0.75"/><path d="M2,1 H15 C15,1 16,1 16,2 V15 C16,15 16,16 15,16 H2 C2,16 1,16 1,15 V2 C1,2 1,1 2,1" fill="hsl(0, 0%, 100%)"/><path d="M0,0 H17 V17 H0 Z" fill="none"/><path d="M2.5,2V4H11a1.84,1.84,0,0,1,2,1.66A1.93,1.93,0,0,1,13,6v9h2V6a3.68,3.68,0,0,0-3.33-4A3.75,3.75,0,0,0,11,2Z" fill="hsl(25, 100%, 63%)"/><path d="M2.5,5.5h1a.88.88,0,0,1,1,.74,1.13,1.13,0,0,1,0,.26V15h-2V5.5Z" fill="hsl(25, 100%, 63%)"/><path d="M6,5.5H7a.88.88,0,0,1,1,.74A1.13,1.13,0,0,1,8,6.5V15H6V5.5Z" fill="hsl(25, 100%, 63%)"/><path d="M9.5,5.5h1a.88.88,0,0,1,1,.74,1.13,1.13,0,0,1,0,.26V15h-2V5.5Z" fill="hsl(25, 100%, 63%)"/></g></svg>