<svg xmlns="http://www.w3.org/2000/svg" id="mobile-phone-15" width="21" height="21" viewBox="0 0 21 21"><g><path d="M0,0 H21 V21 H0 Z" fill="none"/><path d="M13 5v-0.5a0.5 0.5 0 0 0-1 0V5H8a1 1 0 0 0-1 1v10a1 1 0 0 0 1 1h5a1 1 0 0 0 1-1V6a1 1 0 0 0-1-1zM9 16H8v-1h1z m0-2H8v-1h1z m0-2H8V11h1z m2 4H10v-1h1z m0-2H10v-1h1z m0-2H10V11h1z m2 4H12v-1h1z m0-2H12v-1h1z m0-2H12V11h1z m0-2.5a0.5 0.5 0 0 1-0.5 0.5h-4a0.5 0.5 0 0 1-0.5-0.5v-3a0.5 0.5 0 0 1 0.5-0.5h4a0.5 0.5 0 0 1 0.5 0.5z" fill="hsl(236, 6%, 48%)" stroke="hsl(60, 5%, 100%)" stroke-linejoin="round" stroke-miterlimit="4px" stroke-width="2"/><path d="M13 5v-0.5a0.5 0.5 0 0 0-1 0V5H8a1 1 0 0 0-1 1v10a1 1 0 0 0 1 1h5a1 1 0 0 0 1-1V6a1 1 0 0 0-1-1zM9 16H8v-1h1z m0-2H8v-1h1z m0-2H8V11h1z m2 4H10v-1h1z m0-2H10v-1h1z m0-2H10V11h1z m2 4H12v-1h1z m0-2H12v-1h1z m0-2H12V11h1z m0-2.5a0.5 0.5 0 0 1-0.5 0.5h-4a0.5 0.5 0 0 1-0.5-0.5v-3a0.5 0.5 0 0 1 0.5-0.5h4a0.5 0.5 0 0 1 0.5 0.5z" fill="hsl(236, 6%, 48%)"/></g></svg>