<svg xmlns="http://www.w3.org/2000/svg" id="moscow-metro" width="17" height="17" viewBox="0 0 17 17"><g><path d="M1.49,17l-.3-.42A7.516,7.516,0,0,1,0,12.5,8.8,8.8,0,0,1,8.5,4,8.8,8.8,0,0,1,17,12.5a7.938,7.938,0,0,1-1.17,4.05l-.3.45H1.49Z" fill="hsl(0, 0%, 100%)" opacity="0.75"/><path d="M8.5,5A7.83,7.83,0,0,0,1,12.5,6.479,6.479,0,0,0,2,16H15a6.918,6.918,0,0,0,1-3.5A7.83,7.83,0,0,0,8.5,5Z" fill="hsl(230, 57%, 54%)"/><path d="M2.58,15A5.761,5.761,0,0,1,2,12.5,6.849,6.849,0,0,1,8.5,6,6.849,6.849,0,0,1,15,12.5a5.935,5.935,0,0,1-.59,2.5Z" fill="hsl(0, 0%, 100%)"/><path d="M10.5,7,8.5,10.5,6.5,7,4.5,13,3.5,13,3.5,14,7.5,14,7.5,13,6,13,7,10.5,8.5,13.5,10,10.5,11,13,9.5,13,9.5,14,13.5,14,13.5,13,12.5,13,10.5,7 Z" fill="hsl(0, 87%, 59%)"/><path d="M0,0 H17 V17 H0 Z" fill="none"/></g></svg>