<svg xmlns="http://www.w3.org/2000/svg" id="mountain-15" width="21" height="21" viewBox="0 0 21 21"><g><path d="M0,0 H21 V21 H0 Z" fill="none"/><path d="M10.5 5c-0.3 0-0.4 0.2-0.6 0.4l-5.8 9.5c-0.1 0.1-0.1 0.3-0.1 0.4 0 0.5 0.4 0.7 0.7 0.7h11.6c0.4 0 0.7-0.2 0.7-0.7 0-0.2 0-0.2-0.1-0.4L11.2 5.4C11 5.2 10.8 5 10.5 5z m0 1.5L13.8 12H13L11.5 10.5 10.5 12l-1-1.5L8 12h-0.9l3.4-5.5z" fill="hsl(236, 6%, 48%)" stroke="hsl(60, 5%, 100%)" stroke-linejoin="round" stroke-miterlimit="4px" stroke-width="2"/><path d="M10.5 5c-0.3 0-0.4 0.2-0.6 0.4l-5.8 9.5c-0.1 0.1-0.1 0.3-0.1 0.4 0 0.5 0.4 0.7 0.7 0.7h11.6c0.4 0 0.7-0.2 0.7-0.7 0-0.2 0-0.2-0.1-0.4L11.2 5.4C11 5.2 10.8 5 10.5 5z m0 1.5L13.8 12H13L11.5 10.5 10.5 12l-1-1.5L8 12h-0.9l3.4-5.5z" fill="hsl(236, 6%, 48%)"/></g></svg>