<svg xmlns="http://www.w3.org/2000/svg" id="mountain-11" width="17" height="17" viewBox="0 0 17 17"><g><path d="M0,0 H17 V17 H0 Z" fill="none"/><path d="M8.518 4.232a0.556 0.556 0 0 0-0.495 0.268l-4 6.66c-0.222 0.37 0.045 0.84 0.477 0.84h8c0.432 0 0.7-0.47 0.477-0.84l-4-6.66a0.556 0.556 0 0 0-0.46-0.268z m0.002 0.922L11.431 10H10.76L9.416 8.773 8.519 10l-0.894-1.227L6.281000000000001 10H5.609999999999999l2.91-4.846z" fill="hsl(236, 6%, 48%)" stroke="hsl(60, 5%, 100%)" stroke-linejoin="round" stroke-miterlimit="4px" stroke-width="2"/><path d="M8.518 4.232a0.556 0.556 0 0 0-0.495 0.268l-4 6.66c-0.222 0.37 0.045 0.84 0.477 0.84h8c0.432 0 0.7-0.47 0.477-0.84l-4-6.66a0.556 0.556 0 0 0-0.46-0.268z m0.002 0.922L11.431 10H10.76L9.416 8.773 8.519 10l-0.894-1.227L6.281000000000001 10H5.609999999999999l2.91-4.846z" fill="hsl(236, 6%, 48%)"/></g></svg>