<svg xmlns="http://www.w3.org/2000/svg" id="museum-11" width="17" height="17" viewBox="0 0 17 17"><g><path d="M0,0 H17 V17 H0 Z" fill="none"/><path d="M8.5 3L4 5v1h9V5L8.5 3zM5 7v4L4 12v1h9V12L12 11V7H5z m1.49 1a0.5 0.5 0 0 1 0.36 0.15L8.5 9.79l1.65-1.64A0.5 0.5 0 0 1 11 8.5v3a0.5 0.5 0 0 1-1 0V9.71L8.85 10.85a0.5 0.5 0 0 1-0.707 0.003L8.14 10.85 7 9.71V11.5a0.5 0.5 0 0 1-1 0v-3a0.5 0.5 0 0 1 0.49-0.5z" fill="hsl(236, 6%, 48%)" stroke="hsl(60, 5%, 100%)" stroke-linejoin="round" stroke-miterlimit="4px" stroke-width="2"/><path d="M8.5 3L4 5v1h9V5L8.5 3zM5 7v4L4 12v1h9V12L12 11V7H5z m1.49 1a0.5 0.5 0 0 1 0.36 0.15L8.5 9.79l1.65-1.64A0.5 0.5 0 0 1 11 8.5v3a0.5 0.5 0 0 1-1 0V9.71L8.85 10.85a0.5 0.5 0 0 1-0.707 0.003L8.14 10.85 7 9.71V11.5a0.5 0.5 0 0 1-1 0v-3a0.5 0.5 0 0 1 0.49-0.5z" fill="hsl(236, 6%, 48%)"/></g></svg>