<svg xmlns="http://www.w3.org/2000/svg" id="museum-15" width="21" height="21" viewBox="0 0 21 21"><g><path d="M0,0 H21 V21 H0 Z" fill="none"/><path d="M10.5 3L4 6.445V7h13v-0.555L10.5 3zM5 8v5l-1 1.555V16h13v-1.445L16 13V8H5z m2.615 1a0.625 0.625 0 0 1 0.451 0.184L10.5 11.617l2.434-2.433A0.625 0.625 0 0 1 14 9.625v4.242a0.625 0.625 0 1 1-1.25 0V11.133L10.940999999999999 12.94a0.625 0.625 0 0 1-0.882 0L8.25 11.133v2.734a0.625 0.625 0 1 1-1.25 0V9.625c0-0.341 0.274-0.62 0.615-0.625z" fill="hsl(236, 6%, 48%)" stroke="hsl(60, 5%, 100%)" stroke-linejoin="round" stroke-miterlimit="4px" stroke-width="2"/><path d="M10.5 3L4 6.445V7h13v-0.555L10.5 3zM5 8v5l-1 1.555V16h13v-1.445L16 13V8H5z m2.615 1a0.625 0.625 0 0 1 0.451 0.184L10.5 11.617l2.434-2.433A0.625 0.625 0 0 1 14 9.625v4.242a0.625 0.625 0 1 1-1.25 0V11.133L10.940999999999999 12.94a0.625 0.625 0 0 1-0.882 0L8.25 11.133v2.734a0.625 0.625 0 1 1-1.25 0V9.625c0-0.341 0.274-0.62 0.615-0.625z" fill="hsl(236, 6%, 48%)"/></g></svg>