<svg xmlns="http://www.w3.org/2000/svg" id="music-15" width="21" height="21" viewBox="0 0 21 21"><g><path d="M0,0 H21 V21 H0 Z" fill="none"/><path d="M16.5 4a0.49 0.49 0 0 0-0.23 0.06L7.5 6.5A0.5 0.5 0 0 0 7 7v6.28A2 2 0 0 0 6 13a2 2 0 1 0 2 2V10.36l8-2.22v3.64a2 2 0 0 0-1-0.28 2 2 0 1 0 2 2v-9a0.5 0.5 0 0 0-0.5-0.5zM16 7.14L8 9.36v-2l8-2.22v2z" fill="hsl(236, 6%, 48%)" stroke="hsl(60, 5%, 100%)" stroke-linejoin="round" stroke-miterlimit="4px" stroke-width="2"/><path d="M16.5 4a0.49 0.49 0 0 0-0.23 0.06L7.5 6.5A0.5 0.5 0 0 0 7 7v6.28A2 2 0 0 0 6 13a2 2 0 1 0 2 2V10.36l8-2.22v3.64a2 2 0 0 0-1-0.28 2 2 0 1 0 2 2v-9a0.5 0.5 0 0 0-0.5-0.5zM16 7.14L8 9.36v-2l8-2.22v2z" fill="hsl(236, 6%, 48%)"/></g></svg>