<svg xmlns="http://www.w3.org/2000/svg" id="music-11" width="17" height="17" viewBox="0 0 17 17"><g><path d="M0,0 H17 V17 H0 Z" fill="none"/><path d="M12.5 3.5a0.489 0.489 0 0 0-0.22 0.05L6.5 5a0.5 0.5 0 0 0-0.5 0.5v4.59A1.5 1.5 0 1 0 7 11.5V8.379999999999999l5-1.25v1.46A1.5 1.5 0 1 0 13 10V4a0.5 0.5 0 0 0-0.5-0.5zM7 7.38v-1.5l5-1.25v1.5L7 7.38z" fill="hsl(236, 6%, 48%)" stroke="hsl(60, 5%, 100%)" stroke-linejoin="round" stroke-miterlimit="4px" stroke-width="2"/><path d="M12.5 3.5a0.489 0.489 0 0 0-0.22 0.05L6.5 5a0.5 0.5 0 0 0-0.5 0.5v4.59A1.5 1.5 0 1 0 7 11.5V8.379999999999999l5-1.25v1.46A1.5 1.5 0 1 0 13 10V4a0.5 0.5 0 0 0-0.5-0.5zM7 7.38v-1.5l5-1.25v1.5L7 7.38z" fill="hsl(236, 6%, 48%)"/></g></svg>