<svg xmlns="http://www.w3.org/2000/svg" id="mx-federal-4" width="84" height="66" viewBox="0 0 28 22"><g><path d="M0.05,0 H28 V22 H0.05 Z" fill="none"/><path d="M22,1l5,3V6.5c-1.95,1-1.95,3,0,4,.13,7.2-10.92,10.1-13,10.5-2.21-.4-13-2.5-13-10.5,2-1,2-3,0-4V4L6,1a7.4,7.4,0,0,0,4,1.5A7,7,0,0,0,14,1a7.82,7.82,0,0,0,4,1.5A7,7,0,0,0,22,1M6,0a1,1,0,0,0-.51.14l-5,3A1,1,0,0,0,0,4V6.5a1,1,0,0,0,.54.89A1.41,1.41,0,0,1,1.46,8.5,1.41,1.41,0,0,1,.54,9.61,1,1,0,0,0,0,10.5C0,18.61,9.67,21.23,13.82,22L14,22l.19,0c.14,0,14-2.79,13.81-11.5a1,1,0,0,0-.54-.87,1.41,1.41,0,0,1-.92-1.11,1.41,1.41,0,0,1,.92-1.11A1,1,0,0,0,28,6.5V4a1,1,0,0,0-.49-.86l-5-3A1,1,0,0,0,22,0a1,1,0,0,0-.61.21A6.08,6.08,0,0,1,18,1.5,7,7,0,0,1,14.56.17,1,1,0,0,0,14,0a1,1,0,0,0-.61.21A6.08,6.08,0,0,1,10,1.5,6.38,6.38,0,0,1,6.61.21,1,1,0,0,0,6,0Z" fill="hsl(230, 18%, 13%)"/><path d="M6,1,1,4V6.5c2,1,2,3,0,4,0,8,10.79,10.1,13,10.5,2.08-.4,13.13-3.3,13-10.5-1.95-1-1.95-3,0-4V4L22,1a7,7,0,0,1-4,1.5A7.82,7.82,0,0,1,14,1a7,7,0,0,1-4,1.5A7.4,7.4,0,0,1,6,1Z" fill="hsl(0, 0%, 100%)"/><path d="M27,5H1A.5.5,0,0,1,1,4H27a.5.5,0,0,1,0,1Z" fill="hsl(230, 18%, 13%)"/></g></svg>