<svg xmlns="http://www.w3.org/2000/svg" id="mx-federal-3" width="69" height="66" viewBox="0 0 23 22"><g><path d="M0,0 H23 V22 H0 Z" fill="none"/><path d="M18,1l4,3V6.5a2.28,2.28,0,0,0,0,4c.1,7.2-8.82,10.1-10.5,10.5C9.66,20.6,1,18.5,1,10.5a2.28,2.28,0,0,0,0-4V4L5,1A5.44,5.44,0,0,0,8.2,2.5,5.12,5.12,0,0,0,11.45,1,5.72,5.72,0,0,0,14.7,2.5,5.12,5.12,0,0,0,18,1M5,0a1,1,0,0,0-.6.2l-4,3A1,1,0,0,0,0,4V6.5a1,1,0,0,0,.46.84A1.39,1.39,0,0,1,1.13,8.5,1.39,1.39,0,0,1,.41,9.66,1,1,0,0,0,0,10.5C0,13.19,1.05,19.69,11.23,22l.22,0a.85.85,0,0,0,.23,0c.12,0,11.4-2.81,11.27-11.48a1,1,0,0,0-.46-.83,1.39,1.39,0,0,1-.72-1.16,1.39,1.39,0,0,1,.72-1.16A1,1,0,0,0,23,6.5V4a1,1,0,0,0-.4-.8l-4-3A1,1,0,0,0,18,0a1,1,0,0,0-.69.28A4.19,4.19,0,0,1,14.7,1.5,4.68,4.68,0,0,1,12.09.23,1,1,0,0,0,11.45,0a1,1,0,0,0-.69.28A4.19,4.19,0,0,1,8.2,1.5,4.47,4.47,0,0,1,5.64.28,1,1,0,0,0,5,0Z" fill="hsl(230, 18%, 13%)"/><path d="M5,1,1,4V6.5a2.28,2.28,0,0,1,0,4c0,8,8.71,10.1,10.5,10.5,1.68-.4,10.6-3.3,10.5-10.5a2.28,2.28,0,0,1,0-4V4L18,1A5.12,5.12,0,0,1,14.7,2.5,5.72,5.72,0,0,1,11.45,1,5.12,5.12,0,0,1,8.2,2.5,5.44,5.44,0,0,1,5,1Z" fill="hsl(0, 0%, 100%)"/><path d="M22.5,5H.5a.5.5,0,0,1,0-1h22a.5.5,0,0,1,0,1Z" fill="hsl(230, 18%, 13%)"/></g></svg>