<svg xmlns="http://www.w3.org/2000/svg" id="mx-state-4" width="84" height="66" viewBox="0 0 28 22"><g><path d="M0,0 H28 V22 H0 Z" fill="none"/><path d="M27,1V9.5c.13,7.58-10.4,11.08-13,11.5C11.27,20.58,1,17.92,1,9.5V1H27m0-1H1A1,1,0,0,0,0,1V9.5c0,3.91,2.06,7.23,6,9.6A23.32,23.32,0,0,0,13.85,22h.31a24,24,0,0,0,7.9-3.21c4-2.52,6-5.73,5.94-9.3V1a1,1,0,0,0-1-1Z" fill="hsl(230, 18%, 13%)"/><path d="M1,1V9.5C1,17.92,11.27,20.58,14,21c2.6-.42,13.13-3.92,13-11.5V1Z" fill="hsl(0, 0%, 100%)"/><path d="M0,3 H28 V4 H0 Z" fill="hsl(230, 18%, 13%)"/></g></svg>