<svg xmlns="http://www.w3.org/2000/svg" id="mx-state-2" width="54" height="66" viewBox="0 0 18 22"><g><path d="M0,0 H18 V22 H0 Z" fill="none"/><path d="M17,1V9.5C17,18,10.6,20.58,9,21c-1.68-.42-8-3-8-11.5V1H17m0-1H1A1,1,0,0,0,0,1V9.5C0,19.66,8.4,21.88,8.76,22A1,1,0,0,0,9,22a1,1,0,0,0,.25,0C12.5,21.11,18,17.52,18,9.5V1a1,1,0,0,0-1-1Z" fill="hsl(230, 18%, 13%)"/><path d="M1,1V9.5C1,18,7.32,20.58,9,21c1.6-.42,8-3,8-11.5V1Z" fill="hsl(0, 0%, 100%)"/><path d="M0,3 H18 V4 H0 Z" fill="hsl(230, 18%, 13%)"/></g></svg>