<svg xmlns="http://www.w3.org/2000/svg" id="mx-state-3" width="69" height="66" viewBox="0 0 23 22"><g><path d="M0,0 H23 V22 H0 Z" fill="none"/><path d="M22,1V9.5C22,18,13.6,20.57,11.5,21,9.29,20.57,1,18,1,9.5V1H22m0-1H1A1,1,0,0,0,0,1V9.5C0,19.7,10.85,21.89,11.31,22l.19,0,.2,0C15.89,21.13,23,17.56,23,9.5V1a1,1,0,0,0-1-1Z" fill="hsl(230, 18%, 13%)"/><path d="M1,1V9.5C1,18,9.29,20.57,11.5,21,13.6,20.57,22,18,22,9.5V1Z" fill="hsl(0, 0%, 100%)"/><path d="M0,3 H23 V4 H0 Z" fill="hsl(230, 18%, 13%)"/></g></svg>