<svg xmlns="http://www.w3.org/2000/svg" id="my-state-3" width="84" height="48" viewBox="0 0 28 16"><g><path d="M0,0 H28 V16 H0 Z" fill="none"/><path d="M14,1,25,3a2.15,2.15,0,0,1,2,2v6a2.15,2.15,0,0,1-2,2L14,15,3,13a2.15,2.15,0,0,1-2-2V5A2.15,2.15,0,0,1,3,3L14,1m0-1-.18,0L2.9,2A3.16,3.16,0,0,0,0,5v6a3.16,3.16,0,0,0,2.9,3l10.92,2L14,16l.18,0L25.1,14A3.16,3.16,0,0,0,28,11V5a3.16,3.16,0,0,0-2.9-3L14.18,0,14,0Z" fill="hsl(230, 18%, 13%)"/><path d="M14,1,25,3a2.15,2.15,0,0,1,2,2v6a2.15,2.15,0,0,1-2,2L14,15,3,13a2.15,2.15,0,0,1-2-2V5A2.15,2.15,0,0,1,3,3Z" fill="hsl(50, 100%, 70%)"/></g></svg>