<svg xmlns="http://www.w3.org/2000/svg" id="my-state-4" width="102" height="48" viewBox="0 0 34 16"><g><path d="M0,0 H34 V16 H0 Z" fill="none"/><path d="M16.75,1,31,3a2.15,2.15,0,0,1,2,2v6a2.15,2.15,0,0,1-2,2L16.75,15,3,13a2.15,2.15,0,0,1-2-2V5A2.15,2.15,0,0,1,3,3L16.75,1m0-1-.14,0L2.92,2A3.18,3.18,0,0,0,0,5v6a3.18,3.18,0,0,0,2.92,3l13.69,2,.14,0,.14,0,14.19-2A3.17,3.17,0,0,0,34,11V5a3.17,3.17,0,0,0-2.92-3L16.89,0l-.14,0Z" fill="hsl(230, 18%, 13%)"/><path d="M16.75,1,31,3a2.15,2.15,0,0,1,2,2v6a2.15,2.15,0,0,1-2,2L16.75,15,3,13a2.15,2.15,0,0,1-2-2V5A2.15,2.15,0,0,1,3,3Z" fill="hsl(50, 100%, 70%)"/></g></svg>