<svg xmlns="http://www.w3.org/2000/svg" id="new-york-subway" width="19" height="19" viewBox="0 0 19 19"><g><path d="M9.5,9.5 m-8.5,0 a8.5,8.5 0 1,0 17,0 a8.5,8.5 0 1,0 -17,0" fill="hsl(230, 57%, 54%)"/><path d="M9.5,1A8.5,8.5,0,1,1,1,9.5,8.51,8.51,0,0,1,9.5,1m0-1A9.5,9.5,0,1,0,19,9.5,9.5,9.5,0,0,0,9.5,0Z" fill="hsl(0, 0%, 100%)" opacity="0.75"/><path d="M0,0 H19 V19 H0 Z" fill="none"/><path d="M16,12.1l-.5-5.52L5.82,5,5.11,9.9l-.7-5.14L2.65,4.48a8.45,8.45,0,0,0-.08,9.94L3,14.35v-6l1.3,5.79,1.5-.26L7,8.24v5.41l2-.34V7.85l1,.06v5.21l1.5-.26V8l1.3.08-.51,4.64,1.21-.21v-.7l1.5-.19v.65Z" fill="hsl(0, 0%, 100%)"/></g></svg>