<svg xmlns="http://www.w3.org/2000/svg" id="optician-11" width="17" height="17" viewBox="0 0 17 17"><g><path d="M0,0 H17 V17 H0 Z" fill="none"/><path d="M13.5 7c-0.025 0-0.046 0.01-0.07 0.014C13.28 6.35 12.816 6 12 6H10.5c-0.885 0-1.355 0.414-1.457 1.197-0.156-0.047-0.344-0.089-0.543-0.089s-0.387 0.042-0.543 0.089C7.855 6.414 7.385 6 6.5 6H5C4.1850000000000005 6 3.7199999999999998 6.35 3.57 7.014 3.545 7.011 3.524 7 3.5 7a0.5 0.5 0 1 0 0 1c0 1.5 1 2 2.25 2S8 9.5 8 8v-0.027c0.115-0.047 0.317-0.115 0.5-0.115s0.385 0.068 0.5 0.115V8c0 1.5 1 2 2.25 2s2.25-0.5 2.25-2a0.5 0.5 0 0 0 0-1zM7.25 8c0 0.65-0.182 1.25-1.5 1.25s-1.5-0.6-1.5-1.25v-0.5c0-0.589 0.161-0.75 0.75-0.75h1.5c0.589 0 0.75 0.161 0.75 0.75V8z m5.5 0c0 0.65-0.182 1.25-1.5 1.25s-1.5-0.6-1.5-1.25v-0.5c0-0.589 0.161-0.75 0.75-0.75H12c0.589 0 0.75 0.161 0.75 0.75V8z" fill="hsl(236, 6%, 48%)" stroke="hsl(60, 5%, 100%)" stroke-linejoin="round" stroke-miterlimit="4px" stroke-width="2"/><path d="M13.5 7c-0.025 0-0.046 0.01-0.07 0.014C13.28 6.35 12.816 6 12 6H10.5c-0.885 0-1.355 0.414-1.457 1.197-0.156-0.047-0.344-0.089-0.543-0.089s-0.387 0.042-0.543 0.089C7.855 6.414 7.385 6 6.5 6H5C4.1850000000000005 6 3.7199999999999998 6.35 3.57 7.014 3.545 7.011 3.524 7 3.5 7a0.5 0.5 0 1 0 0 1c0 1.5 1 2 2.25 2S8 9.5 8 8v-0.027c0.115-0.047 0.317-0.115 0.5-0.115s0.385 0.068 0.5 0.115V8c0 1.5 1 2 2.25 2s2.25-0.5 2.25-2a0.5 0.5 0 0 0 0-1zM7.25 8c0 0.65-0.182 1.25-1.5 1.25s-1.5-0.6-1.5-1.25v-0.5c0-0.589 0.161-0.75 0.75-0.75h1.5c0.589 0 0.75 0.161 0.75 0.75V8z m5.5 0c0 0.65-0.182 1.25-1.5 1.25s-1.5-0.6-1.5-1.25v-0.5c0-0.589 0.161-0.75 0.75-0.75H12c0.589 0 0.75 0.161 0.75 0.75V8z" fill="hsl(236, 6%, 48%)"/></g></svg>