<svg xmlns="http://www.w3.org/2000/svg" id="optician-15" width="21" height="21" viewBox="0 0 21 21"><g><path d="M0,0 H21 V21 H0 Z" fill="none"/><path d="M17.5 9h-0.677c-0.282-0.59-0.88-1-1.576-1H12.752c-0.818 0-1.5 0.566-1.693 1.325-0.174-0.042-0.36-0.075-0.559-0.075s-0.385 0.033-0.559 0.074A1.751 1.751 0 0 0 8.248000000000001 8H5.753a1.75 1.75 0 0 0-1.577 1H3.5a0.5 0.5 0 0 0 0 1H4v0.5C4 12.089 5.002 13 6.75 13h0.5C8.998000000000001 13 10 12.089 10 10.5v-0.159c0.15-0.048 0.33-0.091 0.5-0.091 0.17 0 0.35 0.043 0.5 0.091V10.5C11 12.089 12.002 13 13.75 13h0.5C15.998 13 17 12.089 17 10.5V10h0.5a0.5 0.5 0 0 0 0-1zM9 10.5C9 11.198 8.801 12 7.25 12h-0.5C5.199 12 5 11.198 5 10.5v-0.748C5 9.337 5.338 9 5.753 9h2.494c0.416 0 0.753 0.337 0.753 0.752V10.5z m7 0c0 0.698-0.2 1.5-1.75 1.5h-0.5C12.2 12 12 11.198 12 10.5v-0.748C12 9.337 12.337 9 12.752 9h2.495c0.415 0 0.753 0.338 0.753 0.753V10.5z" fill="hsl(236, 6%, 48%)" stroke="hsl(60, 5%, 100%)" stroke-linejoin="round" stroke-miterlimit="4px" stroke-width="2"/><path d="M17.5 9h-0.677c-0.282-0.59-0.88-1-1.576-1H12.752c-0.818 0-1.5 0.566-1.693 1.325-0.174-0.042-0.36-0.075-0.559-0.075s-0.385 0.033-0.559 0.074A1.751 1.751 0 0 0 8.248000000000001 8H5.753a1.75 1.75 0 0 0-1.577 1H3.5a0.5 0.5 0 0 0 0 1H4v0.5C4 12.089 5.002 13 6.75 13h0.5C8.998000000000001 13 10 12.089 10 10.5v-0.159c0.15-0.048 0.33-0.091 0.5-0.091 0.17 0 0.35 0.043 0.5 0.091V10.5C11 12.089 12.002 13 13.75 13h0.5C15.998 13 17 12.089 17 10.5V10h0.5a0.5 0.5 0 0 0 0-1zM9 10.5C9 11.198 8.801 12 7.25 12h-0.5C5.199 12 5 11.198 5 10.5v-0.748C5 9.337 5.338 9 5.753 9h2.494c0.416 0 0.753 0.337 0.753 0.752V10.5z m7 0c0 0.698-0.2 1.5-1.75 1.5h-0.5C12.2 12 12 11.198 12 10.5v-0.748C12 9.337 12.337 9 12.752 9h2.495c0.415 0 0.753 0.338 0.753 0.753V10.5z" fill="hsl(236, 6%, 48%)"/></g></svg>