<svg xmlns="http://www.w3.org/2000/svg" id="osaka-subway" width="17" height="17" viewBox="0 0 17 17"><g><path d="M2,0 H15 C15,0 17,0 17,2 V15 C17,15 17,17 15,17 H2 C2,17 0,17 0,15 V2 C0,2 0,0 2,0" fill="hsl(0, 0%, 100%)" opacity="0.75"/><path d="M2,1 H15 C15,1 16,1 16,2 V15 C16,15 16,16 15,16 H2 C2,16 1,16 1,15 V2 C1,2 1,1 2,1" fill="hsl(230, 57%, 54%)"/><path d="M8.3441,6.796c.0542.3895.119.8434.1548,1.1349-.0061.05-.0136.0993-.02.15-.0622.4714-.1216.9389-.1844,1.41-.1016.7415-.2025,1.4844-.3351,2.2234a8.5584,8.5584,0,0,1-.2943,1.2671c-.0445.1251-.1406.3456-.2237.3456a.2072.2072,0,0,1-.18-.1379,2.7256,2.7256,0,0,1-.2348-.7152c-.1467-.64-.25-1.29-.342-1.9383-.0745-.5223-.1645-1.1459-.2063-1.4567.008-.0568.0148-.1122.0228-.1683.1116-.8286.2022-1.6528.3267-2.4814a18.6892,18.6892,0,0,1,.4649-2.3814c.06-.1883.157-.3759.245-.3759.1025,0,.1832.1438.2183.2282a4.9513,4.9513,0,0,1,.187.6584C8.0855,5.1252,8.2487,6.1157,8.3441,6.796Zm4.25,1.5322c-.0765-.5546-.1509-1.1091-.2287-1.6644-.0947-.6615-.2224-1.4315-.3707-2.1054a3.7219,3.7219,0,0,0-.1954-.6648c-.034-.0806-.1077-.2247-.2161-.2218-.098,0-.2034.2508-.2563.42a12.4368,12.4368,0,0,0-.3486,1.672c-.1757,1.0775-.3,2.0977-.4478,3.1771-.0026.03-.0061.0568-.0107.0852,0,0,.1617,1.2026.2544,1.82.0907.6016.1881,1.2.3376,1.7888a2.4122,2.4122,0,0,0,.2016.5675c.03.047.0744.1237.157.1237.1183,0,.2125-.2636.26-.4152a10.3338,10.3338,0,0,0,.315-1.4477c.0677-.4024.1988-1.309.1988-1.309h.5995C12.8351,10.1034,12.6693,8.8834,12.5937,8.3282ZM2.9859,12.4693a3.0823,3.0823,0,0,0,.2224.701c.0494.1.1077.1605.1954.1605.1,0,.1963-.265.2463-.4249a12.6607,12.6607,0,0,0,.3654-1.7779c.0277-.1908.0831-.5758.14-.973H2.5879S2.8279,11.78,2.9859,12.4693Z" fill="hsl(244, 28%, 67%)"/><path d="M7.2931,4.0477a18.8487,18.8487,0,0,0-.4649,2.3814c-.1246.8286-.2145,1.6528-.326,2.4814-.0313.2315-.0632.4772-.0977.7118-.07.4875-.1832,1.3477-.2692,1.8339a9.2456,9.2456,0,0,1-.3985,1.6689c-.0865.1753-.1757.2057-.2435.2057h-2.09c.1008,0,.197-.265.2463-.4249a12.577,12.577,0,0,0,.366-1.7779c.06-.4114.2476-1.7333.2991-2.115.071-.5217.1374-1.0486.209-1.57.0671-.493.1411-.98.2125-1.4728A9.4136,9.4136,0,0,1,5.2,3.8807c.0861-.2051.195-.2076.2382-.2076l2.1-.0013C7.45,3.6718,7.3537,3.8594,7.2931,4.0477Zm4.29-.3759L9.4755,3.6692c-.0906,0-.1825.0755-.257.2573a9.6384,9.6384,0,0,0-.412,1.8675c-.1183.7551-.22,1.53-.3276,2.2866-.0616.4714-.1209.9389-.1841,1.41-.1012.7415-.2028,1.4844-.3347,2.2234a8.5664,8.5664,0,0,1-.295,1.2671c-.0445.1251-.14.3456-.2234.3456l2.0967-.0013c.0683,0,.1525-.0148.2559-.2424a6.0975,6.0975,0,0,0,.2725-1.0556c.1077-.5565.1928-1.1169.2747-1.6779.0678-.4688.127-.9363.1889-1.4084.1481-1.08.2719-2.1.4472-3.1771a12.5189,12.5189,0,0,1,.3489-1.6724C11.3794,3.9226,11.4848,3.6718,11.5828,3.6718Zm.6609,6.4832s-.1311.9067-.1988,1.309a10.2876,10.2876,0,0,1-.3154,1.4477c-.0467.1516-.1412.4153-.2595.4153l2.1241-.0032c.0738-.0007.1667-.0639.2369-.2322a5.16,5.16,0,0,0,.2938-1.1427c.069-.36.1357-.7924.2873-1.7939Z" fill="hsl(0, 0%, 100%)"/></g></svg>