<svg xmlns="http://www.w3.org/2000/svg" id="paris-metro.paris-rer" width="37" height="19" viewBox="0 0 37 19"><g><path d="M27.5,0a9.5,9.5,0,0,0-9,6.48,9.5,9.5,0,1,0,0,6A9.5,9.5,0,1,0,27.5,0Z" fill="hsl(0, 0%, 100%)" opacity="0.75"/><path d="M9.5,9.5 m-8.5,0 a8.5,8.5 0 1,0 17,0 a8.5,8.5 0 1,0 -17,0" fill="hsl(230, 57%, 54%)"/><path d="M9.5,9.5 m-7.5,0 a7.5,7.5 0 1,0 15,0 a7.5,7.5 0 1,0 -15,0" fill="hsl(0, 0%, 100%)"/><path d="M12.62,5a1.178,1.178,0,0,0-.82.3L9.5,8h0L7.2,5.3A1.178,1.178,0,0,0,6.38,5a.781.781,0,0,0-.874.673c0,.026,0,.051-.006.077V13a1,1,0,0,0,2,0V8.5L8.69,10h0a1.091,1.091,0,0,0,.81.5,1.091,1.091,0,0,0,.81-.5h0L11.5,8.5V13a1,1,0,0,0,2,0V5.75a.78.78,0,0,0-.8-.756C12.671,5,12.645,5,12.62,5Z" fill="hsl(230, 57%, 54%)"/><path d="M27.5,9.5 m-8.5,0 a8.5,8.5 0 1,0 17,0 a8.5,8.5 0 1,0 -17,0" fill="hsl(230, 57%, 54%)"/><path d="M27.5,9.5 m-7.5,0 a7.5,7.5 0 1,0 15,0 a7.5,7.5 0 1,0 -15,0" fill="hsl(0, 0%, 100%)"/><path d="M29.5,12.48A.43.43,0,0,0,29.123,12a.311.311,0,0,0-.043,0H27V10h1.53A.459.459,0,0,0,29,9.551c0-.011,0-.021,0-.031A.49.49,0,0,0,28.542,9H27V7h2.07a.439.439,0,0,0,.421-.458V6.52A.489.489,0,0,0,29.031,6H26.46A.45.45,0,0,0,26,6.439c0,.014,0,.027,0,.041v6.09a.5.5,0,0,0,.553.441H29a.5.5,0,0,0,.5-.5C29.5,12.5,29.5,12.49,29.5,12.48Z" fill="hsl(230, 57%, 54%)"/><path d="M25.5,8A1.81,1.81,0,0,0,24,6H22.46A.45.45,0,0,0,22,6.439c0,.014,0,.027,0,.041v6.09a.44.44,0,0,0,.436.444.458.458,0,0,0,.064,0,.47.47,0,0,0,.5-.438c0-.021,0-.041,0-.062V10h.25l1.28,2.77a.41.41,0,0,0,.39.23c.33,0,.81-.31.62-.68L24.25,9.88A2.16,2.16,0,0,0,25.5,8Zm-1,0a1,1,0,0,1-1,1H23V7h.5A1,1,0,0,1,24.5,8Z" fill="hsl(230, 57%, 54%)"/><path d="M33.5,8A1.81,1.81,0,0,0,32,6H30.46A.45.45,0,0,0,30,6.439c0,.014,0,.027,0,.041v6.09a.44.44,0,0,0,.436.444.458.458,0,0,0,.064,0,.47.47,0,0,0,.5-.438c0-.021,0-.041,0-.062V10h.25l1.28,2.77a.41.41,0,0,0,.39.23c.33,0,.81-.31.62-.68L32.25,9.87A2.161,2.161,0,0,0,33.5,8Zm-1,0a1,1,0,0,1-1,1H31V7h.5A1,1,0,0,1,32.5,8Z" fill="hsl(230, 57%, 54%)"/></g></svg>