<svg xmlns="http://www.w3.org/2000/svg" id="paris-transilien" width="17" height="17" viewBox="0 0 17 17"><g><path d="M2,0 H15 C15,0 17,0 17,2 V15 C17,15 17,17 15,17 H2 C2,17 0,17 0,15 V2 C0,2 0,0 2,0" fill="hsl(0, 0%, 100%)" opacity="0.75"/><path d="M2,1 H15 C15,1 16,1 16,2 V15 C16,15 16,16 15,16 H2 C2,16 1,16 1,15 V2 C1,2 1,1 2,1" fill="hsl(230, 57%, 54%)"/><path d="M2.5,2 H14.5 C14.5,2 15,2 15,2.5 V14.5 C15,14.5 15,15 14.5,15 H2.5 C2.5,15 2,15 2,14.5 V2.5 C2,2.5 2,2 2.5,2" fill="hsl(0, 0%, 100%)"/><path d="M12,9.5V5a1,1,0,0,0-1-1H6A1,1,0,0,0,5,5V9.5a1,1,0,0,0,1,1L4.5,13H6l1.2-2H9.7L11,13h1.5L11,10.5A1,1,0,0,0,12,9.5ZM7,9H6V8H7ZM6.5,7A.47.47,0,0,1,6,6.56V5.5A.47.47,0,0,1,6.44,5H10.5a.47.47,0,0,1,.5.44V6.5a.47.47,0,0,1-.44.5H6.5ZM10,9V8h1V9Z" fill="hsl(230, 57%, 54%)"/><path d="M0,0 H17 V17 H0 Z" fill="none"/></g></svg>