<svg xmlns="http://www.w3.org/2000/svg" id="paris-metro" width="19" height="19" viewBox="0 0 19 19"><g><path d="M9.5,9.5 m-9.5,0 a9.5,9.5 0 1,0 19,0 a9.5,9.5 0 1,0 -19,0" fill="hsl(0, 0%, 100%)" opacity="0.75"/><path d="M9.5,9.5 m-8.5,0 a8.5,8.5 0 1,0 17,0 a8.5,8.5 0 1,0 -17,0" fill="hsl(230, 57%, 54%)"/><path d="M9.5,9.5 m-7.5,0 a7.5,7.5 0 1,0 15,0 a7.5,7.5 0 1,0 -15,0" fill="hsl(0, 0%, 100%)"/><path d="M12.62,5a1.17,1.17,0,0,0-.82.3L9.5,8h0L7.2,5.3A1.17,1.17,0,0,0,6.38,5a.77.77,0,0,0-.87.67.22.22,0,0,0,0,.08V13a1,1,0,0,0,2,0V8.5L8.69,10h0a1.09,1.09,0,0,0,.81.5,1.09,1.09,0,0,0,.81-.5h0L11.5,8.5V13a1,1,0,0,0,2,0V5.75A.78.78,0,0,0,12.7,5Z" fill="hsl(230, 57%, 54%)"/><path d="M0,0 H19 V19 H0 Z" fill="none"/></g></svg>