<svg xmlns="http://www.w3.org/2000/svg" id="paris-rer" width="19" height="19" viewBox="0 0 19 19"><g><path d="M9.5,9.5 m-9.5,0 a9.5,9.5 0 1,0 19,0 a9.5,9.5 0 1,0 -19,0" fill="hsl(0, 0%, 100%)" opacity="0.75"/><path d="M9.5,9.5 m-8.5,0 a8.5,8.5 0 1,0 17,0 a8.5,8.5 0 1,0 -17,0" fill="hsl(230, 57%, 54%)"/><path d="M9.5,9.5 m-7.5,0 a7.5,7.5 0 1,0 15,0 a7.5,7.5 0 1,0 -15,0" fill="hsl(0, 0%, 100%)"/><path d="M11.5,12.48a.43.43,0,0,0-.38-.48H9V10h1.53A.47.47,0,0,0,11,9.55v0A.49.49,0,0,0,10.54,9H9V7h2.07a.44.44,0,0,0,.42-.46v0A.49.49,0,0,0,11,6H8.46A.45.45,0,0,0,8,6.44v6.13a.5.5,0,0,0,.55.44H11a.5.5,0,0,0,.5-.5Z" fill="hsl(230, 57%, 54%)"/><path d="M7.5,8A1.82,1.82,0,0,0,6,6H4.46A.45.45,0,0,0,4,6.44v6.13a.44.44,0,0,0,.44.44H4.5a.47.47,0,0,0,.5-.44V10h.25l1.28,2.77a.41.41,0,0,0,.39.23c.33,0,.81-.31.62-.68L6.25,9.88A2.15,2.15,0,0,0,7.5,8Zm-1,0a1,1,0,0,1-1,1H5V7h.5A1,1,0,0,1,6.5,8Z" fill="hsl(230, 57%, 54%)"/><path d="M15.5,8A1.82,1.82,0,0,0,14,6H12.46a.45.45,0,0,0-.46.44v6.13a.44.44,0,0,0,.44.44h.06a.47.47,0,0,0,.5-.44V10h.25l1.28,2.77a.41.41,0,0,0,.39.23c.33,0,.81-.31.62-.68L14.25,9.87A2.16,2.16,0,0,0,15.5,8Zm-1,0a1,1,0,0,1-1,1H13V7h.5A1,1,0,0,1,14.5,8Z" fill="hsl(230, 57%, 54%)"/><path d="M0,0 H19 V19 H0 Z" fill="none"/></g></svg>