<svg xmlns="http://www.w3.org/2000/svg" id="paris-rer.paris-transilien" width="35" height="19" viewBox="0 0 35 19"><g><path d="M33,1H20a2,2,0,0,0-2,2v2.28a9.5,9.5,0,1,0,0,8.45V16a2,2,0,0,0,2,2H33a2,2,0,0,0,2-2V3A2,2,0,0,0,33,1Z" fill="hsl(0, 0%, 100%)" opacity="0.75"/><path d="M20,1.996 H33 C33,1.996 34,1.996 34,2.996 V15.995999999999999 C34,15.995999999999999 34,16.996 33,16.996 H20 C20,16.996 19,16.996 19,15.995999999999999 V2.996 C19,2.996 19,1.996 20,1.996" fill="hsl(230, 57%, 54%)"/><path d="M20.5,2.996 H32.5 C32.5,2.996 33,2.996 33,3.496 V15.496 C33,15.496 33,15.996 32.5,15.996 H20.5 C20.5,15.996 20,15.996 20,15.496 V3.496 C20,3.496 20,2.996 20.5,2.996" fill="hsl(0, 0%, 100%)"/><path d="M30,10.5V6a1,1,0,0,0-1-1H24a1,1,0,0,0-1,1v4.5a1,1,0,0,0,1,1L22.5,14H24l1.2-2h2.5L29,14h1.5L29,11.5A1,1,0,0,0,30,10.5ZM25,10H24V9h1Zm-.5-2a.469.469,0,0,1-.5-.438c0-.02,0-.041,0-.062v-1a.471.471,0,0,1,.438-.5c.021,0,.041,0,.062,0h4a.47.47,0,0,1,.5.438c0,.021,0,.042,0,.062v1a.47.47,0,0,1-.438.5A.321.321,0,0,1,28.5,8ZM28,10V9h1v1Z" fill="hsl(230, 57%, 54%)"/><path d="M9.5,9.496 m-8.5,0 a8.5,8.5 0 1,0 17,0 a8.5,8.5 0 1,0 -17,0" fill="hsl(230, 57%, 54%)"/><path d="M9.5,9.496 m-7.5,0 a7.5,7.5 0 1,0 15,0 a7.5,7.5 0 1,0 -15,0" fill="hsl(0, 0%, 100%)"/><path d="M11.5,12.476A.43.43,0,0,0,11.123,12l-.043,0H9V10h1.53A.459.459,0,0,0,11,9.547c0-.01,0-.02,0-.031A.489.489,0,0,0,10.542,9H9V7h2.07a.439.439,0,0,0,.421-.457V6.516A.49.49,0,0,0,11.031,6H8.46A.451.451,0,0,0,8,6.435c0,.014,0,.028,0,.041v6.09a.5.5,0,0,0,.553.441H11a.5.5,0,0,0,.5-.5C11.5,12.5,11.5,12.487,11.5,12.476Z" fill="hsl(230, 57%, 54%)"/><path d="M7.5,8A1.81,1.81,0,0,0,6,6H4.46A.451.451,0,0,0,4,6.435c0,.014,0,.028,0,.041v6.09a.442.442,0,0,0,.436.445.46.46,0,0,0,.064,0,.47.47,0,0,0,.5-.437A.6.6,0,0,0,5,12.5V10h.25l1.28,2.77a.41.41,0,0,0,.39.23c.33,0,.81-.31.62-.68L6.25,9.876A2.159,2.159,0,0,0,7.5,8Zm-1,0a1,1,0,0,1-1,1H5V7h.5A1,1,0,0,1,6.5,8Z" fill="hsl(230, 57%, 54%)"/><path d="M15.5,8A1.81,1.81,0,0,0,14,6H12.46A.451.451,0,0,0,12,6.435c0,.014,0,.028,0,.041v6.09a.442.442,0,0,0,.436.445.46.46,0,0,0,.064,0,.469.469,0,0,0,.5-.438c0-.02,0-.041,0-.062V10h.25l1.28,2.77a.41.41,0,0,0,.39.23c.33,0,.81-.31.62-.68l-1.29-2.45A2.16,2.16,0,0,0,15.5,8Zm-1,0a1,1,0,0,1-1,1H13V7h.5A1,1,0,0,1,14.5,8Z" fill="hsl(230, 57%, 54%)"/><path d="M0,-0.004 H35 V18.996 H0 Z" fill="none"/></g></svg>