<svg xmlns="http://www.w3.org/2000/svg" id="park-11" width="17" height="17" viewBox="0 0 17 17"><g><path d="M0,0 H17 V17 H0 Z" fill="none"/><path d="M14 6.75A1.75 1.75 0 0 0 12.25 5a1.73 1.73 0 0 0-0.8 0.2A1.24 1.24 0 0 0 10.21 4a1.19 1.19 0 0 0-0.21 0.05A1.23 1.23 0 0 0 8.75 3a1.25 1.25 0 0 0-1.13 0.73A1.21 1.21 0 0 0 7 3.52a1.23 1.23 0 0 0-1 0.55A1.491 1.491 0 0 0 5.51 4a1.51 1.51 0 0 0-1.4 2.08A1.49 1.49 0 0 0 4.08 9a1.49 1.49 0 0 0 2.55 0.52h0.12c0.321 0 0.63-0.126 0.86-0.35V13L6 14h5l-1.6-1V12a8.42 8.42 0 0 1 2.38-2c0.26-0.05 0.5-0.167 0.7-0.34A1.49 1.49 0 0 0 13 8.5a1.46 1.46 0 0 0 0-0.17c0.61-0.29 1-0.904 1-1.58z m-4.64 4.5V9h0.18a1.52 1.52 0 0 0 0.53-0.1 1.5 1.5 0 0 0 0.89 1 8.821 8.821 0 0 0-1.6 1.35z" fill="hsl(160, 80%, 21%)" stroke="hsl(100, 76%, 100%)" stroke-linejoin="round" stroke-miterlimit="4px" stroke-width="2"/><path d="M14 6.75A1.75 1.75 0 0 0 12.25 5a1.73 1.73 0 0 0-0.8 0.2A1.24 1.24 0 0 0 10.21 4a1.19 1.19 0 0 0-0.21 0.05A1.23 1.23 0 0 0 8.75 3a1.25 1.25 0 0 0-1.13 0.73A1.21 1.21 0 0 0 7 3.52a1.23 1.23 0 0 0-1 0.55A1.491 1.491 0 0 0 5.51 4a1.51 1.51 0 0 0-1.4 2.08A1.49 1.49 0 0 0 4.08 9a1.49 1.49 0 0 0 2.55 0.52h0.12c0.321 0 0.63-0.126 0.86-0.35V13L6 14h5l-1.6-1V12a8.42 8.42 0 0 1 2.38-2c0.26-0.05 0.5-0.167 0.7-0.34A1.49 1.49 0 0 0 13 8.5a1.46 1.46 0 0 0 0-0.17c0.61-0.29 1-0.904 1-1.58z m-4.64 4.5V9h0.18a1.52 1.52 0 0 0 0.53-0.1 1.5 1.5 0 0 0 0.89 1 8.821 8.821 0 0 0-1.6 1.35z" fill="hsl(160, 80%, 21%)"/></g></svg>