<svg xmlns="http://www.w3.org/2000/svg" id="parking-garage-11" width="17" height="17" viewBox="0 0 17 17"><g><path d="M0,0 H17 V17 H0 Z" fill="none"/><path d="M10.25 10.440000000000001a2.35 2.35 0 0 1-1.53 0.44H7.45V13H6.1899999999999995V7H8.8a2.13 2.13 0 0 1 1.44 0.46c0.385 0.372 0.583 0.897 0.54 1.43a1.84 1.84 0 0 1-0.53 1.55z m-1-2.16a1 1 0 0 0-0.68-0.2H7.45v1.76H8.6a1 1 0 0 0 0.68-0.22 0.87 0.87 0 0 0 0.24-0.68 0.82 0.82 0 0 0-0.24-0.66h-0.03z m4.16-2a0.5 0.5 0 0 0-0.19-0.68L8.719999999999999 3.1a0.5 0.5 0 0 0-0.49 0L3.73 5.6a0.5 0.5 0 0 0 0.49 0.87l4.28-2.4 4.26 2.37a0.5 0.5 0 0 0 0.679-0.198l0.001-0.002-0.03 0.04z" fill="hsl(236, 6%, 48%)" stroke="hsl(60, 5%, 100%)" stroke-linejoin="round" stroke-miterlimit="4px" stroke-width="2"/><path d="M10.25 10.440000000000001a2.35 2.35 0 0 1-1.53 0.44H7.45V13H6.1899999999999995V7H8.8a2.13 2.13 0 0 1 1.44 0.46c0.385 0.372 0.583 0.897 0.54 1.43a1.84 1.84 0 0 1-0.53 1.55z m-1-2.16a1 1 0 0 0-0.68-0.2H7.45v1.76H8.6a1 1 0 0 0 0.68-0.22 0.87 0.87 0 0 0 0.24-0.68 0.82 0.82 0 0 0-0.24-0.66h-0.03z m4.16-2a0.5 0.5 0 0 0-0.19-0.68L8.719999999999999 3.1a0.5 0.5 0 0 0-0.49 0L3.73 5.6a0.5 0.5 0 0 0 0.49 0.87l4.28-2.4 4.26 2.37a0.5 0.5 0 0 0 0.679-0.198l0.001-0.002-0.03 0.04z" fill="hsl(236, 6%, 48%)"/></g></svg>