<svg xmlns="http://www.w3.org/2000/svg" id="parking-garage-15" width="21" height="21" viewBox="0 0 21 21"><g><path d="M0,0 H21 V21 H0 Z" fill="none"/><path d="M13.5 13.14a3.53 3.53 0 0 1-2.29 0.66h-1.9V17h-1.9V8h3.92a3.2 3.2 0 0 1 2.16 0.69 2.69 2.69 0 0 1 0.81 2.15 2.76 2.76 0 0 1-0.8 2.3zM12 9.9a1.56 1.56 0 0 0-1-0.3H9.309999999999999v2.65H11a1.48 1.48 0 0 0 1-0.32 1.31 1.31 0 0 0 0.36-1A1.23 1.23 0 0 0 12 9.9z m5.41-2.69a0.5 0.5 0 0 0-0.24-0.66L10.5 3.45 3.79 6.55a0.501 0.501 0 1 0 0.42 0.91L10.5 4.55l6.29 2.9a0.5 0.5 0 0 0 0.66-0.24h-0.04z" fill="hsl(236, 6%, 48%)" stroke="hsl(60, 5%, 100%)" stroke-linejoin="round" stroke-miterlimit="4px" stroke-width="2"/><path d="M13.5 13.14a3.53 3.53 0 0 1-2.29 0.66h-1.9V17h-1.9V8h3.92a3.2 3.2 0 0 1 2.16 0.69 2.69 2.69 0 0 1 0.81 2.15 2.76 2.76 0 0 1-0.8 2.3zM12 9.9a1.56 1.56 0 0 0-1-0.3H9.309999999999999v2.65H11a1.48 1.48 0 0 0 1-0.32 1.31 1.31 0 0 0 0.36-1A1.23 1.23 0 0 0 12 9.9z m5.41-2.69a0.5 0.5 0 0 0-0.24-0.66L10.5 3.45 3.79 6.55a0.501 0.501 0 1 0 0.42 0.91L10.5 4.55l6.29 2.9a0.5 0.5 0 0 0 0.66-0.24h-0.04z" fill="hsl(236, 6%, 48%)"/></g></svg>