<svg xmlns="http://www.w3.org/2000/svg" id="park-15" width="21" height="21" viewBox="0 0 21 21"><g><path d="M0,0 H21 V21 H0 Z" fill="none"/><path d="M17 8.75a1.75 1.75 0 0 0-1-1.61A1.24 1.24 0 0 0 14.75 6a1.197 1.197 0 0 0-0.29 0.06 1.2 1.2 0 0 0-2-0.78 1.25 1.25 0 1 0-2.5 0s0.04 0.02 0.04 0.05a1.22 1.22 0 0 0-2 0.74A1.491 1.491 0 0 0 7.51 6a1.5 1.5 0 0 0-1.4 2.07 1.49 1.49 0 0 0 0 2.87A1.49 1.49 0 0 0 9 10.71c0.183 0.16 0.41 0.26 0.65 0.29v5L8 17h5l-1.6-1v-2a6.8 6.8 0 0 1 2.77-2A1.49 1.49 0 0 0 16 10.52a1.472 1.472 0 0 0 0-0.16 1.75 1.75 0 0 0 1-1.61z m-5.6 4.51V9.82c0.27 0.48 0.778 0.779 1.33 0.78h0.28c0.016 0.44 0.224 0.849 0.57 1.12a7.25 7.25 0 0 0-2.18 1.54z" fill="hsl(160, 80%, 21%)" stroke="hsl(100, 76%, 100%)" stroke-linejoin="round" stroke-miterlimit="4px" stroke-width="2"/><path d="M17 8.75a1.75 1.75 0 0 0-1-1.61A1.24 1.24 0 0 0 14.75 6a1.197 1.197 0 0 0-0.29 0.06 1.2 1.2 0 0 0-2-0.78 1.25 1.25 0 1 0-2.5 0s0.04 0.02 0.04 0.05a1.22 1.22 0 0 0-2 0.74A1.491 1.491 0 0 0 7.51 6a1.5 1.5 0 0 0-1.4 2.07 1.49 1.49 0 0 0 0 2.87A1.49 1.49 0 0 0 9 10.71c0.183 0.16 0.41 0.26 0.65 0.29v5L8 17h5l-1.6-1v-2a6.8 6.8 0 0 1 2.77-2A1.49 1.49 0 0 0 16 10.52a1.472 1.472 0 0 0 0-0.16 1.75 1.75 0 0 0 1-1.61z m-5.6 4.51V9.82c0.27 0.48 0.778 0.779 1.33 0.78h0.28c0.016 0.44 0.224 0.849 0.57 1.12a7.25 7.25 0 0 0-2.18 1.54z" fill="hsl(160, 80%, 21%)"/></g></svg>