<svg xmlns="http://www.w3.org/2000/svg" id="parking-11" width="17" height="17" viewBox="0 0 17 17"><g><path d="M0,0 H17 V17 H0 Z" fill="none"/><path d="M11.1 9.1a3.53 3.53 0 0 1-2.29 0.66H6.9V13H5V4h3.93a3.2 3.2 0 0 1 2.16 0.69 2.69 2.69 0 0 1 0.81 2.16 2.76 2.76 0 0 1-0.8 2.25zM9.64 5.859999999999999a1.56 1.56 0 0 0-1-0.3H6.9v2.65h1.72a1.48 1.48 0 0 0 1-0.32 1.31 1.31 0 0 0 0.36-1 1.23 1.23 0 0 0-0.34-1.03z" fill="hsl(236, 6%, 48%)" stroke="hsl(60, 5%, 100%)" stroke-linejoin="round" stroke-miterlimit="4px" stroke-width="2"/><path d="M11.1 9.1a3.53 3.53 0 0 1-2.29 0.66H6.9V13H5V4h3.93a3.2 3.2 0 0 1 2.16 0.69 2.69 2.69 0 0 1 0.81 2.16 2.76 2.76 0 0 1-0.8 2.25zM9.64 5.859999999999999a1.56 1.56 0 0 0-1-0.3H6.9v2.65h1.72a1.48 1.48 0 0 0 1-0.32 1.31 1.31 0 0 0 0.36-1 1.23 1.23 0 0 0-0.34-1.03z" fill="hsl(236, 6%, 48%)"/></g></svg>