<svg xmlns="http://www.w3.org/2000/svg" id="parking-15" width="21" height="21" viewBox="0 0 21 21"><g><path d="M0,0 H21 V21 H0 Z" fill="none"/><path d="M14.85 11.37a5.1 5.1 0 0 1-3.31 1H8.79V17H6V4h5.72a4.63 4.63 0 0 1 3.13 1A3.88 3.88 0 0 1 16 8.120000000000001a4 4 0 0 1-1.15 3.25zM12.75 6.7a2.25 2.25 0 0 0-1.47-0.43H8.79v3.82h2.49a2.13 2.13 0 0 0 1.47-0.47c0.38-0.395 0.57-0.935 0.52-1.48a1.77 1.77 0 0 0-0.52-1.44z" fill="hsl(236, 6%, 48%)" stroke="hsl(60, 5%, 100%)" stroke-linejoin="round" stroke-miterlimit="4px" stroke-width="2"/><path d="M14.85 11.37a5.1 5.1 0 0 1-3.31 1H8.79V17H6V4h5.72a4.63 4.63 0 0 1 3.13 1A3.88 3.88 0 0 1 16 8.120000000000001a4 4 0 0 1-1.15 3.25zM12.75 6.7a2.25 2.25 0 0 0-1.47-0.43H8.79v3.82h2.49a2.13 2.13 0 0 0 1.47-0.47c0.38-0.395 0.57-0.935 0.52-1.48a1.77 1.77 0 0 0-0.52-1.44z" fill="hsl(236, 6%, 48%)"/></g></svg>