<svg xmlns="http://www.w3.org/2000/svg" id="pe-national-3" width="66" height="78" viewBox="0 0 22 26"><g><path d="M0,0 H22 V26 H0 Z" fill="none"/><path d="M19,1l2,3c-1.65,1.11-2,2-2,4,0,3,2,3,2,7s-6,4.34-7,4.5A4.4,4.4,0,0,0,11,21a4.4,4.4,0,0,0-3-1.5C7.06,19.35,1,19,1,15s2-4,2-7A4.35,4.35,0,0,0,1,4L3,1A6.94,6.94,0,0,0,7,2.5,6,6,0,0,0,11,1a5.88,5.88,0,0,0,4,1.5A6.74,6.74,0,0,0,19,1M3,0a1,1,0,0,0-.83.45l-2,3A1,1,0,0,0,.42,4.81,3.38,3.38,0,0,1,2,8a4.28,4.28,0,0,1-.77,2.49A7.9,7.9,0,0,0,0,15c0,3,2.52,4.85,7.5,5.44l.34,0a3.36,3.36,0,0,1,2.33,1.06,1,1,0,0,0,1.66,0,3.38,3.38,0,0,1,2.33-1.06l.35,0C19.48,19.83,22,18,22,15a8.11,8.11,0,0,0-1.24-4.56A4.26,4.26,0,0,1,20,8c0-1.75.28-2.31,1.56-3.17a1,1,0,0,0,.27-1.38l-2-3A1,1,0,0,0,18.45.16l-.27.18A5.3,5.3,0,0,1,15,1.5,4.92,4.92,0,0,1,11.67.26,1,1,0,0,0,11,0a1,1,0,0,0-.68.26A5,5,0,0,1,7,1.5,5.22,5.22,0,0,1,4,.44L3.51.14A1.06,1.06,0,0,0,3,0Z" fill="hsl(230, 18%, 13%)"/><path d="M8,19.5A4.4,4.4,0,0,1,11,21a4.4,4.4,0,0,1,3-1.5c1-.16,7-.5,7-4.5s-2-4-2-7c0-2,.35-2.89,2-4L19,1a6.74,6.74,0,0,1-4,1.5A5.88,5.88,0,0,1,11,1,6,6,0,0,1,7,2.5,6.94,6.94,0,0,1,3,1L1,4A4.35,4.35,0,0,1,3,8c0,3-2,3-2,7S7.06,19.35,8,19.5Z" fill="hsl(0, 0%, 100%)"/><path d="M15,2.5A5.88,5.88,0,0,1,11,1,6,6,0,0,1,7,2.5,6.94,6.94,0,0,1,3,1L1,4A4.19,4.19,0,0,1,2.92,7H19.05A3.67,3.67,0,0,1,21,4L19,1A6.74,6.74,0,0,1,15,2.5Z" fill="hsl(0, 87%, 59%)"/></g></svg>