<svg xmlns="http://www.w3.org/2000/svg" id="pe-national-2" width="54" height="78" viewBox="0 0 18 26"><g><path d="M0,0 H18 V26 H0 Z" fill="none"/><path d="M15,1l2,3c-1.65,1.11-2,2-2,4,0,3,2,3,2,7s-4,4.34-5,4.5A4.4,4.4,0,0,0,9,21a4.4,4.4,0,0,0-3-1.5C5.06,19.35,1,19,1,15s2-4,2-7A4.35,4.35,0,0,0,1,4L3,1A4.29,4.29,0,0,0,6,2,4.57,4.57,0,0,0,9,1a4.49,4.49,0,0,0,3,1,4.29,4.29,0,0,0,3-1M3,0H2.88a1,1,0,0,0-.71.44l-2,3A1,1,0,0,0,.42,4.81,3.38,3.38,0,0,1,2,8a4.28,4.28,0,0,1-.77,2.49A7.9,7.9,0,0,0,0,15c0,3.08,1.9,4.92,5.64,5.46l.2,0a3.36,3.36,0,0,1,2.33,1.06,1,1,0,0,0,1.66,0,3.38,3.38,0,0,1,2.33-1.06l.2,0C16.1,19.9,18,18.07,18,15a8.11,8.11,0,0,0-1.24-4.56A4.26,4.26,0,0,1,16,8c0-1.75.28-2.31,1.56-3.17a1,1,0,0,0,.27-1.38l-2-3a1,1,0,0,0-.7-.44H15a1,1,0,0,0-.66.25A3.34,3.34,0,0,1,12,1,3.57,3.57,0,0,1,9.67.26,1,1,0,0,0,9,0a1,1,0,0,0-.68.26A3.54,3.54,0,0,1,6,1,3.34,3.34,0,0,1,3.68.27,1,1,0,0,0,3,0Z" fill="hsl(230, 18%, 13%)"/><path d="M6,19.5A4.4,4.4,0,0,1,9,21a4.4,4.4,0,0,1,3-1.5c1-.16,5-.5,5-4.5s-2-4-2-7c0-2,.35-2.89,2-4L15,1a4.29,4.29,0,0,1-3,1A4.49,4.49,0,0,1,9,1,4.57,4.57,0,0,1,6,2,4.29,4.29,0,0,1,3,1L1,4A4.35,4.35,0,0,1,3,8c0,3-2,3-2,7S5.06,19.35,6,19.5Z" fill="hsl(0, 0%, 100%)"/><path d="M12,2A4.49,4.49,0,0,1,9,1,4.57,4.57,0,0,1,6,2,4.29,4.29,0,0,1,3,1L1,4A4.19,4.19,0,0,1,2.92,7H15.05A3.67,3.67,0,0,1,17,4L15,1A4.29,4.29,0,0,1,12,2Z" fill="hsl(0, 87%, 59%)"/></g></svg>