<svg xmlns="http://www.w3.org/2000/svg" id="pharmacy-11" width="17" height="17" viewBox="0 0 17 17"><g><path d="M0,0 H17 V17 H0 Z" fill="none"/><path d="M9 7l2-2a0.732 0.732 0 0 1 0-0.21 0.75 0.75 0 1 1 0.75 0.75h-0.11L10.5 7H9z m3.48 1.83L11.65 10.5l0.83 1.67V13h-8v-0.83l0.84-1.67-0.84-1.67V8h8v0.83zM10.5 10H9V8.5H8V10H6.5v1H8v1.5h1V11h1.5V10z" fill="hsl(320, 32%, 52%)" stroke="hsl(320, 53%, 100%)" stroke-linejoin="round" stroke-miterlimit="4px" stroke-width="2"/><path d="M9 7l2-2a0.732 0.732 0 0 1 0-0.21 0.75 0.75 0 1 1 0.75 0.75h-0.11L10.5 7H9z m3.48 1.83L11.65 10.5l0.83 1.67V13h-8v-0.83l0.84-1.67-0.84-1.67V8h8v0.83zM10.5 10H9V8.5H8V10H6.5v1H8v1.5h1V11h1.5V10z" fill="hsl(320, 32%, 52%)"/></g></svg>