<svg xmlns="http://www.w3.org/2000/svg" id="pharmacy-15" width="21" height="21" viewBox="0 0 21 21"><g><path d="M0,0 H21 V21 H0 Z" fill="none"/><path d="M12.5 7l1.07-1.54c0.06 0.005 0.12 0.005 0.18 0A1.25 1.25 0 1 0 12.5 4.25v0.1L10 7h2.5zM15 9V8H6v1l1.5 3.5L6 16v1h9v-1l-1-3.5L15 9z m-2 4H11v2H10v-2H8V12h2V10h1v2h2v1z" fill="hsl(320, 32%, 52%)" stroke="hsl(320, 53%, 100%)" stroke-linejoin="round" stroke-miterlimit="4px" stroke-width="2"/><path d="M12.5 7l1.07-1.54c0.06 0.005 0.12 0.005 0.18 0A1.25 1.25 0 1 0 12.5 4.25v0.1L10 7h2.5zM15 9V8H6v1l1.5 3.5L6 16v1h9v-1l-1-3.5L15 9z m-2 4H11v2H10v-2H8V12h2V10h1v2h2v1z" fill="hsl(320, 32%, 52%)"/></g></svg>