<svg xmlns="http://www.w3.org/2000/svg" id="philadelphia-septa" width="19" height="17" viewBox="0 0 19 17"><g><path d="M0,0 H19 V17 H0 Z" fill="none"/><path d="M2,2 H17 C17,2 19,2 19,4 V15 C19,15 19,17 17,17 H2 C2,17 0,17 0,15 V4 C0,4 0,2 2,2" fill="hsl(0, 0%, 100%)" opacity="0.75"/><path d="M12.5,7H7l4-4H6.5l-4,4,4,5H12L6.23,16H12l4.5-4Zm-1.57,4.5a.67.67,0,0,1-.54-.29L7,7.5h.55a.63.63,0,0,1,.55.3l3.4,3.7Z" fill="hsl(0, 0%, 100%)"/><path d="M7.55,7.5H7l3.38,3.71a.67.67,0,0,0,.54.29h.58L8.1,7.8A.63.63,0,0,0,7.55,7.5Z" fill="hsl(0, 87%, 59%)"/><path d="M17,3H11L7,7h5.5l4,5L12,16h5a1,1,0,0,0,1-1V4A1,1,0,0,0,17,3Z" fill="hsl(0, 87%, 59%)"/><path d="M6.5,12l-4-5,4-4H2A1,1,0,0,0,1,4V15a1,1,0,0,0,1,1H6.23L12,12Z" fill="hsl(230, 57%, 54%)"/></g></svg>