<svg xmlns="http://www.w3.org/2000/svg" id="picnic-site-11" width="17" height="17" viewBox="0 0 17 17"><g><path d="M0,0 H17 V17 H0 Z" fill="none"/><path d="M5.75 5c-0.416 0-0.75 0.334-0.75 0.75s0.334 0.75 0.75 0.75H7L6.54 8H4.75c-0.415 0-0.75 0.335-0.75 0.75s0.335 0.75 0.75 0.75h1.326L5 13h1l1.076-3.5h2.848L11 13h1L10.924 9.5H12.25c0.415 0 0.75-0.335 0.75-0.75S12.665 8 12.25 8H10.46L10 6.5h1.25c0.415 0 0.75-0.334 0.75-0.75S11.665 5 11.25 5h-5.5zM8 6.5h1L9.46 8H7.54L8 6.5z" fill="hsl(160, 80%, 21%)" stroke="hsl(100, 76%, 100%)" stroke-linejoin="round" stroke-miterlimit="4px" stroke-width="2"/><path d="M5.75 5c-0.416 0-0.75 0.334-0.75 0.75s0.334 0.75 0.75 0.75H7L6.54 8H4.75c-0.415 0-0.75 0.335-0.75 0.75s0.335 0.75 0.75 0.75h1.326L5 13h1l1.076-3.5h2.848L11 13h1L10.924 9.5H12.25c0.415 0 0.75-0.335 0.75-0.75S12.665 8 12.25 8H10.46L10 6.5h1.25c0.415 0 0.75-0.334 0.75-0.75S11.665 5 11.25 5h-5.5zM8 6.5h1L9.46 8H7.54L8 6.5z" fill="hsl(160, 80%, 21%)"/></g></svg>