<svg xmlns="http://www.w3.org/2000/svg" id="picnic-site-15" width="21" height="21" viewBox="0 0 21 21"><g><path d="M0,0 H21 V21 H0 Z" fill="none"/><path d="M7 6c-0.554 0-1 0.446-1 1s0.446 1 1 1h1.297l-0.645 2H5.5c-0.554 0-1 0.446-1 1s0.446 1 1 1h1.51l-0.969 3.01a0.75 0.75 0 1 0 1.426 0.465l0.002-0.004L8.586 12h3.828l1.117 3.47a0.75 0.75 0 1 0 1.428-0.46L13.99 12h1.51c0.554 0 1-0.446 1-1s-0.446-1-1-1h-2.152l-0.645-2H14c0.554 0 1-0.446 1-1s-0.446-1-1-1H7z m2.873 2h1.254l0.644 2H9.23l0.644-2z" fill="hsl(160, 80%, 21%)" stroke="hsl(100, 76%, 100%)" stroke-linejoin="round" stroke-miterlimit="4px" stroke-width="2"/><path d="M7 6c-0.554 0-1 0.446-1 1s0.446 1 1 1h1.297l-0.645 2H5.5c-0.554 0-1 0.446-1 1s0.446 1 1 1h1.51l-0.969 3.01a0.75 0.75 0 1 0 1.426 0.465l0.002-0.004L8.586 12h3.828l1.117 3.47a0.75 0.75 0 1 0 1.428-0.46L13.99 12h1.51c0.554 0 1-0.446 1-1s-0.446-1-1-1h-2.152l-0.645-2H14c0.554 0 1-0.446 1-1s-0.446-1-1-1H7z m2.873 2h1.254l0.644 2H9.23l0.644-2z" fill="hsl(160, 80%, 21%)"/></g></svg>