<svg xmlns="http://www.w3.org/2000/svg" id="pitch-11" width="17" height="17" viewBox="0 0 17 17"><g><path d="M0,0 H17 V17 H0 Z" fill="none"/><path d="M7 5a1 1 0 1 1 0-2 1 1 0 0 1 0 2z m6.5 6H12L11 8 10 6.25 11 6l2.3 1a0.531 0.531 0 0 0 0.36-1L11 5H9L7 6 6 7H4.47a0.5 0.5 0 0 0 0 1H7l1-1 1 2-2 1v3.5a0.5 0.5 0 0 0 1 0V10.39L10 10l1 2h2.5a0.5 0.5 0 0 0 0-1z" fill="hsl(236, 6%, 48%)" stroke="hsl(60, 5%, 100%)" stroke-linejoin="round" stroke-miterlimit="4px" stroke-width="2"/><path d="M7 5a1 1 0 1 1 0-2 1 1 0 0 1 0 2z m6.5 6H12L11 8 10 6.25 11 6l2.3 1a0.531 0.531 0 0 0 0.36-1L11 5H9L7 6 6 7H4.47a0.5 0.5 0 0 0 0 1H7l1-1 1 2-2 1v3.5a0.5 0.5 0 0 0 1 0V10.39L10 10l1 2h2.5a0.5 0.5 0 0 0 0-1z" fill="hsl(236, 6%, 48%)"/></g></svg>