<svg xmlns="http://www.w3.org/2000/svg" id="pitch-15" width="21" height="21" viewBox="0 0 21 21"><g><path d="M0,0 H21 V21 H0 Z" fill="none"/><path d="M8 6a1 1 0 1 1 0-2 1 1 0 0 1 0 2z m7.5 7H13L12 10 11 8.25 12 8l2.3 1a0.539 0.539 0 0 0 0.4-1L12 7H10L8 8 7 9H5.5a0.5 0.5 0 0 0 0 1H8l1-1 1 2-2 2v3.5a0.5 0.5 0 0 0 1 0v-3.11L11 12l1 2h3.5a0.5 0.5 0 0 0 0-1z" fill="hsl(236, 6%, 48%)" stroke="hsl(60, 5%, 100%)" stroke-linejoin="round" stroke-miterlimit="4px" stroke-width="2"/><path d="M8 6a1 1 0 1 1 0-2 1 1 0 0 1 0 2z m7.5 7H13L12 10 11 8.25 12 8l2.3 1a0.539 0.539 0 0 0 0.4-1L12 7H10L8 8 7 9H5.5a0.5 0.5 0 0 0 0 1H8l1-1 1 2-2 2v3.5a0.5 0.5 0 0 0 1 0v-3.11L11 12l1 2h3.5a0.5 0.5 0 0 0 0-1z" fill="hsl(236, 6%, 48%)"/></g></svg>