<svg xmlns="http://www.w3.org/2000/svg" id="place-of-worship-11" width="17" height="17" viewBox="0 0 17 17"><g><path d="M0,0 H17 V17 H0 Z" fill="none"/><path d="M8.52 3L7 5v1h3V5L8.52 3zM7 7L5 8v5h7V8L10 7H7z m7 1.5V13h-1V8.5a0.5 0.5 0 0 1 1 0z m-10 0V13H3V8.5a0.5 0.5 0 0 1 1 0z" fill="hsl(236, 6%, 48%)" stroke="hsl(60, 5%, 100%)" stroke-linejoin="round" stroke-miterlimit="4px" stroke-width="2"/><path d="M8.52 3L7 5v1h3V5L8.52 3zM7 7L5 8v5h7V8L10 7H7z m7 1.5V13h-1V8.5a0.5 0.5 0 0 1 1 0z m-10 0V13H3V8.5a0.5 0.5 0 0 1 1 0z" fill="hsl(236, 6%, 48%)"/></g></svg>