<svg xmlns="http://www.w3.org/2000/svg" id="place-of-worship-15" width="21" height="21" viewBox="0 0 21 21"><g><path d="M0,0 H21 V21 H0 Z" fill="none"/><path d="M10.5 3l-2 2v2h4V5l-2-2z m-2 4.5L7 9h7L12.5 7.5h-4zM5 9.5a1 1 0 0 0-1 1V16h2V10.5a1 1 0 0 0-1-1z m2 0V16h7V9.5H7z m9 0a1 1 0 0 0-1 1V16h2V10.5a1 1 0 0 0-1-1z" fill="hsl(236, 6%, 48%)" stroke="hsl(60, 5%, 100%)" stroke-linejoin="round" stroke-miterlimit="4px" stroke-width="2"/><path d="M10.5 3l-2 2v2h4V5l-2-2z m-2 4.5L7 9h7L12.5 7.5h-4zM5 9.5a1 1 0 0 0-1 1V16h2V10.5a1 1 0 0 0-1-1z m2 0V16h7V9.5H7z m9 0a1 1 0 0 0-1 1V16h2V10.5a1 1 0 0 0-1-1z" fill="hsl(236, 6%, 48%)"/></g></svg>