<svg xmlns="http://www.w3.org/2000/svg" id="playground-11" width="17" height="17" viewBox="0 0 17 17"><g><path d="M0,0 H17 V17 H0 Z" fill="none"/><path d="M4 3.79a1 1 0 1 1-0.005 0.02L4 3.79z m9.85 7.37l-2-2A0.49 0.49 0 0 0 11.5 9h-0.13l-1.87 0.55V7a0.49 0.49 0 0 0 0.5-0.41 0.5 0.5 0 0 0-0.38-0.59H9.5V3h-0.22v3l-4.46 0.55A1 1 0 0 0 4 7.3a1 1 0 0 0 0 0.43l0.81 3.13a1 1 0 0 0 0.71 0.68c0.151 0.036 0.309 0.036 0.46 0H6l3.29-0.89v1.62l-3 0.74a0.524 0.524 0 0 0 0.31 1 0.946 0.946 0 0 0 0.17 0l4-1a0.522 0.522 0 0 0-0.3-1L10.27 12l-0.77 0.22V10.58l1.83-0.51 1.81 1.78a0.5 0.5 0 1 0 0.72-0.69h-0.01zM9.280000000000001 9.61l-2.07 0.46-0.71-2.74L9.280000000000001 7v2.61z" fill="hsl(160, 80%, 21%)" stroke="hsl(100, 76%, 100%)" stroke-linejoin="round" stroke-miterlimit="4px" stroke-width="2"/><path d="M4 3.79a1 1 0 1 1-0.005 0.02L4 3.79z m9.85 7.37l-2-2A0.49 0.49 0 0 0 11.5 9h-0.13l-1.87 0.55V7a0.49 0.49 0 0 0 0.5-0.41 0.5 0.5 0 0 0-0.38-0.59H9.5V3h-0.22v3l-4.46 0.55A1 1 0 0 0 4 7.3a1 1 0 0 0 0 0.43l0.81 3.13a1 1 0 0 0 0.71 0.68c0.151 0.036 0.309 0.036 0.46 0H6l3.29-0.89v1.62l-3 0.74a0.524 0.524 0 0 0 0.31 1 0.946 0.946 0 0 0 0.17 0l4-1a0.522 0.522 0 0 0-0.3-1L10.27 12l-0.77 0.22V10.58l1.83-0.51 1.81 1.78a0.5 0.5 0 1 0 0.72-0.69h-0.01zM9.280000000000001 9.61l-2.07 0.46-0.71-2.74L9.280000000000001 7v2.61z" fill="hsl(160, 80%, 21%)"/></g></svg>