<svg xmlns="http://www.w3.org/2000/svg" id="playground-15" width="21" height="21" viewBox="0 0 21 21"><g><path d="M0,0 H21 V21 H0 Z" fill="none"/><path d="M5 4.15a1.5 1.5 0 1 1 2.903 0.757A1.5 1.5 0 0 1 5 4.15z m11 11.17a1 1 0 0 1-0.796 1.17H15.2a1 1 0 0 1-1.07-0.49L12.45 12.63 11 12.92l-0.22 0.08h-0.06v2.15l0.62-0.15h0.14a0.52 0.52 0 0 1 0.19 1l-5 1a0.51 0.51 0 0 1-0.17 0 0.52 0.52 0 0 1-0.2-1l4.15-0.83V13l-3.22 0.58a1 1 0 0 1-1.21-0.68H6L5 8.83a1 1 0 0 1 0-0.43 1 1 0 0 1 0.8-0.75l4.7-0.52V3h0.22v4.1h0.06L11 7.08 11.4 7h0.21a0.5 0.5 0 0 1 0.37 0.6 0.49 0.49 0 0 1-0.49 0.4L11 8.08h-0.28v2.86h0.06L11 10.879999999999999l1.81-0.36a1 1 0 0 1 1 0.6l2 3.94a0.999 0.999 0 0 1 0.19 0.26zM10.5 8.129999999999999L8 8.4l0.74 2.94L10.5 11V8.129999999999999z" fill="hsl(160, 80%, 21%)" stroke="hsl(100, 76%, 100%)" stroke-linejoin="round" stroke-miterlimit="4px" stroke-width="2"/><path d="M5 4.15a1.5 1.5 0 1 1 2.903 0.757A1.5 1.5 0 0 1 5 4.15z m11 11.17a1 1 0 0 1-0.796 1.17H15.2a1 1 0 0 1-1.07-0.49L12.45 12.63 11 12.92l-0.22 0.08h-0.06v2.15l0.62-0.15h0.14a0.52 0.52 0 0 1 0.19 1l-5 1a0.51 0.51 0 0 1-0.17 0 0.52 0.52 0 0 1-0.2-1l4.15-0.83V13l-3.22 0.58a1 1 0 0 1-1.21-0.68H6L5 8.83a1 1 0 0 1 0-0.43 1 1 0 0 1 0.8-0.75l4.7-0.52V3h0.22v4.1h0.06L11 7.08 11.4 7h0.21a0.5 0.5 0 0 1 0.37 0.6 0.49 0.49 0 0 1-0.49 0.4L11 8.08h-0.28v2.86h0.06L11 10.879999999999999l1.81-0.36a1 1 0 0 1 1 0.6l2 3.94a0.999 0.999 0 0 1 0.19 0.26zM10.5 8.129999999999999L8 8.4l0.74 2.94L10.5 11V8.129999999999999z" fill="hsl(160, 80%, 21%)"/></g></svg>