<svg xmlns="http://www.w3.org/2000/svg" id="police-15" width="21" height="21" viewBox="0 0 21 21"><g><path d="M0,0 H21 V21 H0 Z" fill="none"/><path d="M8.5 4L9 5h5l0.5-1h-6zM9 5.5v1.25S9 9.5 11.5 9.5 14 6.75 14 6.75V5.5H9zM4.984 6.986000000000001A1 1 0 0 0 4 8v4a1 1 0 0 0 1.217 0.977L8 12.357V17l5.879-6.93c-0.14-0.04-0.284-0.07-0.438-0.07H9.5L6 10.754V8a1 1 0 0 0-1.016-1.014z m9.764 3.725L9.411999999999999 17H15V11.559c0-0.314-0.094-0.604-0.252-0.848z" fill="hsl(236, 6%, 48%)" stroke="hsl(60, 5%, 100%)" stroke-linejoin="round" stroke-miterlimit="4px" stroke-width="2"/><path d="M8.5 4L9 5h5l0.5-1h-6zM9 5.5v1.25S9 9.5 11.5 9.5 14 6.75 14 6.75V5.5H9zM4.984 6.986000000000001A1 1 0 0 0 4 8v4a1 1 0 0 0 1.217 0.977L8 12.357V17l5.879-6.93c-0.14-0.04-0.284-0.07-0.438-0.07H9.5L6 10.754V8a1 1 0 0 0-1.016-1.014z m9.764 3.725L9.411999999999999 17H15V11.559c0-0.314-0.094-0.604-0.252-0.848z" fill="hsl(236, 6%, 48%)"/></g></svg>