<svg xmlns="http://www.w3.org/2000/svg" id="police-11" width="17" height="17" viewBox="0 0 17 17"><g><path d="M0,0 H17 V17 H0 Z" fill="none"/><path d="M7.5 3.5l0.5 1h3l0.5-1h-4zM8 5v1a1.5 1.5 0 0 0 3 0V5H8zM4.75 6C4 6 4 6.75 4 6.75v3a0.75 0.75 0 0 0 0.975 0.715L7 9.826V13l4-5H8s-0.195 0-0.424 0.072L5.5 8.727V6.75S5.5 6 4.75 6z m7.021 2.389L8 13h4V9a0.98 0.98 0 0 0-0.229-0.611z" fill="hsl(236, 6%, 48%)" stroke="hsl(60, 5%, 100%)" stroke-linejoin="round" stroke-miterlimit="4px" stroke-width="2"/><path d="M7.5 3.5l0.5 1h3l0.5-1h-4zM8 5v1a1.5 1.5 0 0 0 3 0V5H8zM4.75 6C4 6 4 6.75 4 6.75v3a0.75 0.75 0 0 0 0.975 0.715L7 9.826V13l4-5H8s-0.195 0-0.424 0.072L5.5 8.727V6.75S5.5 6 4.75 6z m7.021 2.389L8 13h4V9a0.98 0.98 0 0 0-0.229-0.611z" fill="hsl(236, 6%, 48%)"/></g></svg>