<svg xmlns="http://www.w3.org/2000/svg" id="post-15" width="21" height="21" viewBox="0 0 21 21"><g><path d="M0,0 H21 V21 H0 Z" fill="none"/><path d="M17 9.5V15a1 1 0 0 1-1 1H5a1 1 0 0 1-1-1V9.5a0.5 0.5 0 0 1 0.5-0.5 0.49 0.49 0 0 1 0.21 0l5.79 4 5.8-4a0.488 0.488 0 0 1 0.2 0 0.5 0.5 0 0 1 0.5 0.5zM4.25 6.92l0.08 0.08L10.5 11l6.19-4h0.06a0.49 0.49 0 0 0 0.25-0.5 0.5 0.5 0 0 0-0.5-0.5h-12a0.5 0.5 0 0 0-0.5 0.5 0.49 0.49 0 0 0 0.25 0.42z" fill="hsl(236, 6%, 48%)" stroke="hsl(60, 5%, 100%)" stroke-linejoin="round" stroke-miterlimit="4px" stroke-width="2"/><path d="M17 9.5V15a1 1 0 0 1-1 1H5a1 1 0 0 1-1-1V9.5a0.5 0.5 0 0 1 0.5-0.5 0.49 0.49 0 0 1 0.21 0l5.79 4 5.8-4a0.488 0.488 0 0 1 0.2 0 0.5 0.5 0 0 1 0.5 0.5zM4.25 6.92l0.08 0.08L10.5 11l6.19-4h0.06a0.49 0.49 0 0 0 0.25-0.5 0.5 0.5 0 0 0-0.5-0.5h-12a0.5 0.5 0 0 0-0.5 0.5 0.49 0.49 0 0 0 0.25 0.42z" fill="hsl(236, 6%, 48%)"/></g></svg>