<svg xmlns="http://www.w3.org/2000/svg" id="post-11" width="17" height="17" viewBox="0 0 17 17"><g><path d="M0,0 H17 V17 H0 Z" fill="none"/><path d="M13 8.5V12a1 1 0 0 1-1 1H5a1 1 0 0 1-1-1V8.5a0.5 0.5 0 0 1 0.5-0.5 0.49 0.49 0 0 1 0.21 0L8.5 10l3.8-2a0.488 0.488 0 0 1 0.2 0 0.5 0.5 0 0 1 0.5 0.5zM4.25 5.92l0.08 0.08L8.5 8l4.19-2h0.06a0.49 0.49 0 0 0 0.25-0.5 0.5 0.5 0 0 0-0.5-0.5h-8a0.5 0.5 0 0 0-0.5 0.5 0.49 0.49 0 0 0 0.25 0.42z" fill="hsl(236, 6%, 48%)" stroke="hsl(60, 5%, 100%)" stroke-linejoin="round" stroke-miterlimit="4px" stroke-width="2"/><path d="M13 8.5V12a1 1 0 0 1-1 1H5a1 1 0 0 1-1-1V8.5a0.5 0.5 0 0 1 0.5-0.5 0.49 0.49 0 0 1 0.21 0L8.5 10l3.8-2a0.488 0.488 0 0 1 0.2 0 0.5 0.5 0 0 1 0.5 0.5zM4.25 5.92l0.08 0.08L8.5 8l4.19-2h0.06a0.49 0.49 0 0 0 0.25-0.5 0.5 0.5 0 0 0-0.5-0.5h-8a0.5 0.5 0 0 0-0.5 0.5 0.49 0.49 0 0 0 0.25 0.42z" fill="hsl(236, 6%, 48%)"/></g></svg>