<svg xmlns="http://www.w3.org/2000/svg" id="prison-15" width="21" height="21" viewBox="0 0 21 21"><g><path d="M0,0 H21 V21 H0 Z" fill="none"/><path d="M6.5 4v13H15V4H6.5z m6 1H14v3.5H12.5V5z m-5 0.055H9V10H7.5V5.055z m2.5 0h1.5V10H10V5.055zM13.25 9.5a0.75 0.75 0 0 1 0 1.5 0.75 0.75 0 0 1 0-1.5zM10 11h1.473l0.027 5H10.027000000000001L10 11z m-2.5 0.166H9V16H7.5V11.166zM12.5 12H14v4H12.5V12z" fill="hsl(236, 6%, 48%)" stroke="hsl(60, 5%, 100%)" stroke-linejoin="round" stroke-miterlimit="4px" stroke-width="2"/><path d="M6.5 4v13H15V4H6.5z m6 1H14v3.5H12.5V5z m-5 0.055H9V10H7.5V5.055z m2.5 0h1.5V10H10V5.055zM13.25 9.5a0.75 0.75 0 0 1 0 1.5 0.75 0.75 0 0 1 0-1.5zM10 11h1.473l0.027 5H10.027000000000001L10 11z m-2.5 0.166H9V16H7.5V11.166zM12.5 12H14v4H12.5V12z" fill="hsl(236, 6%, 48%)"/></g></svg>