<svg xmlns="http://www.w3.org/2000/svg" id="rail" width="17" height="17" viewBox="0 0 17 17"><g><path d="M2,1 H15 C15,1 16,1 16,2 V15 C16,15 16,16 15,16 H2 C2,16 1,16 1,15 V2 C1,2 1,1 2,1" fill="hsl(230, 54%, 30%)" stroke="hsl(60, 5%, 100%)" stroke-linejoin="round" stroke-miterlimit="4px" stroke-width="2"/><path d="M2,1 H15 C15,1 16,1 16,2 V15 C16,15 16,16 15,16 H2 C2,16 1,16 1,15 V2 C1,2 1,1 2,1" fill="hsl(230, 54%, 30%)"/><path d="M12 13.5a0.5 0.5 0 0 1-0.5 0.5 0.49 0.49 0 0 1-0.43-0.27L10.690000000000001 13H6.3100000000000005l-0.37 0.74A0.5 0.5 0 0 1 5 13.5a0.49 0.49 0 0 1 0.07-0.24l1-2A0.49 0.49 0 0 1 6.5 11a0.5 0.5 0 0 1 0.5 0.7l-0.19 0.3h3.38L10 11.7a0.5 0.5 0 0 1 0.9-0.43l1 2a0.49 0.49 0 0 1 0.1 0.23zM11 3H6a1 1 0 0 0-1 1v5a1 1 0 0 0 1 1h5a1 1 0 0 0 1-1V4a1 1 0 0 0-1-1zM6.5 9a0.5 0.5 0 1 1 0-1 0.5 0.5 0 0 1 0 1z m0-2a0.5 0.5 0 0 1-0.5-0.5v-2a0.5 0.5 0 0 1 0.5-0.5h1.79v3H6.5z m4 2a0.5 0.5 0 1 1 0-1 0.5 0.5 0 0 1 0 1zM11 6.5a0.5 0.5 0 0 1-0.5 0.5H8.690000000000001V4H10.5a0.5 0.5 0 0 1 0.5 0.5v2z" fill="hsl(60, 5%, 100%)"/></g></svg>