<svg xmlns="http://www.w3.org/2000/svg" id="rail-light" width="17" height="17" viewBox="0 0 17 17"><g><path d="M2,1 H15 C15,1 16,1 16,2 V15 C16,15 16,16 15,16 H2 C2,16 1,16 1,15 V2 C1,2 1,1 2,1" fill="hsl(230, 54%, 30%)" stroke="hsl(60, 5%, 100%)" stroke-linejoin="round" stroke-miterlimit="4px" stroke-width="2"/><path d="M2,1 H15 C15,1 16,1 16,2 V15 C16,15 16,16 15,16 H2 C2,16 1,16 1,15 V2 C1,2 1,1 2,1" fill="hsl(230, 54%, 30%)"/><path d="M7 3c-0.5 0-0.5 0.5-0.5 0.5s0 0.5 0.5 0.5h1v0.97L7 5S6 5 6 6v3c0 2 2 2 2 2h1s2 0 2-2V6c0-1-1-1-1-1H9V4h1c0.5 0 0.5-0.5 0.5-0.5S10.5 3 10 3H7z m1.5 3l1.5 0.5V8H7V6.5L8.5 6z m0 3a0.499 0.499 0 1 1 0 1 0.499 0.499 0 1 1 0-1zM5.834 11.5L5 14h1.5l0.334-1h3.332l0.334 1H12l-0.834-2.5H9.668l0.166 0.5H7.166l0.166-0.5H5.834z" fill="hsl(60, 5%, 100%)"/></g></svg>