<svg xmlns="http://www.w3.org/2000/svg" id="rail-metro" width="17" height="17" viewBox="0 0 17 17"><g><path d="M2,1 H15 C15,1 16,1 16,2 V15 C16,15 16,16 15,16 H2 C2,16 1,16 1,15 V2 C1,2 1,1 2,1" fill="hsl(230, 54%, 30%)" stroke="hsl(60, 5%, 100%)" stroke-linejoin="round" stroke-miterlimit="4px" stroke-width="2"/><path d="M2,1 H15 C15,1 16,1 16,2 V15 C16,15 16,16 15,16 H2 C2,16 1,16 1,15 V2 C1,2 1,1 2,1" fill="hsl(230, 54%, 30%)"/><path d="M6.5 3C6 3 6 3.5 6 3.5L5 8v1c0 1.024 1 1 1 1h5s1 0 1-1V8L11 3.5S11 3 10.5 3h-4zM7 4h3l0.5 3h-4L7 4z m-0.5 4a0.5 0.5 0 1 1 0 1 0.5 0.5 0 0 1 0-1z m1.75 0h0.5a0.25 0.25 0 1 1 0 0.5h-0.5a0.25 0.25 0 1 1 0-0.5zM10.5 8a0.5 0.5 0 1 1 0 1 0.5 0.5 0 0 1 0-1zM6 11l-1 3h1.5l0.334-1h3.332l0.334 1H12L11 11H9.5l0.334 1H7.166L7.5 11H6z" fill="hsl(60, 5%, 100%)"/></g></svg>