<svg xmlns="http://www.w3.org/2000/svg" id="ranger-station-11" width="17" height="17" viewBox="0 0 17 17"><g><path d="M0,0 H17 V17 H0 Z" fill="none"/><path d="M9.334 3L8 4v3L4 9.055V13h3V10h3v3h3V9.055L9 7V5.25L9.334 5l1.332 1L12 5V3L10.666 4 9.334 3z" fill="hsl(236, 6%, 48%)" stroke="hsl(60, 5%, 100%)" stroke-linejoin="round" stroke-miterlimit="4px" stroke-width="2"/><path d="M9.334 3L8 4v3L4 9.055V13h3V10h3v3h3V9.055L9 7V5.25L9.334 5l1.332 1L12 5V3L10.666 4 9.334 3z" fill="hsl(236, 6%, 48%)"/></g></svg>