<svg xmlns="http://www.w3.org/2000/svg" id="religious-shinto-11" width="17" height="17" viewBox="0 0 17 17"><g><path d="M0,0 H17 V17 H0 Z" fill="none"/><path d="M12.25 5.009h-7.5a0.75 0.75 0 0 0 0 1.5H5v5.25a0.75 0.75 0 0 0 1.5 0v-2.75h4v2.75a0.75 0.75 0 0 0 1.5 0v-5.25h0.25a0.75 0.75 0 0 0 0-1.5zM10.5 7.759H9v-1.25h1.5z m-4-1.25H8v1.25H6.5z" fill="hsl(236, 6%, 48%)" stroke="hsl(60, 5%, 100%)" stroke-linejoin="round" stroke-miterlimit="4px" stroke-width="2"/><path d="M12.25 5.009h-7.5a0.75 0.75 0 0 0 0 1.5H5v5.25a0.75 0.75 0 0 0 1.5 0v-2.75h4v2.75a0.75 0.75 0 0 0 1.5 0v-5.25h0.25a0.75 0.75 0 0 0 0-1.5zM10.5 7.759H9v-1.25h1.5z m-4-1.25H8v1.25H6.5z" fill="hsl(236, 6%, 48%)"/></g></svg>