<svg xmlns="http://www.w3.org/2000/svg" id="religious-muslim-15" width="21" height="21" viewBox="0 0 21 21"><g><path d="M0,0 H21 V21 H0 Z" fill="none"/><path d="M9.794 3C6 3 3 6 3 9.794s3 6.794 6.794 6.794c2.118 0 4.412-0.706 5.647-2.294-0.794 0.53-2.294 1.147-3.441 1.147-2.912 0-5.118-2.912-5.118-5.823S9.088000000000001 4.148 12 4.148c1.059 0 2.559 0.617 3.441 1.146C14.206 3.706 11.911 3 9.794 3zM14 6l-1 2.5H10L12.5 10l-1 3L14 11.5l2.5 1.5-1-3L18 8.5h-3L14 6z" fill="hsl(236, 6%, 48%)" stroke="hsl(60, 5%, 100%)" stroke-linejoin="round" stroke-miterlimit="4px" stroke-width="2"/><path d="M9.794 3C6 3 3 6 3 9.794s3 6.794 6.794 6.794c2.118 0 4.412-0.706 5.647-2.294-0.794 0.53-2.294 1.147-3.441 1.147-2.912 0-5.118-2.912-5.118-5.823S9.088000000000001 4.148 12 4.148c1.059 0 2.559 0.617 3.441 1.146C14.206 3.706 11.911 3 9.794 3zM14 6l-1 2.5H10L12.5 10l-1 3L14 11.5l2.5 1.5-1-3L18 8.5h-3L14 6z" fill="hsl(236, 6%, 48%)"/></g></svg>