<svg xmlns="http://www.w3.org/2000/svg" id="religious-buddhist-15" width="21" height="21" viewBox="0 0 21 21"><g><path d="M0,0 H21 V21 H0 Z" fill="none"/><path d="M16.497999999999998 9.998999999999999h-0.533a5.463 5.463 0 0 0-1.248-3.01l0.378-0.379a0.5 0.5 0 0 0-0.695-0.719l-0.012 0.012-0.378 0.378a5.464 5.464 0 0 0-3.011-1.248V4.5a0.5 0.5 0 0 0-1 0v0.533a5.464 5.464 0 0 0-3.01 1.248L6.609999999999999 5.9a0.5 0.5 0 0 0-0.707 0.707l0.378 0.377A5.463 5.463 0 0 0 5.034 10H4.5a0.5 0.5 0 0 0 0 1h0.533a5.463 5.463 0 0 0 1.247 3.01l-0.378 0.378a0.5 0.5 0 0 0 0.695 0.72l0.012-0.013 0.378-0.378a5.462 5.462 0 0 0 3.011 1.249v0.533a0.5 0.5 0 0 0 1 0v-0.533a5.463 5.463 0 0 0 3.01-1.249l0.379 0.378a0.5 0.5 0 0 0 0.719-0.695l-0.012-0.012-0.378-0.378A5.464 5.464 0 0 0 15.965 11h0.533a0.5 0.5 0 0 0 0-1z m-5.5-3.948a4.45 4.45 0 0 1 2.293 0.948l-2.15 2.15a1.484 1.484 0 0 0-0.143-0.058v-3.04z m-1 0v3.04a1.484 1.484 0 0 0-0.142 0.058l-2.15-2.15a4.45 4.45 0 0 1 2.293-0.949z m-3 1.655l2.15 2.15A1.484 1.484 0 0 0 9.091999999999999 10H6.05a4.45 4.45 0 0 1 0.948-2.293zM6.05 11h3.041c0.017 0.048 0.036 0.096 0.058 0.143l-2.15 2.15a4.448 4.448 0 0 1-0.949-2.293zM10 14.947a4.45 4.45 0 0 1-2.293-0.949l2.15-2.15c0.047 0.022 0.095 0.041 0.143 0.058v3.041z m1 0v-3.04c0.049-0.017 0.096-0.037 0.143-0.058l2.15 2.15a4.448 4.448 0 0 1-2.293 0.948z m3-1.656l-2.15-2.15c0.022-0.046 0.041-0.094 0.058-0.143h3.041a4.448 4.448 0 0 1-0.95 2.293zM11.907 10a1.484 1.484 0 0 0-0.058-0.143l2.15-2.15a4.45 4.45 0 0 1 0.948 2.292h-3.04z" fill="hsl(236, 6%, 48%)" stroke="hsl(60, 5%, 100%)" stroke-linejoin="round" stroke-miterlimit="4px" stroke-width="2"/><path d="M16.497999999999998 9.998999999999999h-0.533a5.463 5.463 0 0 0-1.248-3.01l0.378-0.379a0.5 0.5 0 0 0-0.695-0.719l-0.012 0.012-0.378 0.378a5.464 5.464 0 0 0-3.011-1.248V4.5a0.5 0.5 0 0 0-1 0v0.533a5.464 5.464 0 0 0-3.01 1.248L6.609999999999999 5.9a0.5 0.5 0 0 0-0.707 0.707l0.378 0.377A5.463 5.463 0 0 0 5.034 10H4.5a0.5 0.5 0 0 0 0 1h0.533a5.463 5.463 0 0 0 1.247 3.01l-0.378 0.378a0.5 0.5 0 0 0 0.695 0.72l0.012-0.013 0.378-0.378a5.462 5.462 0 0 0 3.011 1.249v0.533a0.5 0.5 0 0 0 1 0v-0.533a5.463 5.463 0 0 0 3.01-1.249l0.379 0.378a0.5 0.5 0 0 0 0.719-0.695l-0.012-0.012-0.378-0.378A5.464 5.464 0 0 0 15.965 11h0.533a0.5 0.5 0 0 0 0-1z m-5.5-3.948a4.45 4.45 0 0 1 2.293 0.948l-2.15 2.15a1.484 1.484 0 0 0-0.143-0.058v-3.04z m-1 0v3.04a1.484 1.484 0 0 0-0.142 0.058l-2.15-2.15a4.45 4.45 0 0 1 2.293-0.949z m-3 1.655l2.15 2.15A1.484 1.484 0 0 0 9.091999999999999 10H6.05a4.45 4.45 0 0 1 0.948-2.293zM6.05 11h3.041c0.017 0.048 0.036 0.096 0.058 0.143l-2.15 2.15a4.448 4.448 0 0 1-0.949-2.293zM10 14.947a4.45 4.45 0 0 1-2.293-0.949l2.15-2.15c0.047 0.022 0.095 0.041 0.143 0.058v3.041z m1 0v-3.04c0.049-0.017 0.096-0.037 0.143-0.058l2.15 2.15a4.448 4.448 0 0 1-2.293 0.948z m3-1.656l-2.15-2.15c0.022-0.046 0.041-0.094 0.058-0.143h3.041a4.448 4.448 0 0 1-0.95 2.293zM11.907 10a1.484 1.484 0 0 0-0.058-0.143l2.15-2.15a4.45 4.45 0 0 1 0.948 2.292h-3.04z" fill="hsl(236, 6%, 48%)"/></g></svg>