<svg xmlns="http://www.w3.org/2000/svg" id="religious-shinto-15" width="21" height="21" viewBox="0 0 21 21"><g><path d="M0,0 H21 V21 H0 Z" fill="none"/><path d="M15.5 5.5h-10a0.945 0.945 0 0 0-1 1 0.945 0.945 0 0 0 1 1H6V15a0.945 0.945 0 0 0 1 1 0.945 0.945 0 0 0 1-1V11h5v4a0.945 0.945 0 0 0 1 1 0.945 0.945 0 0 0 1-1V7.5h0.5a0.945 0.945 0 0 0 1-1 0.945 0.945 0 0 0-1-1zM13 9H11V7.5h2zM10 9H8V7.5h2z" fill="hsl(236, 6%, 48%)" stroke="hsl(60, 5%, 100%)" stroke-linejoin="round" stroke-miterlimit="4px" stroke-width="2"/><path d="M15.5 5.5h-10a0.945 0.945 0 0 0-1 1 0.945 0.945 0 0 0 1 1H6V15a0.945 0.945 0 0 0 1 1 0.945 0.945 0 0 0 1-1V11h5v4a0.945 0.945 0 0 0 1 1 0.945 0.945 0 0 0 1-1V7.5h0.5a0.945 0.945 0 0 0 1-1 0.945 0.945 0 0 0-1-1zM13 9H11V7.5h2zM10 9H8V7.5h2z" fill="hsl(236, 6%, 48%)"/></g></svg>