<svg xmlns="http://www.w3.org/2000/svg" id="religious-muslim-11" width="17" height="17" viewBox="0 0 17 17"><g><path d="M0,0 H17 V17 H0 Z" fill="none"/><path d="M7.9 3C5.2 3 3 5.2 3 7.9s2.2 4.9 4.9 4.9c0.9 0 1.7-0.2 2.4-0.6h-0.6c-2.4 0-4.3-1.9-4.3-4.3S7.3 3.6 9.7 3.6h0.6C9.5 3.2 8.8 3 7.9 3z m3.6 2l-0.816 1.7L9 7l1 1.5L9.5 10l2-1 2 1-0.5-1.5L14 7l-1.5-0.3-1-1.7z" fill="hsl(236, 6%, 48%)" stroke="hsl(60, 5%, 100%)" stroke-linejoin="round" stroke-miterlimit="4px" stroke-width="2"/><path d="M7.9 3C5.2 3 3 5.2 3 7.9s2.2 4.9 4.9 4.9c0.9 0 1.7-0.2 2.4-0.6h-0.6c-2.4 0-4.3-1.9-4.3-4.3S7.3 3.6 9.7 3.6h0.6C9.5 3.2 8.8 3 7.9 3z m3.6 2l-0.816 1.7L9 7l1 1.5L9.5 10l2-1 2 1-0.5-1.5L14 7l-1.5-0.3-1-1.7z" fill="hsl(236, 6%, 48%)"/></g></svg>