<svg xmlns="http://www.w3.org/2000/svg" id="religious-buddhist-11" width="17" height="17" viewBox="0 0 17 17"><g><path d="M0,0 H17 V17 H0 Z" fill="none"/><path d="M14.002 8.8v-0.5H12.989a4.474 4.474 0 0 0-1.138-2.746l0.827-0.827-0.354-0.354-0.823 0.827a4.475 4.475 0 0 0-2.75-1.138V3h-0.5v1.062a4.472 4.472 0 0 0-2.7 1.1l-0.876-0.886-0.355 0.352 0.87 0.872a4.478 4.478 0 0 0-1.178 2.8H3v0.5h1.012A4.475 4.475 0 0 0 5.15 11.547l-0.827 0.827 0.354 0.354 0.823-0.827a4.475 4.475 0 0 0 2.75 1.139v0.962h0.5v-0.963A4.476 4.476 0 0 0 11.5 11.896l0.82 0.831 0.355-0.352-0.82-0.834a4.474 4.474 0 0 0 1.134-2.74h1.013z m-1.44-0.5H9.100999999999999l2.448-2.444a4.05 4.05 0 0 1 1.013 2.445zM11.195 5.5L8.751000000000001 7.947V4.489c0.905 0.054 1.766 0.41 2.444 1.011zM8.251000000000001 4.49v3.4L5.85 5.46a4.046 4.046 0 0 1 2.4-0.972zM5.49 5.8100000000000005l2.46 2.49H4.4399999999999995a4.054 4.054 0 0 1 1.052-2.49zM4.4399999999999995 8.8h3.462L5.452 11.246A4.05 4.05 0 0 1 4.4399999999999995 8.801z m1.367 2.8l2.445-2.446V12.61a4.05 4.05 0 0 1-2.445-1.01z m2.945 1.01v-3.5L11.2 11.593a4.05 4.05 0 0 1-2.45 1.02V12.61z m2.8-1.373L9.148 8.8h3.414a4.049 4.049 0 0 1-1.007 2.436h-0.004z" fill="hsl(236, 6%, 48%)" stroke="hsl(60, 5%, 100%)" stroke-linejoin="round" stroke-miterlimit="4px" stroke-width="2"/><path d="M14.002 8.8v-0.5H12.989a4.474 4.474 0 0 0-1.138-2.746l0.827-0.827-0.354-0.354-0.823 0.827a4.475 4.475 0 0 0-2.75-1.138V3h-0.5v1.062a4.472 4.472 0 0 0-2.7 1.1l-0.876-0.886-0.355 0.352 0.87 0.872a4.478 4.478 0 0 0-1.178 2.8H3v0.5h1.012A4.475 4.475 0 0 0 5.15 11.547l-0.827 0.827 0.354 0.354 0.823-0.827a4.475 4.475 0 0 0 2.75 1.139v0.962h0.5v-0.963A4.476 4.476 0 0 0 11.5 11.896l0.82 0.831 0.355-0.352-0.82-0.834a4.474 4.474 0 0 0 1.134-2.74h1.013z m-1.44-0.5H9.100999999999999l2.448-2.444a4.05 4.05 0 0 1 1.013 2.445zM11.195 5.5L8.751000000000001 7.947V4.489c0.905 0.054 1.766 0.41 2.444 1.011zM8.251000000000001 4.49v3.4L5.85 5.46a4.046 4.046 0 0 1 2.4-0.972zM5.49 5.8100000000000005l2.46 2.49H4.4399999999999995a4.054 4.054 0 0 1 1.052-2.49zM4.4399999999999995 8.8h3.462L5.452 11.246A4.05 4.05 0 0 1 4.4399999999999995 8.801z m1.367 2.8l2.445-2.446V12.61a4.05 4.05 0 0 1-2.445-1.01z m2.945 1.01v-3.5L11.2 11.593a4.05 4.05 0 0 1-2.45 1.02V12.61z m2.8-1.373L9.148 8.8h3.414a4.049 4.049 0 0 1-1.007 2.436h-0.004z" fill="hsl(236, 6%, 48%)"/></g></svg>