<svg xmlns="http://www.w3.org/2000/svg" id="restaurant-noodle-15" width="21" height="21" viewBox="0 0 21 21"><g><path d="M0,0 H21 V21 H0 Z" fill="none"/><path d="M7.457 14.99L4 11V10h13v1l-3.496 3.99zM6.9879999999999995 5.5a0.5 0.5 0 0 0-1 0v0.567l-1.797 0.368a0.25 0.25 0 1 0 0.094 0.49l1.703-0.277v0.566l-1.75 0.036a0.25 0.25 0 0 0 0 0.5l1.75 0.036v1.212h1z m9.5 1.5l-7.5 0.263V5.995l7.594-1.074a0.5 0.5 0 0 0-0.188-0.982L8.98 5.455a0.496 0.496 0 0 0-0.99 0.045v0.228l-0.494 0.1v0.352l0.493-0.08v1.197l-0.493 0.01v0.461L16.488 8a0.5 0.5 0 0 0 0-1zM13 16H8v0.576h5z" fill="hsl(232, 20%, 54%)" stroke="hsl(60, 5%, 100%)" stroke-linejoin="round" stroke-miterlimit="4px" stroke-width="2"/><path d="M7.457 14.99L4 11V10h13v1l-3.496 3.99zM6.9879999999999995 5.5a0.5 0.5 0 0 0-1 0v0.567l-1.797 0.368a0.25 0.25 0 1 0 0.094 0.49l1.703-0.277v0.566l-1.75 0.036a0.25 0.25 0 0 0 0 0.5l1.75 0.036v1.212h1z m9.5 1.5l-7.5 0.263V5.995l7.594-1.074a0.5 0.5 0 0 0-0.188-0.982L8.98 5.455a0.496 0.496 0 0 0-0.99 0.045v0.228l-0.494 0.1v0.352l0.493-0.08v1.197l-0.493 0.01v0.461L16.488 8a0.5 0.5 0 0 0 0-1zM13 16H8v0.576h5z" fill="hsl(232, 20%, 54%)"/></g></svg>