<svg xmlns="http://www.w3.org/2000/svg" id="restaurant-noodle-11" width="17" height="17" viewBox="0 0 17 17"><g><path d="M0,0 H17 V17 H0 Z" fill="none"/><path d="M6.468999999999999 11.81L4 9.625V9h9v0.625l-2.484 2.2z m-0.476-7.096a0.332 0.332 0 0 0-0.664 0v0.88l-1.098 0.24a0.25 0.25 0 0 0 0.092 0.491l1.006-0.177v0.432l-1.079 0.022a0.25 0.25 0 1 0 0 0.5l1.079 0.022v1.2h0.664zM12.5 6.352l-0.491 0.193-4.177 0.046v-0.926l4.055-0.788 0.519 0.114a0.5 0.5 0 1 0-0.186-0.982l-0.445 0.271-3.943 0.847v-0.413a0.332 0.332 0 0 0-0.664 0v0.557l-0.626 0.137v0.479l0.626-0.11v0.82l-0.626 0.013v0.486l5.456 0.04 0.502 0.216a0.5 0.5 0 1 0 0-1zM10.530999999999999 12.743H6.452999999999999v0.245h4.078z" fill="hsl(232, 20%, 54%)" stroke="hsl(60, 5%, 100%)" stroke-linejoin="round" stroke-miterlimit="4px" stroke-width="2"/><path d="M6.468999999999999 11.81L4 9.625V9h9v0.625l-2.484 2.2z m-0.476-7.096a0.332 0.332 0 0 0-0.664 0v0.88l-1.098 0.24a0.25 0.25 0 0 0 0.092 0.491l1.006-0.177v0.432l-1.079 0.022a0.25 0.25 0 1 0 0 0.5l1.079 0.022v1.2h0.664zM12.5 6.352l-0.491 0.193-4.177 0.046v-0.926l4.055-0.788 0.519 0.114a0.5 0.5 0 1 0-0.186-0.982l-0.445 0.271-3.943 0.847v-0.413a0.332 0.332 0 0 0-0.664 0v0.557l-0.626 0.137v0.479l0.626-0.11v0.82l-0.626 0.013v0.486l5.456 0.04 0.502 0.216a0.5 0.5 0 1 0 0-1zM10.530999999999999 12.743H6.452999999999999v0.245h4.078z" fill="hsl(232, 20%, 54%)"/></g></svg>