<svg xmlns="http://www.w3.org/2000/svg" id="restaurant-15" width="21" height="21" viewBox="0 0 21 21"><g><path d="M0,0 H21 V21 H0 Z" fill="none"/><path d="M6.5 3l-1 5.5c-0.146 0.805 1.782 1.181 1.75 2L7 17c-0.038 1 1 1 1 1s1.038 0 1-1l-0.25-6.5c-0.031-0.818 1.733-1.18 1.75-2L9.5 3H9l0.25 4-0.75 0.5L8.25 3h-0.5L7.5 7.5 6.75 7 7 3h-0.5zM15 3c-0.736 0-1.964 0.655-2.455 1.637C12.135 5.373 12 7.018 12 8v2.5c0 0.818 1.09 1 1.5 1L13 17c-0.09 0.996 1 1 1 1s1 0 1-1V3z" fill="hsl(232, 20%, 54%)" stroke="hsl(60, 5%, 100%)" stroke-linejoin="round" stroke-miterlimit="4px" stroke-width="2"/><path d="M6.5 3l-1 5.5c-0.146 0.805 1.782 1.181 1.75 2L7 17c-0.038 1 1 1 1 1s1.038 0 1-1l-0.25-6.5c-0.031-0.818 1.733-1.18 1.75-2L9.5 3H9l0.25 4-0.75 0.5L8.25 3h-0.5L7.5 7.5 6.75 7 7 3h-0.5zM15 3c-0.736 0-1.964 0.655-2.455 1.637C12.135 5.373 12 7.018 12 8v2.5c0 0.818 1.09 1 1.5 1L13 17c-0.09 0.996 1 1 1 1s1 0 1-1V3z" fill="hsl(232, 20%, 54%)"/></g></svg>