<svg xmlns="http://www.w3.org/2000/svg" id="restaurant-pizza-11" width="17" height="17" viewBox="0 0 17 17"><g><path d="M0,0 H17 V17 H0 Z" fill="none"/><path d="M4.937 9.507L4.022 9.1A10.038 10.038 0 0 1 9.1 4.022l0.406 0.915a9.033 9.033 0 0 0-4.57 4.57z m7.683 3.44L5.897 9.96a8.03 8.03 0 0 1 4.062-4.062l0.391 0.88a0.748 0.748 0 0 0-0.628 0.732 0.758 0.758 0 0 0 0.757 0.758 0.742 0.742 0 0 0 0.458-0.17l2.01 4.522a0.248 0.248 0 0 1-0.327 0.328zM9.251999999999999 9.496a0.75 0.75 0 1 0-0.75 0.75 0.75 0.75 0 0 0 0.75-0.75zM11.236 10.5a0.74 0.74 0 1 0-0.74 0.74 0.74 0.74 0 0 0 0.74-0.74z" fill="hsl(232, 20%, 54%)" stroke="hsl(60, 5%, 100%)" stroke-linejoin="round" stroke-miterlimit="4px" stroke-width="2"/><path d="M4.937 9.507L4.022 9.1A10.038 10.038 0 0 1 9.1 4.022l0.406 0.915a9.033 9.033 0 0 0-4.57 4.57z m7.683 3.44L5.897 9.96a8.03 8.03 0 0 1 4.062-4.062l0.391 0.88a0.748 0.748 0 0 0-0.628 0.732 0.758 0.758 0 0 0 0.757 0.758 0.742 0.742 0 0 0 0.458-0.17l2.01 4.522a0.248 0.248 0 0 1-0.327 0.328zM9.251999999999999 9.496a0.75 0.75 0 1 0-0.75 0.75 0.75 0.75 0 0 0 0.75-0.75zM11.236 10.5a0.74 0.74 0 1 0-0.74 0.74 0.74 0.74 0 0 0 0.74-0.74z" fill="hsl(232, 20%, 54%)"/></g></svg>