<svg xmlns="http://www.w3.org/2000/svg" id="restaurant-11" width="17" height="17" viewBox="0 0 17 17"><g><path d="M0,0 H17 V17 H0 Z" fill="none"/><path d="M5.25 3l-0.5 3.5c-0.07 0.495 1.24 1.4 1.25 2V14h1V8.5c0-0.6 1.32-1.505 1.25-2L7.75 3h-0.5l0.25 2.75-0.75 0.5V3h-0.5v3.25l-0.75-0.5L5.75 3h-0.5zM12 3C10.5 3 10.006 4.724 10 6v3h1v5h1V3z" fill="hsl(232, 20%, 54%)" stroke="hsl(60, 5%, 100%)" stroke-linejoin="round" stroke-miterlimit="4px" stroke-width="2"/><path d="M5.25 3l-0.5 3.5c-0.07 0.495 1.24 1.4 1.25 2V14h1V8.5c0-0.6 1.32-1.505 1.25-2L7.75 3h-0.5l0.25 2.75-0.75 0.5V3h-0.5v3.25l-0.75-0.5L5.75 3h-0.5zM12 3C10.5 3 10.006 4.724 10 6v3h1v5h1V3z" fill="hsl(232, 20%, 54%)"/></g></svg>