<svg xmlns="http://www.w3.org/2000/svg" id="restaurant-seafood-11" width="17" height="17" viewBox="0 0 17 17"><g><path d="M0,0 H17 V17 H0 Z" fill="none"/><path d="M11.478 10.186h1.494v0.6H11.647A3.386 3.386 0 0 1 12.697 12.33l-0.568 0.193a2.758 2.758 0 0 0-1.26-1.548L9.372 11.991 7.53 11.974l-1.492-0.963a2.748 2.748 0 0 0-1.206 1.513l-0.568-0.193a3.386 3.386 0 0 1 1.051-1.546H3.99v-0.6h1.498a0.539 0.539 0 0 1 0.073-0.08l0.712-0.64-0.7-1.143c-0.014 0-0.024 0.005-0.04 0.005 0 0-1.533 0-1.533-1.444A4.964 4.964 0 0 1 5.5329999999999995 3.9939999999999998L5 6v1h1l0.992-2.006v2a1.423 1.423 0 0 1-0.703 1.159l0.514 0.838 0.132-0.118a2.552 2.552 0 0 1 3.11 0l0.116 0.104 0.514-0.838a1.426 1.426 0 0 1-0.668-1.145v-2L11 7h1V6L11.466 3.9939999999999998a4.968 4.968 0 0 1 1.528 2.889c0 1.444-1.528 1.444-1.528 1.444-0.03 0-0.05-0.008-0.078-0.01L10.690000000000001 9.454l0.673 0.605a0.551 0.551 0 0 1 0.114 0.128z" fill="hsl(232, 20%, 54%)" stroke="hsl(60, 5%, 100%)" stroke-linejoin="round" stroke-miterlimit="4px" stroke-width="2"/><path d="M11.478 10.186h1.494v0.6H11.647A3.386 3.386 0 0 1 12.697 12.33l-0.568 0.193a2.758 2.758 0 0 0-1.26-1.548L9.372 11.991 7.53 11.974l-1.492-0.963a2.748 2.748 0 0 0-1.206 1.513l-0.568-0.193a3.386 3.386 0 0 1 1.051-1.546H3.99v-0.6h1.498a0.539 0.539 0 0 1 0.073-0.08l0.712-0.64-0.7-1.143c-0.014 0-0.024 0.005-0.04 0.005 0 0-1.533 0-1.533-1.444A4.964 4.964 0 0 1 5.5329999999999995 3.9939999999999998L5 6v1h1l0.992-2.006v2a1.423 1.423 0 0 1-0.703 1.159l0.514 0.838 0.132-0.118a2.552 2.552 0 0 1 3.11 0l0.116 0.104 0.514-0.838a1.426 1.426 0 0 1-0.668-1.145v-2L11 7h1V6L11.466 3.9939999999999998a4.968 4.968 0 0 1 1.528 2.889c0 1.444-1.528 1.444-1.528 1.444-0.03 0-0.05-0.008-0.078-0.01L10.690000000000001 9.454l0.673 0.605a0.551 0.551 0 0 1 0.114 0.128z" fill="hsl(232, 20%, 54%)"/></g></svg>