<svg xmlns="http://www.w3.org/2000/svg" id="restaurant-pizza-15" width="21" height="21" viewBox="0 0 21 21"><g><path d="M0,0 H21 V21 H0 Z" fill="none"/><path d="M5.393 11.931l-1.368-0.616A14.048 14.048 0 0 1 11.764 3.999l0.027 0.07 0.511 1.331-0.004 0.001a12.613 12.613 0 0 0-6.905 6.53z m10.963 4.96L6.42 12.414a11.604 11.604 0 0 1 6.354-6.009l0.003-0.001 0.817 2.122c-0.028-0.002-0.052-0.016-0.081-0.016a1.062 1.062 0 1 0 0.764 1.793l2.413 6.273a0.249 0.249 0 0 1-0.334 0.316zM11.426 11.52a0.924 0.924 0 1 0-0.925 0.924 0.924 0.924 0 0 0 0.924-0.925z m3.017 2.03a0.925 0.925 0 1 0-0.926 0.925 0.925 0.925 0 0 0 0.925-0.926z" fill="hsl(232, 20%, 54%)" stroke="hsl(60, 5%, 100%)" stroke-linejoin="round" stroke-miterlimit="4px" stroke-width="2"/><path d="M5.393 11.931l-1.368-0.616A14.048 14.048 0 0 1 11.764 3.999l0.027 0.07 0.511 1.331-0.004 0.001a12.613 12.613 0 0 0-6.905 6.53z m10.963 4.96L6.42 12.414a11.604 11.604 0 0 1 6.354-6.009l0.003-0.001 0.817 2.122c-0.028-0.002-0.052-0.016-0.081-0.016a1.062 1.062 0 1 0 0.764 1.793l2.413 6.273a0.249 0.249 0 0 1-0.334 0.316zM11.426 11.52a0.924 0.924 0 1 0-0.925 0.924 0.924 0.924 0 0 0 0.924-0.925z m3.017 2.03a0.925 0.925 0 1 0-0.926 0.925 0.925 0.925 0 0 0 0.925-0.926z" fill="hsl(232, 20%, 54%)"/></g></svg>