<svg xmlns="http://www.w3.org/2000/svg" id="restaurant-seafood-15" width="21" height="21" viewBox="0 0 21 21"><g><path d="M0,0 H21 V21 H0 Z" fill="none"/><path d="M14.433 13.089h2.49v0.75h-2.07a4.81 4.81 0 0 1 1.622 2.301l-0.71 0.242a4.01 4.01 0 0 0-1.74-2.197 1.778 1.778 0 0 1-1.035 0.454l-1.553 1.346H9.52l-1.535-1.362a2.022 2.022 0 0 1-1.093-0.44 4.01 4.01 0 0 0-1.743 2.199l-0.71-0.242a4.815 4.815 0 0 1 1.622-2.301H3.99v-0.75h2.494l0.863-0.677-1.014-1.655a2.274 2.274 0 0 1-0.27 0.029 2.02 2.02 0 0 1-2.052-2.08c0-2.08 1.979-4.16 1.979-4.16l-0.737 4.447 1.726-0.001L7.99 5.984999999999999v2.996a2.094 2.094 0 0 1-0.699 1.412l0.854 1.394 0.084-0.066a3.867 3.867 0 0 1 4.478 0l0.06 0.047 0.87-1.415a2.118 2.118 0 0 1-0.643-1.372V5.984999999999999l0.983 3.007 1.755 0.001-0.737-4.447s1.982 2.08 1.982 4.16a2.021 2.021 0 0 1-2.056 2.08 2.313 2.313 0 0 1-0.344-0.037l-1.01 1.646 0.84 0.659c0.013 0.01 0.014 0.024 0.025 0.035z" fill="hsl(232, 20%, 54%)" stroke="hsl(60, 5%, 100%)" stroke-linejoin="round" stroke-miterlimit="4px" stroke-width="2"/><path d="M14.433 13.089h2.49v0.75h-2.07a4.81 4.81 0 0 1 1.622 2.301l-0.71 0.242a4.01 4.01 0 0 0-1.74-2.197 1.778 1.778 0 0 1-1.035 0.454l-1.553 1.346H9.52l-1.535-1.362a2.022 2.022 0 0 1-1.093-0.44 4.01 4.01 0 0 0-1.743 2.199l-0.71-0.242a4.815 4.815 0 0 1 1.622-2.301H3.99v-0.75h2.494l0.863-0.677-1.014-1.655a2.274 2.274 0 0 1-0.27 0.029 2.02 2.02 0 0 1-2.052-2.08c0-2.08 1.979-4.16 1.979-4.16l-0.737 4.447 1.726-0.001L7.99 5.984999999999999v2.996a2.094 2.094 0 0 1-0.699 1.412l0.854 1.394 0.084-0.066a3.867 3.867 0 0 1 4.478 0l0.06 0.047 0.87-1.415a2.118 2.118 0 0 1-0.643-1.372V5.984999999999999l0.983 3.007 1.755 0.001-0.737-4.447s1.982 2.08 1.982 4.16a2.021 2.021 0 0 1-2.056 2.08 2.313 2.313 0 0 1-0.344-0.037l-1.01 1.646 0.84 0.659c0.013 0.01 0.014 0.024 0.025 0.035z" fill="hsl(232, 20%, 54%)"/></g></svg>