<svg xmlns="http://www.w3.org/2000/svg" id="ro-national-3" width="78" height="60" viewBox="0 0 26 20"><g><path d="M0,0 H26 V20 H0 Z" fill="none"/><path d="M21,1l4,4a4.76,4.76,0,0,0-1,3,5.1,5.1,0,0,0,.5,2.34,5,5,0,0,1,.5,2.14C25,16,20,17,17,17a4.77,4.77,0,0,0-4,2,4.71,4.71,0,0,0-4-2c-3,0-8-1-8-4.52a5,5,0,0,1,.5-2.14A5.1,5.1,0,0,0,2,8,4.76,4.76,0,0,0,1,5L5,1a15,15,0,0,0,7.82,2H13a15.58,15.58,0,0,0,8-2m0-1a1.07,1.07,0,0,0-.52.14A14.55,14.55,0,0,1,13,2h-.18A14,14,0,0,1,5.56.17,1,1,0,0,0,5,0a1,1,0,0,0-.71.29l-4,4A1,1,0,0,0,.18,5.58,3.72,3.72,0,0,1,1,8,4.22,4.22,0,0,1,.6,9.91,6,6,0,0,0,0,12.48C0,16.84,5.66,18,9,18a3.77,3.77,0,0,1,3.13,1.49A1,1,0,0,0,13,20h0a1,1,0,0,0,.83-.45A3.76,3.76,0,0,1,17,18c7.1,0,9-3.47,9-5.52a6,6,0,0,0-.6-2.57A4.22,4.22,0,0,1,25,8a3.72,3.72,0,0,1,.82-2.42,1,1,0,0,0-.11-1.29l-4-4A1,1,0,0,0,21,0Z" fill="hsl(0, 0%, 100%)"/><path d="M13,3a15.58,15.58,0,0,0,8-2l4,4a4.76,4.76,0,0,0-1,3,5.1,5.1,0,0,0,.5,2.34,5,5,0,0,1,.5,2.14C25,16,20,17,17,17a4.77,4.77,0,0,0-4,2,4.71,4.71,0,0,0-4-2c-3,0-8-1-8-4.52a5,5,0,0,1,.5-2.14A5.1,5.1,0,0,0,2,8,4.76,4.76,0,0,0,1,5L5,1A15.05,15.05,0,0,0,13,3Z" fill="hsl(0, 87%, 59%)"/></g></svg>