<svg xmlns="http://www.w3.org/2000/svg" id="rocket-11" width="17" height="17" viewBox="0 0 17 17"><g><path d="M0,0 H17 V17 H0 Z" fill="none"/><path d="M12 4C10.488 4 8.408000000000001 5.146 7.049 7H6c-0.801 0-1.184 0.367-1.5 1L4 9h2l1 1 1 1v2l1-0.5c0.633-0.316 1-0.699 1-1.5V9.951C11.854 8.591999999999999 13 6.5120000000000005 13 5V4H12zM10.5 6a0.5 0.5 0 1 1 0 1 0.5 0.5 0 0 1 0-1zM5.75 10.25l-0.25 0.25C5 11 5 12 5 12s0.945 0.055 1.5-0.5l0.25-0.25-1-1z" fill="hsl(244, 54%, 36%)" stroke="hsl(244, 20%, 100%)" stroke-linejoin="round" stroke-miterlimit="4px" stroke-width="2"/><path d="M12 4C10.488 4 8.408000000000001 5.146 7.049 7H6c-0.801 0-1.184 0.367-1.5 1L4 9h2l1 1 1 1v2l1-0.5c0.633-0.316 1-0.699 1-1.5V9.951C11.854 8.591999999999999 13 6.5120000000000005 13 5V4H12zM10.5 6a0.5 0.5 0 1 1 0 1 0.5 0.5 0 0 1 0-1zM5.75 10.25l-0.25 0.25C5 11 5 12 5 12s0.945 0.055 1.5-0.5l0.25-0.25-1-1z" fill="hsl(244, 54%, 36%)"/></g></svg>