<svg xmlns="http://www.w3.org/2000/svg" id="rocket-15" width="21" height="21" viewBox="0 0 21 21"><g><path d="M0,0 H21 V21 H0 Z" fill="none"/><path d="M15.555 4C13.41 4 10.533999999999999 5.471 8.602 8H7c-1.157 0-1.82 0.864-2.277 1.777L4.11 11H7l1.5 1.5L10 14V16.889l1.223-0.612C12.136 15.821 13 15.157 13 14V12.398c2.529-1.932 4-4.809 4-6.953V4h-1.445zM13 7a1 1 0 1 1 0 2 1 1 0 1 1 0-2z m-6.5 6l-0.5 0.5c-0.722 0.722-1 2.5-1 2.5s1.698-0.198 2.5-1l0.5-0.5L6.5 13z" fill="hsl(244, 54%, 36%)" stroke="hsl(244, 20%, 100%)" stroke-linejoin="round" stroke-miterlimit="4px" stroke-width="2"/><path d="M15.555 4C13.41 4 10.533999999999999 5.471 8.602 8H7c-1.157 0-1.82 0.864-2.277 1.777L4.11 11H7l1.5 1.5L10 14V16.889l1.223-0.612C12.136 15.821 13 15.157 13 14V12.398c2.529-1.932 4-4.809 4-6.953V4h-1.445zM13 7a1 1 0 1 1 0 2 1 1 0 1 1 0-2z m-6.5 6l-0.5 0.5c-0.722 0.722-1 2.5-1 2.5s1.698-0.198 2.5-1l0.5-0.5L6.5 13z" fill="hsl(244, 54%, 36%)"/></g></svg>