<svg xmlns="http://www.w3.org/2000/svg" id="san-francisco-bart" width="17" height="17" viewBox="0 0 17 17"><g><path d="M2,0 H15 C15,0 17,0 17,2 V15 C17,15 17,17 15,17 H2 C2,17 0,17 0,15 V2 C0,2 0,0 2,0" fill="hsl(30, 7%, 84%)" opacity="0.75"/><path d="M2,1 H15 C15,1 16,1 16,2 V15 C16,15 16,16 15,16 H2 C2,16 1,16 1,15 V2 C1,2 1,1 2,1" fill="hsl(0, 0%, 100%)"/><path d="M13,6v.78a3,3,0,1,0,0,4.44V12h2V6Zm-2,4.5A1.5,1.5,0,1,1,12.5,9,1.5,1.5,0,0,1,11,10.5Z" fill="hsl(230, 57%, 54%)"/><path d="M6,6a3,3,0,0,0-2,.78V4H2v8H4v-.78A3,3,0,1,0,6,6Zm0,4.5A1.5,1.5,0,1,1,7.5,9,1.5,1.5,0,0,1,6,10.5Z" fill="hsl(230, 18%, 13%)"/></g></svg>