<svg xmlns="http://www.w3.org/2000/svg" id="school-15" width="21" height="21" viewBox="0 0 21 21"><g><path d="M0,0 H21 V21 H0 Z" fill="none"/><path d="M14 16v-1h2v-1H12.5v-1H16V12h-2V11h2V10h-2V9h2V8H12.5V7H16V6h-2V5h2V4H11v13h5v-1h-2z m-5-2H5V4h4v10z m0 1l-2 2-2-2h4z" fill="hsl(35, 60%, 34%)" stroke="hsl(35, 35%, 100%)" stroke-linejoin="round" stroke-miterlimit="4px" stroke-width="2"/><path d="M14 16v-1h2v-1H12.5v-1H16V12h-2V11h2V10h-2V9h2V8H12.5V7H16V6h-2V5h2V4H11v13h5v-1h-2z m-5-2H5V4h4v10z m0 1l-2 2-2-2h4z" fill="hsl(35, 60%, 34%)"/></g></svg>