<svg xmlns="http://www.w3.org/2000/svg" id="shoe-15" width="21" height="21" viewBox="0 0 21 21"><g><path d="M0,0 H21 V21 H0 Z" fill="none"/><path d="M12.5 10c-0.414-0.235-0.89-0.596-1.315-0.948L9.01 6.2219999999999995a0.56 0.56 0 0 0-1 0.278H8V8H6.209a0.504 0.504 0 0 1-0.357-0.148S5.5 7 5 7h-0.5a0.5 0.5 0 0 0-0.5 0.5V12h5.5c1.5 0 2 1 3.5 1h4v-0.5C17 11 13.547 10.594000000000001 12.5 10zM12.5 14c-0.632 0-1.047-0.207-1.526-0.447C10.456 13.293 9.868 13 9 13H4v1.5a0.5 0.5 0 0 0 0.5 0.5h4a0.5 0.5 0 0 0 0.5-0.5V14c0.632 0 1.046 0.207 1.526 0.447 0.519 0.26 1.106 0.553 1.974 0.553h4a0.5 0.5 0 0 0 0.5-0.5V14H12.5z" fill="hsl(236, 6%, 48%)" stroke="hsl(60, 5%, 100%)" stroke-linejoin="round" stroke-miterlimit="4px" stroke-width="2"/><path d="M12.5 10c-0.414-0.235-0.89-0.596-1.315-0.948L9.01 6.2219999999999995a0.56 0.56 0 0 0-1 0.278H8V8H6.209a0.504 0.504 0 0 1-0.357-0.148S5.5 7 5 7h-0.5a0.5 0.5 0 0 0-0.5 0.5V12h5.5c1.5 0 2 1 3.5 1h4v-0.5C17 11 13.547 10.594000000000001 12.5 10zM12.5 14c-0.632 0-1.047-0.207-1.526-0.447C10.456 13.293 9.868 13 9 13H4v1.5a0.5 0.5 0 0 0 0.5 0.5h4a0.5 0.5 0 0 0 0.5-0.5V14c0.632 0 1.046 0.207 1.526 0.447 0.519 0.26 1.106 0.553 1.974 0.553h4a0.5 0.5 0 0 0 0.5-0.5V14H12.5z" fill="hsl(236, 6%, 48%)"/></g></svg>