<svg xmlns="http://www.w3.org/2000/svg" id="shoe-11" width="17" height="17" viewBox="0 0 17 17"><g><path d="M0,0 H17 V17 H0 Z" fill="none"/><path d="M10.5 8L8.805 6.9830000000000005 7.8 5.676a0.446 0.446 0 0 0-0.627-0.083 0.442 0.442 0 0 0-0.164 0.392h-0.008V7H5v-0.5a0.5 0.5 0 1 0-1 0V9h3.5C8.5 9 9 10 10 10h3l0.004-0.5C13.004 8.946 10.5 8 10.5 8zM8.527000000000001 10.584C8.117 10.309999999999999 7.651 10 7 10H4v1.47c0 0.293 0.237 0.53 0.53 0.53h1.94A0.53 0.53 0 0 0 7 11.47V11c0.349 0 0.638 0.192 0.973 0.416 0.41 0.274 0.876 0.584 1.527 0.584h3a0.5 0.5 0 0 0 0.5-0.5V11H9.5c-0.349 0-0.638-0.193-0.973-0.416z" fill="hsl(236, 6%, 48%)" stroke="hsl(60, 5%, 100%)" stroke-linejoin="round" stroke-miterlimit="4px" stroke-width="2"/><path d="M10.5 8L8.805 6.9830000000000005 7.8 5.676a0.446 0.446 0 0 0-0.627-0.083 0.442 0.442 0 0 0-0.164 0.392h-0.008V7H5v-0.5a0.5 0.5 0 1 0-1 0V9h3.5C8.5 9 9 10 10 10h3l0.004-0.5C13.004 8.946 10.5 8 10.5 8zM8.527000000000001 10.584C8.117 10.309999999999999 7.651 10 7 10H4v1.47c0 0.293 0.237 0.53 0.53 0.53h1.94A0.53 0.53 0 0 0 7 11.47V11c0.349 0 0.638 0.192 0.973 0.416 0.41 0.274 0.876 0.584 1.527 0.584h3a0.5 0.5 0 0 0 0.5-0.5V11H9.5c-0.349 0-0.638-0.193-0.973-0.416z" fill="hsl(236, 6%, 48%)"/></g></svg>