<svg xmlns="http://www.w3.org/2000/svg" id="shop-11" width="17" height="17" viewBox="0 0 17 17"><g><path d="M0,0 H17 V17 H0 Z" fill="none"/><path d="M12.6 7H11.49L11.2 5.27a1.47 1.47 0 0 0-1.06-1.11A2.799 2.799 0 0 0 9.33 4H7.67a2.798 2.798 0 0 0-0.8 0.14A1.47 1.47 0 0 0 5.8 5.27L5.51 7H4.34a0.37 0.37 0 0 0-0.34 0.49l1.21 4.7c0.135 0.47 0.56 0.799 1.05 0.81h4.48a1.12 1.12 0 0 0 1.06-0.81l1.2-4.7A0.37 0.37 0 0 0 12.6 7zM6.27 7l0.27-1.61a0.68 0.68 0 0 1 0.55-0.52c0.185-0.06 0.376-0.093 0.57-0.1h1.67c0.194 0.007 0.385 0.04 0.57 0.1a0.68 0.68 0 0 1 0.55 0.52L10.73 7H6.27z" fill="hsl(236, 6%, 48%)" stroke="hsl(60, 5%, 100%)" stroke-linejoin="round" stroke-miterlimit="4px" stroke-width="2"/><path d="M12.6 7H11.49L11.2 5.27a1.47 1.47 0 0 0-1.06-1.11A2.799 2.799 0 0 0 9.33 4H7.67a2.798 2.798 0 0 0-0.8 0.14A1.47 1.47 0 0 0 5.8 5.27L5.51 7H4.34a0.37 0.37 0 0 0-0.34 0.49l1.21 4.7c0.135 0.47 0.56 0.799 1.05 0.81h4.48a1.12 1.12 0 0 0 1.06-0.81l1.2-4.7A0.37 0.37 0 0 0 12.6 7zM6.27 7l0.27-1.61a0.68 0.68 0 0 1 0.55-0.52c0.185-0.06 0.376-0.093 0.57-0.1h1.67c0.194 0.007 0.385 0.04 0.57 0.1a0.68 0.68 0 0 1 0.55 0.52L10.73 7H6.27z" fill="hsl(236, 6%, 48%)"/></g></svg>