<svg xmlns="http://www.w3.org/2000/svg" id="shop-15" width="21" height="21" viewBox="0 0 21 21"><g><path d="M0,0 H21 V21 H0 Z" fill="none"/><path d="M16.33 9H14.5l-0.39-2.33A2 2 0 0 0 12.7 5.18 3.76 3.76 0 0 0 11.62 5H9.379999999999999a3.76 3.76 0 0 0-1.08 0.18 2 2 0 0 0-1.41 1.49L6.5 9H4.67a0.5 0.5 0 0 0-0.48 0.65l1.88 6.3A1.5 1.5 0 0 0 7.5 17h6a1.5 1.5 0 0 0 1.42-1.05l1.88-6.3a0.5 0.5 0 0 0-0.47-0.65zM7.52 9l0.36-2.17a0.91 0.91 0 0 1 0.74-0.7c0.246-0.078 0.502-0.121 0.76-0.13h2.24c0.261 0.008 0.52 0.051 0.77 0.13a0.91 0.91 0 0 1 0.74 0.7L13.48 9h-6 0.04z" fill="hsl(236, 6%, 48%)" stroke="hsl(60, 5%, 100%)" stroke-linejoin="round" stroke-miterlimit="4px" stroke-width="2"/><path d="M16.33 9H14.5l-0.39-2.33A2 2 0 0 0 12.7 5.18 3.76 3.76 0 0 0 11.62 5H9.379999999999999a3.76 3.76 0 0 0-1.08 0.18 2 2 0 0 0-1.41 1.49L6.5 9H4.67a0.5 0.5 0 0 0-0.48 0.65l1.88 6.3A1.5 1.5 0 0 0 7.5 17h6a1.5 1.5 0 0 0 1.42-1.05l1.88-6.3a0.5 0.5 0 0 0-0.47-0.65zM7.52 9l0.36-2.17a0.91 0.91 0 0 1 0.74-0.7c0.246-0.078 0.502-0.121 0.76-0.13h2.24c0.261 0.008 0.52 0.051 0.77 0.13a0.91 0.91 0 0 1 0.74 0.7L13.48 9h-6 0.04z" fill="hsl(236, 6%, 48%)"/></g></svg>