<svg xmlns="http://www.w3.org/2000/svg" id="singapore-mrt" width="17" height="17" viewBox="0 0 17 17"><g><path d="M2,0 H15 C15,0 17,0 17,2 V15 C17,15 17,17 15,17 H2 C2,17 0,17 0,15 V2 C0,2 0,0 2,0" fill="hsl(0, 0%, 100%)" opacity="0.75"/><path d="M2,1 H15 C15,1 16,1 16,2 V15 C16,15 16,16 15,16 H2 C2,16 1,16 1,15 V2 C1,2 1,1 2,1" fill="hsl(140, 74%, 37%)"/><path d="M6.5,9C5.45,9,5,8.73,5,8c0-2.16-.12-4,3.5-4S12,5.84,12,8c0,.73-.45,1-1.5,1Zm7-.5c0-2.19-.73-4.71-1.5-5.5S9.37,2,8.5,2,5.83,2.14,5,3,3.5,6.31,3.5,8.5c0,1.06,0,4.5,1,4.5H5L3.5,15H5.67L7,13h3l1.5,2h2L12,13h.5C13.54,13,13.5,9.56,13.5,8.5ZM7,11a1,1,0,1,1-1-1A1,1,0,0,1,7,11Zm5,0a1,1,0,1,1-1-1A1,1,0,0,1,12,11Z" fill="hsl(0, 0%, 100%)"/></g></svg>