<svg xmlns="http://www.w3.org/2000/svg" id="skateboard-11" width="17" height="17" viewBox="0 0 17 17"><g><path d="M0,0 H17 V17 H0 Z" fill="none"/><path d="M11 9H6a2.002 2.002 0 0 1-2-2h1a1.001 1.001 0 0 0 1 1h5a1.001 1.001 0 0 0 1-1h1a2.002 2.002 0 0 1-2 2z m0 1a1 1 0 1 0 1 1 1 1 0 0 0-1-1zM6 10a1 1 0 1 0 1 1 1 1 0 0 0-1-1z" fill="hsl(236, 6%, 48%)" stroke="hsl(60, 5%, 100%)" stroke-linejoin="round" stroke-miterlimit="4px" stroke-width="2"/><path d="M11 9H6a2.002 2.002 0 0 1-2-2h1a1.001 1.001 0 0 0 1 1h5a1.001 1.001 0 0 0 1-1h1a2.002 2.002 0 0 1-2 2z m0 1a1 1 0 1 0 1 1 1 1 0 0 0-1-1zM6 10a1 1 0 1 0 1 1 1 1 0 0 0-1-1z" fill="hsl(236, 6%, 48%)"/></g></svg>