<svg xmlns="http://www.w3.org/2000/svg" id="skateboard-15" width="21" height="21" viewBox="0 0 21 21"><g><path d="M0,0 H21 V21 H0 Z" fill="none"/><path d="M14 11H7a2.002 2.002 0 0 1-2-2h1a1.001 1.001 0 0 0 1 1h7a1.001 1.001 0 0 0 1-1h1a2.002 2.002 0 0 1-2 2z m0 1a1 1 0 1 0 1 1 1 1 0 0 0-1-1zM7 12a1 1 0 1 0 1 1 1 1 0 0 0-1-1z" fill="hsl(236, 6%, 48%)" stroke="hsl(60, 5%, 100%)" stroke-linejoin="round" stroke-miterlimit="4px" stroke-width="2"/><path d="M14 11H7a2.002 2.002 0 0 1-2-2h1a1.001 1.001 0 0 0 1 1h7a1.001 1.001 0 0 0 1-1h1a2.002 2.002 0 0 1-2 2z m0 1a1 1 0 1 0 1 1 1 1 0 0 0-1-1zM7 12a1 1 0 1 0 1 1 1 1 0 0 0-1-1z" fill="hsl(236, 6%, 48%)"/></g></svg>