<svg xmlns="http://www.w3.org/2000/svg" id="skiing-11" width="17" height="17" viewBox="0 0 17 17"><g><path d="M0,0 H17 V17 H0 Z" fill="none"/><path d="M14 6.68a1.09 1.09 0 1 1-2.18-0.008A1.09 1.09 0 0 1 14 6.68zM13.17 12a0.25 0.25 0 0 0-0.33-0.11 1.9 1.9 0 0 1-1.59 0.18L6.6899999999999995 9.809999999999999l1.9-1V6.68l1.09 0.55v2.18L10.77 10l1.09-0.55-1.09-0.59V5.59L8.59 4.5 7.5 5v3.32l-1.9 1-2-1a0.25 0.25 0 1 0-0.22 0.45L11 12.54c0.24 0.101 0.5 0.149 0.76 0.14a2.85 2.85 0 0 0 1.28-0.33 0.25 0.25 0 0 0 0.13-0.35z" fill="hsl(236, 6%, 48%)" stroke="hsl(60, 5%, 100%)" stroke-linejoin="round" stroke-miterlimit="4px" stroke-width="2"/><path d="M14 6.68a1.09 1.09 0 1 1-2.18-0.008A1.09 1.09 0 0 1 14 6.68zM13.17 12a0.25 0.25 0 0 0-0.33-0.11 1.9 1.9 0 0 1-1.59 0.18L6.6899999999999995 9.809999999999999l1.9-1V6.68l1.09 0.55v2.18L10.77 10l1.09-0.55-1.09-0.59V5.59L8.59 4.5 7.5 5v3.32l-1.9 1-2-1a0.25 0.25 0 1 0-0.22 0.45L11 12.54c0.24 0.101 0.5 0.149 0.76 0.14a2.85 2.85 0 0 0 1.28-0.33 0.25 0.25 0 0 0 0.13-0.35z" fill="hsl(236, 6%, 48%)"/></g></svg>