<svg xmlns="http://www.w3.org/2000/svg" id="skiing-15" width="21" height="21" viewBox="0 0 21 21"><g><path d="M0,0 H21 V21 H0 Z" fill="none"/><path d="M18 7.5a1.5 1.5 0 1 1-3 0 1.5 1.5 0 0 1 3 0z m-1.28 7.39a0.25 0.25 0 0 0-0.33-0.11 2.69 2.69 0 0 1-2.28 0.25L7.78 11.86 10.5 10.5v-3l1.5 0.75v3l1.5 0.75 1.5-0.75-1.5-0.75V6l-3-1.5-1.5 0.75v4.5L6.279999999999999 11.11 3.61 9.780000000000001a0.25 0.25 0 1 0-0.22 0.45l10.5 5.25c0.316 0.135 0.657 0.2 1 0.19a3.84 3.84 0 0 0 1.72-0.44 0.25 0.25 0 0 0 0.113-0.335l-0.003-0.005z" fill="hsl(236, 6%, 48%)" stroke="hsl(60, 5%, 100%)" stroke-linejoin="round" stroke-miterlimit="4px" stroke-width="2"/><path d="M18 7.5a1.5 1.5 0 1 1-3 0 1.5 1.5 0 0 1 3 0z m-1.28 7.39a0.25 0.25 0 0 0-0.33-0.11 2.69 2.69 0 0 1-2.28 0.25L7.78 11.86 10.5 10.5v-3l1.5 0.75v3l1.5 0.75 1.5-0.75-1.5-0.75V6l-3-1.5-1.5 0.75v4.5L6.279999999999999 11.11 3.61 9.780000000000001a0.25 0.25 0 1 0-0.22 0.45l10.5 5.25c0.316 0.135 0.657 0.2 1 0.19a3.84 3.84 0 0 0 1.72-0.44 0.25 0.25 0 0 0 0.113-0.335l-0.003-0.005z" fill="hsl(236, 6%, 48%)"/></g></svg>