<svg xmlns="http://www.w3.org/2000/svg" id="slipway-11" width="17" height="17" viewBox="0 0 17 17"><g><path d="M0,0 H17 V17 H0 Z" fill="none"/><path d="M4.042 11l8 1.38V13h-8z m8-4l-1 1v0.625L6.734999999999999 7.01l0.077-0.285 0.86-0.845H8.5a0.35 0.35 0 0 0 0-0.7h-0.971a0.348 0.348 0 0 0-0.245 0.1l-1.03 1.011a0.357 0.357 0 0 0-0.092 0.158l-0.086 0.314L4.042 6C4.095 7 4 8.51 6 8.884 6.9830000000000005 9.07 11.095 10 11.095 10l1.947-2z" fill="hsl(236, 6%, 48%)" stroke="hsl(60, 5%, 100%)" stroke-linejoin="round" stroke-miterlimit="4px" stroke-width="2"/><path d="M4.042 11l8 1.38V13h-8z m8-4l-1 1v0.625L6.734999999999999 7.01l0.077-0.285 0.86-0.845H8.5a0.35 0.35 0 0 0 0-0.7h-0.971a0.348 0.348 0 0 0-0.245 0.1l-1.03 1.011a0.357 0.357 0 0 0-0.092 0.158l-0.086 0.314L4.042 6C4.095 7 4 8.51 6 8.884 6.9830000000000005 9.07 11.095 10 11.095 10l1.947-2z" fill="hsl(236, 6%, 48%)"/></g></svg>