<svg xmlns="http://www.w3.org/2000/svg" id="slipway-15" width="21" height="21" viewBox="0 0 21 21"><g><path d="M0,0 H21 V21 H0 Z" fill="none"/><path d="M4.042 14l12 1.495V16h-12z m12-4l-1 1v0.583L7.238 8.332l0.062-0.125 1.352-1.362h0.831a0.35 0.35 0 0 0 0-0.7h-0.976a0.352 0.352 0 0 0-0.248 0.103L6.763 7.753a0.371 0.371 0 0 0-0.065 0.09l-0.11 0.219L4.043 7c0 2-0.03 3.958 2.86 4.5 1.419 0.266 8.14 1.5 8.14 1.5l2-2z" fill="hsl(236, 6%, 48%)" stroke="hsl(60, 5%, 100%)" stroke-linejoin="round" stroke-miterlimit="4px" stroke-width="2"/><path d="M4.042 14l12 1.495V16h-12z m12-4l-1 1v0.583L7.238 8.332l0.062-0.125 1.352-1.362h0.831a0.35 0.35 0 0 0 0-0.7h-0.976a0.352 0.352 0 0 0-0.248 0.103L6.763 7.753a0.371 0.371 0 0 0-0.065 0.09l-0.11 0.219L4.043 7c0 2-0.03 3.958 2.86 4.5 1.419 0.266 8.14 1.5 8.14 1.5l2-2z" fill="hsl(236, 6%, 48%)"/></g></svg>