<svg xmlns="http://www.w3.org/2000/svg" id="stadium-15" width="21" height="21" viewBox="0 0 21 21"><g><path d="M0,0 H21 V21 H0 Z" fill="none"/><path d="M10 4v4.01c-2.83 0.094-4.998 0.957-5 1.99v4.5c0 1.105 2.462 2 5.5 2s5.5-0.895 5.5-2V10c-0.002-1.034-2.17-1.896-5-1.99v-0.947l3-1.313L10 4zM6 11.146c0.515 0.268 1.201 0.485 2 0.633v2.967c-1.205-0.269-2-0.726-2-1.246V11.146z m9 0.002V13.5c0 0.52-0.795 0.977-2 1.246V11.781c0.799-0.148 1.485-0.366 2-0.633z m-6 0.774a14.68 14.68 0 0 0 3 0.002v2.984c-0.471 0.056-0.971 0.092-1.5 0.092s-1.029-0.036-1.5-0.092V11.922z" fill="hsl(236, 6%, 48%)" stroke="hsl(60, 5%, 100%)" stroke-linejoin="round" stroke-miterlimit="4px" stroke-width="2"/><path d="M10 4v4.01c-2.83 0.094-4.998 0.957-5 1.99v4.5c0 1.105 2.462 2 5.5 2s5.5-0.895 5.5-2V10c-0.002-1.034-2.17-1.896-5-1.99v-0.947l3-1.313L10 4zM6 11.146c0.515 0.268 1.201 0.485 2 0.633v2.967c-1.205-0.269-2-0.726-2-1.246V11.146z m9 0.002V13.5c0 0.52-0.795 0.977-2 1.246V11.781c0.799-0.148 1.485-0.366 2-0.633z m-6 0.774a14.68 14.68 0 0 0 3 0.002v2.984c-0.471 0.056-0.971 0.092-1.5 0.092s-1.029-0.036-1.5-0.092V11.922z" fill="hsl(236, 6%, 48%)"/></g></svg>