<svg xmlns="http://www.w3.org/2000/svg" id="stadium-11" width="17" height="17" viewBox="0 0 17 17"><g><path d="M0,0 H17 V17 H0 Z" fill="none"/><path d="M8 3v3.012c-2.208 0.097-3.912 0.806-4 1.67v3.681C4 12.267 6.013999999999999 13 8.5 13S13 12.267 13 11.363V7.682c-0.088-0.864-1.79-1.574-4-1.67v-0.44L11.5 4.5 8 3zM4.818 8.751999999999999c0.319 0.178 0.72 0.332 1.182 0.453v2.46c-0.75-0.237-1.179-0.568-1.182-0.915V8.751999999999999z m7.364 0.004V10.75c-0.002 0.348-0.43 0.68-1.182 0.916V9.203c0.461-0.12 0.862-0.271 1.182-0.447zM7 9.398a11.066 11.066 0 0 0 3 0v2.493C9.527999999999999 11.962 9.017 12 8.5 12S7.472 11.962 7 11.89V9.399000000000001z" fill="hsl(236, 6%, 48%)" stroke="hsl(60, 5%, 100%)" stroke-linejoin="round" stroke-miterlimit="4px" stroke-width="2"/><path d="M8 3v3.012c-2.208 0.097-3.912 0.806-4 1.67v3.681C4 12.267 6.013999999999999 13 8.5 13S13 12.267 13 11.363V7.682c-0.088-0.864-1.79-1.574-4-1.67v-0.44L11.5 4.5 8 3zM4.818 8.751999999999999c0.319 0.178 0.72 0.332 1.182 0.453v2.46c-0.75-0.237-1.179-0.568-1.182-0.915V8.751999999999999z m7.364 0.004V10.75c-0.002 0.348-0.43 0.68-1.182 0.916V9.203c0.461-0.12 0.862-0.271 1.182-0.447zM7 9.398a11.066 11.066 0 0 0 3 0v2.493C9.527999999999999 11.962 9.017 12 8.5 12S7.472 11.962 7 11.89V9.399000000000001z" fill="hsl(236, 6%, 48%)"/></g></svg>