<svg xmlns="http://www.w3.org/2000/svg" id="suitcase-15" width="21" height="21" viewBox="0 0 21 21"><g><path d="M0,0 H21 V21 H0 Z" fill="none"/><path d="M14 7V5c0-1-1-1-1-1H8.05S6.946 4.002 7 5v2H5S4 7 4 8v7c0 1 1 1 1 1h11s1 0 1-1V8c0-1-1-1-1-1h-2zM8.5 5.5h4V7h-4V5.5z" fill="hsl(236, 6%, 48%)" stroke="hsl(60, 5%, 100%)" stroke-linejoin="round" stroke-miterlimit="4px" stroke-width="2"/><path d="M14 7V5c0-1-1-1-1-1H8.05S6.946 4.002 7 5v2H5S4 7 4 8v7c0 1 1 1 1 1h11s1 0 1-1V8c0-1-1-1-1-1h-2zM8.5 5.5h4V7h-4V5.5z" fill="hsl(236, 6%, 48%)"/></g></svg>