<svg xmlns="http://www.w3.org/2000/svg" id="suitcase-11" width="17" height="17" viewBox="0 0 17 17"><g><path d="M0,0 H17 V17 H0 Z" fill="none"/><path d="M11 6V4.578L10.36 4H6.640000000000001L6 4.748V6H4.5l-0.5 0.5v6l0.5 0.5h8l0.5-0.5v-6L12.5 6H11zM7 5h3v1H7V5z" fill="hsl(236, 6%, 48%)" stroke="hsl(60, 5%, 100%)" stroke-linejoin="round" stroke-miterlimit="4px" stroke-width="2"/><path d="M11 6V4.578L10.36 4H6.640000000000001L6 4.748V6H4.5l-0.5 0.5v6l0.5 0.5h8l0.5-0.5v-6L12.5 6H11zM7 5h3v1H7V5z" fill="hsl(236, 6%, 48%)"/></g></svg>