<svg xmlns="http://www.w3.org/2000/svg" id="swimming-11" width="17" height="17" viewBox="0 0 17 17"><g><path d="M0,0 H17 V17 H0 Z" fill="none"/><path d="M11.004 3.4939999999999998l-0.7 0.502-2.7 1.602c-0.3 0.099-0.4 0.598-0.202 0.898l0.6 1.002-2.5 2 1 1.002 2-1.002L10.504 10.5l1-1.002-3.002-3.502 3.002-1.5V3.4939999999999998h-0.5z m1.002 2.502l0 0zM5 10.998000000000001L3 12v1l2-1 1.5 1 2-1 2 1L12 12l2 1V12L12 10.998000000000001 10.5 12l-2-1.002L6.5 12 5 10.998000000000001z" fill="hsl(236, 6%, 48%)" stroke="hsl(60, 5%, 100%)" stroke-linejoin="round" stroke-miterlimit="4px" stroke-width="2"/><path d="M11.004 3.4939999999999998l-0.7 0.502-2.7 1.602c-0.3 0.099-0.4 0.598-0.202 0.898l0.6 1.002-2.5 2 1 1.002 2-1.002L10.504 10.5l1-1.002-3.002-3.502 3.002-1.5V3.4939999999999998h-0.5z m1.002 2.502l0 0zM5 10.998000000000001L3 12v1l2-1 1.5 1 2-1 2 1L12 12l2 1V12L12 10.998000000000001 10.5 12l-2-1.002L6.5 12 5 10.998000000000001z" fill="hsl(236, 6%, 48%)"/></g></svg>