<svg xmlns="http://www.w3.org/2000/svg" id="swimming-15" width="21" height="21" viewBox="0 0 21 21"><g><path d="M0,0 H21 V21 H0 Z" fill="none"/><path d="M13.111 5c-0.112 0-0.435 0.147-0.435 0.147l-3.322 1.68c-0.443 0.175-0.618 0.881-0.352 1.234l0.97 1.408-3.97 2.029L8 12.998l2.502-1.5 2.5 1.5 1.002-1.002-3-4 2.557-1.53c0.528-0.266 0.443-0.704 0.443-0.97C14 5.286 13.644 5 13.111 5z m2.141 3a1.75 1.75 0 1 0-0.003 3.501A1.75 1.75 0 0 0 15.252 8zM5.5 13L3 14.5V16l2.5-1.5L8 16l2.502-1.5 2.5 1.5L15 14.5l3 1.5v-1.5L15 13l-1.998 1.5-2.5-1.5L8 14.5 5.5 13z" fill="hsl(236, 6%, 48%)" stroke="hsl(60, 5%, 100%)" stroke-linejoin="round" stroke-miterlimit="4px" stroke-width="2"/><path d="M13.111 5c-0.112 0-0.435 0.147-0.435 0.147l-3.322 1.68c-0.443 0.175-0.618 0.881-0.352 1.234l0.97 1.408-3.97 2.029L8 12.998l2.502-1.5 2.5 1.5 1.002-1.002-3-4 2.557-1.53c0.528-0.266 0.443-0.704 0.443-0.97C14 5.286 13.644 5 13.111 5z m2.141 3a1.75 1.75 0 1 0-0.003 3.501A1.75 1.75 0 0 0 15.252 8zM5.5 13L3 14.5V16l2.5-1.5L8 16l2.502-1.5 2.5 1.5L15 14.5l3 1.5v-1.5L15 13l-1.998 1.5-2.5-1.5L8 14.5 5.5 13z" fill="hsl(236, 6%, 48%)"/></g></svg>