<svg xmlns="http://www.w3.org/2000/svg" id="table-tennis-11" width="17" height="17" viewBox="0 0 17 17"><g><path d="M0,0 H17 V17 H0 Z" fill="none"/><path d="M11.593 10.232a2.605 2.605 0 0 1-1.145 0.642L6.115 6.541a2.604 2.604 0 0 1 0.642-1.144C8.318999999999999 3.8449999999999998 10.33 3.439 11.946 5.054c1.605 1.605 1.209 3.627-0.353 5.178zM6 8.253a2.6 2.6 0 0 1-0.013 1.156 2.732 2.732 0 0 1-0.364 0.77c-0.739 0.867-1.573 1.337-1.573 1.648A2.386 2.386 0 0 0 5.173 12.95c0.31 0 0.77-0.802 1.659-1.562a2.518 2.518 0 0 1 0.802-0.396A2.674 2.674 0 0 1 8.725 11z" fill="hsl(236, 6%, 48%)" stroke="hsl(60, 5%, 100%)" stroke-linejoin="round" stroke-miterlimit="4px" stroke-width="2"/><path d="M11.593 10.232a2.605 2.605 0 0 1-1.145 0.642L6.115 6.541a2.604 2.604 0 0 1 0.642-1.144C8.318999999999999 3.8449999999999998 10.33 3.439 11.946 5.054c1.605 1.605 1.209 3.627-0.353 5.178zM6 8.253a2.6 2.6 0 0 1-0.013 1.156 2.732 2.732 0 0 1-0.364 0.77c-0.739 0.867-1.573 1.337-1.573 1.648A2.386 2.386 0 0 0 5.173 12.95c0.31 0 0.77-0.802 1.659-1.562a2.518 2.518 0 0 1 0.802-0.396A2.674 2.674 0 0 1 8.725 11z" fill="hsl(236, 6%, 48%)"/></g></svg>