<svg xmlns="http://www.w3.org/2000/svg" id="table-tennis-15" width="21" height="21" viewBox="0 0 21 21"><g><path d="M0,0 H21 V21 H0 Z" fill="none"/><path d="M14.968 13.227a3.812 3.812 0 0 1-1.913 0.984L6.768 7.934a4.028 4.028 0 0 1 1.005-1.902C10.030000000000001 3.774 12.98 3.224 15.378 5.622s1.848 5.348-0.41 7.605z m-6.987 1.61a3.842 3.842 0 0 1 1.168-0.559A4.533 4.533 0 0 1 11 14.445L6.545999999999999 10a4.413 4.413 0 0 1 0.157 1.922 3.664 3.664 0 0 1-0.521 1.116C5.109999999999999 14.301 4.05 14.765 4.05 15.226a1.838 1.838 0 0 0 1.724 1.724c0.46 0 0.918-1.013 2.207-2.113z" fill="hsl(236, 6%, 48%)" stroke="hsl(60, 5%, 100%)" stroke-linejoin="round" stroke-miterlimit="4px" stroke-width="2"/><path d="M14.968 13.227a3.812 3.812 0 0 1-1.913 0.984L6.768 7.934a4.028 4.028 0 0 1 1.005-1.902C10.030000000000001 3.774 12.98 3.224 15.378 5.622s1.848 5.348-0.41 7.605z m-6.987 1.61a3.842 3.842 0 0 1 1.168-0.559A4.533 4.533 0 0 1 11 14.445L6.545999999999999 10a4.413 4.413 0 0 1 0.157 1.922 3.664 3.664 0 0 1-0.521 1.116C5.109999999999999 14.301 4.05 14.765 4.05 15.226a1.838 1.838 0 0 0 1.724 1.724c0.46 0 0.918-1.013 2.207-2.113z" fill="hsl(236, 6%, 48%)"/></g></svg>