<svg xmlns="http://www.w3.org/2000/svg" id="taipei-metro" width="19" height="19" viewBox="0 0 19 19"><g><path d="M7,19a6.921,6.921,0,0,1-5-2c-1.44-1.44-2-3-2-6V9.5A18.333,18.333,0,0,1,3.78,3.75,12,12,0,0,1,12,0a6.921,6.921,0,0,1,5,2c1.47,1.34,2,3,2,6V9.33a18.856,18.856,0,0,1-3.72,5.92A12,12,0,0,1,7,19Z" fill="hsl(0, 0%, 100%)" opacity="0.75"/><path d="M16.37,2.66C13.58-.13,8.26.68,4.48,4.46A17.667,17.667,0,0,0,1,10v1a6.778,6.778,0,0,0,1.66,5.34c2.78,2.78,8.11,2,11.88-1.8A17.806,17.806,0,0,0,18,9V8A7,7,0,0,0,16.37,2.66Z" fill="hsl(0, 0%, 100%)"/><path d="M0,0 H19 V19 H0 Z" fill="none"/><path d="M1,11a6.778,6.778,0,0,0,1.66,5.34c2.78,2.78,8.11,2,11.88-1.8A17.806,17.806,0,0,0,18,9l-2,1.5a10.075,10.075,0,0,1-1.84,2.64c-3,3-7.23,3.72-9.4,1.55A4.69,4.69,0,0,1,3.5,11Z" fill="hsl(140, 74%, 37%)"/><path d="M18,8a7,7,0,0,0-1.66-5.34C13.56-.13,8.24.68,4.46,4.46A17.651,17.651,0,0,0,1,10L3,8.5A9.683,9.683,0,0,1,4.81,5.81c3-3,7.23-3.72,9.4-1.55A4.722,4.722,0,0,1,15.5,8Z" fill="hsl(230, 57%, 54%)"/><path d="M12,8.5,9.5,11,5,11,5.5,12,9.5,12,11,10.5,12,10.5,10,12.5,6.5,12.5,6.75,12.99,11,13,13.5,10.5,15,10.5,17.5,8.5,12,8.5 Z" fill="hsl(230, 57%, 54%)"/><path d="M7,10.5,9.5,8,14,8,13.5,7,9.5,7,8,8.5,7,8.5,9,6.5,12.5,6.5,12.25,6.01,8,6,5.5,8.5,4,8.5,1.5,10.5,7,10.5 Z" fill="hsl(140, 74%, 37%)"/></g></svg>