<svg xmlns="http://www.w3.org/2000/svg" id="tennis-11" width="17" height="17" viewBox="0 0 17 17"><g><path d="M0,0 H17 V17 H0 Z" fill="none"/><path d="M12.38 4.63c-0.823-0.853-2.768-0.822-4.14 0.61A4.26 4.26 0 0 0 7.05 8a4.15 4.15 0 0 1-0.5 2.07 0.62 0.62 0 0 0-0.67 0.12L4.1899999999999995 11.88a0.61 0.61 0 0 0 0 0.85l0.09 0.09a0.594 0.594 0 0 0 0.84 0.01l0.01-0.01 1.69-1.69a0.6 0.6 0 0 0 0.12-0.67 5.824 5.824 0 0 1 2.21-0.49 3.966 3.966 0 0 0 2.62-1.19c1.32-1.32 1.572-3.152 0.61-4.15zM9.15 9.469999999999999a1.659 1.659 0 0 1-1.17-0.44 1.923 1.923 0 0 1-0.31-1.98l2.28 2.28a2.543 2.543 0 0 1-0.8 0.14z m1.06-0.23L7.77 6.8a3.72 3.72 0 0 1 0.7-1.07l2.81 2.82a3.556 3.556 0 0 1-1.07 0.69z m1.25-0.87L8.64 5.54a3.924 3.924 0 0 1 1.04-0.71h0.01l2.5 2.5a3.578 3.578 0 0 1-0.73 1.04z m0.83-1.29L9.940000000000001 4.72a2.76 2.76 0 0 1 0.92-0.17 1.616 1.616 0 0 1 1.17 0.44 1.716 1.716 0 0 1 0.41 1.52 3 3 0 0 1-0.15 0.57z" fill="hsl(236, 6%, 48%)" stroke="hsl(60, 5%, 100%)" stroke-linejoin="round" stroke-miterlimit="4px" stroke-width="2"/><path d="M12.38 4.63c-0.823-0.853-2.768-0.822-4.14 0.61A4.26 4.26 0 0 0 7.05 8a4.15 4.15 0 0 1-0.5 2.07 0.62 0.62 0 0 0-0.67 0.12L4.1899999999999995 11.88a0.61 0.61 0 0 0 0 0.85l0.09 0.09a0.594 0.594 0 0 0 0.84 0.01l0.01-0.01 1.69-1.69a0.6 0.6 0 0 0 0.12-0.67 5.824 5.824 0 0 1 2.21-0.49 3.966 3.966 0 0 0 2.62-1.19c1.32-1.32 1.572-3.152 0.61-4.15zM9.15 9.469999999999999a1.659 1.659 0 0 1-1.17-0.44 1.923 1.923 0 0 1-0.31-1.98l2.28 2.28a2.543 2.543 0 0 1-0.8 0.14z m1.06-0.23L7.77 6.8a3.72 3.72 0 0 1 0.7-1.07l2.81 2.82a3.556 3.556 0 0 1-1.07 0.69z m1.25-0.87L8.64 5.54a3.924 3.924 0 0 1 1.04-0.71h0.01l2.5 2.5a3.578 3.578 0 0 1-0.73 1.04z m0.83-1.29L9.940000000000001 4.72a2.76 2.76 0 0 1 0.92-0.17 1.616 1.616 0 0 1 1.17 0.44 1.716 1.716 0 0 1 0.41 1.52 3 3 0 0 1-0.15 0.57z" fill="hsl(236, 6%, 48%)"/></g></svg>