<svg xmlns="http://www.w3.org/2000/svg" id="tennis-15" width="21" height="21" viewBox="0 0 21 21"><g><path d="M0,0 H21 V21 H0 Z" fill="none"/><path d="M16.128 4.87c-1.541-1.54-4.553-0.776-6.28 1.05a6.828 6.828 0 0 0-1.88 4.4 5.728 5.728 0 0 1-0.57 2.72 0.681 0.681 0 0 0-0.67 0.17l-2.49 2.5a0.694 0.694 0 0 0 0 0.98l0.07 0.07a0.705 0.705 0 0 0 0.98 0l2.5-2.49a0.683 0.683 0 0 0 0.18-0.66 8.57 8.57 0 0 1 3.12-0.58 6.549 6.549 0 0 0 3.99-1.87c2.03-2.03 2.501-4.84 1.05-6.29z m-2.2-0.04a2.307 2.307 0 0 1 1.64 0.61 2.548 2.548 0 0 1 0.5 2.44l-2.95-2.96a3.865 3.865 0 0 1 0.81-0.09z m-4.57 6.81a2.648 2.648 0 0 1-0.48-2.55l3.04 3.04a2.852 2.852 0 0 1-2.56-0.49z m2.88 0.39l-3.26-3.27a5.162 5.162 0 0 1 0.49-1.08l3.85 3.85a5.51 5.51 0 0 1-1.08 0.5z m1.34-0.66l-3.94-3.95a5.203 5.203 0 0 1 0.74-0.9l4.1 4.1a5.687 5.687 0 0 1-0.9 0.75z m1.11-0.96l-4.1-4.1a5.571 5.571 0 0 1 0.84-0.65l3.92 3.92a5.719 5.719 0 0 1-0.66 0.83z m0.82-1.09L11.698 5.5a4.17 4.17 0 0 1 1.09-0.48l3.2 3.2a5.566 5.566 0 0 1-0.48 1.1z" fill="hsl(236, 6%, 48%)" stroke="hsl(60, 5%, 100%)" stroke-linejoin="round" stroke-miterlimit="4px" stroke-width="2"/><path d="M16.128 4.87c-1.541-1.54-4.553-0.776-6.28 1.05a6.828 6.828 0 0 0-1.88 4.4 5.728 5.728 0 0 1-0.57 2.72 0.681 0.681 0 0 0-0.67 0.17l-2.49 2.5a0.694 0.694 0 0 0 0 0.98l0.07 0.07a0.705 0.705 0 0 0 0.98 0l2.5-2.49a0.683 0.683 0 0 0 0.18-0.66 8.57 8.57 0 0 1 3.12-0.58 6.549 6.549 0 0 0 3.99-1.87c2.03-2.03 2.501-4.84 1.05-6.29z m-2.2-0.04a2.307 2.307 0 0 1 1.64 0.61 2.548 2.548 0 0 1 0.5 2.44l-2.95-2.96a3.865 3.865 0 0 1 0.81-0.09z m-4.57 6.81a2.648 2.648 0 0 1-0.48-2.55l3.04 3.04a2.852 2.852 0 0 1-2.56-0.49z m2.88 0.39l-3.26-3.27a5.162 5.162 0 0 1 0.49-1.08l3.85 3.85a5.51 5.51 0 0 1-1.08 0.5z m1.34-0.66l-3.94-3.95a5.203 5.203 0 0 1 0.74-0.9l4.1 4.1a5.687 5.687 0 0 1-0.9 0.75z m1.11-0.96l-4.1-4.1a5.571 5.571 0 0 1 0.84-0.65l3.92 3.92a5.719 5.719 0 0 1-0.66 0.83z m0.82-1.09L11.698 5.5a4.17 4.17 0 0 1 1.09-0.48l3.2 3.2a5.566 5.566 0 0 1-0.48 1.1z" fill="hsl(236, 6%, 48%)"/></g></svg>