<svg xmlns="http://www.w3.org/2000/svg" id="th-highway-3" width="78" height="69" viewBox="0 0 26 23"><g><path d="M0,0 H26 V23 H0 Z" fill="none"/><path d="M23,1a2,2,0,0,1,2,2V17a2,2,0,0,1-2,2H3a2,2,0,0,1-2-2V3A2,2,0,0,1,3,1H23m0-1H3A3.0034,3.0034,0,0,0,0,3V17a3.0034,3.0034,0,0,0,3,3H23a3.0034,3.0034,0,0,0,3-3V3a3.0034,3.0034,0,0,0-3-3Z" fill="hsl(230, 18%, 13%)"/><path d="M3,1 H23 C23,1 25,1 25,3 V17 C25,17 25,19 23,19 H3 C3,19 1,19 1,17 V3 C1,3 1,1 3,1" fill="hsl(0, 0%, 100%)"/><path d="M15.0434,2.0238a.6587.6587,0,0,0-.2484-.2733s-.0083.0786-.0083.2008a1.19,1.19,0,0,1,0,.42,1.883,1.883,0,0,1-.1408.3314,1.57,1.57,0,0,1-.116.1905s-.2568-.0912-.2982-.1988a.1836.1836,0,0,0-.1491-.1159s-.058.1988-.0331.2319a1.0238,1.0238,0,0,0,.2319.1988c.0994.0579.0166.0248-.0331.1242a.5574.5574,0,0,1-.3065.265,2.7643,2.7643,0,0,1-.3065.0746c-.1491.0083-.0745-.1159-.0994-.1243a1.2518,1.2518,0,0,0-.1408-.0165l.0911-.2567s-.2134-.2622-.2733-.3645A4.1137,4.1137,0,0,1,13,2.129a4.1137,4.1137,0,0,1-.2129.5823c-.06.1023-.2733.3645-.2733.3645l.0911.2567a1.2518,1.2518,0,0,0-.1408.0165c-.0249.0084.05.1326-.0994.1243a2.7643,2.7643,0,0,1-.3065-.0746.5574.5574,0,0,1-.3065-.265c-.05-.0994-.1325-.0663-.0331-.1242a1.0238,1.0238,0,0,0,.2319-.1988c.0249-.0331-.0331-.2319-.0331-.2319a.1836.1836,0,0,0-.1491.1159c-.0414.1076-.2982.1988-.2982.1988a1.5559,1.5559,0,0,1-.116-.1905,1.883,1.883,0,0,1-.1408-.3314,1.19,1.19,0,0,1,0-.42c0-.1222-.0083-.2008-.0083-.2008a.6587.6587,0,0,0-.2484.2733,2.3333,2.3333,0,0,0-.1326.762,3.6666,3.6666,0,0,0,.2071.8283,1.77,1.77,0,0,0,.3479.53l.3645.2237a.2742.2742,0,0,0-.0994.207c0,.1325.1822.2816.24.34s.36.2112.4058.2568-.0165.0994-.0165.0994L12,5.4365s-.2236-.2321-.3147-.3231-.203.0455-.2485.091-.0166.1772.0579.1772a.4619.4619,0,0,1,.2568.1211c.058.0579.2071.207.2071.2515s-.029.1253,0,.1543.0756-.0487.1574-.13-.0331-.176-.0331-.176l.323-.1822a.2551.2551,0,0,0,.0414.1822c.058.0579.1067.1252.1574.176A2.6385,2.6385,0,0,0,13,5.9666a2.6385,2.6385,0,0,0,.3951-.1885c.0507-.0508.0994-.1181.1574-.176a.2551.2551,0,0,0,.0414-.1822l.323.1822s-.1149.0942-.0331.176.1284.1595.1574.13,0-.11,0-.1543.1491-.1936.2071-.2515a.4619.4619,0,0,1,.2567-.1211c.0746,0,.1036-.1316.058-.1772s-.1574-.1821-.2485-.091S14,5.4365,14,5.4365l-.2734-.1657s-.0621-.0539-.0165-.0994.3479-.1989.4058-.2568.24-.2072.24-.34a.2742.2742,0,0,0-.0994-.207l.3645-.2237a1.77,1.77,0,0,0,.3479-.53,3.6666,3.6666,0,0,0,.2071-.8283A2.3333,2.3333,0,0,0,15.0434,2.0238Z" fill="hsl(230, 18%, 13%)"/></g></svg>