<svg xmlns="http://www.w3.org/2000/svg" id="theatre-15" width="21" height="21" viewBox="0 0 21 21"><g><path d="M0,0 H21 V21 H0 Z" fill="none"/><path d="M5 4S4 4 4 5v5.158C4 11.888 4.354 14 7.5 14H8V11L5.5 12s0-2.5 2.5-2.5V8c0-0.708 0.087-1.32 0.5-1.775 0.381-0.42 1.005-1.258 2.656-0.471L12 6.303V5s0-1-1-1c-0.708 0-1.978 1-3 1S5.787 4 5 4z m1 2a1 1 0 1 1 0 2 1 1 0 0 1 0-2z m4 1S9 7 9 8v5c0 2 1 4 4 4s4-2 4-4V8c0-1-1-1-1-1-0.708 0-1.978 1-3 1S10.786999999999999 7 10 7z m1 2a1 1 0 1 1 0 2 1 1 0 0 1 0-2z m4 0a1 1 0 1 1 0 2 1 1 0 0 1 0-2z m-4.5 4h5s0 2.5-2.5 2.5S10.5 13 10.5 13z" fill="hsl(236, 6%, 48%)" stroke="hsl(60, 5%, 100%)" stroke-linejoin="round" stroke-miterlimit="4px" stroke-width="2"/><path d="M5 4S4 4 4 5v5.158C4 11.888 4.354 14 7.5 14H8V11L5.5 12s0-2.5 2.5-2.5V8c0-0.708 0.087-1.32 0.5-1.775 0.381-0.42 1.005-1.258 2.656-0.471L12 6.303V5s0-1-1-1c-0.708 0-1.978 1-3 1S5.787 4 5 4z m1 2a1 1 0 1 1 0 2 1 1 0 0 1 0-2z m4 1S9 7 9 8v5c0 2 1 4 4 4s4-2 4-4V8c0-1-1-1-1-1-0.708 0-1.978 1-3 1S10.786999999999999 7 10 7z m1 2a1 1 0 1 1 0 2 1 1 0 0 1 0-2z m4 0a1 1 0 1 1 0 2 1 1 0 0 1 0-2z m-4.5 4h5s0 2.5-2.5 2.5S10.5 13 10.5 13z" fill="hsl(236, 6%, 48%)"/></g></svg>