<svg xmlns="http://www.w3.org/2000/svg" id="theatre-11" width="17" height="17" viewBox="0 0 17 17"><g><path d="M0,0 H17 V17 H0 Z" fill="none"/><path d="M3.606 3.7C3.303 3.7 3 4.0009999999999994 3 4.304v3.734C3 9.452 3.578 11 6 11h0.5V9.184000000000001l-2.29-0.008s0.304-1.137 1.817-1.137c0.303 0 0.404 0 0.606 0.102V6.727c0-0.606 0.202-1.008 0.605-1.31C7.541 5.112 7.79 5 8.394 5H9v-0.605c0-0.303-0.197-0.659-0.5-0.659-0.606 0-1.16 0.569-2.473 0.569-1.009 0-1.816-0.606-2.421-0.606zM4.75 5.5a0.75 0.75 0 1 1 0 1.5 0.75 0.75 0 0 1 0-1.5zM8.5 6c-0.303 0-0.555 0.424-0.555 0.727V10.46c0 1.413 0.606 3.027 3.028 3.027S14 11.773 14 10.461V6.727c0-0.303-0.197-0.727-0.5-0.727-0.605 0-1.592 0.5-2.5 0.5S9.106 6 8.5 6z m1.25 2a0.75 0.75 0 1 1 0 1.5 0.75 0.75 0 0 1 0-1.5z m2.5 0a0.75 0.75 0 1 1 0 1.5 0.75 0.75 0 0 1 0-1.5zM9.155999999999999 11.066h3.735s-0.303 1.211-1.817 1.211-1.918-1.21-1.918-1.21z" fill="hsl(236, 6%, 48%)" stroke="hsl(60, 5%, 100%)" stroke-linejoin="round" stroke-miterlimit="4px" stroke-width="2"/><path d="M3.606 3.7C3.303 3.7 3 4.0009999999999994 3 4.304v3.734C3 9.452 3.578 11 6 11h0.5V9.184000000000001l-2.29-0.008s0.304-1.137 1.817-1.137c0.303 0 0.404 0 0.606 0.102V6.727c0-0.606 0.202-1.008 0.605-1.31C7.541 5.112 7.79 5 8.394 5H9v-0.605c0-0.303-0.197-0.659-0.5-0.659-0.606 0-1.16 0.569-2.473 0.569-1.009 0-1.816-0.606-2.421-0.606zM4.75 5.5a0.75 0.75 0 1 1 0 1.5 0.75 0.75 0 0 1 0-1.5zM8.5 6c-0.303 0-0.555 0.424-0.555 0.727V10.46c0 1.413 0.606 3.027 3.028 3.027S14 11.773 14 10.461V6.727c0-0.303-0.197-0.727-0.5-0.727-0.605 0-1.592 0.5-2.5 0.5S9.106 6 8.5 6z m1.25 2a0.75 0.75 0 1 1 0 1.5 0.75 0.75 0 0 1 0-1.5z m2.5 0a0.75 0.75 0 1 1 0 1.5 0.75 0.75 0 0 1 0-1.5zM9.155999999999999 11.066h3.735s-0.303 1.211-1.817 1.211-1.918-1.21-1.918-1.21z" fill="hsl(236, 6%, 48%)"/></g></svg>