<svg xmlns="http://www.w3.org/2000/svg" id="toilet-11" width="17" height="17" viewBox="0 0 17 17"><g><path d="M0,0 H17 V17 H0 Z" fill="none"/><path d="M6.33 5.1899999999999995a1.1 1.1 0 1 1 1.1-1.1 1.1 1.1 0 0 1-1.1 1.1z m6.94-1.1a1.1 1.1 0 1 0 0 0.01v-0.01zM9.51 7.93L7.7 6.12A0.37 0.37 0 0 0 7.43 6H5.220000000000001a0.37 0.37 0 0 0-0.25 0.1H5L3.14 7.93a0.38 0.38 0 1 0 0.53 0.53l1.58-1.58L3.77 11h1.46v2.51a0.38 0.38 0 0 0 0.75 0.11H6V11h0.69v2.63a0.38 0.38 0 0 0 0.75-0.11V11h1.44L7.41 6.88 9 8.46a0.37 0.37 0 0 0 0.28 0.12c0.21 0 0.38-0.17 0.38-0.38a0.37 0.37 0 0 0-0.15-0.27zM11.62 10v3.63a0.37 0.37 0 1 0 0.73 0V10H14V6.37a0.37 0.37 0 0 0-0.37-0.37H10.71a0.37 0.37 0 0 0-0.37 0.37V10h1.28z" fill="hsl(236, 6%, 48%)" stroke="hsl(60, 5%, 100%)" stroke-linejoin="round" stroke-miterlimit="4px" stroke-width="2"/><path d="M6.33 5.1899999999999995a1.1 1.1 0 1 1 1.1-1.1 1.1 1.1 0 0 1-1.1 1.1z m6.94-1.1a1.1 1.1 0 1 0 0 0.01v-0.01zM9.51 7.93L7.7 6.12A0.37 0.37 0 0 0 7.43 6H5.220000000000001a0.37 0.37 0 0 0-0.25 0.1H5L3.14 7.93a0.38 0.38 0 1 0 0.53 0.53l1.58-1.58L3.77 11h1.46v2.51a0.38 0.38 0 0 0 0.75 0.11H6V11h0.69v2.63a0.38 0.38 0 0 0 0.75-0.11V11h1.44L7.41 6.88 9 8.46a0.37 0.37 0 0 0 0.28 0.12c0.21 0 0.38-0.17 0.38-0.38a0.37 0.37 0 0 0-0.15-0.27zM11.62 10v3.63a0.37 0.37 0 1 0 0.73 0V10H14V6.37a0.37 0.37 0 0 0-0.37-0.37H10.71a0.37 0.37 0 0 0-0.37 0.37V10h1.28z" fill="hsl(236, 6%, 48%)"/></g></svg>