<svg xmlns="http://www.w3.org/2000/svg" id="toilet-15" width="21" height="21" viewBox="0 0 21 21"><g><path d="M0,0 H21 V21 H0 Z" fill="none"/><path d="M7.5 6a1.5 1.5 0 1 1 0-3 1.5 1.5 0 0 1 0 3zM17 4.5a1.5 1.5 0 1 0-3 0 1.5 1.5 0 0 0 3 0zM11.86 9.64L9.379999999999999 7.15A0.51 0.51 0 0 0 9 7H6a0.51 0.51 0 0 0-0.35 0.14L3.14 9.629999999999999a0.52 0.52 0 1 0 0.73 0.73L6 8.2 4 14h2v3.33a0.503 0.503 0 0 0 0 0.15 0.51 0.51 0 0 0 1 0V14h1v3.5a0.51 0.51 0 0 0 1 0 0.503 0.503 0 0 0 0-0.15V14h2L9 8.2l2.14 2.16a0.51 0.51 0 0 0 0.38 0.17A0.52 0.52 0 0 0 12 10a0.51 0.51 0 0 0-0.14-0.36zM17.5 7h-4a0.5 0.5 0 0 0-0.5 0.5v5a0.5 0.5 0 0 0 1 0v5a0.5 0.5 0 0 0 1 0v-5h1v5a0.5 0.5 0 0 0 1 0v-5a0.5 0.5 0 0 0 1 0v-5a0.5 0.5 0 0 0-0.5-0.5z" fill="hsl(236, 6%, 48%)" stroke="hsl(60, 5%, 100%)" stroke-linejoin="round" stroke-miterlimit="4px" stroke-width="2"/><path d="M7.5 6a1.5 1.5 0 1 1 0-3 1.5 1.5 0 0 1 0 3zM17 4.5a1.5 1.5 0 1 0-3 0 1.5 1.5 0 0 0 3 0zM11.86 9.64L9.379999999999999 7.15A0.51 0.51 0 0 0 9 7H6a0.51 0.51 0 0 0-0.35 0.14L3.14 9.629999999999999a0.52 0.52 0 1 0 0.73 0.73L6 8.2 4 14h2v3.33a0.503 0.503 0 0 0 0 0.15 0.51 0.51 0 0 0 1 0V14h1v3.5a0.51 0.51 0 0 0 1 0 0.503 0.503 0 0 0 0-0.15V14h2L9 8.2l2.14 2.16a0.51 0.51 0 0 0 0.38 0.17A0.52 0.52 0 0 0 12 10a0.51 0.51 0 0 0-0.14-0.36zM17.5 7h-4a0.5 0.5 0 0 0-0.5 0.5v5a0.5 0.5 0 0 0 1 0v5a0.5 0.5 0 0 0 1 0v-5h1v5a0.5 0.5 0 0 0 1 0v-5a0.5 0.5 0 0 0 1 0v-5a0.5 0.5 0 0 0-0.5-0.5z" fill="hsl(236, 6%, 48%)"/></g></svg>