<svg xmlns="http://www.w3.org/2000/svg" id="tokyo-metro" width="17" height="17" viewBox="0 0 17 17"><g><path d="M2,0 H15 C15,0 17,0 17,2 V15 C17,15 17,17 15,17 H2 C2,17 0,17 0,15 V2 C0,2 0,0 2,0" fill="hsl(0, 0%, 100%)" opacity="0.75"/><path d="M2,1 H15 C15,1 16,1 16,2 V15 C16,15 16,16 15,16 H2 C2,16 1,16 1,15 V2 C1,2 1,1 2,1" fill="hsl(180, 54%, 42%)"/><path d="M8.48,11a1,1,0,0,1-.87-1,4,4,0,0,1,.87-2,4,4,0,0,1,.9,2A1,1,0,0,1,8.48,11Zm0,1c1.45,0,2.1-.65,2.1-1.49,0-1-1-2.21-1.65-3,1.17-1.23,2.81-2.07,3.41-1.37s.81,3.2-.84,5.86l2.1,1c1.73-3.87,1.8-7.78.53-8.78-1-.8-3.75.77-5.63,2.78C6.61,5,3.83,3.42,2.84,4.22c-1.27,1-1.12,4.94.63,8.78l2-1C3.85,9.34,3.91,7,4.62,6.15S6.83,6.29,8,7.53c-.64.76-1.65,2-1.65,3C6.37,11.34,7,12,8.5,12Z" fill="hsl(0, 0%, 100%)"/></g></svg>