<svg xmlns="http://www.w3.org/2000/svg" id="town-hall-11" width="17" height="17" viewBox="0 0 17 17"><g><path d="M0,0 H17 V17 H0 Z" fill="none"/><path d="M8.5 3L4 5v1h9V5L8.5 3zM5 7v4L4 12v1h9V12L12 11V7H5z m1 1h1v3H6V8z m2 0h1v3H8V8z m2 0h1v3H10V8z" fill="hsl(236, 6%, 48%)" stroke="hsl(60, 5%, 100%)" stroke-linejoin="round" stroke-miterlimit="4px" stroke-width="2"/><path d="M8.5 3L4 5v1h9V5L8.5 3zM5 7v4L4 12v1h9V12L12 11V7H5z m1 1h1v3H6V8z m2 0h1v3H8V8z m2 0h1v3H10V8z" fill="hsl(236, 6%, 48%)"/></g></svg>