<svg xmlns="http://www.w3.org/2000/svg" id="town-hall-15" width="21" height="21" viewBox="0 0 21 21"><g><path d="M0,0 H21 V21 H0 Z" fill="none"/><path d="M10.5 3L4 6.445V7h13v-0.555L10.5 3zM5 8v5l-1 1.555V16h13v-1.445L16 13V8H5z m2 1h1v5.5H7V9z m3 0h1v5.5H10V9z m3 0h1v5.5h-1V9z" fill="hsl(236, 6%, 48%)" stroke="hsl(60, 5%, 100%)" stroke-linejoin="round" stroke-miterlimit="4px" stroke-width="2"/><path d="M10.5 3L4 6.445V7h13v-0.555L10.5 3zM5 8v5l-1 1.555V16h13v-1.445L16 13V8H5z m2 1h1v5.5H7V9z m3 0h1v5.5H10V9z m3 0h1v5.5h-1V9z" fill="hsl(236, 6%, 48%)"/></g></svg>