<svg xmlns="http://www.w3.org/2000/svg" id="tr-motorway-5" width="114" height="48" viewBox="0 0 38 16"><g><path d="M0,0 H38 V16 H0 Z" fill="none"/><path d="M18.7187,1,34.75,3A2.2982,2.2982,0,0,1,37,5v6a2.2982,2.2982,0,0,1-2.25,2L18.7187,15,3.25,13A2.2982,2.2982,0,0,1,1,11V5A2.2982,2.2982,0,0,1,3.25,3L18.7187,1M18.7165-.008l-.126.0162L3.1788,2.0009A3.2994,3.2994,0,0,0,0,5v6a3.2994,3.2994,0,0,0,3.1788,2.9991l15.4117,1.9926.126.0163.126-.0157,15.9762-1.9931A3.3,3.3,0,0,0,38,11V5a3.3,3.3,0,0,0-3.1813-2.9992L18.8425.0077l-.126-.0157Z" fill="hsl(230, 18%, 13%)"/><path d="M18.7187,1,34.75,3A2.2982,2.2982,0,0,1,37,5v6a2.2982,2.2982,0,0,1-2.25,2L18.7187,15,3.25,13A2.2982,2.2982,0,0,1,1,11V5A2.2982,2.2982,0,0,1,3.25,3Z" fill="hsl(25, 100%, 63%)"/></g></svg>