<svg xmlns="http://www.w3.org/2000/svg" id="tr-motorway-6" width="132" height="48" viewBox="0 0 44 16"><g><path d="M-0.0625,0 H43.9375 V16 H-0.0625 Z" fill="none"/><path d="M21.6719,1,40.375,3C41.6875,3,43,4,43,5v6c0,1-1.3125,2-2.625,2L21.6719,15,3.625,13C2.3125,13,1,12,1,11V5C1,4,2.3125,3,3.625,3L21.6719,1M21.67-.0059l-.1083.012L3.5655,2.0005C1.6919,2.03,0,3.4464,0,5v6C0,12.5536,1.6919,13.97,3.5655,14l17.9962,1.9944.1083.012.1082-.0116L40.4324,14C42.3069,13.9712,44,12.5543,44,11V5c0-1.5543-1.6931-2.9712-3.5676-3L21.7782.0057,21.67-.0059Z" fill="hsl(230, 18%, 13%)"/><path d="M21.6719,1,40.375,3C41.6875,3,43,4,43,5v6c0,1-1.3125,2-2.625,2L21.6719,15,3.625,13C2.3125,13,1,12,1,11V5C1,4,2.3125,3,3.625,3Z" fill="hsl(25, 100%, 63%)"/></g></svg>