<svg xmlns="http://www.w3.org/2000/svg" id="traffic-signal" width="24" height="51" viewBox="0 0 8 17"><g><path d="M3,0.994 H5 C5,0.994 7,0.994 7,2.9939999999999998 V13.994 C7,13.994 7,15.994 5,15.994 H3 C3,15.994 1,15.994 1,13.994 V2.9939999999999998 C1,2.9939999999999998 1,0.994 3,0.994" fill="hsl(0, 0%, 100%)"/><path d="M4,12.877 m-1.625,0 a1.625,1.625 0 1,0 3.25,0 a1.625,1.625 0 1,0 -3.25,0" fill="hsl(180, 54%, 42%)"/><path d="M4,8.508 m-1.625,0 a1.625,1.625 0 1,0 3.25,0 a1.625,1.625 0 1,0 -3.25,0" fill="hsl(50, 100%, 70%)"/><path d="M4,4.138 m-1.625,0 a1.625,1.625 0 1,0 3.25,0 a1.625,1.625 0 1,0 -3.25,0" fill="hsl(0, 87%, 59%)"/><path d="M5,1A2,2,0,0,1,7,3V14a2,2,0,0,1-2,2H3a2,2,0,0,1-2-2V3A2,2,0,0,1,3,1H5M5,0H3A3,3,0,0,0,0,3V14a3,3,0,0,0,3,3H5a3,3,0,0,0,3-3V3A3,3,0,0,0,5,0Z" fill="hsl(30, 7%, 84%)"/></g></svg>