<svg xmlns="http://www.w3.org/2000/svg" id="tw-county-township-4" width="96" height="60" viewBox="0 0 32 20"><g><path d="M0,0 H32 V20 H0 Z" fill="none"/><path d="M29,1a2,2,0,0,1,2,2V17a2,2,0,0,1-2,2H3a2,2,0,0,1-2-2V3A2,2,0,0,1,3,1H29m0-1H3A3,3,0,0,0,0,3V17a3,3,0,0,0,3,3H29a3,3,0,0,0,3-3V3a3,3,0,0,0-3-3Z" fill="hsl(230, 18%, 13%)"/><path d="M3,1 H29 C29,1 31,1 31,3 V17 C31,17 31,19 29,19 H3 C3,19 1,19 1,17 V3 C1,3 1,1 3,1" fill="hsl(0, 0%, 100%)"/><path d="M3,1 H29 C29,1 31,1 31,3 V17 C31,17 31,19 29,19 H3 C3,19 1,19 1,17 V3 C1,3 1,1 3,1" fill="hsl(0, 0%, 100%)"/></g></svg>