<svg xmlns="http://www.w3.org/2000/svg" id="tw-national-2" width="63" height="66" viewBox="0 0 21 22"><g><path d="M0,0 H21 V22 H0 Z" fill="none"/><path d="M10.5,1a3.7,3.7,0,0,1,3.69,3.71,3.57,3.57,0,0,1-.26,1.35,3.62,3.62,0,0,1,1.23-.69,3.83,3.83,0,0,1,1.15-.18,3.71,3.71,0,0,1,1.14,7.23,4,4,0,0,1-.76.16,3.62,3.62,0,0,1,.49.54,3.71,3.71,0,1,1-6.68,2.69,3.66,3.66,0,0,1-.66,1.66,3.71,3.71,0,0,1-6-4.35,3.62,3.62,0,0,1,.49-.54,4,4,0,0,1-.76-.16A3.71,3.71,0,0,1,4.69,5.19a3.83,3.83,0,0,1,1.15.18,3.62,3.62,0,0,1,1.23.69,3.57,3.57,0,0,1-.26-1.35A3.7,3.7,0,0,1,10.5,1m0-1A4.71,4.71,0,0,0,5.82,4.33a4.32,4.32,0,0,0-1.13-.14,4.7,4.7,0,0,0-2.05,8.93A4.72,4.72,0,0,0,6.83,20a4.76,4.76,0,0,0,3.67-1.74A4.76,4.76,0,0,0,14.17,20a4.71,4.71,0,0,0,4.19-6.88,4.7,4.7,0,0,0-2.05-8.93,4.32,4.32,0,0,0-1.13.14A4.71,4.71,0,0,0,10.5,0Z" fill="hsl(140, 74%, 37%)"/><path d="M19.82,7.75a3.7,3.7,0,0,0-4.66-2.38,3.62,3.62,0,0,0-1.23.69,3.57,3.57,0,0,0,.26-1.35,3.69,3.69,0,1,0-7.38,0,3.57,3.57,0,0,0,.26,1.35,3.62,3.62,0,0,0-1.23-.69,3.71,3.71,0,0,0-2.29,7.05,4,4,0,0,0,.76.16,3.62,3.62,0,0,0-.49.54,3.68,3.68,0,0,0,.83,5.17,3.72,3.72,0,0,0,5.19-.82,3.66,3.66,0,0,0,.66-1.66,3.66,3.66,0,0,0,.66,1.66,3.72,3.72,0,0,0,5.19.82,3.68,3.68,0,0,0,.83-5.17,3.62,3.62,0,0,0-.49-.54,4,4,0,0,0,.76-.16A3.71,3.71,0,0,0,19.82,7.75Z" fill="hsl(0, 0%, 100%)"/></g></svg>