<svg xmlns="http://www.w3.org/2000/svg" id="tw-provincial-expy-2" width="66" height="72" viewBox="0 0 22 24"><g><path d="M0,0 H22 V24 H0 Z" fill="none"/><path d="M11,3a20.07,20.07,0,0,1,7.51,1.45A4.22,4.22,0,0,1,21,9a21,21,0,0,1-7.62,13.14,3.72,3.72,0,0,1-4.66,0A21,21,0,0,1,1.05,9,4.22,4.22,0,0,1,3.49,4.45,20,20,0,0,1,11,3m0-1A20.87,20.87,0,0,0,3.11,3.53a5.21,5.21,0,0,0-3,5.67A21.86,21.86,0,0,0,8.05,23,4.7,4.7,0,0,0,14,23a21.86,21.86,0,0,0,8-13.76,5.21,5.21,0,0,0-3-5.67A20.87,20.87,0,0,0,11,2Z" fill="hsl(0, 0%, 100%)"/><path d="M13.33,22.18A21,21,0,0,0,21,9a4.22,4.22,0,0,0-2.44-4.59,20.21,20.21,0,0,0-15,0A4.22,4.22,0,0,0,1.05,9,21,21,0,0,0,8.67,22.18,3.73,3.73,0,0,0,13.33,22.18Z" fill="hsl(0, 87%, 59%)"/></g></svg>