<svg xmlns="http://www.w3.org/2000/svg" id="tw-provincial-expy-3" width="84" height="72" viewBox="0 0 28 24"><g><path d="M0,0 H28 V24 H0 Z" fill="none"/><path d="M14,3c3.71,0,7.41.59,9.79,1.78,2.1,1.06,3.37,2.57,3.17,4.51-.5,4.71-4.75,9.79-9.94,12.9a6.11,6.11,0,0,1-6.08,0C5.77,19.08,1.52,14,1,9.29.82,7.35,2.08,5.83,4.19,4.78,6.6,3.59,10.32,3,14,3m0-1A24.58,24.58,0,0,0,3.75,3.89C1.11,5.19-.21,7.15,0,9.39c.51,4.81,4.6,10.17,10.42,13.66a7.11,7.11,0,0,0,7.1,0C23.37,19.56,27.46,14.2,28,9.39c.24-2.23-1.08-4.18-3.72-5.5A24.25,24.25,0,0,0,14,2Z" fill="hsl(0, 0%, 100%)"/><path d="M17,22.19C22.23,19.08,26.48,14,27,9.29c.2-1.94-1.07-3.45-3.17-4.51C19.05,2.41,9,2.41,4.19,4.78,2.08,5.83.82,7.35,1,9.29,1.52,14,5.77,19.08,11,22.19A6.11,6.11,0,0,0,17,22.19Z" fill="hsl(0, 87%, 59%)"/></g></svg>