<svg xmlns="http://www.w3.org/2000/svg" id="us-bia-2" width="60" height="60" viewBox="0 0 20 20"><g><path d="M0.04,0 H20.04 V20 H0.04 Z" fill="none"/><path d="M16.4,1.51V2l-1.73.87a1.16,1.16,0,0,0-.56,1.49,1.18,1.18,0,0,0,1.08.72A1.24,1.24,0,0,0,15.72,5l1.58-.79,1.81,2.6c-.07,8.71-9,11.71-9,11.71s-9-3-9-11.71l1.8-2.6L4.43,5A1.24,1.24,0,0,0,5,5.1,1.18,1.18,0,0,0,6,4.38a1.16,1.16,0,0,0-.56-1.49L3.75,2V1.51H16.4m0-1H3.75a1,1,0,0,0-1,1V2a1,1,0,0,0,.55.9L5,3.78A.19.19,0,0,1,5.12,4,.19.19,0,0,1,5,4.1l-.08,0L3.29,3.29a1,1,0,0,0-.44-.1A1,1,0,0,0,2,3.62L.22,6.22A1,1,0,0,0,0,6.79c0,9.32,9.62,12.62,9.72,12.66a1.12,1.12,0,0,0,.31.05,1.13,1.13,0,0,0,.32-.05c.1,0,9.64-3.34,9.72-12.65a1,1,0,0,0-.18-.58l-1.8-2.6a1,1,0,0,0-.83-.43,1,1,0,0,0-.44.1l-1.59.79-.08,0A.18.18,0,0,1,15,4a.18.18,0,0,1,.08-.22l1.74-.86A1,1,0,0,0,17.4,2V1.51a1,1,0,0,0-1-1Z" fill="hsl(230, 18%, 13%)"/><path d="M17.3,4.19,15.72,5a1.18,1.18,0,0,1-1.61-.6h0a1.16,1.16,0,0,1,.56-1.49L16.4,2V1.51H3.75V2l1.73.87A1.16,1.16,0,0,1,6,4.38H6A1.18,1.18,0,0,1,4.43,5L2.84,4.19,1,6.79c0,8.71,9,11.71,9,11.71s9-3,9-11.71Z" fill="hsl(0, 0%, 100%)"/></g></svg>