<svg xmlns="http://www.w3.org/2000/svg" id="us-bia-3" width="78" height="60" viewBox="0 0 26 20"><g><path d="M0,0 H26 V20 H0 Z" fill="none"/><path d="M22.26,1.5V2l-1.74.87A1.22,1.22,0,0,0,20,4.43v0a1.12,1.12,0,0,0,1,.69A1,1,0,0,0,21.45,5l1.73-.85L25,6.78C25,16.5,13,18.5,13,18.5S1,16.5,1,6.78l1.82-2.6L4.55,5A1,1,0,0,0,5,5.14a1.12,1.12,0,0,0,1-.69v0a1.22,1.22,0,0,0-.55-1.55L3.74,2V1.5H22.26m0-1H3.74a1,1,0,0,0-1,1V2a1,1,0,0,0,.55.9L5,3.77A.22.22,0,0,1,5.1,4c0,.08-.07.1-.09.1L3.27,3.28A1,1,0,0,0,2,3.61L.18,6.21A1,1,0,0,0,0,6.78C0,17.23,12.71,19.47,12.84,19.49h.32C13.29,19.47,26,17.23,26,6.78a1,1,0,0,0-.18-.57L24,3.61a1,1,0,0,0-1.27-.33L21,4.13h0s-.07,0-.1-.08A.24.24,0,0,1,21,3.77l1.75-.86a1,1,0,0,0,.55-.9V1.5a1,1,0,0,0-1-1Z" fill="hsl(230, 18%, 13%)"/><path d="M23.18,4.18,21.45,5A1.08,1.08,0,0,1,20,4.45v0a1.22,1.22,0,0,1,.55-1.55L22.26,2V1.5H3.74V2l1.74.87A1.22,1.22,0,0,1,6,4.43v0A1.08,1.08,0,0,1,4.55,5L2.82,4.18,1,6.78C1,16.5,13,18.5,13,18.5s12-2,12-11.72Z" fill="hsl(0, 0%, 100%)"/></g></svg>