<svg xmlns="http://www.w3.org/2000/svg" id="us-bia-4" width="90" height="60" viewBox="0 0 30 20"><g><path d="M0,0 H30 V20 H0 Z" fill="none"/><path d="M26.43,1.5V2l-1.65.86a1.23,1.23,0,0,0-.52,1.53v0a1.06,1.06,0,0,0,1,.7A1,1,0,0,0,25.69,5l1.59-.84L29,6.79C29,17,15,18.5,15,18.5S1,17,1,6.79L2.72,4.18,4.31,5a1,1,0,0,0,.45.11,1.06,1.06,0,0,0,1-.7v0a1.23,1.23,0,0,0-.52-1.53L3.57,2V1.5H26.43m0-1H3.57a1,1,0,0,0-1,1V2a1,1,0,0,0,.54.88l1.65.87a.24.24,0,0,1,0,.27.21.21,0,0,1-.06.09L3.18,3.3a1,1,0,0,0-.46-.12,1,1,0,0,0-.84.45L.16,6.24A1,1,0,0,0,0,6.79c0,11,14.74,12.69,14.89,12.71h.22C15.26,19.48,30,17.77,30,6.79a1,1,0,0,0-.16-.55L28.12,3.63a1,1,0,0,0-.84-.45,1,1,0,0,0-.46.12l-1.59.83s0,0,0-.07a.25.25,0,0,1,0-.29l1.65-.87A1,1,0,0,0,27.43,2V1.5a1,1,0,0,0-1-1Z" fill="hsl(230, 18%, 13%)"/><path d="M27.28,4.18,25.69,5a1,1,0,0,1-1.42-.59v0a1.23,1.23,0,0,1,.52-1.53L26.43,2V1.5H3.57V2l1.65.86a1.23,1.23,0,0,1,.52,1.53v0A1,1,0,0,1,4.31,5L2.72,4.18,1,6.79C1,17,15,18.5,15,18.5S29,17,29,6.79Z" fill="hsl(0, 0%, 100%)"/></g></svg>