<svg xmlns="http://www.w3.org/2000/svg" id="us-highway-duplex-4" width="96" height="60" viewBox="0 0 32 20"><g><path d="M0,0 H32 V20 H0 Z" fill="none"/><path d="M28,1l3,2.5c-.78.76-2.19,2.06-1,4.5s1.69,5-.5,7.33c-1.44,1.53-6.07,1.6-7.5,1.67h-.24c-.48,0-1.2-.05-2-.05-1.49,0-3.18.16-3.78,1-.6-.89-2.24-1.05-3.7-1.05-.82,0-1.58.05-2.07.05H10c-1.43-.07-6.06-.14-7.5-1.67C.31,13,.81,10.45,2,8S1.78,4.26,1,3.5L4,1a14,14,0,0,0,6,1.5A14.52,14.52,0,0,0,16,1a14.73,14.73,0,0,0,6,1.5A14.39,14.39,0,0,0,28,1m0-1a.93.93,0,0,0-.46.12A13.58,13.58,0,0,1,22,1.5,14,14,0,0,1,16.45.11,1,1,0,0,0,16,0a1.07,1.07,0,0,0-.46.11A13.71,13.71,0,0,1,10,1.5,13,13,0,0,1,4.47.12,1,1,0,0,0,4,0a1,1,0,0,0-.64.23l-3,2.5A1,1,0,0,0,0,3.46a1,1,0,0,0,.3.76l0,0C1.1,5,2,5.82,1.11,7.56,0,9.75-1,13,1.77,16c1.4,1.49,4.56,1.82,7.76,2L10,18h.28c.22,0,.5,0,.81,0s.81,0,1.26,0c2.22,0,2.75.43,2.87.61A1,1,0,0,0,16,19h0a1,1,0,0,0,.83-.44c.09-.14.58-.6,3-.6.42,0,.83,0,1.19,0l.79,0h.29l.42,0c3.2-.14,6.36-.47,7.76-2,2.83-3,1.74-6.27.67-8.46-.85-1.74,0-2.57.76-3.3l0,0a1,1,0,0,0,.3-.76,1,1,0,0,0-.36-.73l-3-2.5A1,1,0,0,0,28,0Z" fill="hsl(230, 18%, 13%)"/><path d="M10,17c1.16.06,5-.47,6,1,1-1.44,4.84-.94,6-1,1.43-.07,6.06-.14,7.5-1.67C31.69,13,31.2,10.45,30,8s.22-3.74,1-4.5L28,1a14.39,14.39,0,0,1-6,1.5A14.73,14.73,0,0,1,16,1a14.52,14.52,0,0,1-6,1.5A14,14,0,0,1,4,1L1,3.5c.78.76,2.2,2.06,1,4.5s-1.7,5,.49,7.33C3.94,16.86,8.57,16.93,10,17Z" fill="hsl(0, 0%, 100%)"/></g></svg>