<svg xmlns="http://www.w3.org/2000/svg" id="us-highway-bypass-3" width="78" height="114" viewBox="0 0 26 38"><g><path d="M0,0 H26 V38 H0 Z" fill="none"/><path d="M8.5,26c1.16.06,3.77.16,4.5,1,.74-.84,3.35-.94,4.5-1,1.43-.07,4.57-.14,6-1.67C25.69,22,25.2,19.45,24,17s.22-3.74,1-4.5L22,10a6.82,6.82,0,0,1-4.49,1.5A7,7,0,0,1,13,10a7,7,0,0,1-4.5,1.5A6.94,6.94,0,0,1,4,10L1,12.5c.78.76,2.2,2.06,1,4.5s-1.7,5,.5,7.33C3.94,25.86,7.07,25.93,8.5,26Z" fill="hsl(0, 0%, 100%)"/><path d="M22,10l3,2.5c-.78.76-2.19,2.06-1,4.5s1.69,5-.5,7.33c-1.43,1.53-4.57,1.6-6,1.67-1.15.06-3.76.16-4.5,1-.73-.84-3.34-.94-4.5-1-1.43-.07-4.56-.14-6-1.67C.31,22,.81,19.45,2,17s-.23-3.74-1-4.5L4,10a6.94,6.94,0,0,0,4.5,1.5A7,7,0,0,0,13,10a7,7,0,0,0,4.5,1.5A6.82,6.82,0,0,0,22,10m0-1a1,1,0,0,0-.71.3,6,6,0,0,1-3.78,1.2,6.05,6.05,0,0,1-3.79-1.21A1,1,0,0,0,13,9h0a1,1,0,0,0-.71.3A6.13,6.13,0,0,1,8.5,10.5,6,6,0,0,1,4.72,9.3,1,1,0,0,0,4,9a1,1,0,0,0-.64.23l-3,2.5a1,1,0,0,0,0,1.49l0,0c.76.73,1.61,1.56.76,3.3C0,18.75-1,22,1.78,25c1.63,1.74,4.75,1.89,6.42,2h.37c2.82.15,3.52.48,3.68.66A1,1,0,0,0,13,28h0a1,1,0,0,0,.75-.34c.17-.18.87-.51,3.69-.66h.37c1.67-.08,4.79-.23,6.42-2,2.83-3,1.74-6.27.67-8.46-.85-1.74,0-2.57.76-3.3l0,0a1,1,0,0,0,.3-.76,1,1,0,0,0-.36-.73l-3-2.5A1,1,0,0,0,22,9Z" fill="hsl(230, 18%, 13%)"/><path d="M.92,0H25.08A.87.87,0,0,1,26,.86V7.14a.88.88,0,0,1-.92.86H.92A.88.88,0,0,1,0,7.14V.86A.88.88,0,0,1,.92,0Z" fill="hsl(0, 0%, 100%)"/><path d="M5.05,5.27A3.5,3.5,0,0,1,5,6.1a1.32,1.32,0,0,1-.3.51,1.18,1.18,0,0,1-.47.28,2.06,2.06,0,0,1-.71.1H2V1H3.5a2.75,2.75,0,0,1,.7.08,1.16,1.16,0,0,1,.46.29A1.06,1.06,0,0,1,5,1.85,2.47,2.47,0,0,1,5,2.6,2.47,2.47,0,0,1,5,3.17a1.09,1.09,0,0,1-.28.47.53.53,0,0,1-.14.12.91.91,0,0,1-.17.09,1.72,1.72,0,0,1,.33.22,1,1,0,0,1,.27.5A2.8,2.8,0,0,1,5.05,5.27Zm-1-2.61A1,1,0,0,0,3.94,2a.63.63,0,0,0-.53-.19H2.94V3.48h.47a.64.64,0,0,0,.53-.2A1,1,0,0,0,4.09,2.66Zm0,2.55a1.12,1.12,0,0,0-.17-.72.62.62,0,0,0-.54-.22H2.94V6.14H3.4a.65.65,0,0,0,.54-.21A1.12,1.12,0,0,0,4.11,5.21ZM7.4,4.64V7H6.46V4.64L5.3,1h1l.59,2.37L7.52,1h1ZM8.2,5V4.14H9.9V5Zm5.21-2.16a2.15,2.15,0,0,1-.36,1.38,1.44,1.44,0,0,1-1.18.43h-.56V7h-.94V1h1.5a1.42,1.42,0,0,1,1.18.44A2.15,2.15,0,0,1,13.41,2.83Zm-.94,0a1.63,1.63,0,0,0-.13-.72.5.5,0,0,0-.5-.26h-.53V3.79h.53a.5.5,0,0,0,.5-.25A1.55,1.55,0,0,0,12.47,2.83ZM16.2,7,16,5.8H14.57L14.33,7h-1l1.47-6h.92l1.45,6Zm-.93-4.54L14.75,5h1Zm5.4,2.88a3.4,3.4,0,0,1-.08.78,1.09,1.09,0,0,1-.31.54,1.45,1.45,0,0,1-.47.29,2.11,2.11,0,0,1-.7.1A1.6,1.6,0,0,1,18,6.65a1.32,1.32,0,0,1-.3-.51,3.25,3.25,0,0,1-.08-.77h.94a2.06,2.06,0,0,0,0,.39.57.57,0,0,0,.14.28.56.56,0,0,0,.17.11.67.67,0,0,0,.26,0A.59.59,0,0,0,19.57,6a.56.56,0,0,0,.12-.27,1.41,1.41,0,0,0,0-.39c0-.16,0-.29,0-.4a.79.79,0,0,0-.09-.26.58.58,0,0,0-.17-.18,1.11,1.11,0,0,0-.29-.15l-.71-.29a1.79,1.79,0,0,1-.39-.21,1,1,0,0,1-.25-.29,1.22,1.22,0,0,1-.14-.42,2.54,2.54,0,0,1-.05-.59,2.05,2.05,0,0,1,.12-.72,1.22,1.22,0,0,1,.37-.54,1.42,1.42,0,0,1,.45-.27A1.7,1.7,0,0,1,19.13,1a1.52,1.52,0,0,1,1.08.36,1.22,1.22,0,0,1,.32.55,2.39,2.39,0,0,1,.1.75h-.94a1.86,1.86,0,0,0,0-.36A.65.65,0,0,0,19.54,2a.49.49,0,0,0-.42-.18.6.6,0,0,0-.24.05.48.48,0,0,0-.16.12.87.87,0,0,0-.16.59,1.42,1.42,0,0,0,0,.31.44.44,0,0,0,.07.21.38.38,0,0,0,.15.16.9.9,0,0,0,.26.13l.7.28a1.9,1.9,0,0,1,.45.25.92.92,0,0,1,.27.32,1.55,1.55,0,0,1,.15.46A5.79,5.79,0,0,1,20.67,5.33Zm3.71,0a3.4,3.4,0,0,1-.08.78,1,1,0,0,1-.31.54,1.45,1.45,0,0,1-.47.29,2,2,0,0,1-.69.1,1.58,1.58,0,0,1-1.16-.39,1.12,1.12,0,0,1-.3-.51,2.76,2.76,0,0,1-.09-.77h.94a1.41,1.41,0,0,0,0,.39.56.56,0,0,0,.13.28.71.71,0,0,0,.17.11.68.68,0,0,0,.27,0A.57.57,0,0,0,23.28,6a.68.68,0,0,0,.13-.27,2.06,2.06,0,0,0,0-.39c0-.16,0-.29,0-.4a.5.5,0,0,0-.09-.26.48.48,0,0,0-.17-.18,1,1,0,0,0-.28-.15l-.72-.29a1.51,1.51,0,0,1-.38-.21.89.89,0,0,1-.26-.29,1.48,1.48,0,0,1-.14-.42,3.25,3.25,0,0,1-.05-.59,2.05,2.05,0,0,1,.12-.72,1.3,1.3,0,0,1,.37-.54,1.68,1.68,0,0,1,.45-.27A1.7,1.7,0,0,1,22.84,1a1.5,1.5,0,0,1,1.08.36,1.15,1.15,0,0,1,.33.55,2.75,2.75,0,0,1,.09.75H23.4a1.86,1.86,0,0,0,0-.36A.54.54,0,0,0,23.26,2a.49.49,0,0,0-.42-.18.54.54,0,0,0-.24.05.52.52,0,0,0-.17.12.92.92,0,0,0-.16.59,2.54,2.54,0,0,0,0,.31.44.44,0,0,0,.07.21.57.57,0,0,0,.15.16,1,1,0,0,0,.26.13l.7.28a1.9,1.9,0,0,1,.45.25,1,1,0,0,1,.28.32,1.91,1.91,0,0,1,.14.46A4.11,4.11,0,0,1,24.38,5.33Z" fill="hsl(230, 18%, 13%)"/></g></svg>