<svg xmlns="http://www.w3.org/2000/svg" id="us-highway-duplex-5" width="114" height="60" viewBox="0 0 38 20"><g><path d="M0,0 H38 V20 H0 Z" fill="none"/><path d="M34,1l3,2.5c-.78.76-2.19,2.06-1,4.5s1.69,5-.5,7.33c-1.44,1.53-7.57,1.6-9,1.67h-.26c-.53,0-1.45-.05-2.46-.05-1.92,0-4.18.16-4.78,1-.6-.89-2.79-1.05-4.68-1.05-1.06,0-2,.05-2.58.05H11.5c-1.43-.07-7.56-.14-9-1.67C.31,13,.81,10.45,2,8S1.78,4.26,1,3.5L4,1c2,1.47,6,2,7.5,2S17,2.53,19,1c2,1.53,6,2,7.5,2S32,2.47,34,1m0-1a.92.92,0,0,0-.59.2C31.69,1.46,28,2,26.5,2S21.26,1.47,19.61.21a1,1,0,0,0-1.22,0C16.74,1.47,13.09,2,11.5,2S6.28,1.46,4.6.2A1,1,0,0,0,4,0a1,1,0,0,0-.64.23l-3,2.5A1,1,0,0,0,0,3.46a1,1,0,0,0,.3.76l0,0C1.1,5,2,5.82,1.11,7.56,0,9.75-1,13,1.77,16c1.38,1.47,5.2,1.81,9.11,2l.57,0h1.2c.49,0,1.06,0,1.67,0,3.4,0,3.84.59,3.85.61A1,1,0,0,0,19,19h0a1,1,0,0,0,.83-.44c0-.06.55-.6,4-.6.58,0,1.12,0,1.58,0l.88,0h.31l.57,0c3.92-.15,7.73-.49,9.11-2,2.83-3,1.74-6.27.67-8.46-.85-1.74,0-2.57.76-3.3l0,0a1,1,0,0,0,.3-.76,1,1,0,0,0-.36-.73l-3-2.5A1,1,0,0,0,34,0Z" fill="hsl(230, 18%, 13%)"/><path d="M11.5,17c1.16.06,6.5-.47,7.5,1,1-1.44,6.34-.94,7.5-1,1.43-.07,7.56-.14,9-1.67C37.69,13,37.2,10.45,36,8s.22-3.74,1-4.5L34,1c-2,1.47-6,2-7.49,2S21,2.53,19,1c-2,1.53-6,2-7.5,2S6,2.47,4,1L1,3.5c.78.76,2.2,2.06,1,4.5s-1.7,5,.49,7.33C3.94,16.86,10.07,16.93,11.5,17Z" fill="hsl(0, 0%, 100%)"/></g></svg>