<svg xmlns="http://www.w3.org/2000/svg" id="us-highway-business-2" width="60" height="114" viewBox="0 0 20 38"><g><path d="M0,0 H20 V38 H0 Z" fill="none"/><path d="M16,10l3,2.49c-.78.76-2.19,2.08-1,4.51s1.69,5-.5,7.33A5.85,5.85,0,0,1,13,26a4,4,0,0,0-3,1,4,4,0,0,0-3-1,5.83,5.83,0,0,1-4.5-1.67C.31,22,.81,19.45,2,17s-.23-3.75-1-4.51L4,10a3.89,3.89,0,0,0,3,1.5A4.11,4.11,0,0,0,10,10a4,4,0,0,0,3,1.5A4,4,0,0,0,16,10m0-1a1,1,0,0,0-.77.36A3,3,0,0,1,13,10.5a3.09,3.09,0,0,1-2.22-1.15A1,1,0,0,0,10,9a1,1,0,0,0-.76.35A3.17,3.17,0,0,1,7,10.5a2.89,2.89,0,0,1-2.2-1.1A1,1,0,0,0,4.11,9H4a1,1,0,0,0-.64.23l-3,2.5a1,1,0,0,0-.36.73,1,1,0,0,0,.3.75l0,0c.76.73,1.62,1.57.77,3.31-.62,1.26-2.49,5.1.66,8.46A6.84,6.84,0,0,0,6.9,27H7a3.18,3.18,0,0,1,2.3.66,1,1,0,0,0,1.5,0,3.17,3.17,0,0,1,2.3-.66h0a6.84,6.84,0,0,0,5.13-2c3.16-3.36,1.28-7.2.67-8.46-.86-1.75,0-2.58.76-3.32a1,1,0,0,0,.32-.77,1,1,0,0,0-.34-.74l-3-2.5A1,1,0,0,0,16,9Z" fill="hsl(230, 18%, 13%)"/><path d="M7,26a4,4,0,0,1,3,1,4,4,0,0,1,3-1,5.85,5.85,0,0,0,4.5-1.67C19.69,22,19.2,19.45,18,17s.22-3.75,1-4.51L16,10a4,4,0,0,1-3,1.5A4,4,0,0,1,10,10a4.11,4.11,0,0,1-3,1.5A3.89,3.89,0,0,1,4,10L1,12.49c.78.76,2.2,2.08,1,4.51s-1.7,5,.49,7.33A5.83,5.83,0,0,0,7,26Z" fill="hsl(0, 0%, 100%)"/><path d="M.92,0H19.08A.87.87,0,0,1,20,.86V7.14a.88.88,0,0,1-.92.86H.92A.88.88,0,0,1,0,7.14V.86A.88.88,0,0,1,.92,0Z" fill="hsl(0, 0%, 100%)"/><path d="M4.29,1A1.65,1.65,0,0,1,6.15,2.68a1.39,1.39,0,0,1-.74,1.23,1.39,1.39,0,0,1,.83,1.35A1.66,1.66,0,0,1,4.4,7H1.89V1ZM3.06,2V3.42H4.21c.5,0,.77-.27.77-.69S4.71,2,4.21,2Zm0,2.43V5.94H4.29a.7.7,0,0,0,.78-.74.7.7,0,0,0-.78-.73Zm8.67.46A2.08,2.08,0,0,1,9.52,7a2.07,2.07,0,0,1-2.19-2.1V1H8.49v3.9a1,1,0,1,0,2.07,0V1h1.17Zm5-3.29L16,2.37A1.55,1.55,0,0,0,14.78,2c-.62,0-.93.35-.93.76a.56.56,0,0,0,.18.43.94.94,0,0,0,.55.22l.71.11A1.92,1.92,0,0,1,16.43,4a1.67,1.67,0,0,1,.47,1.26c0,1.17-1,1.82-2.22,1.82a2.81,2.81,0,0,1-2.19-.79l.76-.76A2,2,0,0,0,14.69,6c.69,0,1.06-.27,1.06-.75a.67.67,0,0,0-.18-.5.88.88,0,0,0-.54-.2l-.71-.11a2,2,0,0,1-1.16-.49,1.57,1.57,0,0,1-.43-1.18A1.84,1.84,0,0,1,14.81.94,2.61,2.61,0,0,1,16.75,1.64ZM19.11,7H17.87V5.74h1.24Z" fill="hsl(230, 18%, 13%)"/></g></svg>