<svg xmlns="http://www.w3.org/2000/svg" id="us-highway-bypass-2" width="60" height="114" viewBox="0 0 20 38"><g><path d="M0,0 H20 V38 H0 Z" fill="none"/><path d="M16,10l3,2.49c-.78.76-2.19,2.08-1,4.51s1.69,5-.5,7.33A5.85,5.85,0,0,1,13,26a4,4,0,0,0-3,1,4,4,0,0,0-3-1,5.83,5.83,0,0,1-4.5-1.67C.31,22,.81,19.45,2,17s-.23-3.75-1-4.51L4,10a3.89,3.89,0,0,0,3,1.5A4.11,4.11,0,0,0,10,10a4,4,0,0,0,3,1.5A4,4,0,0,0,16,10m0-1a1,1,0,0,0-.77.36A3,3,0,0,1,13,10.5a3.09,3.09,0,0,1-2.22-1.15A1,1,0,0,0,10,9a1,1,0,0,0-.76.35A3.17,3.17,0,0,1,7,10.5a2.89,2.89,0,0,1-2.2-1.1A1,1,0,0,0,4.11,9H4a1,1,0,0,0-.64.23l-3,2.5a1,1,0,0,0-.36.73,1,1,0,0,0,.3.75l0,0c.76.73,1.62,1.57.77,3.31-.62,1.26-2.49,5.1.66,8.46A6.84,6.84,0,0,0,6.9,27H7a3.18,3.18,0,0,1,2.3.66,1,1,0,0,0,1.5,0,3.17,3.17,0,0,1,2.3-.66h0a6.84,6.84,0,0,0,5.13-2c3.16-3.36,1.28-7.2.67-8.46-.86-1.75,0-2.58.76-3.32a1,1,0,0,0,.32-.77,1,1,0,0,0-.34-.74l-3-2.5A1,1,0,0,0,16,9Z" fill="hsl(230, 18%, 13%)"/><path d="M7,26a4,4,0,0,1,3,1,4,4,0,0,1,3-1,5.85,5.85,0,0,0,4.5-1.67C19.69,22,19.2,19.45,18,17s.22-3.75,1-4.51L16,10a4,4,0,0,1-3,1.5A4,4,0,0,1,10,10a4.11,4.11,0,0,1-3,1.5A3.89,3.89,0,0,1,4,10L1,12.49c.78.76,2.2,2.08,1,4.51s-1.7,5,.49,7.33A5.83,5.83,0,0,0,7,26Z" fill="hsl(0, 0%, 100%)"/><path d="M.92,0H19.08A.87.87,0,0,1,20,.86V7.14a.88.88,0,0,1-.92.86H.92A.88.88,0,0,1,0,7.14V.86A.88.88,0,0,1,.92,0Z" fill="hsl(0, 0%, 100%)"/><path d="M6.09,3.92l.27.15.18.16a1.2,1.2,0,0,1,.28.47,1.62,1.62,0,0,1,.09.57A2,2,0,0,1,6.79,6a1.45,1.45,0,0,1-.37.53,1.61,1.61,0,0,1-.58.35A2.29,2.29,0,0,1,5.08,7H2.58V1H5a2.24,2.24,0,0,1,.76.12,1.77,1.77,0,0,1,.59.33A1.41,1.41,0,0,1,6.7,2a1.62,1.62,0,0,1,.13.68A1.37,1.37,0,0,1,6.09,3.92Zm-1.2-.5a.8.8,0,0,0,.57-.19.65.65,0,0,0,.2-.5.65.65,0,0,0-.2-.5A.8.8,0,0,0,4.89,2H3.75V3.42ZM5,5.94a.79.79,0,0,0,.57-.2.7.7,0,0,0,.21-.54.7.7,0,0,0-.21-.54A.79.79,0,0,0,5,4.47H3.75V5.94Zm5.43-1.41V7H9.23V4.53L7.43,1H8.7L9.82,3.41,10.92,1h1.27ZM17.2,2.86a1.88,1.88,0,0,1-.13.72,1.73,1.73,0,0,1-.39.6,1.79,1.79,0,0,1-.62.4,2.19,2.19,0,0,1-.83.15H14.08V7H12.91V1h2.32a2.19,2.19,0,0,1,.83.15,1.79,1.79,0,0,1,.62.4,1.73,1.73,0,0,1,.39.6A1.87,1.87,0,0,1,17.2,2.86ZM16,2.86a.77.77,0,0,0-.23-.59A.85.85,0,0,0,15.17,2H14.08V3.68h1.09a.85.85,0,0,0,.63-.22A.78.78,0,0,0,16,2.86ZM16.3,7V5.74h1.25V7Z" fill="hsl(230, 18%, 13%)"/></g></svg>