<svg xmlns="http://www.w3.org/2000/svg" id="us-highway-truck-3" width="78" height="114" viewBox="0 0 26 38"><g><path d="M0,0 H26 V38 H0 Z" fill="none"/><path d="M8.5,26c1.16.06,3.77.16,4.5,1,.74-.84,3.35-.94,4.5-1,1.43-.07,4.57-.14,6-1.67C25.69,22,25.2,19.45,24,17s.22-3.74,1-4.5L22,10a6.82,6.82,0,0,1-4.49,1.5A7,7,0,0,1,13,10a7,7,0,0,1-4.5,1.5A6.94,6.94,0,0,1,4,10L1,12.5c.78.76,2.2,2.06,1,4.5s-1.7,5,.5,7.33C3.94,25.86,7.07,25.93,8.5,26Z" fill="hsl(0, 0%, 100%)"/><path d="M22,10l3,2.5c-.78.76-2.19,2.06-1,4.5s1.69,5-.5,7.33c-1.43,1.53-4.57,1.6-6,1.67-1.15.06-3.76.16-4.5,1-.73-.84-3.34-.94-4.5-1-1.43-.07-4.56-.14-6-1.67C.31,22,.81,19.45,2,17s-.23-3.74-1-4.5L4,10a6.94,6.94,0,0,0,4.5,1.5A7,7,0,0,0,13,10a7,7,0,0,0,4.5,1.5A6.82,6.82,0,0,0,22,10m0-1a1,1,0,0,0-.71.3,6,6,0,0,1-3.78,1.2,6.05,6.05,0,0,1-3.79-1.21A1,1,0,0,0,13,9h0a1,1,0,0,0-.71.3A6.13,6.13,0,0,1,8.5,10.5,6,6,0,0,1,4.72,9.3,1,1,0,0,0,4,9a1,1,0,0,0-.64.23l-3,2.5a1,1,0,0,0,0,1.49l0,0c.76.73,1.61,1.56.76,3.3C0,18.75-1,22,1.78,25c1.63,1.74,4.75,1.89,6.42,2h.37c2.82.15,3.52.48,3.68.66A1,1,0,0,0,13,28h0a1,1,0,0,0,.75-.34c.17-.18.87-.51,3.69-.66h.37c1.67-.08,4.79-.23,6.42-2,2.83-3,1.74-6.27.67-8.46-.85-1.74,0-2.57.76-3.3l0,0a1,1,0,0,0,.3-.76,1,1,0,0,0-.36-.73l-3-2.5A1,1,0,0,0,22,9Z" fill="hsl(230, 18%, 13%)"/><path d="M3.92,0H22.08A.87.87,0,0,1,23,.86V7.14a.88.88,0,0,1-.92.86H3.92A.88.88,0,0,1,3,7.14V.86A.88.88,0,0,1,3.92,0Z" fill="hsl(0, 0%, 100%)"/><path d="M5.24,7V1.81h-1V1H7.09v.81h-1V7ZM7.47,7V1H8.85c1,0,1.51.58,1.51,1.76a2.15,2.15,0,0,1-.16.89,1.24,1.24,0,0,1-.58.6L10.54,7h-.9l-.8-2.55H8.33V7Zm.86-5.17V3.67h.48a.92.92,0,0,0,.37-.06.6.6,0,0,0,.21-.18,1.1,1.1,0,0,0,.09-.29,2.49,2.49,0,0,0,0-.4,2.42,2.42,0,0,0,0-.4.88.88,0,0,0-.1-.3.68.68,0,0,0-.61-.23ZM13.82,1V5.64a1.4,1.4,0,0,1-.1.54,1.43,1.43,0,0,1-.3.44,1.37,1.37,0,0,1-.45.3,1.41,1.41,0,0,1-.54.11,1.36,1.36,0,0,1-.53-.11,1.43,1.43,0,0,1-.74-.74,1.24,1.24,0,0,1-.11-.54V1h.86V5.55a.63.63,0,0,0,.15.47.5.5,0,0,0,.37.15A.5.5,0,0,0,12.81,6,.63.63,0,0,0,13,5.55V1Zm3.53,4.28v.37a1.35,1.35,0,0,1-.11.52,1.4,1.4,0,0,1-.29.44,1.35,1.35,0,0,1-.43.31A1.32,1.32,0,0,1,16,7a1.77,1.77,0,0,1-.5-.07A1.07,1.07,0,0,1,15,6.73a1.18,1.18,0,0,1-.33-.43,1.53,1.53,0,0,1-.13-.68V2.33a1.42,1.42,0,0,1,.1-.55A1.27,1.27,0,0,1,15,1.34a1.46,1.46,0,0,1,.44-.29A1.48,1.48,0,0,1,16,1a1.3,1.3,0,0,1,1,.39,1.38,1.38,0,0,1,.29.46,1.58,1.58,0,0,1,.11.58v.33h-.86V2.43A.72.72,0,0,0,16.35,2,.48.48,0,0,0,16,1.81a.43.43,0,0,0-.42.19,1.09,1.09,0,0,0-.11.5V5.56a.78.78,0,0,0,.12.44.43.43,0,0,0,.4.17.38.38,0,0,0,.18,0,.66.66,0,0,0,.19-.09.52.52,0,0,0,.12-.19.76.76,0,0,0,0-.29V5.28Zm.7,1.7V1h.85V3.73h0L20.17,1H21L19.86,3.39,21.25,7h-.91l-1-2.65-.46.86V7Z" fill="hsl(230, 18%, 13%)"/></g></svg>