<svg xmlns="http://www.w3.org/2000/svg" id="us-highway-truck-2" width="60" height="114" viewBox="0 0 20 38"><g><path d="M0,0 H20 V38 H0 Z" fill="none"/><path d="M16,10l3,2.49c-.78.76-2.19,2.08-1,4.51s1.69,5-.5,7.33A5.85,5.85,0,0,1,13,26a4,4,0,0,0-3,1,4,4,0,0,0-3-1,5.83,5.83,0,0,1-4.5-1.67C.31,22,.81,19.45,2,17s-.23-3.75-1-4.51L4,10a3.89,3.89,0,0,0,3,1.5A4.11,4.11,0,0,0,10,10a4,4,0,0,0,3,1.5A4,4,0,0,0,16,10m0-1a1,1,0,0,0-.77.36A3,3,0,0,1,13,10.5a3,3,0,0,1-2.21-1.15,1,1,0,0,0-1.52,0A3.17,3.17,0,0,1,7,10.5a2.89,2.89,0,0,1-2.2-1.1A1,1,0,0,0,4.11,9H4a1,1,0,0,0-.64.23l-3,2.5a1,1,0,0,0-.36.73,1,1,0,0,0,.3.75l0,0c.76.73,1.62,1.57.77,3.31-.62,1.26-2.49,5.1.66,8.46A6.84,6.84,0,0,0,6.9,27H7a3.18,3.18,0,0,1,2.3.66,1,1,0,0,0,1.5,0,3.17,3.17,0,0,1,2.3-.66h0a6.84,6.84,0,0,0,5.13-2c3.16-3.36,1.28-7.2.67-8.46-.86-1.75,0-2.58.76-3.32a1,1,0,0,0,.32-.77,1,1,0,0,0-.34-.74l-3-2.5A1,1,0,0,0,16,9Z" fill="hsl(230, 18%, 13%)"/><path d="M7,26a4,4,0,0,1,3,1,4,4,0,0,1,3-1,5.85,5.85,0,0,0,4.5-1.67C19.69,22,19.2,19.45,18,17s.22-3.75,1-4.51L16,10a4,4,0,0,1-3,1.5A4,4,0,0,1,10,10a4.11,4.11,0,0,1-3,1.5A3.89,3.89,0,0,1,4,10L1,12.49c.78.76,2.2,2.08,1,4.51s-1.7,5,.49,7.33A5.83,5.83,0,0,0,7,26Z" fill="hsl(0, 0%, 100%)"/><path d="M.92,0H19.08A.87.87,0,0,1,20,.86V7.14a.88.88,0,0,1-.92.86H.92A.88.88,0,0,1,0,7.14V.86A.88.88,0,0,1,.92,0Z" fill="hsl(0, 0%, 100%)"/><path d="M2.24,7V1.81h-1V1H4.09v.81h-1V7ZM4.47,7V1H5.85c1,0,1.51.58,1.51,1.76a2.15,2.15,0,0,1-.16.89,1.24,1.24,0,0,1-.58.6L7.54,7h-.9l-.8-2.55H5.33V7Zm.86-5.17V3.67h.48a.92.92,0,0,0,.37-.06.6.6,0,0,0,.21-.18,1.1,1.1,0,0,0,.09-.29,2.49,2.49,0,0,0,0-.4,2.42,2.42,0,0,0,0-.4.88.88,0,0,0-.1-.3.68.68,0,0,0-.61-.23ZM10.82,1V5.64a1.4,1.4,0,0,1-.1.54,1.43,1.43,0,0,1-.3.44,1.37,1.37,0,0,1-.45.3A1.41,1.41,0,0,1,9.43,7a1.36,1.36,0,0,1-.53-.11,1.43,1.43,0,0,1-.74-.74,1.24,1.24,0,0,1-.11-.54V1h.86V5.55A.63.63,0,0,0,9.06,6a.5.5,0,0,0,.37.15A.5.5,0,0,0,9.81,6,.63.63,0,0,0,10,5.55V1Zm3.53,4.28v.37a1.35,1.35,0,0,1-.11.52,1.4,1.4,0,0,1-.29.44,1.35,1.35,0,0,1-.43.31A1.32,1.32,0,0,1,13,7a1.77,1.77,0,0,1-.5-.07A1.07,1.07,0,0,1,12,6.73a1.18,1.18,0,0,1-.33-.43,1.53,1.53,0,0,1-.13-.68V2.33a1.42,1.42,0,0,1,.1-.55A1.27,1.27,0,0,1,12,1.34a1.46,1.46,0,0,1,.44-.29A1.48,1.48,0,0,1,13,1a1.3,1.3,0,0,1,1,.39,1.38,1.38,0,0,1,.29.46,1.58,1.58,0,0,1,.11.58v.33h-.86V2.43A.72.72,0,0,0,13.35,2,.48.48,0,0,0,13,1.81a.43.43,0,0,0-.42.19,1.09,1.09,0,0,0-.11.5V5.56a.78.78,0,0,0,.12.44.43.43,0,0,0,.4.17.38.38,0,0,0,.18,0,.66.66,0,0,0,.19-.09.52.52,0,0,0,.12-.19.76.76,0,0,0,.05-.29V5.28Zm.7,1.7V1h.85V3.73h0L17.17,1H18L16.86,3.39,18.25,7h-.91l-1-2.65-.46.86V7Z" fill="hsl(230, 18%, 13%)"/></g></svg>