<svg xmlns="http://www.w3.org/2000/svg" id="us-highway-duplex-3" width="78" height="60" viewBox="0 0 26 20"><g><path d="M0,0 H26 V20 H0 Z" fill="none"/><path d="M22,1l3,2.5c-.78.76-2.19,2.06-1,4.5s1.69,5-.5,7.33c-1.44,1.53-4.57,1.6-6,1.67-1.16.06-3.76.16-4.5,1-.74-.84-3.34-.94-4.5-1-1.43-.07-4.56-.14-6-1.67C.31,13,.81,10.45,2,8S1.78,4.26,1,3.5L4,1A6.94,6.94,0,0,0,8.5,2.5,7,7,0,0,0,13,1a7,7,0,0,0,4.5,1.5A6.84,6.84,0,0,0,22,1m0-1a1,1,0,0,0-.72.3A6,6,0,0,1,17.5,1.5,6.05,6.05,0,0,1,13.71.29,1,1,0,0,0,13,0h0a1,1,0,0,0-.7.3A6.15,6.15,0,0,1,8.5,1.5,6,6,0,0,1,4.71.3,1,1,0,0,0,4,0a1,1,0,0,0-.64.23l-3,2.5A1,1,0,0,0,0,3.46a1,1,0,0,0,.3.76l0,0C1.1,5,2,5.82,1.11,7.56,0,9.75-1,13,1.77,16c1.64,1.74,4.75,1.89,6.43,2h.37c2.82.15,3.51.48,3.68.66A1,1,0,0,0,13,19h0a1.05,1.05,0,0,0,.75-.34c.17-.18.86-.51,3.68-.66h.37c1.68-.08,4.8-.23,6.43-2,2.83-3,1.74-6.27.67-8.46-.85-1.74,0-2.57.76-3.3l0,0a1,1,0,0,0,.3-.76,1,1,0,0,0-.36-.73l-3-2.5A1,1,0,0,0,22,0Z" fill="hsl(230, 18%, 13%)"/><path d="M8.5,17c1.16.06,3.76.16,4.5,1,.74-.84,3.34-.94,4.5-1,1.43-.07,4.56-.14,6-1.67C25.69,13,25.2,10.45,24,8s.22-3.74,1-4.5L22,1A6.84,6.84,0,0,1,17.5,2.5,7,7,0,0,1,13,1,7,7,0,0,1,8.5,2.5,6.94,6.94,0,0,1,4,1L1,3.5c.78.76,2.2,2.06,1,4.5s-1.7,5,.49,7.33C3.94,16.86,7.07,16.93,8.5,17Z" fill="hsl(0, 0%, 100%)"/></g></svg>