<svg xmlns="http://www.w3.org/2000/svg" id="us-highway-business-3" width="78" height="114" viewBox="0 0 26 38"><g><path d="M0,0 H26 V38 H0 Z" fill="none"/><path d="M8.5,26c1.16.06,3.77.16,4.5,1,.74-.84,3.35-.94,4.5-1,1.43-.07,4.57-.14,6-1.67C25.69,22,25.2,19.45,24,17s.22-3.74,1-4.5L22,10a6.82,6.82,0,0,1-4.49,1.5A7,7,0,0,1,13,10a7,7,0,0,1-4.5,1.5A6.94,6.94,0,0,1,4,10L1,12.5c.78.76,2.2,2.06,1,4.5s-1.7,5,.5,7.33C3.94,25.86,7.07,25.93,8.5,26Z" fill="hsl(0, 0%, 100%)"/><path d="M22,10l3,2.5c-.78.76-2.19,2.06-1,4.5s1.69,5-.5,7.33c-1.43,1.53-4.57,1.6-6,1.67-1.15.06-3.76.16-4.5,1-.73-.84-3.34-.94-4.5-1-1.43-.07-4.56-.14-6-1.67C.31,22,.81,19.45,2,17s-.23-3.74-1-4.5L4,10a6.94,6.94,0,0,0,4.5,1.5A7,7,0,0,0,13,10a7,7,0,0,0,4.5,1.5A6.82,6.82,0,0,0,22,10m0-1a1,1,0,0,0-.71.3,6,6,0,0,1-3.78,1.2,6.05,6.05,0,0,1-3.79-1.21A1,1,0,0,0,13,9h0a1,1,0,0,0-.71.3A6.13,6.13,0,0,1,8.5,10.5,6,6,0,0,1,4.72,9.3,1,1,0,0,0,4,9a1,1,0,0,0-.64.23l-3,2.5a1,1,0,0,0,0,1.49l0,0c.76.73,1.61,1.56.76,3.3C0,18.75-1,22,1.78,25c1.63,1.74,4.75,1.89,6.42,2h.37c2.82.15,3.52.48,3.68.66A1,1,0,0,0,13,28h0a1,1,0,0,0,.75-.34c.17-.18.87-.51,3.69-.66h.37c1.67-.08,4.79-.23,6.42-2,2.83-3,1.74-6.27.67-8.46-.85-1.74,0-2.57.76-3.3l0,0a1,1,0,0,0,.3-.76,1,1,0,0,0-.36-.73l-3-2.5A1,1,0,0,0,22,9Z" fill="hsl(230, 18%, 13%)"/><path d="M3.92,0H22.08A.87.87,0,0,1,23,.86V7.14a.88.88,0,0,1-.92.86H3.92A.88.88,0,0,1,3,7.14V.86A.88.88,0,0,1,3.92,0Z" fill="hsl(0, 0%, 100%)"/><path d="M7.29,1A1.65,1.65,0,0,1,9.15,2.68a1.39,1.39,0,0,1-.74,1.23,1.39,1.39,0,0,1,.83,1.35A1.66,1.66,0,0,1,7.4,7H4.89V1ZM6.06,2V3.42H7.21c.5,0,.77-.27.77-.69S7.71,2,7.21,2Zm0,2.43V5.94H7.29a.7.7,0,0,0,.78-.74.7.7,0,0,0-.78-.73Zm8.67.46A2.08,2.08,0,0,1,12.52,7a2.07,2.07,0,0,1-2.19-2.1V1h1.16v3.9a1,1,0,1,0,2.07,0V1h1.17Zm5-3.29L19,2.37A1.55,1.55,0,0,0,17.78,2c-.62,0-.93.35-.93.76a.56.56,0,0,0,.18.43.94.94,0,0,0,.55.22l.71.11A1.92,1.92,0,0,1,19.43,4a1.67,1.67,0,0,1,.47,1.26c0,1.17-1,1.82-2.22,1.82a2.81,2.81,0,0,1-2.19-.79l.76-.76A2,2,0,0,0,17.69,6c.69,0,1.06-.27,1.06-.75a.67.67,0,0,0-.18-.5.88.88,0,0,0-.54-.2l-.71-.11a2,2,0,0,1-1.16-.49,1.57,1.57,0,0,1-.43-1.18A1.84,1.84,0,0,1,17.81.94,2.61,2.61,0,0,1,19.75,1.64ZM22.11,7H20.87V5.74h1.24Z" fill="hsl(230, 18%, 13%)"/></g></svg>