<svg xmlns="http://www.w3.org/2000/svg" id="us-interstate-3" width="78" height="66" viewBox="0 0 26 22"><g><path d="M0,0 H26 V22 H0 Z" fill="none"/><path d="M23,1a5.43,5.43,0,0,1,2,4V7c0,9.27-12,12-12,12S1,16.34,1,7V5A5.39,5.39,0,0,1,3,1,6.81,6.81,0,0,0,8,3a7,7,0,0,0,5-2,7.05,7.05,0,0,0,5,2,6.91,6.91,0,0,0,5-2M3,0a1,1,0,0,0-.58.19A6.35,6.35,0,0,0,0,5V7c0,4.18,2.24,7.76,6.48,10.35A23.29,23.29,0,0,0,12.78,20L13,20l.22,0a23.05,23.05,0,0,0,6.3-2.65C23.76,14.74,26,11.17,26,7V5A6.43,6.43,0,0,0,23.58.19,1,1,0,0,0,23,0a1,1,0,0,0-.75.34A5.92,5.92,0,0,1,18,2,6.07,6.07,0,0,1,13.74.33,1,1,0,0,0,13,0h0a1,1,0,0,0-.74.33A5.93,5.93,0,0,1,8,2,5.88,5.88,0,0,1,3.76.35,1,1,0,0,0,3,0Z" fill="hsl(0, 0%, 100%)"/><path d="M1,7c0,9.32,12,12,12,12S25,16.25,25,7V6H1Z" fill="hsl(230, 57%, 54%)"/><path d="M1,5 H25 V6 H1 Z" fill="hsl(0, 0%, 100%)"/><path d="M1,5A5.39,5.39,0,0,1,3,1,6.81,6.81,0,0,0,8,3a7,7,0,0,0,5-2,7.05,7.05,0,0,0,5,2,6.91,6.91,0,0,0,5-2,5.41,5.41,0,0,1,2,4Z" fill="hsl(0, 87%, 59%)"/></g></svg>