<svg xmlns="http://www.w3.org/2000/svg" id="us-interstate-truck-2" width="60" height="120" viewBox="0 0 20 40"><g><path d="M0,0 H20 V40 H0 Z" fill="none"/><path d="M17,10a7.71,7.71,0,0,1,2,4v2c0,9.28-9,12-9,12S1,25.37,1,16V14a7.43,7.43,0,0,1,2-4,4.07,4.07,0,0,0,3.56,2A4,4,0,0,0,10,10a4,4,0,0,0,3.46,2A4.07,4.07,0,0,0,17,10m0-1h-.15a1,1,0,0,0-.73.52A3.09,3.09,0,0,1,13.46,11a3,3,0,0,1-2.57-1.46A1,1,0,0,0,10,9h0a1,1,0,0,0-.88.55A3,3,0,0,1,6.53,11,3.09,3.09,0,0,1,3.85,9.53,1,1,0,0,0,3.12,9L3,9a1,1,0,0,0-.7.29A8.29,8.29,0,0,0,0,14v2C0,26,9.62,28.93,9.72,29A.9.9,0,0,0,10,29a1,1,0,0,0,.29,0c.09,0,9.71-3,9.71-12.93V14a8.55,8.55,0,0,0-2.29-4.7A1,1,0,0,0,17,9Z" fill="hsl(0, 0%, 100%)"/><path d="M1,16c0,9.34,9,12,9,12s9-2.69,9-12V15H1Z" fill="hsl(230, 57%, 54%)"/><path d="M1,14 H19 V15 H1 Z" fill="hsl(0, 0%, 100%)"/><path d="M1,14a7.43,7.43,0,0,1,2-4,4.07,4.07,0,0,0,3.56,2A4,4,0,0,0,10,10a4,4,0,0,0,3.46,2A4.07,4.07,0,0,0,17,10a7.71,7.71,0,0,1,2,4Z" fill="hsl(0, 87%, 59%)"/><path d="M.92,0H19.08A.87.87,0,0,1,20,.86V7.14a.88.88,0,0,1-.92.86H.92A.87.87,0,0,1,0,7.14V.86A.87.87,0,0,1,.92,0Z" fill="hsl(0, 0%, 100%)"/><path d="M2.68,1.85V7h-1V1.85h-1V1h3v.85Zm4,2.48a1.11,1.11,0,0,0,.55-.62,2.68,2.68,0,0,0,.14-1,2,2,0,0,0-.35-1.34A1.45,1.45,0,0,0,5.88,1H4.36V7H5.3V4.53h.53L6.62,7h1ZM6.44,3.12a.82.82,0,0,1-.08.29.47.47,0,0,1-.17.2.57.57,0,0,1-.31.07H5.3V1.85h.58a.57.57,0,0,1,.31.07.42.42,0,0,1,.17.2.82.82,0,0,1,.08.29,2,2,0,0,1,0,.35A2.11,2.11,0,0,1,6.44,3.12Zm4.85,2.39a1.52,1.52,0,0,1-.11.62,1.31,1.31,0,0,1-.3.48,1.48,1.48,0,0,1-1.11.44,1.46,1.46,0,0,1-1.42-.92,1.71,1.71,0,0,1-.11-.62V1h.95V5.56A.61.61,0,0,0,9.36,6a.56.56,0,0,0,.41.16A.58.58,0,0,0,10.19,6a.65.65,0,0,0,.16-.48V1h.94Zm3.93-.12a2.17,2.17,0,0,1-.15.74,1.37,1.37,0,0,1-.35.54,1.22,1.22,0,0,1-.44.28,1.52,1.52,0,0,1-.59.1A1.48,1.48,0,0,1,13,6.9a1.53,1.53,0,0,1-.46-.37,1.28,1.28,0,0,1-.24-.39,3,3,0,0,1-.13-.52,6.55,6.55,0,0,1-.06-.7c0-.27,0-.58,0-.93s0-.66,0-.93a6.55,6.55,0,0,1,.06-.7,3,3,0,0,1,.13-.52,1.28,1.28,0,0,1,.24-.39A1.53,1.53,0,0,1,13,1.08,1.74,1.74,0,0,1,14.28,1a1.32,1.32,0,0,1,.46.29,1.38,1.38,0,0,1,.34.53,2.37,2.37,0,0,1,.14.73h-.94a3.11,3.11,0,0,0,0-.32A.68.68,0,0,0,14.13,2,.44.44,0,0,0,14,1.84a.54.54,0,0,0-.27-.06.51.51,0,0,0-.27.06.59.59,0,0,0-.18.17,1.5,1.5,0,0,0-.17.69C13,3,13,3.44,13,4s0,1,0,1.29a1.5,1.5,0,0,0,.17.69.59.59,0,0,0,.18.17.51.51,0,0,0,.27.06A.54.54,0,0,0,14,6.14.44.44,0,0,0,14.13,6a.81.81,0,0,0,.11-.27,3.11,3.11,0,0,0,0-.32ZM18.37,7l-1-2.46L17,5.44V7H16V1H17V3.81L18.25,1h.95L18,3.48,19.38,7Z" fill="hsl(230, 18%, 13%)"/></g></svg>