<svg xmlns="http://www.w3.org/2000/svg" id="us-interstate-duplex-5" width="114" height="66" viewBox="0 0 38 22"><g><path d="M0,0 H38 V22 H0 Z" fill="none"/><path d="M35,1a5.14,5.14,0,0,1,2,4V7c0,9.25-18,12-18,12S1,16.32,1,7V5A5.39,5.39,0,0,1,3,1s2.5,2,8,2c6.5,0,8-2,8-2s1.5,2,8,2c5.53,0,8-2,8-2M19,0A1,1,0,0,0,18.2.4h0S16.71,2,11,2C6,2,3.64.23,3.62.21A1,1,0,0,0,3,0a.94.94,0,0,0-.58.19A6.34,6.34,0,0,0,0,5V7C0,17.06,18.08,19.84,18.85,20h.3C19.92,19.84,38,17,38,7c0-1.14,0-1.7,0-2h0A6.15,6.15,0,0,0,35.58.19a1,1,0,0,0-1.2,0C34.33.25,32,2,27,2,21.27,2,19.79.39,19.78.37A1,1,0,0,0,19,0Z" fill="hsl(0, 0%, 100%)"/><path d="M1,7c0,9.32,18,12,18,12S37,16.25,37,7V6H1Z" fill="hsl(230, 57%, 54%)"/><path d="M1,5 H37 V6 H1 Z" fill="hsl(0, 0%, 100%)"/><path d="M1,5A5.39,5.39,0,0,1,3,1s2.5,2,8,2c6.5,0,8-2,8-2s1.5,2,8,2c5.53,0,8-2,8-2a5.41,5.41,0,0,1,2,4Z" fill="hsl(0, 87%, 59%)"/></g></svg>