<svg xmlns="http://www.w3.org/2000/svg" id="us-interstate-4" width="96" height="66" viewBox="0 0 32 22"><g><path d="M0,0 H32 V22 H0 Z" fill="none"/><path d="M29,1a5.45,5.45,0,0,1,2,4c0,.5,0,1.54,0,2-.17,9.25-15.25,12-15.25,12S1,16.32,1,7V5A5.39,5.39,0,0,1,3,1,8.11,8.11,0,0,0,8.5,3,14.57,14.57,0,0,0,16,1a14.57,14.57,0,0,0,7.5,2A8.17,8.17,0,0,0,29,1m0-1a1,1,0,0,0-.7.29A7.18,7.18,0,0,1,23.5,2,13.87,13.87,0,0,1,16.55.17,1,1,0,0,0,16,0a1,1,0,0,0-.55.17A13.87,13.87,0,0,1,8.5,2,7.14,7.14,0,0,1,3.71.3,1,1,0,0,0,3,0a1,1,0,0,0-.58.19A6.34,6.34,0,0,0,0,5V7c0,4.21,2.74,7.8,7.93,10.37A32,32,0,0,0,15.57,20l.18,0,.18,0a33.44,33.44,0,0,0,7.82-2.6C29.07,14.78,31.92,11.2,32,7c0-.29,0-.79,0-1.26V5A6.41,6.41,0,0,0,29.58.19,1,1,0,0,0,29,0Z" fill="hsl(0, 0%, 100%)"/><path d="M1,7c0,9.32,15,12,15,12S31,16.25,31,7V6H1Z" fill="hsl(230, 57%, 54%)"/><path d="M1,5 H31 V6 H1 Z" fill="hsl(0, 0%, 100%)"/><path d="M1,5A5.39,5.39,0,0,1,3,1,8.11,8.11,0,0,0,8.5,3,14.57,14.57,0,0,0,16,1a14.57,14.57,0,0,0,7.5,2A8.17,8.17,0,0,0,29,1a5.41,5.41,0,0,1,2,4Z" fill="hsl(0, 87%, 59%)"/></g></svg>