<svg xmlns="http://www.w3.org/2000/svg" id="us-interstate-2" width="60" height="66" viewBox="0 0 20 22"><g><path d="M0,0 H20 V22 H0 Z" fill="none"/><path d="M17,1a7.71,7.71,0,0,1,2,4V7c0,9.28-9,12-9,12S1,16.37,1,7V5A7.43,7.43,0,0,1,3,1,4.07,4.07,0,0,0,6.53,3,4,4,0,0,0,10,1a4,4,0,0,0,3.46,2A4.07,4.07,0,0,0,17,1m0-1h-.15a1,1,0,0,0-.73.52A3.09,3.09,0,0,1,13.46,2,3,3,0,0,1,10.89.54,1,1,0,0,0,10,0h0a1,1,0,0,0-.88.55A3,3,0,0,1,6.53,2,3.09,3.09,0,0,1,3.85.53,1,1,0,0,0,3.12,0L3,0a1,1,0,0,0-.7.29A8.29,8.29,0,0,0,0,5V7C0,17,9.62,19.93,9.72,20A.9.9,0,0,0,10,20a1,1,0,0,0,.29,0c.09,0,9.71-3,9.71-12.93V5A8.55,8.55,0,0,0,17.71.3,1,1,0,0,0,17,0Z" fill="hsl(0, 0%, 100%)"/><path d="M1,7c0,9.34,9,12,9,12s9-2.69,9-12V6H1Z" fill="hsl(230, 57%, 54%)"/><path d="M1,5 H19 V6 H1 Z" fill="hsl(0, 0%, 100%)"/><path d="M1,5A7.43,7.43,0,0,1,3,1,4.07,4.07,0,0,0,6.53,3,4,4,0,0,0,10,1a4,4,0,0,0,3.46,2A4.07,4.07,0,0,0,17,1a7.71,7.71,0,0,1,2,4Z" fill="hsl(0, 87%, 59%)"/></g></svg>