<svg xmlns="http://www.w3.org/2000/svg" id="us-interstate-truck-3" width="78" height="120" viewBox="0 0 26 40"><g><path d="M0,0 H26 V40 H0 Z" fill="none"/><path d="M23,10a5.43,5.43,0,0,1,2,4v2c0,9.27-12,12-12,12S1,25.34,1,16V14a5.39,5.39,0,0,1,2-4,6.81,6.81,0,0,0,5,2,7,7,0,0,0,5-2,7.05,7.05,0,0,0,5,2,6.91,6.91,0,0,0,5-2M3,9a1,1,0,0,0-.58.19A6.35,6.35,0,0,0,0,14v2c0,4.18,2.24,7.76,6.48,10.35A23.29,23.29,0,0,0,12.78,29L13,29l.22,0a23.05,23.05,0,0,0,6.3-2.65C23.76,23.74,26,20.17,26,16V14a6.43,6.43,0,0,0-2.42-4.82A1,1,0,0,0,23,9a1,1,0,0,0-.75.34A5.92,5.92,0,0,1,18,11a6,6,0,0,1-4.26-1.67A1,1,0,0,0,13,9h0a1,1,0,0,0-.75.33A5.93,5.93,0,0,1,8,11,5.88,5.88,0,0,1,3.76,9.35,1,1,0,0,0,3,9Z" fill="hsl(0, 0%, 100%)"/><path d="M1,16c0,9.32,12,12,12,12s12-2.72,12-12V15H1Z" fill="hsl(230, 57%, 54%)"/><path d="M1,14 H25 V15 H1 Z" fill="hsl(0, 0%, 100%)"/><path d="M1,14a5.39,5.39,0,0,1,2-4,6.81,6.81,0,0,0,5,2,7,7,0,0,0,5-2,7.05,7.05,0,0,0,5,2,6.91,6.91,0,0,0,5-2,5.41,5.41,0,0,1,2,4Z" fill="hsl(0, 87%, 59%)"/><path d="M3.92,0H22.08A.87.87,0,0,1,23,.86V7.14a.88.88,0,0,1-.92.86H3.92A.87.87,0,0,1,3,7.14V.86A.87.87,0,0,1,3.92,0Z" fill="hsl(0, 0%, 100%)"/><path d="M5.68,1.85V7H4.73V1.85h-1V1H6.68v.85ZM9.62,7,8.83,4.53H8.3V7H7.36V1H8.88a1.45,1.45,0,0,1,1.17.42,2,2,0,0,1,.35,1.34,2.68,2.68,0,0,1-.14,1,1.11,1.11,0,0,1-.55.62L10.6,7ZM9.46,2.76a2,2,0,0,0,0-.35.82.82,0,0,0-.08-.29.42.42,0,0,0-.17-.2.57.57,0,0,0-.31-.07H8.3V3.68h.58a.57.57,0,0,0,.31-.07.47.47,0,0,0,.17-.2.82.82,0,0,0,.08-.29A2.11,2.11,0,0,0,9.46,2.76Zm4.83,2.75a1.52,1.52,0,0,1-.11.62,1.31,1.31,0,0,1-.3.48,1.53,1.53,0,0,1-2.53-.48,1.71,1.71,0,0,1-.11-.62V1h.95V5.56a.61.61,0,0,0,.17.48.56.56,0,0,0,.41.16A.58.58,0,0,0,13.19,6a.65.65,0,0,0,.16-.48V1h.94Zm3.93-.12a2.17,2.17,0,0,1-.15.74,1.37,1.37,0,0,1-.35.54,1.22,1.22,0,0,1-.44.28,1.52,1.52,0,0,1-.59.1A1.48,1.48,0,0,1,16,6.9a1.53,1.53,0,0,1-.46-.37,1.28,1.28,0,0,1-.24-.39,3,3,0,0,1-.13-.52,6.55,6.55,0,0,1-.06-.7c0-.27,0-.58,0-.93s0-.66,0-.93a6.55,6.55,0,0,1,.06-.7,3,3,0,0,1,.13-.52,1.28,1.28,0,0,1,.24-.39A1.53,1.53,0,0,1,16,1.08,1.74,1.74,0,0,1,17.28,1a1.32,1.32,0,0,1,.46.29,1.38,1.38,0,0,1,.34.53,2.37,2.37,0,0,1,.14.73h-.94a3.11,3.11,0,0,0,0-.32A.68.68,0,0,0,17.13,2,.44.44,0,0,0,17,1.84a.54.54,0,0,0-.27-.06.51.51,0,0,0-.27.06.59.59,0,0,0-.18.17,1.5,1.5,0,0,0-.17.69C16,3,16,3.44,16,4s0,1,0,1.29a1.5,1.5,0,0,0,.17.69.59.59,0,0,0,.18.17.51.51,0,0,0,.27.06A.54.54,0,0,0,17,6.14.44.44,0,0,0,17.13,6a.81.81,0,0,0,.11-.27,3.11,3.11,0,0,0,0-.32ZM21.37,7l-1-2.46L20,5.44V7H19V1H20V3.81L21.25,1h.95L21,3.48,22.38,7Z" fill="hsl(230, 18%, 13%)"/></g></svg>