<svg xmlns="http://www.w3.org/2000/svg" id="veterinary-15" width="21" height="21" viewBox="0 0 21 21"><g><path d="M0,0 H21 V21 H0 Z" fill="none"/><path d="M10.5 9c-2.5 0-3 2.28-3 3.47a6.15 6.15 0 0 0-1.7 0.89 2 2 0 0 0-0.4 2.78 2.06 2.06 0 0 0 2.8 0.4 4 4 0 0 1 2.3-0.69 4 4 0 0 1 2.3 0.69 2 2 0 0 0 2.8-0.3 1.93 1.93 0 0 0-0.3-2.78l-0.1-0.1a8.996 8.996 0 0 0-1.7-0.89C13.5 11.29 13 9 10.5 9z" fill="hsl(236, 6%, 48%)" stroke="hsl(60, 5%, 100%)" stroke-linejoin="round" stroke-miterlimit="4px" stroke-width="2"/><path d="M5.08 7.3a1.58 1.58 0 0 0-0.76 2 1.52 1.52 0 0 0 1.61 1.4 1.58 1.58 0 0 0 0.76-2 1.52 1.52 0 0 0-1.61-1.4z" fill="hsl(236, 6%, 48%)" stroke="hsl(60, 5%, 100%)" stroke-linejoin="round" stroke-miterlimit="4px" stroke-width="2"/><path d="M15.93 7.3a1.58 1.58 0 0 1 0.76 2 1.52 1.52 0 0 1-1.61 1.4 1.58 1.58 0 0 1-0.76-2 1.52 1.52 0 0 1 1.61-1.4z" fill="hsl(236, 6%, 48%)" stroke="hsl(60, 5%, 100%)" stroke-linejoin="round" stroke-miterlimit="4px" stroke-width="2"/><path d="M8.08 4.3c-0.68 0.09-1 0.94-0.76 1.87A1.77 1.77 0 0 0 8.93 7.7c0.68-0.09 1-0.94 0.76-1.87A1.77 1.77 0 0 0 8.08 4.3z" fill="hsl(236, 6%, 48%)" stroke="hsl(60, 5%, 100%)" stroke-linejoin="round" stroke-miterlimit="4px" stroke-width="2"/><path d="M12.93 4.3c0.68 0.09 1 0.94 0.76 1.87A1.77 1.77 0 0 1 12.07 7.7c-0.68-0.08-1-0.94-0.76-1.87A1.77 1.77 0 0 1 12.93 4.3z" fill="hsl(236, 6%, 48%)" stroke="hsl(60, 5%, 100%)" stroke-linejoin="round" stroke-miterlimit="4px" stroke-width="2"/><path d="M10.5 9c-2.5 0-3 2.28-3 3.47a6.15 6.15 0 0 0-1.7 0.89 2 2 0 0 0-0.4 2.78 2.06 2.06 0 0 0 2.8 0.4 4 4 0 0 1 2.3-0.69 4 4 0 0 1 2.3 0.69 2 2 0 0 0 2.8-0.3 1.93 1.93 0 0 0-0.3-2.78l-0.1-0.1a8.996 8.996 0 0 0-1.7-0.89C13.5 11.29 13 9 10.5 9z" fill="hsl(236, 6%, 48%)"/><path d="M5.08 7.3a1.58 1.58 0 0 0-0.76 2 1.52 1.52 0 0 0 1.61 1.4 1.58 1.58 0 0 0 0.76-2 1.52 1.52 0 0 0-1.61-1.4z" fill="hsl(236, 6%, 48%)"/><path d="M15.93 7.3a1.58 1.58 0 0 1 0.76 2 1.52 1.52 0 0 1-1.61 1.4 1.58 1.58 0 0 1-0.76-2 1.52 1.52 0 0 1 1.61-1.4z" fill="hsl(236, 6%, 48%)"/><path d="M8.08 4.3c-0.68 0.09-1 0.94-0.76 1.87A1.77 1.77 0 0 0 8.93 7.7c0.68-0.09 1-0.94 0.76-1.87A1.77 1.77 0 0 0 8.08 4.3z" fill="hsl(236, 6%, 48%)"/><path d="M12.93 4.3c0.68 0.09 1 0.94 0.76 1.87A1.77 1.77 0 0 1 12.07 7.7c-0.68-0.08-1-0.94-0.76-1.87A1.77 1.77 0 0 1 12.93 4.3z" fill="hsl(236, 6%, 48%)"/></g></svg>