<svg xmlns="http://www.w3.org/2000/svg" id="veterinary-11" width="17" height="17" viewBox="0 0 17 17"><g><path d="M0,0 H17 V17 H0 Z" fill="none"/><path d="M8.5 7.32a2.2 2.2 0 0 0-2.14 2.46 4.4 4.4 0 0 0-1.21 0.63 1.42 1.42 0 0 0-0.29 2 1.48 1.48 0 0 0 2 0.28 2.89 2.89 0 0 1 1.64-0.52 2.89 2.89 0 0 1 1.64 0.49c0.6 0.495 1.49 0.41 1.985-0.191l0.015-0.019a1.35 1.35 0 0 0-0.21-2l-0.08-0.04a6.4 6.4 0 0 0-1.21-0.63A2.2 2.2 0 0 0 8.5 7.32z m-3.87-1.2a1.11 1.11 0 0 0-0.55 1.44 1.08 1.08 0 0 0 1.15 1 1.11 1.11 0 0 0 0.55-1.44 1.08 1.08 0 0 0-1.15-1z m7.74 0c0.541 0.254 0.784 0.89 0.55 1.44a1.08 1.08 0 0 1-1.15 1 1.11 1.11 0 0 1-0.55-1.44 1.08 1.08 0 0 1 1.15-1zM6.77 4a1 1 0 0 0-0.55 1.32 1.26 1.26 0 0 0 1.16 1.09 1 1 0 0 0 0.558-1.3l-0.008-0.02A1.26 1.26 0 0 0 6.77 4z m3.46 0a1 1 0 0 1 0.558 1.3l-0.008 0.02a1.26 1.26 0 0 1-1.16 1.09 1 1 0 0 1-0.559-1.3l0.009-0.02A1.26 1.26 0 0 1 10.23 4z" fill="hsl(236, 6%, 48%)" stroke="hsl(60, 5%, 100%)" stroke-linejoin="round" stroke-miterlimit="4px" stroke-width="2"/><path d="M8.5 7.32a2.2 2.2 0 0 0-2.14 2.46 4.4 4.4 0 0 0-1.21 0.63 1.42 1.42 0 0 0-0.29 2 1.48 1.48 0 0 0 2 0.28 2.89 2.89 0 0 1 1.64-0.52 2.89 2.89 0 0 1 1.64 0.49c0.6 0.495 1.49 0.41 1.985-0.191l0.015-0.019a1.35 1.35 0 0 0-0.21-2l-0.08-0.04a6.4 6.4 0 0 0-1.21-0.63A2.2 2.2 0 0 0 8.5 7.32z m-3.87-1.2a1.11 1.11 0 0 0-0.55 1.44 1.08 1.08 0 0 0 1.15 1 1.11 1.11 0 0 0 0.55-1.44 1.08 1.08 0 0 0-1.15-1z m7.74 0c0.541 0.254 0.784 0.89 0.55 1.44a1.08 1.08 0 0 1-1.15 1 1.11 1.11 0 0 1-0.55-1.44 1.08 1.08 0 0 1 1.15-1zM6.77 4a1 1 0 0 0-0.55 1.32 1.26 1.26 0 0 0 1.16 1.09 1 1 0 0 0 0.558-1.3l-0.008-0.02A1.26 1.26 0 0 0 6.77 4z m3.46 0a1 1 0 0 1 0.558 1.3l-0.008 0.02a1.26 1.26 0 0 1-1.16 1.09 1 1 0 0 1-0.559-1.3l0.009-0.02A1.26 1.26 0 0 1 10.23 4z" fill="hsl(236, 6%, 48%)"/></g></svg>