<svg xmlns="http://www.w3.org/2000/svg" id="viewpoint-15" width="21" height="21" viewBox="0 0 21 21"><g><path d="M0,0 H21 V21 H0 Z" fill="none"/><path d="M9.02 11.425a2.386 2.386 0 0 0-0.46 0.44l-4.55-3.5a7.998 7.998 0 0 1 1.51-1.51z m6.46-4.56l-3.5 4.55a2.397 2.397 0 0 1 0.45 0.45l4.56-3.5a7.945 7.945 0 0 0-1.51-1.5z m-5.176 6.148a1.5 1.5 0 1 0 1.683 1.291 1.5 1.5 0 0 0-1.683-1.291zM9.43 5.234999999999999a7.933 7.933 0 0 0-2.06 0.55l2.2 5.32a2.044 2.044 0 0 1 0.61-0.17z m2.14 0.01l-0.75 5.69a2.49 2.49 0 0 1 0.61 0.16l2.2-5.3a7.213 7.213 0 0 0-2.06-0.55z" fill="hsl(236, 6%, 48%)" stroke="hsl(60, 5%, 100%)" stroke-linejoin="round" stroke-miterlimit="4px" stroke-width="2"/><path d="M9.02 11.425a2.386 2.386 0 0 0-0.46 0.44l-4.55-3.5a7.998 7.998 0 0 1 1.51-1.51z m6.46-4.56l-3.5 4.55a2.397 2.397 0 0 1 0.45 0.45l4.56-3.5a7.945 7.945 0 0 0-1.51-1.5z m-5.176 6.148a1.5 1.5 0 1 0 1.683 1.291 1.5 1.5 0 0 0-1.683-1.291zM9.43 5.234999999999999a7.933 7.933 0 0 0-2.06 0.55l2.2 5.32a2.044 2.044 0 0 1 0.61-0.17z m2.14 0.01l-0.75 5.69a2.49 2.49 0 0 1 0.61 0.16l2.2-5.3a7.213 7.213 0 0 0-2.06-0.55z" fill="hsl(236, 6%, 48%)"/></g></svg>