<svg xmlns="http://www.w3.org/2000/svg" id="viewpoint-11" width="17" height="17" viewBox="0 0 17 17"><g><path d="M0,0 H17 V17 H0 Z" fill="none"/><path d="M7.403 8.777000000000001a0.852 0.852 0 0 0-0.183 0.215L3.75 6.322a5.78 5.78 0 0 1 1.1-1.11zM12.15 5.2219999999999995l-2.544 3.56a1.379 1.379 0 0 1 0.184 0.2l3.47-2.66a5.78 5.78 0 0 0-1.11-1.1zM8.370000000000001 10.009a1 1 0 1 0 1.122 0.86 1 1 0 0 0-1.122-0.86z m-0.65-5.987a5.774 5.774 0 0 0-1.52 0.41l1.768 4.003a0.815 0.815 0 0 1 0.238-0.061z m1.56 0.01l-0.454 4.353a0.761 0.761 0 0 1 0.206 0.044L10.79 4.431a5.519 5.519 0 0 0-1.51-0.4z" fill="hsl(236, 6%, 48%)" stroke="hsl(60, 5%, 100%)" stroke-linejoin="round" stroke-miterlimit="4px" stroke-width="2"/><path d="M7.403 8.777000000000001a0.852 0.852 0 0 0-0.183 0.215L3.75 6.322a5.78 5.78 0 0 1 1.1-1.11zM12.15 5.2219999999999995l-2.544 3.56a1.379 1.379 0 0 1 0.184 0.2l3.47-2.66a5.78 5.78 0 0 0-1.11-1.1zM8.370000000000001 10.009a1 1 0 1 0 1.122 0.86 1 1 0 0 0-1.122-0.86z m-0.65-5.987a5.774 5.774 0 0 0-1.52 0.41l1.768 4.003a0.815 0.815 0 0 1 0.238-0.061z m1.56 0.01l-0.454 4.353a0.761 0.761 0 0 1 0.206 0.044L10.79 4.431a5.519 5.519 0 0 0-1.51-0.4z" fill="hsl(236, 6%, 48%)"/></g></svg>