<svg xmlns="http://www.w3.org/2000/svg" id="volcano-15" width="21" height="21" viewBox="0 0 21 21"><g><path d="M0,0 H21 V21 H0 Z" fill="none"/><path d="M11.484 4a0.502 0.502 0 0 0-0.375 0.188L9.45 6.2620000000000005 7.844 4.7379999999999995c-0.436-0.4-1.084 0.155-0.754 0.647l1.666 2.4a0.5 0.5 0 0 0 0.803 0.026c0.166-0.21 0.441-0.678 0.941-0.678s0.793 0.49 0.941 0.678a0.5 0.5 0 0 0 0.713 0.072l1.668-1.4c0.441-0.375 0-1.074-0.527-0.838L12 6.227V4.5a0.5 0.5 0 0 0-0.516-0.5zM8 9l-2.924 5.924C5 15.001 5 15.155 5 15.309c0 0.538 0.384 0.691 0.691 0.691h9.618c0.384 0 0.691-0.153 0.691-0.691 0-0.154 0-0.231-0.076-0.385L13 9c-0.5 0-1 0.5-1 1v0.5a0.499 0.499 0 1 1-1 0V10a0.5 0.5 0 1 0-1 0v2a0.499 0.499 0 1 1-1 0V10c0-0.5-0.5-1-1-1z" fill="hsl(236, 6%, 48%)" stroke="hsl(60, 5%, 100%)" stroke-linejoin="round" stroke-miterlimit="4px" stroke-width="2"/><path d="M11.484 4a0.502 0.502 0 0 0-0.375 0.188L9.45 6.2620000000000005 7.844 4.7379999999999995c-0.436-0.4-1.084 0.155-0.754 0.647l1.666 2.4a0.5 0.5 0 0 0 0.803 0.026c0.166-0.21 0.441-0.678 0.941-0.678s0.793 0.49 0.941 0.678a0.5 0.5 0 0 0 0.713 0.072l1.668-1.4c0.441-0.375 0-1.074-0.527-0.838L12 6.227V4.5a0.5 0.5 0 0 0-0.516-0.5zM8 9l-2.924 5.924C5 15.001 5 15.155 5 15.309c0 0.538 0.384 0.691 0.691 0.691h9.618c0.384 0 0.691-0.153 0.691-0.691 0-0.154 0-0.231-0.076-0.385L13 9c-0.5 0-1 0.5-1 1v0.5a0.499 0.499 0 1 1-1 0V10a0.5 0.5 0 1 0-1 0v2a0.499 0.499 0 1 1-1 0V10c0-0.5-0.5-1-1-1z" fill="hsl(236, 6%, 48%)"/></g></svg>