<svg xmlns="http://www.w3.org/2000/svg" id="volcano-11" width="17" height="17" viewBox="0 0 17 17"><g><path d="M0,0 H17 V17 H0 Z" fill="none"/><path d="M6 4l1.5 3h2L11 6V5L9 6V4h-0.5L8 5.5 6.5 4H6z m0.522 4L4.023 12.16c-0.223 0.37 0.044 0.84 0.476 0.84h8c0.432 0 0.7-0.47 0.477-0.84L10.479 8H10v0.5a0.499 0.499 0 1 1-1 0 0.5 0.5 0 0 0-1 0v2a0.499 0.499 0 1 1-1 0V8h-0.478z" fill="hsl(236, 6%, 48%)" stroke="hsl(60, 5%, 100%)" stroke-linejoin="round" stroke-miterlimit="4px" stroke-width="2"/><path d="M6 4l1.5 3h2L11 6V5L9 6V4h-0.5L8 5.5 6.5 4H6z m0.522 4L4.023 12.16c-0.223 0.37 0.044 0.84 0.476 0.84h8c0.432 0 0.7-0.47 0.477-0.84L10.479 8H10v0.5a0.499 0.499 0 1 1-1 0 0.5 0.5 0 0 0-1 0v2a0.499 0.499 0 1 1-1 0V8h-0.478z" fill="hsl(236, 6%, 48%)"/></g></svg>