<svg xmlns="http://www.w3.org/2000/svg" id="volleyball-11" width="17" height="17" viewBox="0 0 17 17"><g><path d="M0,0 H17 V17 H0 Z" fill="none"/><path d="M12.99 8.73a3.657 3.657 0 0 1-0.1 0.74 6.322 6.322 0 0 0-2.45-1.42 5.954 5.954 0 0 0-1.32-0.27c-0.03 0-0.07-0.01-0.11-0.01a4.605 4.605 0 0 1-0.51-1.13 1.056 1.056 0 0 1-0.06-0.24h0.12a4.878 4.878 0 0 1 1.01 0.11 5.039 5.039 0 0 1 1.14 0.36 4.834 4.834 0 0 1 0.94 0.53 5.136 5.136 0 0 1 1.34 1.33z m-0.66 1.58a5.196 5.196 0 0 0-1.36-0.97c-0.05 0.1-0.11 0.19-0.17 0.29a5.864 5.864 0 0 1-0.59 0.82 7.18 7.18 0 0 1-0.78 0.78 6.72 6.72 0 0 1-0.93 0.65 6.364 6.364 0 0 1-1.86 0.72 4.524 4.524 0 0 0 3.72 0 4.158 4.158 0 0 0 1.25-0.86 3.198 3.198 0 0 0 0.43-0.47 3.747 3.747 0 0 0 0.48-0.76 1.192 1.192 0 0 0-0.19-0.2z m-0.65-4.99a4.508 4.508 0 0 0-1.24-0.88 3.979 3.979 0 0 0-0.75-0.28 4.342 4.342 0 0 0-1.03-0.15 1.279 1.279 0 0 0-0.32 0 5.363 5.363 0 0 0-0.09 0.99c0 0.14 0.01 0.28 0.02 0.41a1.617 1.617 0 0 1 0.22-0.01 1.924 1.924 0 0 1 0.24 0.01 6.65 6.65 0 0 1 1 0.11 5.695 5.695 0 0 1 1 0.28 6.781 6.781 0 0 1 1.02 0.47 6.665 6.665 0 0 1 0.98 0.69 4.566 4.566 0 0 0-1.05-1.64zM6.029999999999999 9.34a5.808 5.808 0 0 1-0.4-0.92 5.785 5.785 0 0 1-0.28-1.03 6.86 6.86 0 0 1-0.1-1.12v-0.02a5.656 5.656 0 0 1 0.07-0.93 4.394 4.394 0 0 0-1.05 1.65A4.32 4.32 0 0 0 4 8.5a1.767 1.767 0 0 0 0.01 0.23 4.416 4.416 0 0 0 0.09 0.73 4.075 4.075 0 0 0 0.31 0.91 1.069 1.069 0 0 0 0.27-0.07 5.068 5.068 0 0 0 1.52-0.67c-0.06-0.1-0.12-0.19-0.17-0.29z m3.88-0.4a5.5 5.5 0 0 0-1.35-0.19c-0.02 0.03-0.04 0.05-0.06 0.08a6.247 6.247 0 0 1-0.91 1.01 5.833 5.833 0 0 1-0.8 0.61 6.573 6.573 0 0 1-1.83 0.82 3.198 3.198 0 0 0 0.43 0.47 5.172 5.172 0 0 0 2.18-0.51 5.415 5.415 0 0 0 0.93-0.55 5.596 5.596 0 0 0 0.91-0.84A4.805 4.805 0 0 0 10 9.01a0.052 0.052 0 0 0 0.02-0.04 0.228 0.228 0 0 0-0.11-0.03zM7.88 7.78a5.64 5.64 0 0 1-0.45-1.27 6.386 6.386 0 0 1-0.16-0.99c-0.01-0.17-0.02-0.35-0.02-0.52a5.83 5.83 0 0 1 0.06-0.84 3.982 3.982 0 0 0-0.75 0.28 5.58 5.58 0 0 0-0.29 1.36c-0.01 0.15-0.02 0.3-0.02 0.45a4.215 4.215 0 0 0 0.04 0.62 4.71 4.71 0 0 0 0.27 1.18 5.098 5.098 0 0 0 0.42 0.92 0.052 0.052 0 0 0 0.02 0.04 0.178 0.178 0 0 0 0.08-0.07h0.01a5.682 5.682 0 0 0 0.84-1.06 0.313 0.313 0 0 1-0.05-0.1z" fill="hsl(236, 6%, 48%)" stroke="hsl(60, 5%, 100%)" stroke-linejoin="round" stroke-miterlimit="4px" stroke-width="2"/><path d="M12.99 8.73a3.657 3.657 0 0 1-0.1 0.74 6.322 6.322 0 0 0-2.45-1.42 5.954 5.954 0 0 0-1.32-0.27c-0.03 0-0.07-0.01-0.11-0.01a4.605 4.605 0 0 1-0.51-1.13 1.056 1.056 0 0 1-0.06-0.24h0.12a4.878 4.878 0 0 1 1.01 0.11 5.039 5.039 0 0 1 1.14 0.36 4.834 4.834 0 0 1 0.94 0.53 5.136 5.136 0 0 1 1.34 1.33z m-0.66 1.58a5.196 5.196 0 0 0-1.36-0.97c-0.05 0.1-0.11 0.19-0.17 0.29a5.864 5.864 0 0 1-0.59 0.82 7.18 7.18 0 0 1-0.78 0.78 6.72 6.72 0 0 1-0.93 0.65 6.364 6.364 0 0 1-1.86 0.72 4.524 4.524 0 0 0 3.72 0 4.158 4.158 0 0 0 1.25-0.86 3.198 3.198 0 0 0 0.43-0.47 3.747 3.747 0 0 0 0.48-0.76 1.192 1.192 0 0 0-0.19-0.2z m-0.65-4.99a4.508 4.508 0 0 0-1.24-0.88 3.979 3.979 0 0 0-0.75-0.28 4.342 4.342 0 0 0-1.03-0.15 1.279 1.279 0 0 0-0.32 0 5.363 5.363 0 0 0-0.09 0.99c0 0.14 0.01 0.28 0.02 0.41a1.617 1.617 0 0 1 0.22-0.01 1.924 1.924 0 0 1 0.24 0.01 6.65 6.65 0 0 1 1 0.11 5.695 5.695 0 0 1 1 0.28 6.781 6.781 0 0 1 1.02 0.47 6.665 6.665 0 0 1 0.98 0.69 4.566 4.566 0 0 0-1.05-1.64zM6.029999999999999 9.34a5.808 5.808 0 0 1-0.4-0.92 5.785 5.785 0 0 1-0.28-1.03 6.86 6.86 0 0 1-0.1-1.12v-0.02a5.656 5.656 0 0 1 0.07-0.93 4.394 4.394 0 0 0-1.05 1.65A4.32 4.32 0 0 0 4 8.5a1.767 1.767 0 0 0 0.01 0.23 4.416 4.416 0 0 0 0.09 0.73 4.075 4.075 0 0 0 0.31 0.91 1.069 1.069 0 0 0 0.27-0.07 5.068 5.068 0 0 0 1.52-0.67c-0.06-0.1-0.12-0.19-0.17-0.29z m3.88-0.4a5.5 5.5 0 0 0-1.35-0.19c-0.02 0.03-0.04 0.05-0.06 0.08a6.247 6.247 0 0 1-0.91 1.01 5.833 5.833 0 0 1-0.8 0.61 6.573 6.573 0 0 1-1.83 0.82 3.198 3.198 0 0 0 0.43 0.47 5.172 5.172 0 0 0 2.18-0.51 5.415 5.415 0 0 0 0.93-0.55 5.596 5.596 0 0 0 0.91-0.84A4.805 4.805 0 0 0 10 9.01a0.052 0.052 0 0 0 0.02-0.04 0.228 0.228 0 0 0-0.11-0.03zM7.88 7.78a5.64 5.64 0 0 1-0.45-1.27 6.386 6.386 0 0 1-0.16-0.99c-0.01-0.17-0.02-0.35-0.02-0.52a5.83 5.83 0 0 1 0.06-0.84 3.982 3.982 0 0 0-0.75 0.28 5.58 5.58 0 0 0-0.29 1.36c-0.01 0.15-0.02 0.3-0.02 0.45a4.215 4.215 0 0 0 0.04 0.62 4.71 4.71 0 0 0 0.27 1.18 5.098 5.098 0 0 0 0.42 0.92 0.052 0.052 0 0 0 0.02 0.04 0.178 0.178 0 0 0 0.08-0.07h0.01a5.682 5.682 0 0 0 0.84-1.06 0.313 0.313 0 0 1-0.05-0.1z" fill="hsl(236, 6%, 48%)"/></g></svg>