<svg xmlns="http://www.w3.org/2000/svg" id="volleyball-15" width="21" height="21" viewBox="0 0 21 21"><g><path d="M0,0 H21 V21 H0 Z" fill="none"/><path d="M16.91 10.940000000000001a5.909 5.909 0 0 1-0.13 0.94 8.822 8.822 0 0 0-2.17-1.49 8.89 8.89 0 0 0-1.4-0.56 8.614 8.614 0 0 0-1.82-0.35 0.221 0.221 0 0 0-0.08-0.01 7.32 7.32 0 0 1-0.81-1.88c-0.01-0.01-0.01-0.01 0-0.02a7.757 7.757 0 0 1 1.52 0.15 7.099 7.099 0 0 1 1.56 0.5 6.859 6.859 0 0 1 1.4 0.78 7.417 7.417 0 0 1 1.93 1.94z m-1.87-5a6.223 6.223 0 0 0-1.85-1.27 4.272 4.272 0 0 0-0.98-0.36 5.641 5.641 0 0 0-1.55-0.23 1.288 1.288 0 0 0-0.32 0 7.426 7.426 0 0 0-0.13 1.42c0 0.2 0.01 0.39 0.02 0.58a2.28 2.28 0 0 1 0.26-0.01 2.644 2.644 0 0 1 0.28 0.01 8.287 8.287 0 0 1 1.49 0.16 8.988 8.988 0 0 1 1.35 0.37 8.792 8.792 0 0 1 1.53 0.7 10.18 10.18 0 0 1 1.39 0.97 6.459 6.459 0 0 0-1.49-2.34zM7.01 11.76a9.408 9.408 0 0 1-0.62-1.37 9.104 9.104 0 0 1-0.37-1.41 9.175 9.175 0 0 1-0.16-1.67v-0.03a8.455 8.455 0 0 1 0.1-1.34A6.28 6.28 0 0 0 4.47 8.3a6.222 6.222 0 0 0-0.4 2.2c0 0.15 0.01 0.3 0.02 0.44a5.909 5.909 0 0 0 0.13 0.94 5.734 5.734 0 0 0 0.41 1.23c0.22-0.05 0.44-0.11 0.65-0.17a8.019 8.019 0 0 0 1.9-0.88c-0.06-0.1-0.12-0.2-0.17-0.3z m2.6-2.28a9 9 0 0 1-0.63-1.76 9.135 9.135 0 0 1-0.24-1.48c-0.02-0.25-0.03-0.49-0.03-0.74a9.378 9.378 0 0 1 0.08-1.19 4.272 4.272 0 0 0-0.98 0.36 7.704 7.704 0 0 0-0.42 1.94c-0.02 0.22-0.03 0.44-0.03 0.67a7.266 7.266 0 0 0 0.06 0.93 7.426 7.426 0 0 0 0.37 1.63 6.47 6.47 0 0 0 0.59 1.28 8.017 8.017 0 0 0 1.27-1.57 0.252 0.252 0 0 1-0.04-0.07z m6.09 3.45s0-0.01-0.01 0a7.013 7.013 0 0 0-1.7-1.16c-0.06 0.1-0.11 0.19-0.17 0.29a8.783 8.783 0 0 1-0.88 1.22 8.912 8.912 0 0 1-1.06 1.07 10.418 10.418 0 0 1-1.38 0.98 8.993 8.993 0 0 1-2.64 1.02 6.298 6.298 0 0 0 5.28 0 5.967 5.967 0 0 0 2.42-1.89 4.826 4.826 0 0 0 0.65-1.03 6.032 6.032 0 0 0-0.51-0.5z m-5.17-2c-0.01 0.01-0.02 0.03-0.03 0.04a9.26 9.26 0 0 1-1.25 1.4 9.592 9.592 0 0 1-1.19 0.91 9.268 9.268 0 0 1-2.62 1.18 6.099 6.099 0 0 0 0.53 0.61 7.735 7.735 0 0 0 3.15-0.72 7.384 7.384 0 0 0 1.38-0.82 7.643 7.643 0 0 0 1.25-1.16 7.744 7.744 0 0 0 0.82-1.15 7.341 7.341 0 0 0-2.04-0.29z" fill="hsl(236, 6%, 48%)" stroke="hsl(60, 5%, 100%)" stroke-linejoin="round" stroke-miterlimit="4px" stroke-width="2"/><path d="M16.91 10.940000000000001a5.909 5.909 0 0 1-0.13 0.94 8.822 8.822 0 0 0-2.17-1.49 8.89 8.89 0 0 0-1.4-0.56 8.614 8.614 0 0 0-1.82-0.35 0.221 0.221 0 0 0-0.08-0.01 7.32 7.32 0 0 1-0.81-1.88c-0.01-0.01-0.01-0.01 0-0.02a7.757 7.757 0 0 1 1.52 0.15 7.099 7.099 0 0 1 1.56 0.5 6.859 6.859 0 0 1 1.4 0.78 7.417 7.417 0 0 1 1.93 1.94z m-1.87-5a6.223 6.223 0 0 0-1.85-1.27 4.272 4.272 0 0 0-0.98-0.36 5.641 5.641 0 0 0-1.55-0.23 1.288 1.288 0 0 0-0.32 0 7.426 7.426 0 0 0-0.13 1.42c0 0.2 0.01 0.39 0.02 0.58a2.28 2.28 0 0 1 0.26-0.01 2.644 2.644 0 0 1 0.28 0.01 8.287 8.287 0 0 1 1.49 0.16 8.988 8.988 0 0 1 1.35 0.37 8.792 8.792 0 0 1 1.53 0.7 10.18 10.18 0 0 1 1.39 0.97 6.459 6.459 0 0 0-1.49-2.34zM7.01 11.76a9.408 9.408 0 0 1-0.62-1.37 9.104 9.104 0 0 1-0.37-1.41 9.175 9.175 0 0 1-0.16-1.67v-0.03a8.455 8.455 0 0 1 0.1-1.34A6.28 6.28 0 0 0 4.47 8.3a6.222 6.222 0 0 0-0.4 2.2c0 0.15 0.01 0.3 0.02 0.44a5.909 5.909 0 0 0 0.13 0.94 5.734 5.734 0 0 0 0.41 1.23c0.22-0.05 0.44-0.11 0.65-0.17a8.019 8.019 0 0 0 1.9-0.88c-0.06-0.1-0.12-0.2-0.17-0.3z m2.6-2.28a9 9 0 0 1-0.63-1.76 9.135 9.135 0 0 1-0.24-1.48c-0.02-0.25-0.03-0.49-0.03-0.74a9.378 9.378 0 0 1 0.08-1.19 4.272 4.272 0 0 0-0.98 0.36 7.704 7.704 0 0 0-0.42 1.94c-0.02 0.22-0.03 0.44-0.03 0.67a7.266 7.266 0 0 0 0.06 0.93 7.426 7.426 0 0 0 0.37 1.63 6.47 6.47 0 0 0 0.59 1.28 8.017 8.017 0 0 0 1.27-1.57 0.252 0.252 0 0 1-0.04-0.07z m6.09 3.45s0-0.01-0.01 0a7.013 7.013 0 0 0-1.7-1.16c-0.06 0.1-0.11 0.19-0.17 0.29a8.783 8.783 0 0 1-0.88 1.22 8.912 8.912 0 0 1-1.06 1.07 10.418 10.418 0 0 1-1.38 0.98 8.993 8.993 0 0 1-2.64 1.02 6.298 6.298 0 0 0 5.28 0 5.967 5.967 0 0 0 2.42-1.89 4.826 4.826 0 0 0 0.65-1.03 6.032 6.032 0 0 0-0.51-0.5z m-5.17-2c-0.01 0.01-0.02 0.03-0.03 0.04a9.26 9.26 0 0 1-1.25 1.4 9.592 9.592 0 0 1-1.19 0.91 9.268 9.268 0 0 1-2.62 1.18 6.099 6.099 0 0 0 0.53 0.61 7.735 7.735 0 0 0 3.15-0.72 7.384 7.384 0 0 0 1.38-0.82 7.643 7.643 0 0 0 1.25-1.16 7.744 7.744 0 0 0 0.82-1.15 7.341 7.341 0 0 0-2.04-0.29z" fill="hsl(236, 6%, 48%)"/></g></svg>