<svg xmlns="http://www.w3.org/2000/svg" id="watch-15" width="21" height="21" viewBox="0 0 21 21"><g><path d="M0,0 H21 V21 H0 Z" fill="none"/><path d="M15.5 10H15c-0.018 0-0.032 0.008-0.05 0.01A4.485 4.485 0 0 0 13 6.76V4.498A0.498 0.498 0 0 0 12.502 4H8.498000000000001A0.498 0.498 0 0 0 8 4.498V6.76c-1.205 0.807-2 2.18-2 3.74s0.795 2.933 2 3.74v2.262c0 0.275 0.223 0.498 0.498 0.498h4.004a0.498 0.498 0 0 0 0.498-0.498V14.24a4.485 4.485 0 0 0 1.95-3.25c0.018 0.002 0.033 0.01 0.05 0.01h0.5a0.5 0.5 0 0 0 0-1z m-5 4a3.5 3.5 0 1 1 0-7 3.5 3.5 0 0 1 0 7z" fill="hsl(236, 6%, 48%)" stroke="hsl(60, 5%, 100%)" stroke-linejoin="round" stroke-miterlimit="4px" stroke-width="2"/><path d="M12 10H11V8.5a0.5 0.5 0 1 0-1 0v2a0.5 0.5 0 0 0 0.5 0.5H12a0.5 0.5 0 0 0 0-1z" fill="hsl(236, 6%, 48%)" stroke="hsl(60, 5%, 100%)" stroke-linejoin="round" stroke-miterlimit="4px" stroke-width="2"/><path d="M15.5 10H15c-0.018 0-0.032 0.008-0.05 0.01A4.485 4.485 0 0 0 13 6.76V4.498A0.498 0.498 0 0 0 12.502 4H8.498000000000001A0.498 0.498 0 0 0 8 4.498V6.76c-1.205 0.807-2 2.18-2 3.74s0.795 2.933 2 3.74v2.262c0 0.275 0.223 0.498 0.498 0.498h4.004a0.498 0.498 0 0 0 0.498-0.498V14.24a4.485 4.485 0 0 0 1.95-3.25c0.018 0.002 0.033 0.01 0.05 0.01h0.5a0.5 0.5 0 0 0 0-1z m-5 4a3.5 3.5 0 1 1 0-7 3.5 3.5 0 0 1 0 7z" fill="hsl(236, 6%, 48%)"/><path d="M12 10H11V8.5a0.5 0.5 0 1 0-1 0v2a0.5 0.5 0 0 0 0.5 0.5H12a0.5 0.5 0 0 0 0-1z" fill="hsl(236, 6%, 48%)"/></g></svg>