<svg xmlns="http://www.w3.org/2000/svg" id="watch-11" width="17" height="17" viewBox="0 0 17 17"><g><path d="M0,0 H17 V17 H0 Z" fill="none"/><path d="M12.077 8.154h-0.112A3.483 3.483 0 0 0 10 5.35V4H7v1.35c-1.18 0.563-2 1.756-2 3.15s0.82 2.587 2 3.15V13h3V11.65a3.482 3.482 0 0 0 1.965-2.804h0.112a0.346 0.346 0 1 0 0-0.692zM8.5 11a2.5 2.5 0 1 1 0-5 2.5 2.5 0 0 1 0 5z" fill="hsl(236, 6%, 48%)" stroke="hsl(60, 5%, 100%)" stroke-linejoin="round" stroke-miterlimit="4px" stroke-width="2"/><path d="M9.5 8H9V7a0.5 0.5 0 1 0-1 0v1.5a0.5 0.5 0 0 0 0.5 0.5h1a0.5 0.5 0 0 0 0-1z" fill="hsl(236, 6%, 48%)" stroke="hsl(60, 5%, 100%)" stroke-linejoin="round" stroke-miterlimit="4px" stroke-width="2"/><path d="M12.077 8.154h-0.112A3.483 3.483 0 0 0 10 5.35V4H7v1.35c-1.18 0.563-2 1.756-2 3.15s0.82 2.587 2 3.15V13h3V11.65a3.482 3.482 0 0 0 1.965-2.804h0.112a0.346 0.346 0 1 0 0-0.692zM8.5 11a2.5 2.5 0 1 1 0-5 2.5 2.5 0 0 1 0 5z" fill="hsl(236, 6%, 48%)"/><path d="M9.5 8H9V7a0.5 0.5 0 1 0-1 0v1.5a0.5 0.5 0 0 0 0.5 0.5h1a0.5 0.5 0 0 0 0-1z" fill="hsl(236, 6%, 48%)"/></g></svg>