<svg xmlns="http://www.w3.org/2000/svg" id="waterfall-15" width="21" height="21" viewBox="0 0 21 21"><g><path d="M0,0 H21 V21 H0 Z" fill="none"/><path d="M15.9 6H18V4H8S4 4 4 8v5.5c-1.1 0.8-1.3 2.4-0.5 3.5s2.4 1.3 3.5 0.5c1 0.8 2.5 0.6 3.4-0.4 0.6 0.6 1.5 0.9 2.4 0.9 2.1 0 3.7-1.6 3.8-3.7 0-1.6-1-3-2.5-3.5V8c-0.1-1.1 0.7-2 1.8-2zM13 11v0.5c1.5 0.1 2.6 1.5 2.5 3-0.1 1.4-1.3 2.5-2.7 2.5-1.1 0.1-1.8-0.6-2.1-1h-0.8c-0.1 0.2-0.4 1-1.4 1s-1.3-0.6-1.4-1h-0.2c-0.2 0.4-0.5 0.8-0.9 0.9-0.9 0.3-1.7-0.2-1.9-1-0.2-0.8 0.2-1.6 0.9-1.8V9c0-0.5 0.4-1 1-1 0.5 0 1 0.4 1 1v4.5c0 0.3 0.2 0.5 0.5 0.5s0.5-0.2 0.5-0.5V10c0-0.6 0.4-1 1-1s1 0.4 1 1v3.5c0 0.3 0.2 0.5 0.5 0.5s0.5-0.2 0.5-0.5V9c0-0.6 0.4-1 1-1s1 0.4 1 1v2z" fill="hsl(236, 6%, 48%)" stroke="hsl(60, 5%, 100%)" stroke-linejoin="round" stroke-miterlimit="4px" stroke-width="2"/><path d="M15.9 6H18V4H8S4 4 4 8v5.5c-1.1 0.8-1.3 2.4-0.5 3.5s2.4 1.3 3.5 0.5c1 0.8 2.5 0.6 3.4-0.4 0.6 0.6 1.5 0.9 2.4 0.9 2.1 0 3.7-1.6 3.8-3.7 0-1.6-1-3-2.5-3.5V8c-0.1-1.1 0.7-2 1.8-2zM13 11v0.5c1.5 0.1 2.6 1.5 2.5 3-0.1 1.4-1.3 2.5-2.7 2.5-1.1 0.1-1.8-0.6-2.1-1h-0.8c-0.1 0.2-0.4 1-1.4 1s-1.3-0.6-1.4-1h-0.2c-0.2 0.4-0.5 0.8-0.9 0.9-0.9 0.3-1.7-0.2-1.9-1-0.2-0.8 0.2-1.6 0.9-1.8V9c0-0.5 0.4-1 1-1 0.5 0 1 0.4 1 1v4.5c0 0.3 0.2 0.5 0.5 0.5s0.5-0.2 0.5-0.5V10c0-0.6 0.4-1 1-1s1 0.4 1 1v3.5c0 0.3 0.2 0.5 0.5 0.5s0.5-0.2 0.5-0.5V9c0-0.6 0.4-1 1-1s1 0.4 1 1v2z" fill="hsl(236, 6%, 48%)"/></g></svg>