<svg xmlns="http://www.w3.org/2000/svg" id="watermill-11" width="17" height="17" viewBox="0 0 17 17"><g><path d="M0,0 H17 V17 H0 Z" fill="none"/><path d="M12.987 7.375a3.487 3.487 0 0 0-3.362-3.362V4h-0.25v0.013A3.476 3.476 0 0 0 6.7 5.43L5.506 4 3 7h1v4l1.8-1 1.8 1 1.12-0.622A2.98 2.98 0 0 1 7.476 9.7l1.776-1.775a0.482 0.482 0 0 0 0.123 0.05v2.04L9.401 10l0.224 0.124v-2.15a0.482 0.482 0 0 0 0.123-0.05L11.524 9.7c-0.381 0.35-0.85 0.602-1.371 0.718l0.593 0.33a3.477 3.477 0 0 0 2.241-3.123H13v-0.25h-0.013zM7.3 9.524000000000001a2.977 2.977 0 0 1-0.787-1.899h2.512a0.482 0.482 0 0 0 0.05 0.123L7.3 9.524000000000001z m1.725-2.149H6.513c0.03-0.732 0.322-1.393 0.787-1.899l1.775 1.776a0.482 0.482 0 0 0-0.05 0.123z m0.35-0.35a0.482 0.482 0 0 0-0.123 0.05L7.476 5.3a2.977 2.977 0 0 1 1.899-0.787v2.512z m0.25 0V4.513c0.732 0.03 1.393 0.322 1.899 0.787L9.748000000000001 7.075a0.482 0.482 0 0 0-0.123-0.05zM11.7 9.523L9.925 7.748a0.482 0.482 0 0 0 0.05-0.123h2.512A2.977 2.977 0 0 1 11.7 9.524000000000001zM9.975 7.376a0.482 0.482 0 0 0-0.05-0.123L11.7 5.476c0.465 0.506 0.757 1.167 0.787 1.899H9.975zM9.4 11L7.6 12l-0.792-0.44L5.8 11l-1.008 0.56L4 12v1l1.8-1 1.8 1 1.801-1L11.2 13 13 12V11L11.2 12 9.401 11z" fill="hsl(236, 6%, 48%)" stroke="hsl(60, 5%, 100%)" stroke-linejoin="round" stroke-miterlimit="4px" stroke-width="2"/><path d="M12.987 7.375a3.487 3.487 0 0 0-3.362-3.362V4h-0.25v0.013A3.476 3.476 0 0 0 6.7 5.43L5.506 4 3 7h1v4l1.8-1 1.8 1 1.12-0.622A2.98 2.98 0 0 1 7.476 9.7l1.776-1.775a0.482 0.482 0 0 0 0.123 0.05v2.04L9.401 10l0.224 0.124v-2.15a0.482 0.482 0 0 0 0.123-0.05L11.524 9.7c-0.381 0.35-0.85 0.602-1.371 0.718l0.593 0.33a3.477 3.477 0 0 0 2.241-3.123H13v-0.25h-0.013zM7.3 9.524000000000001a2.977 2.977 0 0 1-0.787-1.899h2.512a0.482 0.482 0 0 0 0.05 0.123L7.3 9.524000000000001z m1.725-2.149H6.513c0.03-0.732 0.322-1.393 0.787-1.899l1.775 1.776a0.482 0.482 0 0 0-0.05 0.123z m0.35-0.35a0.482 0.482 0 0 0-0.123 0.05L7.476 5.3a2.977 2.977 0 0 1 1.899-0.787v2.512z m0.25 0V4.513c0.732 0.03 1.393 0.322 1.899 0.787L9.748000000000001 7.075a0.482 0.482 0 0 0-0.123-0.05zM11.7 9.523L9.925 7.748a0.482 0.482 0 0 0 0.05-0.123h2.512A2.977 2.977 0 0 1 11.7 9.524000000000001zM9.975 7.376a0.482 0.482 0 0 0-0.05-0.123L11.7 5.476c0.465 0.506 0.757 1.167 0.787 1.899H9.975zM9.4 11L7.6 12l-0.792-0.44L5.8 11l-1.008 0.56L4 12v1l1.8-1 1.8 1 1.801-1L11.2 13 13 12V11L11.2 12 9.401 11z" fill="hsl(236, 6%, 48%)"/></g></svg>