<svg xmlns="http://www.w3.org/2000/svg" id="watermill-15" width="21" height="21" viewBox="0 0 21 21"><g><path d="M0,0 H21 V21 H0 Z" fill="none"/><path d="M5 13.2L7 12l2.5 1.5 1.466-0.879a3.5 3.5 0 0 1-0.843-0.567L11.536 10.64c0.231 0.196 0.52 0.32 0.839 0.347v1.237l0.25 0.15V10.987c0.32-0.026 0.608-0.151 0.839-0.347l1.413 1.414c-0.406 0.378-0.905 0.649-1.453 0.8l1.076 0.646 0.698-0.42A4.478 4.478 0 0 0 17 9.5 4.5 4.5 0 0 0 12.5 5a4.474 4.474 0 0 0-3.298 1.459L7.5 5 4 8h1v5.2z m10.054-1.323L13.64 10.464c0.196-0.231 0.32-0.52 0.347-0.839h2a3.474 3.474 0 0 1-0.933 2.252z m0.933-2.502h-2a1.484 1.484 0 0 0-0.346-0.839l1.413-1.413c0.555 0.596 0.902 1.382 0.933 2.252zM12.625 6.013c0.87 0.031 1.656 0.378 2.252 0.933L13.464 8.36a1.484 1.484 0 0 0-0.839-0.346v-2z m-0.25 0v2c-0.32 0.026-0.608 0.151-0.839 0.346L10.123000000000001 6.946a3.475 3.475 0 0 1 2.252-0.933z m-2.429 1.11L11.36 8.536c-0.195 0.231-0.32 0.52-0.346 0.839h-2c0.031-0.87 0.378-1.656 0.933-2.252z m1.067 2.502c0.026 0.32 0.151 0.608 0.347 0.839L9.946 11.877a3.475 3.475 0 0 1-0.933-2.252h2zM12.002 13L9.5 14.5 7 13l-2.5 1.5V16L7 14.5 9.5 16l2.502-1.5L14.5 16l2.5-1.5V13l-2.5 1.5L12.002 13z" fill="hsl(236, 6%, 48%)" stroke="hsl(60, 5%, 100%)" stroke-linejoin="round" stroke-miterlimit="4px" stroke-width="2"/><path d="M5 13.2L7 12l2.5 1.5 1.466-0.879a3.5 3.5 0 0 1-0.843-0.567L11.536 10.64c0.231 0.196 0.52 0.32 0.839 0.347v1.237l0.25 0.15V10.987c0.32-0.026 0.608-0.151 0.839-0.347l1.413 1.414c-0.406 0.378-0.905 0.649-1.453 0.8l1.076 0.646 0.698-0.42A4.478 4.478 0 0 0 17 9.5 4.5 4.5 0 0 0 12.5 5a4.474 4.474 0 0 0-3.298 1.459L7.5 5 4 8h1v5.2z m10.054-1.323L13.64 10.464c0.196-0.231 0.32-0.52 0.347-0.839h2a3.474 3.474 0 0 1-0.933 2.252z m0.933-2.502h-2a1.484 1.484 0 0 0-0.346-0.839l1.413-1.413c0.555 0.596 0.902 1.382 0.933 2.252zM12.625 6.013c0.87 0.031 1.656 0.378 2.252 0.933L13.464 8.36a1.484 1.484 0 0 0-0.839-0.346v-2z m-0.25 0v2c-0.32 0.026-0.608 0.151-0.839 0.346L10.123000000000001 6.946a3.475 3.475 0 0 1 2.252-0.933z m-2.429 1.11L11.36 8.536c-0.195 0.231-0.32 0.52-0.346 0.839h-2c0.031-0.87 0.378-1.656 0.933-2.252z m1.067 2.502c0.026 0.32 0.151 0.608 0.347 0.839L9.946 11.877a3.475 3.475 0 0 1-0.933-2.252h2zM12.002 13L9.5 14.5 7 13l-2.5 1.5V16L7 14.5 9.5 16l2.502-1.5L14.5 16l2.5-1.5V13l-2.5 1.5L12.002 13z" fill="hsl(236, 6%, 48%)"/></g></svg>