<svg xmlns="http://www.w3.org/2000/svg" id="waterfall-11" width="17" height="17" viewBox="0 0 17 17"><g><path d="M0,0 H17 V17 H0 Z" fill="none"/><path d="M12.9 5H14V4H7C5.4 4 4 5.2 4 6.9v3.4C3 10.8 2.7 12 3.3 13c0.6 1 1.8 1.3 2.7 0.7 0.7 0.4 1.7 0.3 2.3-0.2 1.4 0.9 3.2 0.6 4.2-0.8 0.9-1.4 0.6-3.2-0.8-4.2-0.2-0.1-0.5-0.2-0.7-0.3V7c0-1.1 0.8-2 1.9-2zM12 11c0 1.1-0.9 2-2 2-1 0-1.1-0.3-1.3-0.5h-0.8c-0.2 0.2-0.4 0.5-0.9 0.5s-0.7-0.2-0.8-0.5h-0.4c-0.1 0.3-0.4 0.5-0.8 0.5-0.6 0-1-0.4-1-1s0.4-1 1-1V8s0-0.5 0.5-0.5 0.5 0.5 0.5 0.5v2.5s0 0.5 0.5 0.5 0.5-0.5 0.5-0.5V9s0-0.5 0.5-0.5 0.5 0.5 0.5 0.5v1.5s0 0.5 0.5 0.5 0.5-0.5 0.5-0.5V8s0-0.5 0.5-0.5 0.5 0.5 0.5 0.5v1c1.1 0 2 0.9 2 2z" fill="hsl(236, 6%, 48%)" stroke="hsl(60, 5%, 100%)" stroke-linejoin="round" stroke-miterlimit="4px" stroke-width="2"/><path d="M12.9 5H14V4H7C5.4 4 4 5.2 4 6.9v3.4C3 10.8 2.7 12 3.3 13c0.6 1 1.8 1.3 2.7 0.7 0.7 0.4 1.7 0.3 2.3-0.2 1.4 0.9 3.2 0.6 4.2-0.8 0.9-1.4 0.6-3.2-0.8-4.2-0.2-0.1-0.5-0.2-0.7-0.3V7c0-1.1 0.8-2 1.9-2zM12 11c0 1.1-0.9 2-2 2-1 0-1.1-0.3-1.3-0.5h-0.8c-0.2 0.2-0.4 0.5-0.9 0.5s-0.7-0.2-0.8-0.5h-0.4c-0.1 0.3-0.4 0.5-0.8 0.5-0.6 0-1-0.4-1-1s0.4-1 1-1V8s0-0.5 0.5-0.5 0.5 0.5 0.5 0.5v2.5s0 0.5 0.5 0.5 0.5-0.5 0.5-0.5V9s0-0.5 0.5-0.5 0.5 0.5 0.5 0.5v1.5s0 0.5 0.5 0.5 0.5-0.5 0.5-0.5V8s0-0.5 0.5-0.5 0.5 0.5 0.5 0.5v1c1.1 0 2 0.9 2 2z" fill="hsl(236, 6%, 48%)"/></g></svg>