<svg xmlns="http://www.w3.org/2000/svg" id="wetland" width="16" height="16" viewBox="0 0 16 16"><g><path d="M6.32,14H2.18A.26.26,0,0,1,2,13.7a.24.24,0,0,1,.18-.2H6.31a.25.25,0,0,1,.18.3A.24.24,0,0,1,6.32,14Zm5-9H7.18A.26.26,0,0,1,7,4.7a.24.24,0,0,1,.18-.2h4.13a.25.25,0,0,1,.18.3A.24.24,0,0,1,11.32,5ZM4.25,14A.25.25,0,0,1,4,13.93l-1.47-1.5a.2546.2546,0,0,1,.36-.36l1.32,1.32,1.32-1.32a.2546.2546,0,0,1,.36.36l-1.5,1.5A.24.24,0,0,1,4.25,14ZM4.2,14a.24.24,0,0,1-.2-.25V11.3a.25.25,0,1,1,.49,0v2.45a.24.24,0,0,1-.22.25ZM14.79,9.5H13.31a.25.25,0,0,1-.3082-.1732L13,9.32h0a.25.25,0,0,1,.1638-.3133L13.19,9H14.8a.25.25,0,1,1-.01.5ZM9.22,5h0A.26.26,0,0,1,9,4.89L8,3.36a.26.26,0,0,1,.1049-.3524L8.12,3h0a.27.27,0,0,1,.29.06l.81,1.23L10,3.08a.27.27,0,0,1,.37,0,.26.26,0,0,1,.06.28l-1,1.53A.26.26,0,0,1,9.22,5Z" fill="hsl(186, 61%, 82%)"/><path d="M0,0 H16 V16 H0 Z" fill="none"/></g></svg>