<svg xmlns="http://www.w3.org/2000/svg" id="windmill-15" width="21" height="21" viewBox="0 0 21 21"><g><path d="M0,0 H21 V21 H0 Z" fill="none"/><path d="M9 8L6.5 10.5l1 1L10 9v-0.5l0.5-0.5 0.5 0.5V9l2.5 2.5 1-1L12 8h-0.5L11 7.5l0.5-0.5H12l2.5-2.5-1-1L11 6v0.5l-0.5 0.5-0.5-0.5V6L7.5 3.5l-1 1L9 7h0.5l0.5 0.5-0.5 0.5H9z m5.5 8h-1l-1-4-2-2-2 2-1 4h-1a0.5 0.5 0 1 0 0 1h8a0.5 0.5 0 0 0 0-1zM11 16H10v-1.502c0-0.275 0.223-0.498 0.498-0.498 0.277 0 0.502 0.225 0.502 0.502V16z" fill="hsl(236, 6%, 48%)" stroke="hsl(60, 5%, 100%)" stroke-linejoin="round" stroke-miterlimit="4px" stroke-width="2"/><path d="M9 8L6.5 10.5l1 1L10 9v-0.5l0.5-0.5 0.5 0.5V9l2.5 2.5 1-1L12 8h-0.5L11 7.5l0.5-0.5H12l2.5-2.5-1-1L11 6v0.5l-0.5 0.5-0.5-0.5V6L7.5 3.5l-1 1L9 7h0.5l0.5 0.5-0.5 0.5H9z m5.5 8h-1l-1-4-2-2-2 2-1 4h-1a0.5 0.5 0 1 0 0 1h8a0.5 0.5 0 0 0 0-1zM11 16H10v-1.502c0-0.275 0.223-0.498 0.498-0.498 0.277 0 0.502 0.225 0.502 0.502V16z" fill="hsl(236, 6%, 48%)"/></g></svg>