<svg xmlns="http://www.w3.org/2000/svg" id="windmill-11" width="17" height="17" viewBox="0 0 17 17"><g><path d="M0,0 H17 V17 H0 Z" fill="none"/><path d="M9.375 6.938000000000001L8.937000000000001 6.5l0.438-0.438h0.438L12 3.876 11.125 3 8.937000000000001 5.188000000000001v0.437l-0.437 0.438-0.438-0.438v-0.438L5.8759999999999994 3 5 3.875l2.188 2.188h0.437l0.438 0.437-0.438 0.438h-0.438L5 9.123999999999999 5.875 10l2.188-2.188v-0.437l0.437-0.438 0.438 0.438v0.438L11.124 10 12 9.125 9.812000000000001 6.936999999999999h-0.437zM11.5 13H11L10 10.5 8.5 9 7 10.5 6 13h-0.5a0.5 0.5 0 1 0 0 1h6a0.5 0.5 0 0 0 0-1zM9 12.972a0.028 0.028 0 0 1-0.028 0.028h-0.944A0.028 0.028 0 0 1 8 12.972V12a0.5 0.5 0 1 1 1 0v0.972z" fill="hsl(236, 6%, 48%)" stroke="hsl(60, 5%, 100%)" stroke-linejoin="round" stroke-miterlimit="4px" stroke-width="2"/><path d="M9.375 6.938000000000001L8.937000000000001 6.5l0.438-0.438h0.438L12 3.876 11.125 3 8.937000000000001 5.188000000000001v0.437l-0.437 0.438-0.438-0.438v-0.438L5.8759999999999994 3 5 3.875l2.188 2.188h0.437l0.438 0.437-0.438 0.438h-0.438L5 9.123999999999999 5.875 10l2.188-2.188v-0.437l0.437-0.438 0.438 0.438v0.438L11.124 10 12 9.125 9.812000000000001 6.936999999999999h-0.437zM11.5 13H11L10 10.5 8.5 9 7 10.5 6 13h-0.5a0.5 0.5 0 1 0 0 1h6a0.5 0.5 0 0 0 0-1zM9 12.972a0.028 0.028 0 0 1-0.028 0.028h-0.944A0.028 0.028 0 0 1 8 12.972V12a0.5 0.5 0 1 1 1 0v0.972z" fill="hsl(236, 6%, 48%)"/></g></svg>