<svg xmlns="http://www.w3.org/2000/svg" id="zoo-15" width="21" height="21" viewBox="0 0 21 21"><g><path d="M0,0 H21 V21 H0 Z" fill="none"/><path d="M11.388 6.893S10.682 8 10 8H7.5c-0.682 0-1.298 0.409-1.773 0.864L3.5 11c-0.269 0.258-0.493 0.768-0.5 1-0.016 0.5 0 1 0 1s1 0 1-1v-0.5l1-1h0.5l0.158 0.29s-0.954 1.824-0.954 3.528c0 0.682 0.682 0.682 0.682 0.682h0.682s0.341 0 0-0.34l-0.34-0.342C5.727 13.636 6.5 12.667 7 12c0 0 0.017 1.158 0 2-0.008 0.41 0.272 1 0.682 1h0.682s0.34 0 0-0.34l-0.341-0.342C7.71 13.75 8.5 11.5 8.5 11.5c1.272 0 1.5 0.5 3 0.5l0.364 2.318c0.111 0.71 0.636 0.682 0.636 0.682H14c0.34 0 0.961-0.311 0.34-0.774L14 14V12c1.214-0.172 2-1 2-2h1c0.321 0 1 0 1-0.5v-1l-1.704-1.682C15.543 6.077999999999999 15 5.5 14 5.5c-1.453 0-2.136 0.569-2.612 1.393z" fill="hsl(236, 6%, 48%)" stroke="hsl(60, 5%, 100%)" stroke-linejoin="round" stroke-miterlimit="4px" stroke-width="2"/><path d="M11.388 6.893S10.682 8 10 8H7.5c-0.682 0-1.298 0.409-1.773 0.864L3.5 11c-0.269 0.258-0.493 0.768-0.5 1-0.016 0.5 0 1 0 1s1 0 1-1v-0.5l1-1h0.5l0.158 0.29s-0.954 1.824-0.954 3.528c0 0.682 0.682 0.682 0.682 0.682h0.682s0.341 0 0-0.34l-0.34-0.342C5.727 13.636 6.5 12.667 7 12c0 0 0.017 1.158 0 2-0.008 0.41 0.272 1 0.682 1h0.682s0.34 0 0-0.34l-0.341-0.342C7.71 13.75 8.5 11.5 8.5 11.5c1.272 0 1.5 0.5 3 0.5l0.364 2.318c0.111 0.71 0.636 0.682 0.636 0.682H14c0.34 0 0.961-0.311 0.34-0.774L14 14V12c1.214-0.172 2-1 2-2h1c0.321 0 1 0 1-0.5v-1l-1.704-1.682C15.543 6.077999999999999 15 5.5 14 5.5c-1.453 0-2.136 0.569-2.612 1.393z" fill="hsl(236, 6%, 48%)"/></g></svg>