<svg xmlns="http://www.w3.org/2000/svg" id="zoo-11" width="17" height="17" viewBox="0 0 17 17"><g><path d="M0,0 H17 V17 H0 Z" fill="none"/><path d="M11 5c-0.9 0-1.5 0.5-1.8 1.1 0 0-0.7 0.9-1.2 0.9H6c-0.5 0-1 0.5-1 0.5l-2 2V10h0.5l1.2-1.2 0.2 0.2S4 10.7 4 12c0 0.5 0.5 0.5 0.5 0.5H5s0.2 0 0-0.2l-0.2-0.2c0-0.5 0.8-1.4 1.2-1.9v1.4c0 0.3 0.111 0.9 0.411 0.9h0.5s0.2 0 0-0.2l-0.2-0.2c-0.2-0.4 0.589-1.6 0.589-1.6h1.8L9.6 12c0.2 0.5 0.5 0.5 0.5 0.5h1c0.2 0 0.7-0.2 0.2-0.5l-0.2-0.2V10c1 0 1.1-1.3 1.5-1.7l0.7-0.1c0.2 0 0.8-0.2 0.8-0.8V7L12.9 6C12.4 5.4 11.7 5 11 5z" fill="hsl(236, 6%, 48%)" stroke="hsl(60, 5%, 100%)" stroke-linejoin="round" stroke-miterlimit="4px" stroke-width="2"/><path d="M11 5c-0.9 0-1.5 0.5-1.8 1.1 0 0-0.7 0.9-1.2 0.9H6c-0.5 0-1 0.5-1 0.5l-2 2V10h0.5l1.2-1.2 0.2 0.2S4 10.7 4 12c0 0.5 0.5 0.5 0.5 0.5H5s0.2 0 0-0.2l-0.2-0.2c0-0.5 0.8-1.4 1.2-1.9v1.4c0 0.3 0.111 0.9 0.411 0.9h0.5s0.2 0 0-0.2l-0.2-0.2c-0.2-0.4 0.589-1.6 0.589-1.6h1.8L9.6 12c0.2 0.5 0.5 0.5 0.5 0.5h1c0.2 0 0.7-0.2 0.2-0.5l-0.2-0.2V10c1 0 1.1-1.3 1.5-1.7l0.7-0.1c0.2 0 0.8-0.2 0.8-0.8V7L12.9 6C12.4 5.4 11.7 5 11 5z" fill="hsl(236, 6%, 48%)"/></g></svg>